<?xml version="1.0" encoding="utf-8"?>
<!-- Generator: Adobe Illustrator 23.0.0, SVG Export Plug-In . SVG Version: 6.00 Build 0)  -->
<svg version="1.1" id="Layer_1" xmlns="http://www.w3.org/2000/svg" xmlns:xlink="http://www.w3.org/1999/xlink" x="0px" y="0px"
	 viewBox="0 0 1080 1080" style="enable-background:new 0 0 1080 1080;" xml:space="preserve">
<style type="text/css">
	.st0{fill:#FFFFFF;}
	.st1{fill:none;stroke:#FFFFFF;stroke-width:18;stroke-miterlimit:10;}
</style>
<title>1o1</title>
<path class="st0" d="M165.2,360v173.4c10.1-10.3,18.7-18.9,27-27.9c1.3-1.4,1.6-4.2,1.6-6.3c0.1-34.9,0.1-69.7,0-104.6
	c0-2.8-1-5.5-2.7-7.8C183.2,378.3,175,370.1,165.2,360z"/>
<path class="st0" d="M165.3,545.6V720c10.1-10.6,18.5-19,26.4-27.9c1.7-1.9,2.2-5.3,2.2-8c0.1-34.3,0.1-68.5,0-102.8
	c0-2.7-0.5-6.2-2.2-8C183.8,564.4,175.3,555.9,165.3,545.6z"/>
<path class="st0" d="M914.8,360v173.4c-10.1-10.3-18.7-18.9-27-27.9c-1.3-1.4-1.6-4.2-1.6-6.3c-0.1-34.9-0.1-69.7,0-104.6
	c0-2.8,1-5.5,2.7-7.8C896.8,378.3,905,370.1,914.8,360z"/>
<path class="st0" d="M914.7,545.6V720c-10.1-10.6-18.5-19-26.4-27.9c-1.7-1.9-2.2-5.3-2.2-8c-0.1-34.3-0.1-68.5,0-102.8
	c0-2.7,0.5-6.2,2.2-8C896.3,564.4,904.7,555.9,914.7,545.6z"/>
<circle class="st1" cx="540" cy="540" r="85.1"/>
</svg>
