<svg xmlns="http://www.w3.org/2000/svg" viewBox="0 0 1080 1080"><defs><style>.cls-1{fill:none;stroke:#000;stroke-miterlimit:10;stroke-width:18px;}</style></defs><title>1o5</title><g id="Layer_2" data-name="Layer 2"><path d="M166.39,365.65V533.59c9.79-10,18.14-18.34,26.18-27,1.27-1.37,1.57-4,1.57-6.11q.15-50.65,0-101.29a12.07,12.07,0,0,0-2.61-7.51C183.89,383.38,175.88,375.42,166.39,365.65Z"/><path d="M166.52,545.43V714.35c9.77-10.23,17.91-18.43,25.58-27,1.62-1.82,2.12-5.15,2.13-7.78q.21-49.78,0-99.56c0-2.63-.49-6-2.1-7.77C184.38,563.6,176.18,555.43,166.52,545.43Z"/><path d="M982.44,360c-15.45,21.87-35.72,30.53-63,27.3-20.69-2.46-41.91-.25-62.89-.72a19.16,19.16,0,0,1-11.5-4.79c-7.48-6.8-14.17-14.47-21.17-21.79Z"/><path d="M829.08,540.35c11.2-12.34,23.7-18,40.56-16.78a470,470,0,0,0,67.34,0c16.45-1.19,27.91,5.34,38.81,16.85-9.69,8.45-18.11,17.27-33.44,16.42-24.79-1.37-49.71-.37-74.57-.37C845.86,556.47,845.69,556.4,829.08,540.35Z"/><path d="M815.23,531.88V377.6l1.85-1.61c7.84,8.33,15.82,16.55,23.41,25.1,1.31,1.48,1.32,4.43,1.33,6.71q.12,47.18,0,94.35c0,2.52-.4,5.7-1.91,7.43-7.2,8.26-14.85,16.13-22.34,24.14Z"/><path d="M988.86,704.82c-8.37-8.58-15.68-15.71-22.49-23.29A14.12,14.12,0,0,1,963,673q-.36-47.26,0-94.54a14.05,14.05,0,0,1,3.38-8.54c6.84-7.55,14.2-14.63,22.52-23Z"/><path d="M981.86,720H822.65c9.24-9,16.89-16.83,25-24.17,1.69-1.55,4.89-2,7.39-2,31.5-.13,63-.18,94.49.05a14.26,14.26,0,0,1,8.65,3.31C965.73,703.94,972.86,711.24,981.86,720Z"/><circle class="cls-1" cx="540" cy="540" r="85.14"/></g></svg>