<svg id="Layer_1" data-name="Layer 1" xmlns="http://www.w3.org/2000/svg" viewBox="0 0 1603.27 76.32"><defs><style>.cls-1{fill:#16474c;}.cls-2{fill:#fff;stroke:#fff;stroke-miterlimit:10;stroke-width:2.41px;}</style></defs><title>bande-mar</title><polygon class="cls-1" points="1602.06 0 2.68 0 2.45 76.31 1602.06 76.31 1602.06 0"/><path class="cls-2" d="M884.13,7.62c-1.74,3.44-4.52,5.63-8.59,5.6-1.46,0-2.1.52-1.91,2,0,.24,0,.49,0,.72.45,3.06-.26,4.93-3.61,6.3-2.68,1.09-4.64,4-7.07,6.16a12.33,12.33,0,0,0-1.74-2.46c-1.64-1.5-3.25-3.34-5.23-4.08-2.64-1-3.21-2.41-3-4.95.24-3.28.06-3.24-3.31-3.78-4.19-.68-6.52-3.54-8-7.21a29.13,29.13,0,0,1-1-4h-3.86a44.17,44.17,0,0,1-2.39,6.5,8.63,8.63,0,0,1-7.86,4.75c-1.71,0-2.37.62-2.14,2.27,0,.16,0,.33,0,.49.47,3.06-.33,4.9-3.63,6.27-2.67,1.12-4.63,4-6.1,5.32-1.9-1.49-3.9-3.91-6.45-4.87-4-1.49-5.16-3.82-4.51-7.71.08-.49-.7-1.61-1.11-1.63-7.39-.25-10-5.12-11.21-11.39h-3.87a44.14,44.14,0,0,1-2.38,6.5A8.77,8.77,0,0,1,777,13.21c-1.48,0-2.08.56-1.9,2,0,.16,0,.33,0,.48.58,3.29-.39,5.22-3.8,6.66-2.61,1.11-4.5,3.88-6.82,6a16,16,0,0,0-1.92-2.59c-1.51-1.42-3-3.21-4.84-3.82-2.88-1-3.72-2.55-3.25-5.27.43-2.45-.34-3.46-3.09-3.63-4.33-.26-6.75-3.35-8.26-7.14a32.39,32.39,0,0,1-1-4h-3.86c-.86,2.32-1.42,4.8-2.65,6.9A8.37,8.37,0,0,1,728,13.19c-1.66,0-2.41.57-2.17,2.25,0,.08,0,.16,0,.24.63,3.3-.43,5.19-3.78,6.66-2.6,1.14-4.5,3.89-6.82,6a13.92,13.92,0,0,0-1.66-2.25c-1.55-1.48-3-3.51-4.92-4.07-3.36-1-3.82-3-3.43-5.88.27-2-.24-3-2.63-3.05-4.62-.14-7.1-3.31-8.73-7.22a27.06,27.06,0,0,1-1-4H689a37.46,37.46,0,0,1-1.89,5.68c-1.74,3.44-4.52,5.63-8.58,5.6-1.47,0-2.1.52-1.92,2,0,.24,0,.49,0,.73.52,3.08-.3,4.9-3.6,6.28-2.68,1.12-4.64,3.95-7.07,6.17a12.56,12.56,0,0,0-1.75-2.46c-1.64-1.5-3.25-3.35-5.23-4.08-2.65-1-3.21-2.42-3-5,.23-3.26.06-3.23-3.32-3.77-4.19-.68-6.52-3.53-8-7.21a32.39,32.39,0,0,1-1-4H639.7a41.6,41.6,0,0,1-2.38,6.5,8.68,8.68,0,0,1-7.86,4.76c-1.7,0-2.38.61-2.15,2.26,0,.16,0,.32,0,.48.47,3.07-.34,4.89-3.63,6.28-2.67,1.12-4.63,4-6.13,5.34-1.89-1.5-3.88-3.94-6.42-4.89-4-1.48-5.1-3.86-4.51-7.71.07-.5-.71-1.61-1.12-1.63-7.39-.25-10-5.12-11.21-11.39h-1.93V9.67c2.55,3.42,5.15,6.76,9.64,7.85.35.08.61,1.17.64,1.81.09,1.83,0,3.66,0,5.43,8.76,1.52,12.45,5.57,12.4,13.3S611.29,50,602.67,51.44c0,1.78.09,3.62,0,5.44,0,.66-.5,1.7-1,1.83-4.36,1.21-7,4.39-9.27,7.95v7.71h2c.44-6.82,4.42-10.72,12.35-11.81,0-1.86-.09-3.77,0-5.67a2.25,2.25,0,0,1,1.07-1.72c4.11-1.28,6.81-4.11,9.14-8a10.38,10.38,0,0,0,1.53,2.2,54.78,54.78,0,0,0,7.13,5.46c1.26.74,1.77,1.28,1.71,2.63-.07,1.68,0,3.36,0,5.29,4.1-.17,7.41,1.07,9.73,4.38a14.66,14.66,0,0,1,2.6,7.26h4c.47-6.86,4.41-10.71,12.34-11.81,0-1.78-.05-3.61,0-5.44,0-.64.29-1.73.65-1.82,4.41-1.17,7.22-4.23,9.63-8.16,2.39,4,5.22,7,9.64,8.16.36.09.61,1.19.64,1.83.08,1.83,0,3.66,0,5.44,7.9,1,11.83,4.82,12.33,11.8h4c.46-6.92,4.4-10.78,12.34-11.8,0-1.86-.07-3.77,0-5.67,0-.6.43-1.58.84-1.69,4.33-1.17,7.06-4.21,9.43-8.05,2.41,3.91,5.21,7,9.64,8.14.35.09.6,1.19.63,1.83.09,1.82,0,3.65,0,5.44,8,1.07,11.83,4.81,12.34,11.8h4c.45-6.92,4.69-11.11,12.33-11.73,0-1.75,0-3.55,0-5.35a2,2,0,0,1,1.67-2.38c3.44-1.06,5-2.56,8.65-7.56a18.43,18.43,0,0,0,2.6,3.35,34,34,0,0,0,6.08,4.15c1.21.61,1.74,1.08,1.66,2.41-.1,1.75,0,3.5,0,5.2,8.26,1.67,11.93,5.18,12.35,11.91h3.95c.44-6.84,4.43-10.76,12.35-11.8,0-1.86-.07-3.76,0-5.66,0-.6.42-1.57.83-1.68,4.31-1.19,7-4.22,9.44-8,2.36,3.85,5.13,6.84,9.43,8,.42.11.8,1.1.84,1.7.11,1.9,0,3.81,0,5.67,7.84.89,11.83,4.78,12.32,11.77h4c.47-6.89,4.45-10.79,12.35-11.79,0-1.86-.07-3.77,0-5.67,0-.6.42-1.58.83-1.69,4.33-1.17,7.05-4.22,9.12-7.58,2.25,2.14,4.1,5.12,6.68,6,3.92,1.41,4.37,3.72,3.95,7.05a5.89,5.89,0,0,0,.1,1.44,1.65,1.65,0,0,0,.21.42c7.63,1,11.54,4.87,12,11.77h2V66.66c-2.26-3.61-5-6.68-9.25-8-.48-.15-.93-1.17-1-1.81-.13-1.82-.05-3.66-.05-5.44-8.46-1.28-12.34-5.47-12.42-13.13-.08-8,3.5-12,12.4-13.53,0-1.85,0-3.76,0-5.67,0-.55.3-1.5.63-1.58,4.46-1.11,7.11-4.39,9.64-7.84V1.94H886A38.6,38.6,0,0,1,884.13,7.62ZM651.83,51.45c0,2.17.73,4.79-.21,6.51s-3.71,1.94-5.34,3.27a44.45,44.45,0,0,0-4.62,5c-1.6-1.71-3.31-3.55-5-5.37a2.12,2.12,0,0,0-1-.66c-4.18-.91-4.92-3.77-4.31-7.45a4.26,4.26,0,0,0-.19-1.36c-8.69-1.45-12.51-6-12.17-14.33.29-7.24,4.44-11.46,12.38-12.18,0-1.82-.08-3.71,0-5.58,0-.66.43-1.73.88-1.86,4.2-1.27,7-4.09,9.38-8.25,2.4,4.25,5.49,7.34,10.34,8.43v7.15c8.64,1.4,12.34,5.4,12.38,13.06C664.37,45.82,660.65,50,651.83,51.45Zm49.31,0c0,2.09.72,4.65-.2,6.29s-3.64,2-5.25,3.36a56.33,56.33,0,0,0-5,5.35c-2.13-3.7-5.06-6.64-9.38-7.92-.36-.11-.65-1-.68-1.57-.08-1.83,0-3.67,0-5.61-8.18-.95-12.31-5.4-12.4-13-.11-8.09,3.68-12.34,12.4-13.55,0-1.86-.07-3.77,0-5.67a2.4,2.4,0,0,1,.81-1.71c1.75-1.09,3.81-1.78,5.39-3.06s2.72-3.08,4.22-4.85c2.2,3.8,5.1,6.78,9.48,8,.34.1.61,1,.64,1.58.07,1.91,0,3.83,0,5.67,8.85,1.56,12.39,5.45,12.39,13.32S709.89,49.92,701.14,51.47Zm61.72-13c-.14,7.48-4,11.59-12.38,12.94,0,1.77.09,3.6,0,5.42-.05.65-.5,1.7-1,1.84-4.21,1.25-7,4.15-9.19,8A29,29,0,0,0,737.46,63c-1.39-1.31-2.85-2.91-4.56-3.41-2.82-.81-3.38-2.39-3.07-4.9a25.71,25.71,0,0,0,0-3.28c-8.87-1.57-12.5-5.71-12.4-13.84.09-7.49,3.89-11.52,12.34-12.81v-7c5.09-1.91,5.1-1.92,10.52-8.34,2.22,3.85,5,6.7,9.21,8,.46.14.87,1.19.91,1.84.13,1.83,0,3.66,0,5.43C759.54,26.56,763,30.5,762.86,38.49Zm36.86,12.95c0,1.78.09,3.62,0,5.44,0,.65-.5,1.69-1,1.83-4.23,1.23-7,4.16-9.07,7.77-1.69-1.86-3.28-3.71-5-5.44a4.94,4.94,0,0,0-2.45-1.49c-3.12-.5-3.36-2.55-3.09-5.06a28.73,28.73,0,0,0,0-3.08c-8.82-.15-12.42-6.86-12.38-13.57,0-7.73,3.74-11.69,12.37-13.06,0-1.77-.05-3.6,0-5.42,0-.65.19-1.58.63-1.85,1.82-1.13,4-1.82,5.6-3.14s2.71-3.08,4-4.56c1.73,1.84,3.46,3.69,5.22,5.5a2.48,2.48,0,0,0,1.2.78c4.12.69,4.44,3.53,4,6.87a8.13,8.13,0,0,0,.16,1.84c8.54,1.44,12.25,5.51,12.21,13.26S808.34,50,799.72,51.44ZM861.37,39c-.29,7.24-4.26,11.32-12.64,12.48,1.63,5.07-.68,7.72-5.13,9.67-2,.88-3.31,3.37-5.05,5.26a21.68,21.68,0,0,0-2.4-3.11c-1.51-1.4-3.06-3.08-4.91-3.71-2.48-.85-3.2-2.14-2.89-4.52a25.75,25.75,0,0,0,0-3.51c-9.28-2.09-12.78-6.29-12.38-14.6.35-7.12,4.21-11,12.37-12.09,0-1.86-.06-3.77,0-5.67,0-.6.39-1.58.79-1.7,4.29-1.22,7.11-4.15,9.3-7.9A44.4,44.4,0,0,0,843,14.63c1.63,1.34,3.68,2.18,6,3.47v6.6C858.27,26.67,861.71,30.7,861.37,39Z"/><path class="cls-2" d="M1173.89,17.51c4.46-1.11,7.11-4.39,9.64-7.84V1.94h-1.93a37.46,37.46,0,0,1-1.89,5.68c-1.74,3.44-4.52,5.63-8.59,5.6-1.45,0-2.09.52-1.91,2,0,.24,0,.49,0,.72.45,3.06-.26,4.93-3.61,6.3-2.67,1.09-4.63,4-7.07,6.16a12.33,12.33,0,0,0-1.74-2.46c-1.63-1.5-3.25-3.34-5.23-4.08-2.64-1-3.21-2.41-3-4.95.24-3.28.07-3.24-3.31-3.78-4.18-.68-6.52-3.54-8-7.21a30.67,30.67,0,0,1-1-4h-3.86a44.14,44.14,0,0,1-2.38,6.5,8.65,8.65,0,0,1-7.87,4.75c-1.7,0-2.37.62-2.14,2.27,0,.16,0,.33,0,.49.46,3.06-.33,4.9-3.64,6.27-2.67,1.12-4.62,4-6.1,5.32-1.9-1.49-3.9-3.91-6.44-4.87-4-1.49-5.16-3.82-4.52-7.71.09-.49-.7-1.61-1.11-1.63-7.39-.25-10-5.12-11.21-11.39h-3.86a44.17,44.17,0,0,1-2.39,6.5,8.75,8.75,0,0,1-8.1,4.77c-1.49,0-2.08.56-1.91,2,0,.16,0,.33,0,.48.58,3.29-.4,5.22-3.81,6.66-2.6,1.11-4.5,3.88-6.81,6a16.12,16.12,0,0,0-1.93-2.59c-1.5-1.42-3-3.21-4.84-3.82-2.88-1-3.72-2.55-3.24-5.27.42-2.45-.35-3.46-3.09-3.63-4.34-.26-6.75-3.35-8.26-7.14a30.67,30.67,0,0,1-1-4h-3.87c-.86,2.32-1.42,4.8-2.65,6.9a8.34,8.34,0,0,1-7.58,4.35c-1.66,0-2.41.57-2.17,2.25,0,.08,0,.16,0,.24.62,3.3-.43,5.19-3.79,6.66-2.6,1.14-4.5,3.89-6.82,6a13.34,13.34,0,0,0-1.66-2.25c-1.55-1.48-3-3.51-4.92-4.07-3.36-1-3.82-3-3.43-5.88.27-2-.24-3-2.63-3.05-4.61-.14-7.09-3.31-8.73-7.22a27.06,27.06,0,0,1-1-4h-3.86a39.82,39.82,0,0,1-1.89,5.68c-1.75,3.44-4.52,5.63-8.59,5.6-1.47,0-2.1.52-1.91,2,0,.24,0,.49,0,.73.52,3.08-.3,4.9-3.6,6.28-2.67,1.12-4.64,3.95-7.07,6.17a12.56,12.56,0,0,0-1.75-2.46c-1.63-1.5-3.25-3.35-5.23-4.08-2.64-1-3.2-2.42-3-5,.23-3.26.06-3.23-3.31-3.77-4.2-.68-6.52-3.53-8-7.21a29.13,29.13,0,0,1-1-4h-3.87a42.6,42.6,0,0,1-2.37,6.5A8.69,8.69,0,0,1,925,13.2c-1.7,0-2.37.61-2.14,2.26,0,.16,0,.32,0,.48.47,3.07-.34,4.89-3.62,6.28-2.68,1.12-4.63,4-6.14,5.34-1.88-1.5-3.87-3.94-6.42-4.89-4-1.48-5.1-3.86-4.51-7.71.08-.5-.71-1.61-1.12-1.63-7.39-.25-10-5.12-11.21-11.39H888V9.67c2.56,3.42,5.16,6.76,9.65,7.85.35.08.61,1.17.63,1.81.09,1.83,0,3.66,0,5.43,8.76,1.52,12.45,5.57,12.4,13.3S906.87,50,898.25,51.44c0,1.78.09,3.62,0,5.44-.05.66-.51,1.7-1,1.83-4.36,1.21-7,4.39-9.27,7.95v7.71h2c.44-6.82,4.42-10.72,12.35-11.81,0-1.86-.09-3.77.05-5.67a2.24,2.24,0,0,1,1.08-1.72c4.1-1.28,6.81-4.11,9.13-8a10.76,10.76,0,0,0,1.53,2.2,54.78,54.78,0,0,0,7.13,5.46c1.27.74,1.77,1.28,1.71,2.63-.07,1.68,0,3.36,0,5.29,4.1-.17,7.42,1.07,9.73,4.38a14.56,14.56,0,0,1,2.6,7.26h4c.46-6.86,4.41-10.71,12.33-11.81,0-1.78,0-3.61,0-5.44,0-.64.29-1.73.65-1.82,4.42-1.17,7.22-4.23,9.63-8.16,2.4,4,5.23,7,9.64,8.16.36.09.61,1.19.64,1.83.08,1.83,0,3.66,0,5.44,7.9,1,11.83,4.82,12.34,11.8h4c.46-6.92,4.4-10.78,12.34-11.8,0-1.86-.07-3.77,0-5.67,0-.6.43-1.58.85-1.69,4.32-1.17,7-4.21,9.43-8.05,2.41,3.91,5.21,7,9.63,8.14.36.09.6,1.19.63,1.83.09,1.82,0,3.65,0,5.44,8,1.07,11.83,4.81,12.34,11.8h4c.45-6.92,4.68-11.11,12.33-11.73,0-1.75,0-3.55,0-5.35a2,2,0,0,1,1.67-2.38c3.44-1.06,5-2.56,8.65-7.56A18.47,18.47,0,0,0,1063,50.7a33.34,33.34,0,0,0,6.08,4.15c1.2.61,1.74,1.08,1.66,2.41-.1,1.75,0,3.5,0,5.2,8.26,1.67,11.93,5.18,12.36,11.91H1087c.44-6.84,4.44-10.76,12.35-11.8,0-1.86-.06-3.76,0-5.66,0-.6.42-1.57.84-1.68,4.3-1.19,7-4.22,9.43-8,2.36,3.85,5.14,6.84,9.44,8,.41.11.8,1.1.83,1.7.11,1.9,0,3.81,0,5.67,7.84.89,11.83,4.78,12.33,11.77h4c.47-6.89,4.46-10.79,12.35-11.79,0-1.86-.07-3.77,0-5.67,0-.6.42-1.58.83-1.69,4.33-1.17,7-4.22,9.12-7.58,2.26,2.14,4.1,5.12,6.69,6,3.91,1.41,4.36,3.72,3.94,7.05a5.89,5.89,0,0,0,.1,1.44,1.65,1.65,0,0,0,.21.42c7.64,1,11.54,4.87,12,11.77h2V66.66c-2.26-3.61-5-6.68-9.24-8-.49-.15-.94-1.17-1-1.81-.13-1.82,0-3.66,0-5.44-8.47-1.28-12.35-5.47-12.43-13.13-.08-8,3.5-12,12.4-13.53,0-1.85,0-3.76,0-5.67C1173.29,18.54,1173.56,17.59,1173.89,17.51ZM947.41,51.45c0,2.17.73,4.79-.21,6.51s-3.71,1.94-5.34,3.27a44.45,44.45,0,0,0-4.62,5c-1.6-1.71-3.31-3.55-5-5.37a2.12,2.12,0,0,0-1-.66c-4.18-.91-4.92-3.77-4.3-7.45a4.57,4.57,0,0,0-.2-1.36c-8.68-1.45-12.51-6-12.17-14.33.3-7.24,4.44-11.46,12.38-12.18,0-1.82-.07-3.71,0-5.58,0-.66.43-1.73.89-1.86,4.19-1.27,7-4.09,9.37-8.25,2.4,4.25,5.49,7.34,10.34,8.43v7.15c8.64,1.4,12.34,5.4,12.38,13.06C960,45.82,956.23,50,947.41,51.45Zm49.32,0c0,2.09.71,4.65-.21,6.29s-3.64,2-5.25,3.36a56.33,56.33,0,0,0-5,5.35c-2.12-3.7-5-6.64-9.38-7.92-.36-.11-.65-1-.68-1.57-.08-1.83,0-3.67,0-5.61-8.18-.95-12.3-5.4-12.4-13-.11-8.09,3.68-12.34,12.4-13.55,0-1.86-.06-3.77,0-5.67a2.39,2.39,0,0,1,.8-1.71c1.76-1.09,3.81-1.78,5.39-3.06s2.72-3.08,4.22-4.85c2.2,3.8,5.1,6.78,9.48,8,.34.1.62,1,.64,1.58.08,1.91,0,3.83,0,5.67,8.85,1.56,12.39,5.45,12.39,13.32S1005.47,49.92,996.73,51.47Zm61.71-13c-.14,7.48-4,11.59-12.38,12.94,0,1.77.09,3.6,0,5.42,0,.65-.5,1.7-1,1.84-4.21,1.25-7,4.15-9.18,8A29,29,0,0,0,1033,63c-1.38-1.31-2.85-2.91-4.56-3.41-2.82-.81-3.38-2.39-3.06-4.9a27.66,27.66,0,0,0,0-3.28c-8.86-1.57-12.5-5.71-12.4-13.84.09-7.49,3.9-11.52,12.34-12.81v-7c5.09-1.91,5.1-1.92,10.52-8.34,2.22,3.85,5,6.7,9.22,8,.46.14.86,1.19.91,1.84.12,1.83,0,3.66,0,5.43C1055.12,26.56,1058.59,30.5,1058.44,38.49Zm36.87,12.95c0,1.78.08,3.62,0,5.44,0,.65-.5,1.69-1,1.83-4.23,1.23-6.94,4.16-9.07,7.77-1.69-1.86-3.27-3.71-5-5.44a5,5,0,0,0-2.44-1.49c-3.13-.5-3.37-2.55-3.1-5.06a28.73,28.73,0,0,0,0-3.08c-8.81-.15-12.42-6.86-12.38-13.57,0-7.73,3.74-11.69,12.37-13.06,0-1.77,0-3.6,0-5.42,0-.65.2-1.58.63-1.85,1.82-1.13,4-1.82,5.6-3.14s2.71-3.08,4-4.56c1.74,1.84,3.46,3.69,5.22,5.5a2.48,2.48,0,0,0,1.2.78c4.12.69,4.44,3.53,4,6.87a8.75,8.75,0,0,0,.16,1.84c8.54,1.44,12.25,5.51,12.21,13.26S1103.92,50,1095.31,51.44ZM1157,39c-.3,7.24-4.26,11.32-12.65,12.48,1.63,5.07-.68,7.72-5.13,9.67-2,.88-3.31,3.37-5,5.26a20.88,20.88,0,0,0-2.39-3.11c-1.52-1.4-3.07-3.08-4.92-3.71-2.48-.85-3.2-2.14-2.88-4.52a27.45,27.45,0,0,0,0-3.51c-9.28-2.09-12.78-6.29-12.38-14.6.35-7.12,4.21-11,12.38-12.09,0-1.86-.07-3.77,0-5.67,0-.6.39-1.58.79-1.7,4.29-1.22,7.12-4.15,9.31-7.9a42.58,42.58,0,0,0,4.54,5.07c1.63,1.34,3.67,2.18,5.95,3.47v6.6C1153.86,26.67,1157.29,30.7,1157,39Z"/><path class="cls-2" d="M293,7.62c-1.75,3.44-4.53,5.63-8.59,5.6-1.46,0-2.1.52-1.92,2,0,.24,0,.49,0,.72.46,3.06-.26,4.93-3.6,6.3-2.68,1.09-4.64,4-7.08,6.16a11.93,11.93,0,0,0-1.74-2.46c-1.63-1.5-3.25-3.34-5.23-4.08-2.64-1-3.21-2.41-3-4.95.23-3.28.06-3.24-3.31-3.78-4.19-.68-6.52-3.54-8-7.21a32.39,32.39,0,0,1-1-4h-3.86a43,43,0,0,1-2.38,6.5,8.64,8.64,0,0,1-7.87,4.75c-1.7,0-2.36.62-2.14,2.27,0,.16,0,.33,0,.49.46,3.06-.33,4.9-3.63,6.27-2.68,1.12-4.63,4-6.11,5.32-1.9-1.49-3.9-3.91-6.44-4.87-4-1.49-5.16-3.82-4.51-7.71.08-.49-.71-1.61-1.12-1.63-7.39-.25-10-5.12-11.21-11.39h-3.86a44.17,44.17,0,0,1-2.39,6.5,8.75,8.75,0,0,1-8.1,4.77c-1.49,0-2.08.56-1.91,2,0,.16,0,.33,0,.48.58,3.29-.4,5.22-3.81,6.66-2.6,1.11-4.5,3.88-6.81,6a16.12,16.12,0,0,0-1.93-2.59c-1.5-1.42-3-3.21-4.84-3.82-2.88-1-3.72-2.55-3.24-5.27.43-2.45-.34-3.46-3.09-3.63-4.34-.26-6.75-3.35-8.26-7.14a30.67,30.67,0,0,1-1-4h-3.87c-.85,2.32-1.42,4.8-2.64,6.9a8.37,8.37,0,0,1-7.59,4.35c-1.66,0-2.41.57-2.16,2.25a1.92,1.92,0,0,0,0,.24c.62,3.3-.43,5.19-3.79,6.66-2.6,1.14-4.5,3.89-6.82,6a13.2,13.2,0,0,0-1.65-2.25c-1.56-1.48-3-3.51-4.93-4.07-3.36-1-3.81-3-3.43-5.88.27-2-.23-3-2.63-3.05-4.61-.14-7.09-3.31-8.73-7.22a28.38,28.38,0,0,1-1-4H97.8a38.6,38.6,0,0,1-1.89,5.68c-1.75,3.44-4.52,5.63-8.59,5.6-1.46,0-2.09.52-1.91,2,0,.24,0,.49,0,.73.52,3.08-.31,4.9-3.6,6.28-2.68,1.12-4.64,3.95-7.08,6.17A12.15,12.15,0,0,0,73,25.92c-1.63-1.5-3.24-3.35-5.23-4.08-2.64-1-3.2-2.42-3-5,.24-3.26.06-3.23-3.31-3.77-4.19-.68-6.52-3.53-8-7.21a29.13,29.13,0,0,1-1-4H48.54a43.73,43.73,0,0,1-2.38,6.5,8.69,8.69,0,0,1-7.87,4.76c-1.7,0-2.37.61-2.14,2.26,0,.16,0,.32,0,.48.47,3.07-.34,4.89-3.62,6.28-2.68,1.12-4.63,4-6.14,5.34-1.88-1.5-3.87-3.94-6.41-4.89-4-1.48-5.11-3.86-4.52-7.71.08-.5-.71-1.61-1.12-1.63C7,13.08,4.36,8.21,3.14,1.94H1.2V9.67c2.56,3.42,5.16,6.76,9.65,7.85.35.08.61,1.17.64,1.81.08,1.83,0,3.66,0,5.43,8.75,1.52,12.44,5.57,12.39,13.3S20.13,50,11.5,51.44c0,1.78.09,3.62,0,5.44-.05.66-.51,1.7-1,1.83-4.37,1.21-7,4.39-9.28,7.95v7.71h2c.45-6.82,4.42-10.72,12.35-11.81,0-1.86-.09-3.77.05-5.67a2.26,2.26,0,0,1,1.08-1.72c4.1-1.28,6.81-4.11,9.13-8a11.17,11.17,0,0,0,1.53,2.2,54.78,54.78,0,0,0,7.13,5.46c1.27.74,1.77,1.28,1.72,2.63-.07,1.68,0,3.36,0,5.29,4.1-.17,7.42,1.07,9.73,4.38a14.67,14.67,0,0,1,2.61,7.26h4c.47-6.86,4.41-10.71,12.34-11.81,0-1.78-.06-3.61,0-5.44,0-.64.28-1.73.64-1.82,4.42-1.17,7.22-4.23,9.63-8.16,2.4,4,5.23,7,9.65,8.16.35.09.6,1.19.63,1.83.08,1.83,0,3.66,0,5.44,7.91,1,11.84,4.82,12.34,11.8h4c.46-6.92,4.4-10.78,12.34-11.8,0-1.86-.06-3.77,0-5.67,0-.6.43-1.58.85-1.69,4.33-1.17,7-4.21,9.43-8.05,2.41,3.91,5.21,7,9.63,8.14.36.09.61,1.19.64,1.83.08,1.82,0,3.65,0,5.44,8,1.07,11.83,4.81,12.33,11.8h4c.45-6.92,4.68-11.11,12.33-11.73,0-1.75.05-3.55,0-5.35A2,2,0,0,1,165,54.91c3.45-1.06,5-2.56,8.65-7.56a18.47,18.47,0,0,0,2.61,3.35,33.34,33.34,0,0,0,6.08,4.15c1.2.61,1.74,1.08,1.66,2.41-.1,1.75,0,3.5,0,5.2,8.26,1.67,11.94,5.18,12.36,11.91h3.94c.44-6.84,4.44-10.76,12.35-11.8,0-1.86-.06-3.76,0-5.66,0-.6.43-1.57.84-1.68,4.3-1.19,7-4.22,9.43-8,2.37,3.85,5.14,6.84,9.44,8,.41.11.8,1.1.83,1.7.11,1.9,0,3.81,0,5.67,7.85.89,11.83,4.78,12.33,11.77h4c.47-6.89,4.46-10.79,12.35-11.79,0-1.86-.06-3.77,0-5.67,0-.6.42-1.58.83-1.69,4.33-1.17,7-4.22,9.13-7.58,2.25,2.14,4.09,5.12,6.68,6,3.91,1.41,4.36,3.72,3.94,7.05a6.43,6.43,0,0,0,.1,1.44,1.42,1.42,0,0,0,.22.42c7.63,1,11.53,4.87,12,11.77h2V66.66c-2.27-3.61-5-6.68-9.25-8-.48-.15-.94-1.17-1-1.81-.13-1.82,0-3.66,0-5.44C278,50.14,274.16,46,274.08,38.29c-.08-8,3.5-12,12.41-13.53,0-1.85-.05-3.76,0-5.67,0-.55.29-1.5.62-1.58,4.46-1.11,7.11-4.39,9.65-7.84V1.94h-1.94A38.57,38.57,0,0,1,293,7.62ZM60.67,51.45c0,2.17.72,4.79-.22,6.51s-3.71,1.94-5.34,3.27a46.4,46.4,0,0,0-4.62,5c-1.6-1.71-3.31-3.55-5.05-5.37a2.14,2.14,0,0,0-1-.66c-4.18-.91-4.93-3.77-4.31-7.45a4.57,4.57,0,0,0-.2-1.36c-8.68-1.45-12.51-6-12.17-14.33.3-7.24,4.44-11.46,12.38-12.18,0-1.82-.07-3.71.05-5.58,0-.66.42-1.73.88-1.86,4.19-1.27,7-4.09,9.38-8.25,2.39,4.25,5.49,7.34,10.33,8.43v7.15c8.64,1.4,12.35,5.4,12.38,13.06C73.21,45.82,69.48,50,60.67,51.45Zm49.31,0c0,2.09.71,4.65-.21,6.29s-3.64,2-5.25,3.36a57.66,57.66,0,0,0-5,5.35c-2.12-3.7-5-6.64-9.38-7.92-.36-.11-.65-1-.67-1.57-.09-1.83,0-3.67,0-5.61-8.18-.95-12.3-5.4-12.4-13-.1-8.09,3.68-12.34,12.4-13.55,0-1.86-.06-3.77,0-5.67a2.37,2.37,0,0,1,.81-1.71c1.75-1.09,3.8-1.78,5.38-3.06s2.72-3.08,4.22-4.85c2.21,3.8,5.1,6.78,9.48,8,.34.1.62,1,.64,1.58.08,1.91,0,3.83,0,5.67,8.85,1.56,12.39,5.45,12.39,13.32S118.72,49.92,110,51.47Zm61.72-13c-.15,7.48-4,11.59-12.38,12.94,0,1.77.08,3.6,0,5.42-.05.65-.49,1.7-1,1.84-4.22,1.25-7,4.15-9.19,8A29,29,0,0,0,146.29,63c-1.38-1.31-2.85-2.91-4.56-3.41-2.81-.81-3.38-2.39-3.06-4.9a25.69,25.69,0,0,0,0-3.28c-8.86-1.57-12.5-5.71-12.4-13.84.1-7.49,3.9-11.52,12.34-12.81v-7c5.09-1.91,5.1-1.92,10.52-8.34,2.23,3.85,5,6.7,9.22,8,.46.14.86,1.19.91,1.84.12,1.83,0,3.66,0,5.43C168.37,26.56,171.85,30.5,171.7,38.49Zm36.86,12.95c0,1.78.09,3.62-.05,5.44,0,.65-.5,1.69-1,1.83-4.23,1.23-6.94,4.16-9.07,7.77-1.69-1.86-3.27-3.71-5-5.44A4.91,4.91,0,0,0,191,59.55c-3.13-.5-3.37-2.55-3.1-5.06a28.73,28.73,0,0,0,0-3.08c-8.81-.15-12.41-6.86-12.38-13.57,0-7.73,3.74-11.69,12.38-13.06,0-1.77-.06-3.6,0-5.42,0-.65.19-1.58.62-1.85,1.82-1.13,4-1.82,5.61-3.14s2.71-3.08,4-4.56c1.73,1.84,3.45,3.69,5.21,5.5a2.46,2.46,0,0,0,1.21.78c4.11.69,4.43,3.53,4,6.87a8.74,8.74,0,0,0,.15,1.84C217.29,26.24,221,30.31,221,38.06S217.17,50,208.56,51.44ZM270.21,39c-.29,7.24-4.26,11.32-12.65,12.48,1.63,5.07-.68,7.72-5.13,9.67-2,.88-3.31,3.37-5,5.26a21.68,21.68,0,0,0-2.4-3.11c-1.51-1.4-3.06-3.08-4.91-3.71-2.49-.85-3.21-2.14-2.89-4.52a27.47,27.47,0,0,0,0-3.51c-9.29-2.09-12.79-6.29-12.38-14.6.34-7.12,4.21-11,12.37-12.09,0-1.86-.06-3.77,0-5.67,0-.6.38-1.58.79-1.7,4.29-1.22,7.11-4.15,9.3-7.9a44.4,44.4,0,0,0,4.54,5.07c1.63,1.34,3.67,2.18,5.95,3.47v6.6C267.11,26.67,270.54,30.7,270.21,39Z"/><path class="cls-2" d="M582.72,17.51c4.46-1.11,7.11-4.39,9.65-7.84V1.94h-1.93a39.82,39.82,0,0,1-1.89,5.68c-1.75,3.44-4.52,5.63-8.59,5.6-1.46,0-2.1.52-1.91,2,0,.24,0,.49,0,.72.46,3.06-.25,4.93-3.6,6.3-2.68,1.09-4.64,4-7.07,6.16a12.43,12.43,0,0,0-1.75-2.46c-1.63-1.5-3.24-3.34-5.23-4.08-2.64-1-3.21-2.41-3-4.95.24-3.28.06-3.24-3.31-3.78-4.19-.68-6.52-3.54-8-7.21a30.65,30.65,0,0,1-1-4h-3.87a43,43,0,0,1-2.38,6.5,8.63,8.63,0,0,1-7.86,4.75c-1.71,0-2.37.62-2.14,2.27,0,.16,0,.33,0,.49.47,3.06-.33,4.9-3.63,6.27-2.68,1.12-4.63,4-6.11,5.32-1.9-1.49-3.89-3.91-6.44-4.87-4-1.49-5.16-3.82-4.51-7.71.08-.49-.71-1.61-1.12-1.63-7.39-.25-10-5.12-11.21-11.39h-3.86a44.17,44.17,0,0,1-2.39,6.5,8.75,8.75,0,0,1-8.1,4.77c-1.49,0-2.08.56-1.9,2,0,.16,0,.33,0,.48.58,3.29-.4,5.22-3.81,6.66-2.6,1.11-4.5,3.88-6.81,6A15.54,15.54,0,0,0,467,25.76c-1.5-1.42-3-3.21-4.84-3.82-2.88-1-3.71-2.55-3.24-5.27.43-2.45-.34-3.46-3.09-3.63-4.33-.26-6.75-3.35-8.26-7.14a30.67,30.67,0,0,1-1-4h-3.86c-.86,2.32-1.43,4.8-2.65,6.9a8.37,8.37,0,0,1-7.58,4.35c-1.67,0-2.41.57-2.17,2.25,0,.08,0,.16,0,.24.63,3.3-.43,5.19-3.79,6.66-2.6,1.14-4.49,3.89-6.82,6A13.2,13.2,0,0,0,418,26.12c-1.55-1.48-3-3.51-4.92-4.07-3.36-1-3.82-3-3.44-5.88.28-2-.23-3-2.63-3.05-4.61-.14-7.09-3.31-8.73-7.22a27,27,0,0,1-1-4h-3.87a38.6,38.6,0,0,1-1.89,5.68c-1.75,3.44-4.52,5.63-8.59,5.6-1.46,0-2.09.52-1.91,2,0,.24,0,.49,0,.73.52,3.08-.31,4.9-3.6,6.28-2.68,1.12-4.64,3.95-7.08,6.17a12.05,12.05,0,0,0-1.74-2.46c-1.64-1.5-3.25-3.35-5.23-4.08-2.65-1-3.21-2.42-3-5,.24-3.26.07-3.23-3.31-3.77-4.19-.68-6.52-3.53-8-7.21a32.39,32.39,0,0,1-1-4h-3.86a42.64,42.64,0,0,1-2.38,6.5,8.68,8.68,0,0,1-7.86,4.76c-1.71,0-2.38.61-2.15,2.26,0,.16,0,.32,0,.48.47,3.07-.35,4.89-3.63,6.28-2.67,1.12-4.63,4-6.14,5.34-1.88-1.5-3.87-3.94-6.41-4.89-4-1.48-5.1-3.86-4.52-7.71.08-.5-.7-1.61-1.12-1.63-7.38-.25-10-5.12-11.2-11.39h-1.93V9.67c2.55,3.42,5.15,6.76,9.64,7.85.35.08.61,1.17.64,1.81.08,1.83,0,3.66,0,5.43,8.76,1.52,12.44,5.57,12.39,13.3S315.71,50,307.09,51.44c0,1.78.08,3.62,0,5.44-.05.66-.51,1.7-1,1.83-4.37,1.21-7,4.39-9.27,7.95v7.71h2c.44-6.82,4.42-10.72,12.34-11.81,0-1.86-.09-3.77.05-5.67a2.29,2.29,0,0,1,1.08-1.72c4.1-1.28,6.81-4.11,9.13-8a10.76,10.76,0,0,0,1.54,2.2A54,54,0,0,0,330,54.81c1.27.74,1.78,1.28,1.72,2.63-.07,1.68,0,3.36,0,5.29,4.11-.17,7.42,1.07,9.74,4.38a14.66,14.66,0,0,1,2.6,7.26h4c.47-6.86,4.41-10.71,12.34-11.81,0-1.78-.06-3.61,0-5.44,0-.64.28-1.73.64-1.82,4.42-1.17,7.23-4.23,9.63-8.16,2.4,4,5.23,7,9.65,8.16.36.09.6,1.19.63,1.83.09,1.83,0,3.66,0,5.44,7.91,1,11.84,4.82,12.34,11.8h4c.45-6.92,4.4-10.78,12.34-11.8,0-1.86-.07-3.77,0-5.67,0-.6.42-1.58.84-1.69C414.85,54,417.58,51,420,47.16c2.41,3.91,5.21,7,9.63,8.14.36.09.61,1.19.64,1.83.08,1.82,0,3.65,0,5.44,8,1.07,11.83,4.81,12.33,11.8h4c.45-6.92,4.68-11.11,12.33-11.73,0-1.75.05-3.55,0-5.35a2,2,0,0,1,1.67-2.38c3.44-1.06,5-2.56,8.64-7.56a18.93,18.93,0,0,0,2.61,3.35,33.69,33.69,0,0,0,6.08,4.15c1.2.61,1.74,1.08,1.66,2.41-.1,1.75,0,3.5,0,5.2,8.26,1.67,11.93,5.18,12.35,11.91h3.94c.45-6.84,4.44-10.76,12.36-11.8,0-1.86-.07-3.76,0-5.66,0-.6.42-1.57.83-1.68,4.31-1.19,7.05-4.22,9.43-8,2.37,3.85,5.14,6.84,9.44,8,.42.11.8,1.1.84,1.7.1,1.9,0,3.81,0,5.67,7.84.89,11.83,4.78,12.32,11.77h4c.48-6.89,4.46-10.79,12.35-11.79,0-1.86-.06-3.77,0-5.67,0-.6.42-1.58.83-1.69,4.34-1.17,7.05-4.22,9.13-7.58,2.25,2.14,4.1,5.12,6.68,6,3.91,1.41,4.37,3.72,3.95,7.05a5.89,5.89,0,0,0,.1,1.44,1.18,1.18,0,0,0,.21.42c7.63,1,11.54,4.87,12,11.77h2V66.66c-2.26-3.61-5-6.68-9.25-8-.48-.15-.94-1.17-1-1.81-.13-1.82,0-3.66,0-5.44-8.47-1.28-12.34-5.47-12.42-13.13-.09-8,3.5-12,12.4-13.53,0-1.85-.05-3.76,0-5.67C582.12,18.54,582.39,17.59,582.72,17.51ZM356.25,51.45c0,2.17.73,4.79-.21,6.51s-3.72,1.94-5.34,3.27a44.45,44.45,0,0,0-4.62,5c-1.61-1.71-3.32-3.55-5.05-5.37a2.17,2.17,0,0,0-1-.66c-4.18-.91-4.92-3.77-4.31-7.45a4.91,4.91,0,0,0-.19-1.36c-8.69-1.45-12.51-6-12.17-14.33.29-7.24,4.44-11.46,12.38-12.18,0-1.82-.08-3.71,0-5.58,0-.66.43-1.73.88-1.86,4.19-1.27,7-4.09,9.38-8.25,2.4,4.25,5.49,7.34,10.33,8.43v7.15c8.65,1.4,12.35,5.4,12.38,13.06C368.79,45.82,365.07,50,356.25,51.45Zm49.31,0c0,2.09.72,4.65-.2,6.29s-3.65,2-5.25,3.36a56.33,56.33,0,0,0-5,5.35c-2.13-3.7-5.06-6.64-9.39-7.92-.36-.11-.65-1-.67-1.57-.08-1.83,0-3.67,0-5.61-8.19-.95-12.31-5.4-12.41-13-.1-8.09,3.69-12.34,12.4-13.55,0-1.86-.06-3.77,0-5.67a2.37,2.37,0,0,1,.81-1.71c1.75-1.09,3.8-1.78,5.38-3.06s2.73-3.08,4.23-4.85c2.2,3.8,5.1,6.78,9.48,8,.34.1.61,1,.63,1.58.08,1.91,0,3.83,0,5.67,8.85,1.56,12.4,5.45,12.4,13.32S414.31,49.92,405.56,51.47Zm61.72-13c-.14,7.48-4,11.59-12.38,12.94,0,1.77.09,3.6,0,5.42,0,.65-.49,1.7-1,1.84-4.22,1.25-7,4.15-9.19,8A30,30,0,0,0,441.88,63c-1.39-1.31-2.85-2.91-4.57-3.41-2.81-.81-3.37-2.39-3.06-4.9a25.69,25.69,0,0,0,0-3.28c-8.86-1.57-12.5-5.71-12.39-13.84.09-7.49,3.89-11.52,12.34-12.81v-7c5.08-1.91,5.1-1.92,10.51-8.34,2.23,3.85,5,6.7,9.22,8,.46.14.87,1.19.91,1.84.12,1.83,0,3.66,0,5.43C464,26.56,467.43,30.5,467.28,38.49Zm36.86,12.95c0,1.78.09,3.62,0,5.44-.05.65-.51,1.69-1,1.83-4.23,1.23-6.95,4.16-9.08,7.77-1.68-1.86-3.27-3.71-5-5.44a4.91,4.91,0,0,0-2.44-1.49c-3.13-.5-3.36-2.55-3.09-5.06a28.75,28.75,0,0,0,0-3.08c-8.81-.15-12.41-6.86-12.37-13.57,0-7.73,3.73-11.69,12.37-13.06,0-1.77,0-3.6,0-5.42,0-.65.19-1.58.63-1.85,1.81-1.13,3.95-1.82,5.6-3.14s2.71-3.08,4-4.56c1.73,1.84,3.46,3.69,5.22,5.5a2.39,2.39,0,0,0,1.2.78c4.11.69,4.44,3.53,4,6.87a8.74,8.74,0,0,0,.15,1.84c8.55,1.44,12.26,5.51,12.22,13.26S512.75,50,504.14,51.44ZM565.79,39c-.29,7.24-4.26,11.32-12.64,12.48,1.63,5.07-.68,7.72-5.14,9.67-2,.88-3.3,3.37-5,5.26a21.68,21.68,0,0,0-2.4-3.11c-1.51-1.4-3.06-3.08-4.91-3.71-2.49-.85-3.21-2.14-2.89-4.52a25.75,25.75,0,0,0,0-3.51c-9.28-2.09-12.78-6.29-12.38-14.6.34-7.12,4.21-11,12.37-12.09,0-1.86-.06-3.77,0-5.67,0-.6.38-1.58.79-1.7,4.29-1.22,7.11-4.15,9.3-7.9a44.4,44.4,0,0,0,4.54,5.07c1.63,1.34,3.67,2.18,6,3.47v6.6C562.69,26.67,566.13,30.7,565.79,39Z"/><path class="cls-2" d="M1475.3,7.62c-1.75,3.44-4.53,5.63-8.59,5.6-1.46,0-2.1.52-1.92,2,0,.24,0,.49,0,.72.46,3.06-.25,4.93-3.6,6.3-2.68,1.09-4.64,4-7.08,6.16a11.93,11.93,0,0,0-1.74-2.46c-1.63-1.5-3.25-3.34-5.23-4.08-2.64-1-3.21-2.41-3-4.95.23-3.28.06-3.24-3.31-3.78-4.19-.68-6.52-3.54-8-7.21a30.65,30.65,0,0,1-1-4h-3.87a43,43,0,0,1-2.38,6.5,8.63,8.63,0,0,1-7.86,4.75c-1.71,0-2.37.62-2.15,2.27,0,.16,0,.33,0,.49.46,3.06-.33,4.9-3.63,6.27-2.68,1.12-4.63,4-6.11,5.32-1.9-1.49-3.89-3.91-6.44-4.87-4-1.49-5.16-3.82-4.51-7.71.08-.49-.71-1.61-1.12-1.63-7.39-.25-10-5.12-11.21-11.39h-3.86a44.17,44.17,0,0,1-2.39,6.5,8.75,8.75,0,0,1-8.1,4.77c-1.49,0-2.08.56-1.91,2,0,.16,0,.33,0,.48.58,3.29-.4,5.22-3.81,6.66-2.6,1.11-4.5,3.88-6.81,6a16.12,16.12,0,0,0-1.93-2.59c-1.5-1.42-3-3.21-4.84-3.82-2.88-1-3.71-2.55-3.24-5.27.43-2.45-.34-3.46-3.09-3.63-4.34-.26-6.75-3.35-8.26-7.14a30.67,30.67,0,0,1-1-4h-3.87c-.85,2.32-1.42,4.8-2.64,6.9a8.37,8.37,0,0,1-7.58,4.35c-1.67,0-2.42.57-2.17,2.25,0,.08,0,.16,0,.24.63,3.3-.43,5.19-3.79,6.66-2.6,1.14-4.49,3.89-6.82,6a13.2,13.2,0,0,0-1.65-2.25c-1.56-1.48-3-3.51-4.93-4.07-3.35-1-3.81-3-3.43-5.88.27-2-.23-3-2.63-3.05-4.61-.14-7.09-3.31-8.73-7.22a28.38,28.38,0,0,1-1-4h-3.86a38.6,38.6,0,0,1-1.89,5.68c-1.75,3.44-4.52,5.63-8.59,5.6-1.46,0-2.09.52-1.91,2,0,.24,0,.49,0,.73.52,3.08-.31,4.9-3.6,6.28-2.68,1.12-4.64,3.95-7.08,6.17a12.15,12.15,0,0,0-1.75-2.46c-1.63-1.5-3.24-3.35-5.23-4.08-2.64-1-3.2-2.42-3-5,.24-3.26.07-3.23-3.31-3.77-4.19-.68-6.52-3.53-8-7.21a29.13,29.13,0,0,1-1-4h-3.86a42.64,42.64,0,0,1-2.38,6.5,8.68,8.68,0,0,1-7.87,4.76c-1.7,0-2.37.61-2.14,2.26,0,.16,0,.32,0,.48.47,3.07-.34,4.89-3.62,6.28-2.68,1.12-4.63,4-6.14,5.34-1.88-1.5-3.87-3.94-6.41-4.89-4-1.48-5.11-3.86-4.52-7.71.08-.5-.7-1.61-1.12-1.63-7.38-.25-10-5.12-11.2-11.39h-1.94V9.67c2.56,3.42,5.16,6.76,9.65,7.85.35.08.61,1.17.64,1.81.08,1.83,0,3.66,0,5.43,8.75,1.52,12.44,5.57,12.39,13.3s-3.78,11.95-12.41,13.38c0,1.78.09,3.62,0,5.44,0,.66-.51,1.7-1,1.83-4.37,1.21-7,4.39-9.28,7.95v7.71h2c.45-6.82,4.42-10.72,12.35-11.81,0-1.86-.09-3.77.05-5.67a2.26,2.26,0,0,1,1.08-1.72c4.1-1.28,6.81-4.11,9.13-8a11.17,11.17,0,0,0,1.53,2.2,54.78,54.78,0,0,0,7.13,5.46c1.27.74,1.77,1.28,1.72,2.63-.07,1.68,0,3.36,0,5.29,4.1-.17,7.42,1.07,9.73,4.38a14.67,14.67,0,0,1,2.61,7.26h4c.47-6.86,4.41-10.71,12.34-11.81,0-1.78-.06-3.61,0-5.44,0-.64.28-1.73.64-1.82,4.42-1.17,7.22-4.23,9.63-8.16,2.4,4,5.23,7,9.65,8.16.35.09.6,1.19.63,1.83.09,1.83,0,3.66,0,5.44,7.91,1,11.84,4.82,12.34,11.8h4c.46-6.92,4.4-10.78,12.34-11.8,0-1.86-.06-3.77,0-5.67,0-.6.43-1.58.85-1.69,4.33-1.17,7-4.21,9.43-8.05,2.41,3.91,5.21,7,9.63,8.14.36.09.61,1.19.64,1.83.08,1.82,0,3.65,0,5.44,8,1.07,11.83,4.81,12.33,11.8h4c.45-6.92,4.68-11.11,12.33-11.73,0-1.75,0-3.55,0-5.35a2,2,0,0,1,1.68-2.38c3.44-1.06,5-2.56,8.64-7.56a18.47,18.47,0,0,0,2.61,3.35,33.34,33.34,0,0,0,6.08,4.15c1.2.61,1.74,1.08,1.66,2.41-.1,1.75,0,3.5,0,5.2,8.27,1.67,11.94,5.18,12.36,11.91h3.94c.44-6.84,4.44-10.76,12.36-11.8,0-1.86-.07-3.76,0-5.66,0-.6.43-1.57.84-1.68,4.31-1.19,7-4.22,9.43-8,2.37,3.85,5.14,6.84,9.44,8,.42.11.8,1.1.83,1.7.11,1.9,0,3.81,0,5.67,7.85.89,11.83,4.78,12.33,11.77h4c.48-6.89,4.46-10.79,12.35-11.79,0-1.86-.06-3.77,0-5.67,0-.6.42-1.58.83-1.69,4.33-1.17,7-4.22,9.13-7.58,2.25,2.14,4.09,5.12,6.68,6,3.91,1.41,4.36,3.72,3.94,7.05a7.08,7.08,0,0,0,.1,1.44,1.42,1.42,0,0,0,.22.42c7.63,1,11.53,4.87,12,11.77h2V66.66c-2.27-3.61-5-6.68-9.25-8-.48-.15-.94-1.17-1-1.81-.14-1.82-.05-3.66-.05-5.44-8.47-1.28-12.35-5.47-12.43-13.13-.08-8,3.51-12,12.41-13.53,0-1.85,0-3.76,0-5.67,0-.55.29-1.5.62-1.58,4.46-1.11,7.11-4.39,9.65-7.84V1.94h-1.93A39.82,39.82,0,0,1,1475.3,7.62ZM1243,51.45c0,2.17.72,4.79-.22,6.51s-3.71,1.94-5.34,3.27a46.4,46.4,0,0,0-4.62,5c-1.6-1.71-3.31-3.55-5-5.37a2.14,2.14,0,0,0-1-.66c-4.18-.91-4.93-3.77-4.31-7.45a4.57,4.57,0,0,0-.2-1.36c-8.68-1.45-12.51-6-12.17-14.33.3-7.24,4.45-11.46,12.38-12.18,0-1.82-.07-3.71,0-5.58,0-.66.43-1.73.88-1.86,4.19-1.27,7-4.09,9.38-8.25,2.4,4.25,5.49,7.34,10.33,8.43v7.15c8.65,1.4,12.35,5.4,12.38,13.06C1255.54,45.82,1251.82,50,1243,51.45Zm49.31,0c0,2.09.72,4.65-.2,6.29s-3.65,2-5.25,3.36a56.4,56.4,0,0,0-5,5.35c-2.12-3.7-5-6.64-9.38-7.92-.36-.11-.65-1-.67-1.57-.09-1.83,0-3.67,0-5.61-8.19-.95-12.31-5.4-12.41-13-.1-8.09,3.68-12.34,12.4-13.55,0-1.86-.06-3.77,0-5.67a2.37,2.37,0,0,1,.81-1.71c1.75-1.09,3.8-1.78,5.38-3.06s2.72-3.08,4.22-4.85c2.21,3.8,5.11,6.78,9.48,8,.35.1.62,1,.64,1.58.08,1.91,0,3.83,0,5.67,8.85,1.56,12.4,5.45,12.4,13.32S1301.06,49.92,1292.31,51.47Zm61.72-13c-.15,7.48-4,11.59-12.38,12.94,0,1.77.08,3.6-.05,5.42,0,.65-.49,1.7-1,1.84-4.22,1.25-7,4.15-9.19,8a29,29,0,0,0-2.82-3.63c-1.38-1.31-2.85-2.91-4.56-3.41-2.81-.81-3.38-2.39-3.06-4.9a25.69,25.69,0,0,0,0-3.28c-8.86-1.57-12.5-5.71-12.4-13.84.1-7.49,3.9-11.52,12.34-12.81v-7c5.09-1.91,5.1-1.92,10.52-8.34,2.23,3.85,5,6.7,9.22,8,.46.14.86,1.19.91,1.84.12,1.83,0,3.66,0,5.43C1350.71,26.56,1354.18,30.5,1354,38.49Zm36.86,12.95c0,1.78.09,3.62-.05,5.44,0,.65-.5,1.69-1,1.83-4.23,1.23-6.94,4.16-9.07,7.77-1.68-1.86-3.27-3.71-5-5.44a4.91,4.91,0,0,0-2.44-1.49c-3.13-.5-3.37-2.55-3.1-5.06a28.73,28.73,0,0,0,0-3.08c-8.81-.15-12.41-6.86-12.38-13.57,0-7.73,3.74-11.69,12.38-13.06,0-1.77-.06-3.6,0-5.42,0-.65.19-1.58.62-1.85,1.82-1.13,4-1.82,5.61-3.14s2.71-3.08,4-4.56c1.73,1.84,3.45,3.69,5.21,5.5a2.46,2.46,0,0,0,1.21.78c4.11.69,4.43,3.53,4,6.87a8.74,8.74,0,0,0,.15,1.84c8.54,1.44,12.25,5.51,12.22,13.26S1399.5,50,1390.89,51.44ZM1452.54,39c-.29,7.24-4.26,11.32-12.65,12.48,1.64,5.07-.67,7.72-5.13,9.67-2,.88-3.31,3.37-5,5.26a21.68,21.68,0,0,0-2.4-3.11c-1.51-1.4-3.06-3.08-4.91-3.71-2.49-.85-3.21-2.14-2.89-4.52a25.75,25.75,0,0,0,0-3.51c-9.29-2.09-12.79-6.29-12.38-14.6.34-7.12,4.21-11,12.37-12.09,0-1.86-.06-3.77,0-5.67,0-.6.38-1.58.79-1.7,4.29-1.22,7.11-4.15,9.3-7.9a44.4,44.4,0,0,0,4.54,5.07c1.63,1.34,3.67,2.18,6,3.47v6.6C1449.44,26.67,1452.87,30.7,1452.54,39Z"/><path class="cls-2" d="M1602.06,28.28l-.09.09a13.2,13.2,0,0,0-1.65-2.25c-1.55-1.48-3-3.51-4.92-4.07-3.36-1-3.82-3-3.44-5.88.28-2-.23-3-2.63-3.05-4.61-.14-7.09-3.31-8.72-7.22a27.06,27.06,0,0,1-1-4h-3.87a37.46,37.46,0,0,1-1.89,5.68c-1.74,3.44-4.52,5.63-8.59,5.6-1.46,0-2.09.52-1.91,2,0,.24,0,.49,0,.73.52,3.08-.31,4.9-3.6,6.28-2.68,1.12-4.64,3.95-7.08,6.17a12.05,12.05,0,0,0-1.74-2.46c-1.64-1.5-3.25-3.35-5.23-4.08-2.65-1-3.21-2.42-3-5,.24-3.26.07-3.23-3.31-3.77-4.19-.68-6.52-3.53-8-7.21a32.39,32.39,0,0,1-1-4h-3.86a42.64,42.64,0,0,1-2.38,6.5,8.65,8.65,0,0,1-7.86,4.75c-1.71,0-2.38.62-2.15,2.27,0,.16,0,.32,0,.48.47,3.07-.35,4.89-3.63,6.28-2.67,1.12-4.63,4-6.14,5.34-1.88-1.5-3.87-3.94-6.41-4.89-4-1.48-5.1-3.86-4.51-7.72.07-.49-.71-1.6-1.12-1.62-7.39-.25-10-5.12-11.21-11.39h-1.93V9.67c2.55,3.42,5.15,6.76,9.64,7.85.35.08.61,1.17.64,1.81.08,1.83,0,3.66,0,5.43,8.76,1.52,12.45,5.57,12.39,13.3S1498,50,1489.42,51.44c0,1.78.08,3.62-.05,5.44,0,.66-.51,1.7-1,1.83-4.37,1.21-7,4.39-9.27,7.95v7.71h2c.44-6.82,4.42-10.72,12.34-11.81,0-1.86-.09-3.77,0-5.67a2.29,2.29,0,0,1,1.08-1.72c4.1-1.28,6.81-4.11,9.14-8a10.38,10.38,0,0,0,1.53,2.2,54.12,54.12,0,0,0,7.13,5.46c1.26.74,1.77,1.28,1.71,2.63-.07,1.68,0,3.36,0,5.29,4.11-.17,7.42,1.07,9.74,4.38a14.66,14.66,0,0,1,2.6,7.26h4c.47-6.86,4.41-10.71,12.34-11.81,0-1.78-.06-3.61,0-5.44,0-.64.28-1.73.64-1.82,4.42-1.17,7.23-4.23,9.63-8.16,2.4,4,5.23,7,9.65,8.16.36.09.6,1.19.63,1.83.09,1.83,0,3.66,0,5.44,7.91,1,11.84,4.82,12.34,11.8h4c.46-6.92,4.4-10.78,12.34-11.8,0-1.86-.07-3.77,0-5.67,0-.6.43-1.58.84-1.69,4.2-1.13,6.89-4.05,9.21-7.73Zm-63.48,23.17c0,2.17.73,4.79-.21,6.51s-3.72,1.94-5.34,3.27a44.45,44.45,0,0,0-4.62,5c-1.61-1.71-3.32-3.55-5.05-5.37a2.17,2.17,0,0,0-1-.66c-4.18-.91-4.92-3.77-4.31-7.45a4.56,4.56,0,0,0-.19-1.36c-8.69-1.45-12.51-6-12.17-14.33.29-7.24,4.44-11.46,12.38-12.18,0-1.82-.08-3.71,0-5.58,0-.66.43-1.73.88-1.86,4.19-1.27,7-4.09,9.38-8.25,2.4,4.25,5.49,7.34,10.34,8.43v7.15c8.64,1.4,12.34,5.4,12.37,13.06C1551.12,45.82,1547.4,50,1538.58,51.45Zm49.31,0c0,2.09.72,4.65-.2,6.29s-3.64,2-5.25,3.36a56.33,56.33,0,0,0-5,5.35c-2.13-3.7-5.06-6.64-9.39-7.92-.35-.11-.65-1-.67-1.57-.08-1.83,0-3.67,0-5.61-8.19-.95-12.31-5.4-12.41-13-.1-8.09,3.69-12.34,12.41-13.55,0-1.86-.07-3.77,0-5.67a2.37,2.37,0,0,1,.81-1.71c1.75-1.09,3.8-1.78,5.38-3.06s2.73-3.08,4.23-4.85c2.2,3.8,5.1,6.78,9.48,8,.34.1.61,1,.64,1.58.07,1.91,0,3.83,0,5.67,8.84,1.56,12.39,5.45,12.39,13.32S1596.64,49.92,1587.89,51.47Z"/></svg>