<svg id="Layer_1" data-name="Layer 1" xmlns="http://www.w3.org/2000/svg" viewBox="0 0 1080 1080"><defs><style>.cls-1{fill:#796091;}.cls-2{fill:#020302;}.cls-3{fill:#fefefd;}.cls-4{fill:#040403;}.cls-5{fill:#da4328;}.cls-6{fill:#f3b920;}.cls-7{fill:#09a64e;}.cls-8{fill:#0665a8;}.cls-9{fill:#f3b921;}.cls-10{fill:#0e63a8;}.cls-11{fill:#0ba64e;}.cls-12{fill:#08a64e;}.cls-13{fill:#1ba74e;}.cls-14{fill:#1463a6;}.cls-15{fill:#10a64f;}.cls-16{fill:#db4729;}.cls-17{fill:#eeb721;}.cls-18{fill:#d74428;}.cls-19{fill:#d74c30;}.cls-20{fill:#d74a2c;}.cls-21{fill:#eeb824;}.cls-22{fill:#e5b324;}.cls-23{fill:#9a2f64;}.cls-24{fill:#e5b626;}.cls-25{fill:#2da44c;}.cls-26{fill:#e8aa34;}.cls-27{fill:#9d4c69;}.cls-28{fill:#dbb441;}.cls-29{fill:#b2422b;}.cls-30{fill:#a3265d;}.cls-31{fill:#399698;}.cls-32{fill:#f3ba23;}.cls-33{fill:#f3b922;}.cls-34{fill:#a4275c;}.cls-35{fill:#9b2b63;}.cls-36{fill:#f6c729;}.cls-37{fill:#992f67;}.cls-38{fill:#f4bb26;}.cls-39{fill:#f2b62a;}.cls-40{fill:#f5c12e;}.cls-41{fill:#e9b645;}.cls-42{fill:#a44266;}.cls-43{fill:#d94428;}.cls-44{fill:#dc482b;}.cls-45{fill:#1565a7;}.cls-46{fill:#dd4a2d;}.cls-47{fill:#1f62a1;}.cls-48{fill:#6ebc44;}.cls-49{fill:#2e66a5;}.cls-50{fill:#f4bb23;}.cls-51{fill:#9a78b6;}.cls-52{fill:#939393;}.cls-53{fill:#fffffe;}.cls-54{fill:#1563a8;}.cls-55{fill:#070808;}.cls-56{fill:#0fa74e;}.cls-57{fill:#f3ba20;}.cls-58{fill:#0765a8;}.cls-59{fill:#10a74f;}.cls-60{fill:#0b65a8;}.cls-61{fill:#1263a8;}.cls-62{fill:#efb828;}.cls-63{fill:#0a65a8;}.cls-64{fill:#0fa74f;}.cls-65{fill:#f3c324;}.cls-66{fill:#1f61a5;}.cls-67{fill:#e24428;}.cls-68{fill:#2462a8;}.cls-69{fill:#1ba74f;}.cls-70{fill:#edbc23;}.cls-71{fill:#ecb82d;}.cls-72{fill:#1b61a3;}.cls-73{fill:#f0bd25;}.cls-74{fill:#266ca7;}.cls-75{fill:#3068a7;}.cls-76{fill:#1a65a8;}.cls-77{fill:#f7c725;}.cls-78{fill:#e8b735;}.cls-79{fill:#403b32;}.cls-80{fill:#18a653;}.cls-81{fill:#342c1e;}.cls-82{fill:#f7cc26;}.cls-83{fill:#e3bb2b;}.cls-84{fill:#e5b639;}.cls-85{fill:#e5bc34;}.cls-86{fill:#d9b73e;}.cls-87{fill:#ddb940;}.cls-88{fill:#d65237;}.cls-89{fill:#ccac4c;}.cls-90{fill:#debd5b;}.cls-91{fill:#d8b552;}.cls-92{fill:#e9b93d;}.cls-93{fill:#e0bd3f;}.cls-94{fill:#2e74a6;}.cls-95{fill:#bb615b;}.cls-96{fill:#e6b834;}.cls-97{fill:#d1b147;}.cls-98{fill:#cfb246;}.cls-99{fill:#d2b346;}.cls-100{fill:#c9ae4d;}.cls-101{fill:#bca858;}.cls-102{fill:#1ea84f;}.cls-103{fill:#e8ba26;}.cls-104{fill:#2f9f4d;}.cls-105{fill:#1962a3;}.cls-106{fill:#c0a340;}.cls-107{fill:#db4728;}.cls-108{fill:#efba23;}.cls-109{fill:#e0e0e0;}.cls-110{fill:#9adcf9;}.cls-111{fill:#79afc4;}.cls-112{fill:#f9b7b7;}.cls-113{fill:#050504;}.cls-114{fill:#fdfefd;}.cls-115{fill:#09a74e;}.cls-116{fill:#0ca74e;}.cls-117{fill:#0ba74e;}.cls-118{fill:#0f63a8;}.cls-119{fill:#d94328;}.cls-120{fill:#0ca64e;}.cls-121{fill:#0f63a7;}.cls-122{fill:#1664a6;}.cls-123{fill:#f1bc22;}.cls-124{fill:#d64527;}.cls-125{fill:#f0bc23;}.cls-126{fill:#ebb925;}.cls-127{fill:#1a61a6;}.cls-128{fill:#e8bb27;}.cls-129{fill:#d2402a;}.cls-130{fill:#f0b923;}.cls-131{fill:#ebb322;}.cls-132{fill:#eaae2e;}.cls-133{fill:#15a355;}.cls-134{fill:#d1432a;}.cls-135{fill:#edb324;}.cls-136{fill:#c6452b;}.cls-137{fill:#43588a;}.cls-138{fill:#5a72a3;}.cls-139{fill:#030402;}.cls-140{fill:#f3ba21;}.cls-141{fill:#dc4528;}.cls-142{fill:#d94528;}.cls-143{fill:#336aad;}.cls-144{fill:#dc4428;}.cls-145{fill:#386aac;}.cls-146{fill:#2064a5;}.cls-147{fill:#d64e33;}.cls-148{fill:#e9bb26;}.cls-149{fill:#f3b93f;}.cls-150{fill:#566093;}.cls-151{fill:#6ebe44;}.cls-152{fill:#1368a8;}.cls-153{fill:#3a68a4;}.cls-154{fill:#edba24;}.cls-155{fill:#1f5e8c;}.cls-156{fill:#f1b521;}.cls-157{fill:#4d659b;}.cls-158{fill:#e2a226;}.cls-159{fill:#5d6492;}.cls-160{fill:#4a659d;}.cls-161{fill:#010201;}.cls-162{fill:#a3265b;}.cls-163{fill:#d94028;}.cls-164{fill:#a3245b;}.cls-165{fill:#f4ba26;}.cls-166{fill:#3a9195;}.cls-167{fill:#f6be20;}.cls-168{fill:#389497;}.cls-169{fill:#399196;}.cls-170{fill:#f3bc23;}.cls-171{fill:#369095;}.cls-172{fill:#3a9196;}.cls-173{fill:#399497;}.cls-174{fill:#f3bb22;}.cls-175{fill:#378f94;}.cls-176{fill:#f5bd23;}.cls-177{fill:#368c97;}.cls-178{fill:#f4bb22;}.cls-179{fill:#399195;}.cls-180{fill:#992b62;}.cls-181{fill:#f1b823;}.cls-182{fill:#f1ba23;}.cls-183{fill:#3e69a8;}.cls-184{fill:#dc4327;}.cls-185{fill:#da492a;}.cls-186{fill:#378c91;}.cls-187{fill:#399797;}.cls-188{fill:#d8482a;}.cls-189{fill:#f1ba24;}.cls-190{fill:#edb624;}.cls-191{fill:#e8b932;}.cls-192{fill:#4e7b7d;}.cls-193{fill:#9c3357;}.cls-194{fill:#528b8f;}.cls-195{fill:#385fa2;}.cls-196{fill:#488c90;}.cls-197{fill:#dfa641;}.cls-198{fill:#ecb524;}.cls-199{fill:#e9b025;}.cls-200{fill:#4e787a;}.cls-201{fill:#e4a325;}.cls-202{fill:#e2a428;}.cls-203{fill:#eab536;}.cls-204{fill:#e9b637;}.cls-205{fill:#e5ae3c;}.cls-206{fill:#eec033;}</style></defs><title>Collabin</title><path class="cls-1" d="M270.47,570.59l3.67,1.66c2.61,3.07.91,5.68-.87,8.28-6.15,6.67-14.39,6.71-22.51,7.14-10.83,2.51-21.64-.12-32.45-.38-4-.1-7.79.3-11.43.52,8.71-1.47,17.54-.28,26.37,1.12,2.11.33,4.14.84,4.89,3.24-8.6,2.16-15.64,7.27-22.79,12.14-1.7,1.15-3.14,2.7-5.29,3.05-4.44,2.62-9.9.07-14.17,2.42,2.92-.13,6.23-3.51,8.81,1.2-5.46,3.28-10.83,6.75-16.45,9.75a26.42,26.42,0,0,1-9.17,3c-4,.46-8.9,1.68-11.31-3-2.26-4.36-1.2-8.79,1.19-13.21,10.94-20.24,28.27-32.66,49.12-40.92,7.21-.9,14.41-1.88,21.69-2.06,4.88,0,9.74.34,14.61.54A32,32,0,0,1,270.47,570.59Z"/><path class="cls-1" d="M211.66,640.83c7.07-6.89,16.3-10.36,24.49-15.47,1.57-1,3.16-1.92,4.75-2.88,4.32,3.85,9.9,5.06,15.14,6.75,3.58,1.16,7,1.7,6.4,6.44s-3.9,6.72-8.28,6.8a111.79,111.79,0,0,1-13.94-.49A267,267,0,0,0,211.66,640.83Z"/><path class="cls-1" d="M263.55,601.49c11.27,4.38,12.1,6.44,6.05,14.89-6.47,2.43-12.64-.26-18.93-1.08,2.91-3.43,6.48-6.37,7.34-11.21C258.58,600.91,261.47,601.88,263.55,601.49Z"/><path class="cls-2" d="M289.92,521c3.19-1.23,6.6-1.21,9.92-1.72a1.65,1.65,0,0,1,1.72,1c.64,1.26,1.16,2.56,1.73,3.85,9.59,21.7,19.34,43.32,29.53,64.75.9,1.89,1.85,3.76,2.79,5.65,1-.54.94-1.42,1-2.19,1.24-13.84,2.23-27.7,2.79-41.59.47-11.78,1-23.57,1.44-35.35.22-5.47.38-10.94.53-16.41a1.82,1.82,0,0,1,1.66-2l2.08-.32,33.4-4.73c.7-.1,1.4-.2,2.1-.25,1.08-.08,1.61.36,1.58,1.41,0,1.54-.12,3.08-.23,4.62-2.18,33.49-5.15,66.9-9.49,100.18-2.12,16.29-4.58,32.52-7.49,48.69-.2,1.11-.41,2.21-.59,3.32a2,2,0,0,1-2,1.81l-15.05,1.94c-2.05-1.46-2.13-3.42-1.42-5.58,1-1.32,2.41-1.62,3.9-1.82,9.8-1.38,7.93-1,9.36-9.23q3.92-22.65,6.72-45.45c.73-6,.68-6.1-5.37-6.48-.84-.05-1.69-.05-2.53-.15a82.7,82.7,0,0,0-9-1.11c-3.37-.8-4.44.78-4.69,4-.56,7.12-1.47,14.21-2.17,21.32-.13,1.25-.23,2.51-.44,3.76s-.37,3.19-1.84,3.5-2.19-1.48-2.8-2.68c-4-7.86-8.57-15.54-11.65-23.76-2.8-7.44-7.05-11.34-15-10.92-6.05-1-6.05-1-7.34,6.48a1.82,1.82,0,0,1-2.16,1c-3.18-3.49-4.83-7.73-5.89-12.24.74-2.44,1.29-4.8-2.35-5.33-2.19-2-2.86-4.8-3.57-7.54a8.71,8.71,0,0,1,.31-1.14,8,8,0,0,1-.71.94,4.53,4.53,0,0,1-1,.61,3.74,3.74,0,0,0-3,3.52c-.3,2.88-.68,5.76-1.21,8.6-.41,2.2.53,3.37,2.23,4.31,1.15,2.23.6,4.25-.72,6.19-1.11,1.08-2.6,1.43-3.93,2.08-.75.34-1.49.69-2.23,1a29.94,29.94,0,0,0-3.9,1.91c-3.31,1.09-6.24,3.53-10,2.81-1.85-5.8,0-11.19,1.79-16.59,1.62-.85,1.88.49,2.21,1.48.44,1.32,0,2.75.69,4.09-.27-7.4,2.85-14.87-.78-22.18-.08-3.81-.17-7.63,1.55-11.19,3.28-1.84,6.83-.49,10.24-.81,1.19-.11,3,.57,3.34-.86.39-1.84-1.55-2.36-3-2.89-3-1.11-6.45-.52-9.16-2.61-3.07-9.4.81-14.29,11.06-14,2.89,1.27,3.46,4.19,4.72,6.63.89,3.42,2.58,6.51,4,9.72,1.78,4.92,4.18,9.57,6.27,14.35,1.07,3,2.56,5.9,3.57,8.94a6.66,6.66,0,0,0,6.83,5c2.37.06,4.71.6,7.07.64,1.25-.17,1.08-.95.75-1.78-.95-2.42-2.09-4.75-3.18-7.11-1.5-3.82-3.57-7.38-5.11-11.19-.21-.37-.39-.74-.57-1.13a9.42,9.42,0,0,1-.54-1.16c-2.64-6.28-5.6-12.43-8.24-18.72-.84-2-2.11-3.18-4.37-3.27a4.8,4.8,0,0,1-4.06-1.77C289.19,524.3,288.84,522.68,289.92,521Z"/><path class="cls-3" d="M289.16,560.21a16.09,16.09,0,0,1,2.54,5.19,5.08,5.08,0,0,0,1.67,3.27,5.13,5.13,0,0,1,2.25,4.77c.91,3.82,3.14,7.07,4.58,10.67a24.37,24.37,0,0,0,1.38,2.56c2,1.12,2.37,3.38,3.53,5.1.87,1.78,1.78,3.54,2.6,5.34a59.65,59.65,0,0,0,3.38,7.14c.57,1.34,1.3,2.6,1.91,3.92,4.12,9.34,9,18.29,13.45,27.47.6,1.24,1.11,2.52,1.73,3.74.19.33.36.67.53,1s.35.66.5,1a35,35,0,0,0,2.22,4.36,7.28,7.28,0,0,0,2.13,2.48c2.54.24,5-.46,7.45-.77,1.91-.26,3.87-.9,5.56.66.26,1.85.53,3.7.79,5.54-5.28.79-10.56,1.54-15.83,2.4a2.72,2.72,0,0,1-3.31-1.75c-4.12-8.14-8.49-16.17-12.48-24.38-7.36-15.16-14.52-30.42-21.77-45.64-.64-1.35-1.33-2.69-2-4-1.15.3-1,1.12-1.06,1.76-2.69,16.93-5.26,33.87-8.07,50.77-1.5,9-3.39,17.94-5.1,26.91-.13.69-.32,1.37-.44,2.06a2.52,2.52,0,0,1-2.5,2.3c-10.17,1.38-20.32,2.86-30.49,4.28-2.05.28-2.14.25-3.17-1.87-3.62-7.46-7.24-14.91-10.75-22.42Q219.07,619.83,209,595c-.21-.52-.37-1.06-.56-1.59,3.56-3.42,5.62-3.17,7.63,1.05a145.18,145.18,0,0,1,6.46,15.08c.44,1.19,1.09,2.3,1.53,3.49.95,2.5,2.27,4.84,3.23,7.34a39.86,39.86,0,0,0,1.66,3.93c1.19,2.37,2.24,4.81,3.34,7.23.51,1.12,1,2.23,1.53,3.36,1,3,2.75,5.55,3.86,8.45a53.66,53.66,0,0,0,2.57,5.55c1,2,2,4.06,3.09,6,3,6.07,3,6.07,9.71,5,3.88-.62,7.79-1,11.67-1.59,6-.87,6-.87,7.46-6.65,1.1-4.39,1.94-8.82,2.69-13.27.53-2.63,1-5.25,1.47-7.89.27-1.37.39-2.77.56-4.15s.54-2.74.74-4.12c.18-1.21.42-2.41.56-3.62.9-6.93,2.14-13.8,3-20.72.32-1.6.6-3.2.89-4.8.19-1,.42-1.91.55-2.89.46-1.85.13-3.91,1.37-5.57a9.72,9.72,0,0,0,1.3-6.47A34.72,34.72,0,0,1,288,561.05l1.19-.81Z"/><path class="cls-4" d="M221.9,610.52a15.94,15.94,0,0,1-1.33-2.6c-1.61-5.38-4.61-10.17-6.51-15.43a2.94,2.94,0,0,0-.51-.68c-1.9-.15-3.33,1.26-5.09,1.62-2.14-3.8-3.49-7.95-5.1-12Q192,553,181.68,524.06c-.14-.39-.28-.79-.4-1.19-.79-2.55-.61-2.91,2-3.29q18.33-2.62,36.66-5.2c2.57-.36,2.58-.31,3.53,2.74a3.34,3.34,0,0,1-1.08,1.13c-.44.31-.9.59-1.37.86-1.43.65-1.95,2.29-3.31,3a17.94,17.94,0,0,1-6.6,1.16,27.46,27.46,0,0,0-10.76,1.33,28.3,28.3,0,0,1-4.47,1c-4.5.81-5.11,1.8-3.54,6.25,1.89,5.38,3.74,10.78,6,16A108.66,108.66,0,0,0,203,560.38c2,5,1.92,4.9,6.67,2.32a140.08,140.08,0,0,1,16-7.69c1.54-.6,3.08-1.51,4.84-.59,1.64,1.32,2.12,3.28,2.73,5.14,4,12.3,8.69,24.36,13.26,36.46.54,1.44,1.21,2.87.69,4.49-1.73,2.07-4.44,2.43-6.6,3.76-4.59,1.57-9.08,3.39-13.5,5.39C225.41,610.39,223.8,611.37,221.9,610.52Z"/><path class="cls-3" d="M221.79,517.77l1.7-.65c7.89,24.12,16.11,48.13,25,71.9,2.27,6,4.63,12,7,18.23,1.18-.87,1.12-2,1.3-3,2.71-15.19,5-30.44,7-45.73,1.25-9.46,2.36-18.93,3.53-28.39.19-1.53.37-3.06.59-4.59a1.82,1.82,0,0,1,1.56-1.72l.42-.08c6.66-.94,13.29-2.16,20-2.68l.76,5.35c-2,2.08-4.5,1.9-7.05,1.33a9.56,9.56,0,0,0-4.48.44,16.18,16.18,0,0,1-3.65.54c-1.92,0-2.33.31-2.47,2-.26,3.28-1.33,6.5-.8,9.84a8.14,8.14,0,0,1-1,7.27A78.12,78.12,0,0,0,269.57,560c.7,5.18.57,10.24-2.16,14.93-.79,4.89-1.61,9.77-2.37,14.67a15.55,15.55,0,0,0,0,2.46c.95,4.71-.81,9.14-1.36,13.7-.4,1.57-.63,3.18-.92,4.78s-.63,3.18-1,4.75a39.19,39.19,0,0,0-.95,4.92c-.53,2.26-.24,5.59-2.84,6-2.8.45-3.2-3-4.08-5-2.24-5.1-4.67-10.14-6.5-15.42-.58-1.68-1.51-3.34-.91-5.25-.41-3.08-1.94-5.8-3-8.67-2.77-7.75-5.77-15.42-8.6-23.16-1.29-3.53-2.38-7.14-3.62-10.7-.41-1.18-1-2.29-1.5-3.44-3-2.83-3.23-7-4.83-10.45-.82-3.35-2.23-6.5-3.23-9.8-.93-4.54-4-8.55-3.37-13.48-.15-1.44.28-2.42,1.9-2.61a6.78,6.78,0,0,0,1.57-.58Z"/><path class="cls-5" d="M332.56,649.62a11.61,11.61,0,0,1-2-3.92c-1.15-3.85.16-7.64.22-11.38-1.23,2.12.65,5.45-2.48,7l-.15-.14-.31-.32c-.68-1.39-1.67-2.64-1.85-4.24-.1-1.26-.63-2.53-.31-3.75,1.74-6.61-1-12-4.42-17.3-2.33-3.61-4.09-7.57-6.4-11.19-2,1-.68,3.65-2.85,4.08-.68-1.4-1.37-2.8-2.05-4.21-1-2.7-.28-5.54-.57-8.41-1.4-.26-1.23,1.93-2.56,1.51a14.07,14.07,0,0,1-2.49-5.46c-.76-2.18.23-4.86-1.9-6.64-.35-2.28.3-4.46.6-6.67a1.47,1.47,0,0,1,1.75-1.38c1.66.18,3.31.49,5,.75,3.13,3.81,5.41,8.16,7.91,12.37,8.3,14,16.58,28,24,42.82,1.09-1,.9-2.11,1-3.08,1.74-14.19,3.33-28.41,5.12-42.59.2-1.61-.1-3.45,1.53-4.6,2.86,0,5.74,0,8.44,1.18,1.24,1.28.93,2.87.76,4.37q-3.26,27.74-6.83,55.41a5.09,5.09,0,0,1-1.39,3.42l-3.75.87-6.25.62c-2.6-1.66-2.83-5-4.87-7.17C333.88,644.11,336.11,647.93,332.56,649.62Z"/><path class="cls-6" d="M349.34,582.85c-.69,6.41-1.33,12.82-2.08,19.22-1.23,10.58-2.53,21.15-3.81,31.72a10,10,0,0,1-.32,1.63,1,1,0,0,1-.56.57.91.91,0,0,1-.74-.27,7.47,7.47,0,0,1-.89-1.39c-9.23-18.47-19.81-36.17-30.59-53.75-.5-.82-1.28-1.56-.62-2.65,3.2.29,6.4.6,9.6.88a3.49,3.49,0,0,1,3.16,2.28c3.48,7.48,7.06,14.91,10.67,22.33,2,4.15,4.14,8.24,6.23,12.39,1.16-.37,1-1.29,1.1-2q1.45-14.4,2.85-28.8a13.12,13.12,0,0,1,.15-1.67c.14-.7.4-1.36,1.34-1.19C346.33,582.42,347.94,582,349.34,582.85Z"/><path class="cls-7" d="M345.17,560.23q.38-10,.76-19.91a2.54,2.54,0,0,1,.31-.76c2.79-2.76,3-5.57.2-8.47q.26-9.39.54-18.78a4.85,4.85,0,0,1,.34-1.19c2,.51,2.34,2.28,2.91,3.83,1.17,3.16,2.45,6.29,3.53,9.48a5.71,5.71,0,0,0,5.59,4.25c3.23.19,6.46.39,9.69.52,1.53.06,3.14,0,4.19,1.44a45.22,45.22,0,0,1-.81,10.06c-2.58,1.49-5.21.3-7.8.08s-5.25-.87-7.92-.91c-4.38-.07-5.66,1.47-4.4,5.66,2.42,8,5.42,15.88,8.24,23.79,1.09,3.08,3.16,6,2.14,9.61-5.45-.21-10.86-.91-16.27-1.64-2.38-.32-2.41-.41-2.17-3,0-.41.12-.83.18-1.24a3.1,3.1,0,0,1,2.06.15c2.32.73,2.39-.47,1.85-2.17C347.2,567.45,345.49,564,345.17,560.23Z"/><path class="cls-6" d="M350.32,647.23c.24-2.5.42-5,.72-7.5q3.34-27.86,6.74-55.7A29.37,29.37,0,0,1,368,585c-.23,1.92-.44,3.71-.66,5.49q-3.14,25.85-7.63,51.48c-.86,5,0,4-5.16,4.83C353.12,647,351.72,647.08,350.32,647.23Z"/><path class="cls-8" d="M373.23,530.64c-4.19-.21-8.37-.41-12.56-.64-1.11-.06-2.22-.28-3.34-.31-2.45-.08-3.71-1.38-4.45-3.67-1.37-4.25-2.93-8.44-4.45-12.65a22.34,22.34,0,0,0-1.11-2.25,40.67,40.67,0,0,1-.06-7,1.71,1.71,0,0,1,1.72-1.89c1.77-.19,3.55-.29,5.32-.42a14.23,14.23,0,0,1,6.35,3.9c3.23,3.33,7.18,5.76,10.8,8.61a7.83,7.83,0,0,1,2.95,3.44A88,88,0,0,1,373.23,530.64Z"/><path class="cls-9" d="M262.78,605.66a84.55,84.55,0,0,1,2.27-13.59l10-3.71c3.47,2.23,5.45,5.65,7.36,9.13-.27,5-1.39,9.87-2.08,14.8-.33,2.33-.85,4.63-1.28,6.94-1.84.52-3.33-.44-4.63-1.41C269.86,614.42,264.83,611.45,262.78,605.66Z"/><path class="cls-10" d="M362.68,578.93q-5.07-14.28-10.13-28.54c-.65-1.85-1.28-3.71-1.86-5.59a11,11,0,0,1-.49-2.46,3.54,3.54,0,0,1,3.05-3.9,11.75,11.75,0,0,1,4.18.08l15,2.18-.54,6.88c-2.1,1.51-4.32.58-6.47.24-5.76-.92-5.84-.87-4.08,4.85s3.88,11.06,5.9,16.56a20.35,20.35,0,0,1,1.49,6.88,12.89,12.89,0,0,1,.08,1.63c-.13,2-.46,2.32-2.54,2C365.06,579.53,363.87,579.2,362.68,578.93Z"/><path class="cls-11" d="M283.63,527.72l7.05-1.33c1.26,0,2.52,0,3.78-.1,3-.16,3.07-.18,4.39,2.74,2.07,4.6,4.1,9.23,6.15,13.84.69,1.54,1.37,3.08,2.06,4.61a6.33,6.33,0,0,1,.77,2.82c-1.4.74-2.47-.13-3.39-.89-6.07-5-12.63-9.51-17.8-15.59Z"/><path class="cls-12" d="M368.72,576.11a107.39,107.39,0,0,1-4.55-11.76c-1.72-4.74-3.38-9.51-5-14.28-.36-1.05-.63-2.15-.89-3.24a1.06,1.06,0,0,1,1.19-1.29c.69.07,1.38.24,2.07.35l10.38,1.69q-1.36,13.7-2.75,27.37A5,5,0,0,1,368.72,576.11Z"/><path class="cls-13" d="M313.93,563.35c1.83,2.66,2.8,5.75,4.24,8.6.69,1.38.33,1.68-1.62,1.45a1.18,1.18,0,0,1-.37-.19,77,77,0,0,1-19.27-15.42,68.6,68.6,0,0,1-6-14.08c.92-.74,1.6,0,2.15.5C300.06,550.53,307.64,556.24,313.93,563.35Z"/><path class="cls-14" d="M313.93,563.35a16.75,16.75,0,0,1-4-3c-5.18-4.52-10.32-9.09-15.48-13.64-1.16-1-2.35-2-3.53-3a33.93,33.93,0,0,1-4.26-9.89c1.55.42,2.54,1.62,3.7,2.59,4.92,4.07,9.8,8.18,14.72,12.24.83.68,1.51,1.66,2.77,1.65l-.08,0c.3.28.71.46.81.91A102.34,102.34,0,0,1,313.93,563.35Z"/><path class="cls-15" d="M374.4,517.78c-5.56-4.29-11.12-8.57-16.65-12.89-1.21-.95-2.3-2-3.45-3.06a41.59,41.59,0,0,1,8.74-1.25c4.53,2.51,9.11,5,11.73,9.76C375.11,512.84,374.62,515.3,374.4,517.78Z"/><path class="cls-16" d="M274.17,579c.16-5.3.31-10.6.5-15.9.07-2.08.72-2.67,2.82-2.74a7.73,7.73,0,0,1,1.67.09,2.07,2.07,0,0,1,1.8,2.38c-.73,5.39-1.53,10.78-2.29,16.17a3.16,3.16,0,0,1-1.51,2.39,2.75,2.75,0,0,1-2.35.62c-1.05-.39-.61-1.38-.6-2.17l0-.84Z"/><path class="cls-17" d="M296.91,557.79A10.1,10.1,0,0,1,300,559.9q7.23,5.75,14.41,11.55a22.61,22.61,0,0,1,1.77,1.76c-3.89,0-7.72-.7-11.58-1a3.1,3.1,0,0,1-2.84-2.07C300.09,566,298.1,562.07,296.91,557.79Z"/><path class="cls-18" d="M271.19,547.82a26,26,0,0,1,1-7.27l9.09,1.47a5.78,5.78,0,0,1,4.75,4.18c.47,1.38-.09,2.21-1.51,2.2s-3.07-.07-4.6-.14C277,548.13,274.11,548,271.19,547.82Z"/><path class="cls-19" d="M267.41,574.94,269.57,560a2.57,2.57,0,0,1,2.29,2.92c-.28,6-.48,11.94-.71,17.91,0,.41,0,.83-.09,1.25-.22,1.56-1,2.55-1.86,2.29C268,584,268.15,582.86,268,582a12.33,12.33,0,0,1-.09-2.91A10.33,10.33,0,0,0,267.41,574.94Z"/><path class="cls-20" d="M288,561.05c-.17,4.71-1.28,9.28-1.93,13.92-.15,1.07,0,2.23-.7,3.19-.69.15-1.37.35-2.06.44-.9.11-1.45-.34-1.35-1.12.65-4.87,1.35-9.73,2-14.59a1.89,1.89,0,0,1,1.92-1.83C286.6,561,287.3,561.05,288,561.05Z"/><path class="cls-21" d="M374.77,510.34,363,500.58a18.42,18.42,0,0,1,6.38-.89c3.13.38,4.37,2.9,5.84,5.15A16.2,16.2,0,0,1,374.77,510.34Z"/><path class="cls-22" d="M345.17,560.23c2.33,3.94,3.49,8.36,5.05,12.62a1.76,1.76,0,0,1-.32,1.94,2,2,0,0,1-2.33.25c-1.09-.58-2.1-1.31-3.14-2A101.89,101.89,0,0,1,345.17,560.23Z"/><path class="cls-23" d="M282.39,597.49c-3.17-2.47-5.28-5.79-7.36-9.13a4.54,4.54,0,0,1,3.55-1.49c2.43,1.35,3.56,3.67,4.5,6.12A8.8,8.8,0,0,1,282.39,597.49Z"/><path class="cls-24" d="M346.44,531.09a8.06,8.06,0,0,1,1.87.89,4.07,4.07,0,0,1,.18,6.54,3.63,3.63,0,0,1-2.25,1C345.73,536.73,346.24,533.91,346.44,531.09Z"/><path class="cls-25" d="M375.26,504.84a39.16,39.16,0,0,1-5.84-5.15c7.18-2.1,6.6-1.38,5.92,4.74A3,3,0,0,1,375.26,504.84Z"/><path class="cls-26" d="M302.42,585.23c.65-.2,1.31-.54,2-.07a1.42,1.42,0,0,1,.66,1.43c-.44,1.74.31,3.64-.73,5.28a19.35,19.35,0,0,1-2.75-5.2C301.86,586.19,302.14,585.71,302.42,585.23Z"/><path class="cls-27" d="M284.08,584.63a8.45,8.45,0,0,1-.56,5.58c-2.77-.12-3.4-1.83-3.15-4.21C281.47,585.16,282.56,584.31,284.08,584.63Z"/><path class="cls-28" d="M280.37,586c.94,1.49,1.7,3.1,3.15,4.21a4,4,0,0,1-.44,2.78,15.5,15.5,0,0,1-4.5-6.12A2.38,2.38,0,0,1,280.37,586Z"/><path class="cls-29" d="M295.62,573.44a11.93,11.93,0,0,1-2.25-4.77c1.33-.91,1.79-.95,2.31-.16.3.46.55,1,.82,1.43A2.31,2.31,0,0,1,295.62,573.44Z"/><path class="cls-11" d="M308.56,551.17a1.08,1.08,0,0,1-.81-.91C308.28,550.34,308.45,550.73,308.56,551.17Z"/><path class="cls-20" d="M289.16,560.21l0,0Z"/><path class="cls-30" d="M221.9,610.52c5-2.06,9.94-4.1,14.89-6.19a11.81,11.81,0,0,1,3.56-1c1.68,1.28,2,3.3,2.76,5.09,5.35,13.42,15.11,22.3,28.33,27.63,1.55.62,3.26.93,4.33,2.41a77.07,77.07,0,0,1-2.45,12.85c-2,.06-2,.06-1.93-2.86-1.07,1.37-.74,3-1,4.44-.86,4.44-2.52,6-7,6.41-3,.29-3.62-.42-2.37-3.24,1.71-3.84,3.92-7.44,5.66-11.28-1.87,3.61-3.81,7.19-6,10.63-1.09,1.73-2,4.06-4.81,2.58-2.08-1.11-2.78-4.46-1.33-6.72s3.67-4.25,5.2-6.6c.5-.77,1.43-1.35,1.29-2.53-1.44,1-2.13,2.67-3.44,3.73-.79.65-1.64,1.2-2.65.55a2.28,2.28,0,0,1-.86-2.24c.1-1.71.93-3.23,1.24-4.89s-.33-2.15-1.85-1.49a24.88,24.88,0,0,1-3.46,1.55c-1.1.29-2.28.54-3.11-.51s-.21-2.13.32-3.13,1.45-1.94,2.2-3.48c-2.14,1.36-3,3.2-4.23,4.63a9.13,9.13,0,0,1-4.81,3.21c-2.19.47-4.32.41-5.5-1.87s.86-3.34,2.18-4.4a79.45,79.45,0,0,1,8-6.17c-3.08,1.72-5.51,4.32-8.45,6.23-1.11.73-2,2.12-3.67,1.23a6,6,0,0,1-1.45-3.27c-1-2.94.89-4.35,3-5.57,1.82-1,4-1.33,5.56-2.27-.29.1.45-.23.26-.16-2.53.86-5.58,2.58-3.35-2.62a3.53,3.53,0,0,1,.24-.34c1.41-2.73.63-4.1-2.47-4.39-2.22-.2-5.47,1.5-6.28-1.48s3-3.53,4.9-5.9c-2.44,1.57-4.28,3-6.29,4.21-1.13.66-2.31,1.85-3.73.43Z"/><path class="cls-31" d="M232.92,635.06c2.56-1.23,4.52-3.28,6.77-4.94s4.21-3.28,6.3-4.92c.63-.49,1.32-.67,1.82,0s0,1.3-.58,1.75c-2.84,2.29-5.69,4.55-8.53,6.84-1.09.89-2.18,1.77-3.21,2.72a1.25,1.25,0,0,0,.42,2.07,6.83,6.83,0,0,0,8-1.67c1.45-1.7,2.73-3.57,4.13-5.32s2.23-2,3-1.19.57,1.28-.68,2.93c-.93,1.23-1.92,2.41-2.87,3.63-.36.46-.66,1.11-.22,1.49a1.86,1.86,0,0,0,1.56.09c1.31-.49,2.57-1.1,3.84-1.7.76-.35,1.47-.82,2.24-1.13a1.58,1.58,0,0,1,2,1.46,9,9,0,0,1-.44,2c-.51,1.6-1.08,3.19-1.61,4.79-.21.66-.55,1.49.15,1.92,1,.62,1.46-.42,1.95-1,1.18-1.39,2.27-2.86,3.44-4.26.93-1.11,1.78-1.29,2.45-.6a1.54,1.54,0,0,1-.07,2.25q-2.85,3.64-5.74,7.27c-.35.44-.78.81-1.14,1.24-1.7,2-2,3.61.18,6.36a1.24,1.24,0,0,0,2.12,0c1.13-1.77,2.23-3.57,3.25-5.41,1.42-2.58,2.76-5.2,4.13-7.81.26-.5.44-1,.71-1.53.54-1,1.41-1.49,1.95-1,.83.68.52,1.51.17,2.29s-.76,1.5-1.15,2.25q-2.42,4.67-4.82,9.35c-.39.75-.79,1.49-1.13,2.26a1.12,1.12,0,0,0,1.17,1.65,6.4,6.4,0,0,0,6.38-5.11c.43-1.62.61-3.31.94-4.95a33.12,33.12,0,0,1,.79-3.27,1.18,1.18,0,0,1,1.23-.94,1.23,1.23,0,0,1,.93,1.59c-.3,1.36-.82,2.68-1,4-.14,1.08.77.87,1.45.75-.23,2.34-.13,5-1.62,6.75s-4.16,1.08-6.32,1.41c-4.25.64-8.53,1.13-12.8,1.68-3.33-1.64-4.13-4.7-4.39-8a21.58,21.58,0,0,1,.06-3.77c.26-2.83-.64-4.12-3.76-3.78-2.61.29-5.36.38-7.56-1.62A47.92,47.92,0,0,1,232.92,635.06Z"/><path class="cls-32" d="M275.77,638.43c-16.17-3.51-31.36-17.71-35.42-35.13a11.33,11.33,0,0,1,6.11-2.73c2.7,6.43,5.37,12.88,8.12,19.28a29.08,29.08,0,0,0,3.24,6.59c1.38-2.42,1.2-5.05,2.16-7.3.42-.08.94-.16,1.22.1,4.81,4.52,10.85,7.28,16,11.34A35,35,0,0,1,275.77,638.43Z"/><path class="cls-33" d="M312,608.44c.38-2.05.75-4.11,1.16-6.16a.85.85,0,0,1,1.34-.36,11.73,11.73,0,0,1,1.24,1.68c3.6,6.35,7.17,12.72,10.77,19.08a6.5,6.5,0,0,1,.86,4.41c-.5,3.16-.34,6.42-1.39,9.5a4.22,4.22,0,0,1-1.38-2.06q-6.1-12.45-12.2-24.91A9.09,9.09,0,0,1,312,608.44Z"/><path class="cls-31" d="M223.31,613.7c1.52,0,2.62-.82,3.77-1.62,1.94-1.37,3.89-2.72,5.87-4a9.67,9.67,0,0,1,1.85-.92.79.79,0,0,1,.72.25c.19.33.41.88.26,1.11a5.91,5.91,0,0,1-1.43,1.48c-1.56,1.18-3.17,2.3-4.75,3.45-.45.34-.95.78-.76,1.37.25.77,1,.87,1.71.82,1.53-.11,3.06-.24,4.59-.38a4.41,4.41,0,0,1,3.77,1.46,2.41,2.41,0,0,1,.3,3.4c-.74,1-1.64,1.89-2.42,2.87a.79.79,0,0,0,0,.76.87.87,0,0,0,.76.16,17.71,17.71,0,0,0,1.91-.82c.76-.35,1.48-.8,2.26-1.08.63-.24,1.47-.48,1.88.23s-.21,1.28-.82,1.65a13.87,13.87,0,0,1-1.52.69c-1.93.82-3.81,1.77-5.8,2.42a5.32,5.32,0,0,0-4,4.83,29.62,29.62,0,0,1-3.28-7c.24-1.73.29-3.37-1.74-4.16A32.05,32.05,0,0,1,223.31,613.7Z"/><path class="cls-34" d="M236.93,643.94c3.62.3,7.23.8,10.86,0,1.2-.27,1.81.4,1.8,1.64a49.28,49.28,0,0,1-.15,5.44c-.52,3.9.85,7.13,3.14,10.12-1.37.26-2.77.42-4.1.81-2.06.6-3.23-.5-4.07-2s-1.5-3.3-2.24-5c1-2.6.66-4.55-2.51-5.1A28.83,28.83,0,0,1,236.93,643.94Z"/><path class="cls-35" d="M277.18,630.58c-5.21-1.79-9.59-4.93-13.76-8.42-1.16-1-2.29-2-3.44-3a14.16,14.16,0,0,1,.94-4.45,2.79,2.79,0,0,1,2.66.83,62.25,62.25,0,0,0,13.65,10,1.13,1.13,0,0,1,.5,1.06A6.79,6.79,0,0,1,277.18,630.58Z"/><path class="cls-36" d="M277.73,626.58c-4.07-1.25-7.35-3.79-10.54-6.46-2.12-1.77-4.18-3.61-6.27-5.43a14.14,14.14,0,0,1,1-4.58c2.66-.12,3.88,2.11,5.38,3.6,3.48,3.45,8.19,5.35,11.26,9.25C278.32,624.18,278.56,625.5,277.73,626.58Z"/><path class="cls-37" d="M278.52,623c-4.24-1.87-7.73-4.8-11.16-7.82-1.87-1.63-3.66-3.35-5.48-5a8.68,8.68,0,0,1,.9-4.45c1.43,1.52,2.83,3.07,4.28,4.57a43.79,43.79,0,0,0,12,9A8.63,8.63,0,0,1,278.52,623Z"/><path class="cls-38" d="M332.56,649.62c1.26-1.7.85-3.76,1.17-5.66.28-1.69-.31-3.59,1.24-5,1.76.76,2,2.62,2.76,4,1,1.83,2.2,3.59,2.59,5.7C337.75,649.22,335.22,650,332.56,649.62Z"/><path class="cls-39" d="M328.28,641.3c1-1.61.68-3.49,1-5.24.26-1.36.35-2.75.62-4.1.07-.34.52-.83.8-.84a1.22,1.22,0,0,1,1.18,1,3.42,3.42,0,0,1,.12,1.23c-.48,4.13-1,8.25-1.47,12.37A11.82,11.82,0,0,1,328.28,641.3Z"/><path class="cls-40" d="M306.81,597.33c1-1.15.26-2.73,1-3.94.27-.42,1.09-.63,1.41-.26a5.11,5.11,0,0,1,1.51,4.13c-.31,2.32-.55,4.66-.82,7A33.08,33.08,0,0,1,306.81,597.33Z"/><path class="cls-41" d="M239.66,649.82a9.49,9.49,0,0,1,2-.46,2.66,2.66,0,0,1,2.49,1.9,2.28,2.28,0,0,1-.65,2.65,12.3,12.3,0,0,1-1.33,1A19.59,19.59,0,0,1,239.66,649.82Z"/><path class="cls-42" d="M226.45,620.63c1.25-.12,2.87-.43,3.45.72.75,1.47-.9,2.39-1.71,3.44A8.47,8.47,0,0,1,226.45,620.63Z"/><polygon class="cls-39" points="327.82 640.84 328.12 640.83 328.13 641.16 327.84 641.11 327.82 640.84"/><path class="cls-5" d="M226.06,544.43c1.79,3.19,2.68,6.7,3.71,10.17A139.06,139.06,0,0,0,211.6,563q-2,1.14-4,2.31c-3.29,2-3.29,2-4.59-1.44-.35-.91-.64-1.84-1-2.75.76-3.47,3.44-6,4.44-9.41a36.22,36.22,0,0,0,1.25-3.54c.3-1.55.49-3.18-1-4.23-1.62-1.19-2.82.19-4.1,1-1.84,1.13-2.86,3.57-5.49,3.41-2.57-5.75-4.49-11.76-6.66-17.67a4,4,0,0,1-.43-1.6c.34-3.76-.3-4.2,3.71-4.67l5.85-.65c2.11.33,2.63,2.32,3.77,3.64s2.36,3,4.49,2.38,2.24-2.57,2.23-4.42a4.82,4.82,0,0,1,.61-3.22l7.54-1.24a87.44,87.44,0,0,1,4.41,13.36,8.41,8.41,0,0,1-1.63,1.89c-2.17,1.74-1.52,3.37.32,4.79C223,542.09,224.94,542.71,226.06,544.43Z"/><path class="cls-43" d="M230.07,568a1.71,1.71,0,0,1,2,1.2c.64,1.7,1.28,3.41,1.9,5.11q3.45,9.47,6.87,18.92c.19.52.42,1,.57,1.57a1.72,1.72,0,0,1-.91,2.12,11,11,0,0,1-2.35.85,1.81,1.81,0,0,1-2.12-1c-.29-.48-.55-1-.81-1.47q-5.49-10.62-11-21.25c-1.3-2.55-1-3.29,1.54-4.51,1-.48,2.07-.86,3.11-1.26A11.23,11.23,0,0,1,230.07,568Z"/><path class="cls-44" d="M232.12,598.56c.2,1.13-.06,1.74-.73,2.13a1.38,1.38,0,0,1-1.86-.39,15.49,15.49,0,0,1-1.52-2q-6.42-10.11-12.82-20.24c-1.08-1.72-.92-2.21.83-3.4.47-.31,1-.57,1.44-.87a1.58,1.58,0,0,1,2.22.42,9.84,9.84,0,0,1,1.11,1.78q5.24,10.29,10.46,20.6C231.62,597.34,231.93,598.12,232.12,598.56Z"/><path class="cls-45" d="M197.23,548.32c1.67-1.5,3.33-3,5-4.48a11.48,11.48,0,0,1,2.07-1.45,3.12,3.12,0,0,1,4.48,1.7,5.68,5.68,0,0,1,.14,3.73c-1.41,4.88-3.17,9.6-6.87,13.3A92.77,92.77,0,0,1,197.23,548.32Z"/><path class="cls-46" d="M209.18,579.54a1.41,1.41,0,0,1,.73-1.44,1.46,1.46,0,0,1,1.59-.08,5.79,5.79,0,0,1,1.42,1.5q6.51,10.59,13,21.21c.76,1.25.62,1.91-.32,2.52a1.91,1.91,0,0,1-2.66-.24,18.5,18.5,0,0,1-1.51-2c-2.58-3.85-5.09-7.75-7.74-11.56C211.54,586.39,210.55,582.86,209.18,579.54Z"/><path class="cls-47" d="M210.8,522.11c.21,1.67.49,3.34.62,5a3.88,3.88,0,0,1-1.76,3.62,3.66,3.66,0,0,1-5-.26,22.22,22.22,0,0,1-5-6.76A33.16,33.16,0,0,1,210.8,522.11Z"/><path class="cls-48" d="M221.79,517.77l0-.09Z"/><path class="cls-49" d="M226.06,544.43a16.69,16.69,0,0,1-6.72-3.88c-2-1.75-1.83-3.67.41-5a28.83,28.83,0,0,1,3-1.34A36.28,36.28,0,0,1,226.06,544.43Z"/><path class="cls-50" d="M210.9,533.16a3.72,3.72,0,0,1,4.59,3.2,3.6,3.6,0,0,1-3.06,4.26,4,4,0,0,1-4.56-3.35C207.46,534.89,208.45,533.56,210.9,533.16Z"/><path class="cls-51" d="M2.87,709.43c11-4.81,19.74-13,29.26-19.9,25.79-18.76,51.15-38.1,73.8-60.74,8-8,14.44-17,21.27-25.86,25.09-32.42,58.67-51.73,97.24-63.44,2-.6,3.88-1.48,5.82-2.23,4.54-5.91,11.22-5.47,17.52-5.57,2.7-.05,5.45.4,8.19.09,7.6,2.13,8.78,4.72,5.77,12.64-5.9,8-15,11.76-22.81,17.15a83,83,0,0,0-19.74,7.09c-8.63,5.06-17.92,8.89-26.05,14.93-9.63,7.17-16.33,16.53-22.06,26.78-1.56,2.8-2.05,5.93-.19,8.65s5,2.12,7.76,1.83c6-.63,10.76-4.31,15.94-6.93,2.9-1.47,5.75-3,8.77-4.29a19.15,19.15,0,0,0,6.19-4.71,95.73,95.73,0,0,1,28.58-15.77c4.16-1,8.46-.74,12.64-1.51A21.94,21.94,0,0,1,264,601.47c-4.05,5-5.68,12.32-13.34,13.83l-9.77,7.18c-.45,3.08-2.48,4.82-5,6.31-7.8,4.6-15.47,9.41-24.24,12-9.52,3.66-15.46,11.8-22.67,18.29-14.36,12.91-29.09,24.63-49.67,25.75-11.14.6-19.22,7.41-26.55,15.31q-52.06,56.05-104.31,112c-1.72,1.85-3.72,3.45-5.59,5.16Z"/><path class="cls-52" d="M811.3,531.42l-3.67-1.65c-2.62-3.07-.92-5.68.87-8.29,6.14-6.66,14.38-6.7,22.5-7.13,10.84-2.51,21.65.12,32.46.38,4,.1,7.78-.31,11.42-.52-8.7,1.47-17.54.28-26.37-1.12-2.11-.33-4.13-.84-4.88-3.24,8.6-2.17,15.63-7.28,22.79-12.14,1.7-1.16,3.14-2.7,5.29-3,4.43-2.62,9.89-.07,14.17-2.43-2.92.14-6.23,3.51-8.82-1.19,5.47-3.28,10.83-6.75,16.45-9.75a26.4,26.4,0,0,1,9.18-3c4-.46,8.89-1.68,11.3,3,2.27,4.37,1.21,8.8-1.18,13.22-10.94,20.24-28.27,32.66-49.12,40.92a216.08,216.08,0,0,1-21.7,2c-4.88,0-9.74-.34-14.6-.53A31.88,31.88,0,0,1,811.3,531.42Z"/><path class="cls-52" d="M870.1,461.18c-7.07,6.89-16.29,10.37-24.49,15.48-1.57,1-3.16,1.91-4.74,2.87-4.33-3.84-9.91-5.06-15.14-6.74-3.59-1.16-7-1.71-6.41-6.45s3.91-6.71,8.28-6.79a109.84,109.84,0,0,1,13.94.49A267.18,267.18,0,0,0,870.1,461.18Z"/><path class="cls-52" d="M818.21,500.53c-11.27-4.39-12.1-6.44-6-14.9,6.46-2.42,12.64.27,18.92,1.08-2.9,3.43-6.47,6.37-7.33,11.21C823.19,501.11,820.3,500.14,818.21,500.53Z"/><path class="cls-53" d="M873.92,460.12c-3.2,5.34-5.92,9.92-8.69,14.46s-5.58,9.11-8.43,13.63-5.73,9-8.65,13.49-5.72,8.7-8.62,13-6,8.81-9,13.23-6.25,8.59-9.27,13.3c18.21,11.19,34.32,24.52,49.42,39.11Q885.8,595,899.58,611c.44.51.82,1.09,1.16,1.54-.26,1.14-1.11,1-1.72,1.07-13.73,2.27-27.47,4.47-41.19,6.81-2.12.36-3.35-.35-4.69-1.84a308,308,0,0,0-37.07-35q-7.41-5.94-15.34-11.17c-.93-.62-1.88-1.23-2.85-1.79-.75-.43-1.5,0-1.41.79.13,1.25.32,2.5.52,3.75q3.78,23.1,7.55,46.21c.38,2.35.69,4.7,1,6.8a2.9,2.9,0,0,1-2.12,1.06l-33.72,5.52c-.28,0-.55.1-.83.13-1.75.21-2,0-2.37-1.51-.17-.83-.3-1.66-.44-2.5L742.3,485.61c-.09-.55-.19-1.11-.27-1.67-.26-2.1-.1-2.4,2.07-2.76q17.05-2.82,34.13-5.59a8.8,8.8,0,0,1,1.26-.1,1.18,1.18,0,0,1,1.23.93c.28,1.23.51,2.47.72,3.72,2.28,13.87,4.53,27.75,6.84,41.62.19,1.13-.23,2.92,1.23,3.18,1.07.19,1.48-1.47,2.08-2.36,11.19-16.7,21.93-33.7,32.71-50.66l.45-.72c2.61-4,1.51-3.38,6.58-4.29,4.43-.79,8.88-1.47,13.32-2.19q12.29-2,24.56-4C870.43,460.51,871.67,460.4,873.92,460.12Z"/><path class="cls-54" d="M817.7,493.58a6.89,6.89,0,0,1,1.88-2.94c1.91-2,3.39-4.37,5.15-6.5a3,3,0,0,0,.73-3.39l1.87-3c1.8-.48,4,.57,5.44-1.66-1.09-1.35-3,.76-4-.83a4.6,4.6,0,0,1,4.27-2.78c4.06,0,7.91-1.33,11.88-1.92,1.23-.18,2.49-.24,3.73-.36,2.26,4.35.21,10.43-4.81,14-2.61,1.86-5.41,3.38-7.52,5.95-4.27,5.2-6.09,10.85-4.43,17.54.49,2,1.43,4,.92,6.15a19.42,19.42,0,0,1-3.39,5c-1.73,0-2.05-4-3.59-2.23-1.94,2.19,1.91,2.2,2.56,3.65a9.46,9.46,0,0,1-2.51,3.61c-2.32.36-2.54,2.19-2.8,4-1,2.35-2.72,4.24-4.16,6.31-2,2.86-4.06,5.67-6.14,8.58,3,2.73,6.84,3.8,9.52,6.53-4.57,2.26-8.92.72-13.27-.75-2.33-3.14-1.88-6.61-1.17-10.09a49,49,0,0,1,1.92-6c1.26-3.63.82-4.26-2.81-5.43-3-.95-6.58-.73-8.14-4.32a26.72,26.72,0,0,1,4.17-6.23c5.37-2.12,5.66-2.56,5.49-8.46a25.94,25.94,0,0,1,4-6.23,2.79,2.79,0,0,1,1.82.86c2.4,2.13,3.14.84,3-1.57S817.63,496.05,817.7,493.58Z"/><path class="cls-55" d="M808.84,547.81a65,65,0,0,0,13.49,1.41,32.54,32.54,0,0,1,9.46,6.26c-2.4,2.2-5.21.83-7.83.83a47.27,47.27,0,0,1-5.31-.41,40.68,40.68,0,0,0-8.09-.83,141.74,141.74,0,0,0-15.66-1.45,26.84,26.84,0,0,0-6.06-.71c-1.6-.21-3.18-.53-4.78-.73-.79-.08-1.56-.26-2.36-.29-3-.48-4.33.71-4.5,3.77-.25,4.41-.63,8.83-1.16,13.22-.23,1.4-.33,2.82-.46,4.23a44.41,44.41,0,0,0-.63,5.52c-.32,3.13-.54,6.27-.78,9.4-.22,2.29-.68,4.55-.78,6.86-.23,1.44-.23,2.92-.43,4.37a19.8,19.8,0,0,0-.48,6.24c-1,3.7.23,8-3,11.16a173.44,173.44,0,0,1-3.09-19.76c-1-5.61.08-11.15.6-16.71.71-7.53,1.59-15.05,2.16-22.59.27-3.61,0-3.74-3.32-2.44-1.93.76-3.75,2-6,1.33a9.81,9.81,0,0,1-.9-5.36c1.74-2.6,4.67-3.33,7.52-4.7-2.89-3.24-7.45-4.44-9.59-8.31a20.69,20.69,0,0,1-1.39-7.58,3,3,0,0,1,1.16-.1c3.35,1.23,5.8,3.85,8.77,5.65a11.44,11.44,0,0,1,1,.67c1.43,1.12,3,2.07,4.36,3.23,2.36,2,4.21,1.77,5.69-1,2.52-2.66,3.55-6.65,7.29-8.22a18.35,18.35,0,0,1,1.16,6.92,9.18,9.18,0,0,1-.76,2.38c-2.38,4.45-2.38,4.5,2.87,4.93,5.57.47,11.15.9,16.72,1.36C805.44,546.74,807.32,546.63,808.84,547.81Z"/><path class="cls-56" d="M818.2,555c3.18-.34,6.31.37,9.47.42,1.37,0,2.74.06,4.12.1a16.15,16.15,0,0,1,4.78,3.59c4.3,11.93,6.55,24.31,8.29,36.82.21,1.5.47,3.1-.88,4.32a51,51,0,0,1-7-6.66c-4.11-7.07-4.38-15.24-6.51-22.87-.74-2.65-1.1-5.4-2.19-8.07,1.17,7.3,3.22,14.29,4.94,21.35.49,2,1.41,4-.15,6a52.74,52.74,0,0,1-7.85-6.85c-1.88-2.39-2.58-5.27-3.39-8.11-.34-1.19-.54-2.91-2-2.82-1.94.11-1,1.87-1.07,3,0,.8.27,1.72-.81,2.11a55.35,55.35,0,0,1-7.63-5.74c-2.2-2.18-2.55-5.18-3.55-8.6-.78,2.28.37,4.18-.77,5.71l-6-3.94c-1-1.18-1.93-2.62-3.87-2.25a9,9,0,0,1-3.18-1.79c-.68-3-.47-5.82,2-8.07,5.35-.06,10.67.12,15.84,1.73,2,.45,1.94,2.52,2.9,3.79.66.87,1,2.22,2.44,1.91,1.17-.26,1.11-1.46,1.23-2.42S817.25,555.63,818.2,555Z"/><path class="cls-57" d="M783.71,530.78l-7.18,9.29c-2.54-.08-2.68-2.18-3-3.86-3.15-15.18-6.68-30.28-10.06-45.4-.94-4.19-2.31-5.2-6.36-4.24-.2,0-.44-.17-.62.3-1.16,3-1.22,3.05-3.76,1.89-1.14-.52-2.34-.9-3.48-1.42l-.54-.5c.3-.26.57-.69.91-.75Q761.94,484,774.3,482a3,3,0,0,1,.82.1c.17.81-.64,1.12-.87,1.73.91.09.68-1.3,1.58-1.22a5.27,5.27,0,0,1,.45,1.15q1.37,8.82,2.67,17.66c-1.43.95-1.35,2.2-.84,3.63,1.85,5.2,2.6,10.69,4.19,15.95Z"/><path class="cls-58" d="M844,600.21c-1-6-1.85-11.93-2.88-17.87-.62-3.59-1.43-7.15-2.18-10.72a47.16,47.16,0,0,0-2.06-7.28c-.64-1.68-1.33-3.46-.29-5.27A116.55,116.55,0,0,1,853,572.33c.8,5.12.8,5.12,4.67,4.26a5.47,5.47,0,0,1,2.52,2.21,3.8,3.8,0,0,1-.09,2.87c-2.56,7.29-4.69,14.72-7,22.09-.42,1.31-.66,2.77-2.15,3.44A58.24,58.24,0,0,1,844,600.21Z"/><path class="cls-59" d="M772.52,595.11a18.2,18.2,0,0,1,.66-7.19c.14,0,.28-.14.4-.12,7.12,1.11,7.16,1.13,10-5.94,1.19-3,2.53-5.94,3.73-9,.55-1.39.89-3,2.65-3.55a48.35,48.35,0,0,1,1.72,10.27c.33,3.55-.7,6.94-1.28,10.37s-.2,6.62,2.62,9.18a9.19,9.19,0,0,1,2.56,4.28,36.09,36.09,0,0,1,1.41,8.93c-2.31.2-3.42-1.66-4.91-2.86-4-3.25-6.72-2.62-8.7,2.24-1.65,4-3.39,8-5,12.07a8.23,8.23,0,0,1-2.52,3.81,9.86,9.86,0,0,1-1.17.36c-2.67.5-3.55,1-3.48-2.92-.67-4.19,1-8,2.13-11.83C775.14,607.06,776.14,601,772.52,595.11Z"/><path class="cls-60" d="M775.85,627.65c2.4-6,4.77-11.94,7.21-17.89a8,8,0,0,1,1.36-2.1,4.11,4.11,0,0,1,4.56-1.28,9.34,9.34,0,0,1,3.55,2.18l4.44,3.83c1.09,3.31,1.32,6.78,1.89,10.18.21,1.2,0,1.37-1.68,1.73a3.75,3.75,0,0,1-.82,0c-.51-.25.12.05-.41-.07-2.35-.5-3.37-3.9-5.8-3.31-2.13.51-1.77,3.9-3.85,5A60.56,60.56,0,0,1,775.85,627.65Z"/><path class="cls-61" d="M789.94,569.36q-3.26,7.75-6.49,15.51c-.44,1-.82,2.1-1.35,3.08-1.36,2.49-3,3-5.61,1.78-1.13-.53-2.21-1.2-3.31-1.81a34,34,0,0,1,1-9.89c3.61,1.21,5.21-.35,6.45-3.79,2.13-5.9,3.83-11.93,5.85-17.86.52-1.54.6-3.34,2.2-4.35a8.75,8.75,0,0,1,6.18.59q-1,4-2,8.08l-4-1.73C788.68,562.69,790.09,566,789.94,569.36Z"/><path class="cls-6" d="M753.52,517.05a16.12,16.12,0,0,1-.8-2.37c-1.44-8.74-2.83-17.49-4.25-26.23a2.14,2.14,0,0,1,.21-1.61l.1,0a68.33,68.33,0,0,1,6.31,4.19,11.49,11.49,0,0,1,5.53,9c.48,5.49,3,10.55,3.46,16,.12,1.49.82,3.32-.84,4.23-1.38.75-2.58-.6-3.81-1.21-1.7-.83-2.74-2.91-5-2.63A3.84,3.84,0,0,1,753.52,517.05Z"/><path class="cls-62" d="M759.85,556.49c3.21-1.42,6.41-2.86,9.63-4.25a.87.87,0,0,1,1.23.73,5.45,5.45,0,0,1,.06,1.66q-2.16,21.15-4.36,42.28c-1.09-6.29-2.22-12.58-3.27-18.87-.48-2.87-.81-5.77-1.21-8.66.63-2.75,2.81-5,2.55-8.21-1.61-.46-2.25,1.53-3.63,1.36A17.25,17.25,0,0,1,759.85,556.49Z"/><path class="cls-63" d="M865.59,584a28.22,28.22,0,0,1,6.11,6c.87,3.61-1.3,6.54-2.47,9.58-1.8,4.65-2.32,9.88-5.86,13.78-1.2.27-2.42.48-3.6.81-2.09.58-3.43-.24-4.28-2.11-.71-3.15,1.26-5.68,2.07-8.45,1.5-5.12,3.57-10.05,5.15-15.14C863.23,586.75,863.71,584.87,865.59,584Z"/><path class="cls-64" d="M865.59,584q-3.5,9.9-7,19.79c-1,2.77-2.06,5.51-3.1,8.26a23.83,23.83,0,0,1-4.63-4.83c2.16-7,4.28-14,6.5-20.91.8-2.53,1.84-5,2.78-7.49A24.59,24.59,0,0,1,865.59,584Z"/><path class="cls-65" d="M832.84,513.8c-4.23-7.42-3.84-14.75.56-21.92a21.64,21.64,0,0,1,8.26-7.65c5.61-3.07,7.68-7.88,7-14.07a5.74,5.74,0,0,1,3.64-.55,6,6,0,0,1,.81,6.22,14.17,14.17,0,0,0-.54,7.62,16.13,16.13,0,0,1-3.23,5.14,7.92,7.92,0,0,1-3.22.72,13.65,13.65,0,0,0-11.33,17.76,16.31,16.31,0,0,1,.6,2.84A10.26,10.26,0,0,1,832.84,513.8Z"/><path class="cls-66" d="M803.89,547.16a18.07,18.07,0,0,1-5.87,0c-5.44-.47-10.88-1-16.31-1.64-1.79-.2-2-.71-1.08-2.05,1.38-1.94,2.83-3.83,4.24-5.73.24,1.13.47,2.27.71,3.4,3.68,2.95,5.38,3,9.27.54,1.32-.85,2.65-1.79,2.22-3.61s-2-2.47-3.84-2.5a5.65,5.65,0,0,1-2.85-.29,42.51,42.51,0,0,1,5.15-7.6c3.29-.37,5.8,1.63,8.55,2.86a2.6,2.6,0,0,1,1.63,2.72C804.78,537.83,805.62,542.66,803.89,547.16Z"/><path class="cls-67" d="M803.89,547.16c-.42-4.58-.56-9.13.93-13.6.5-1.49.14-2.19-1.29-2.49a28.08,28.08,0,0,1-8-3.43,18.2,18.2,0,0,1,3.33-5,22.26,22.26,0,0,0,9.32,3.53,9.65,9.65,0,0,1,2.05.46A2.75,2.75,0,0,1,812,530a9.5,9.5,0,0,1-.75,1.94,25.65,25.65,0,0,0-2.41,15.9A6.94,6.94,0,0,1,803.89,547.16Z"/><path class="cls-68" d="M835.41,509.91c-2.63-2.64-3.07-5.87-2.45-9.35,1-5.6,4.41-9.32,9.41-11.63a8.92,8.92,0,0,1,7-.34,33.33,33.33,0,0,1-4.78,7.51c-3.61.28-3.82,2.79-3.65,5.55-.24.38-.48.77-.73,1.15a5.72,5.72,0,0,0-2.46,3.75A7.89,7.89,0,0,1,835.41,509.91Z"/><path class="cls-69" d="M863.37,613.33q3.14-8.93,6.29-17.84c.65-1.85,1.36-3.68,2-5.52a12.53,12.53,0,0,1,3.74,3.69,41.59,41.59,0,0,1-6.36,18.75A18.49,18.49,0,0,1,863.37,613.33Z"/><path class="cls-69" d="M887.85,609.34l-15.55,2.55c-.8-4.38,1.23-8.06,3-11.75.64-1.33,2.27-2.17,3.52-1.14C882.42,601.91,886.26,604.67,887.85,609.34Z"/><path class="cls-70" d="M833,590c-.9-5.84-2.74-11.47-4-17.23-.81-3.7-1.63-7.4-2.43-11.11a5.26,5.26,0,0,1-.13-1.25c0-.76.31-1.41,1.12-1.53a1.4,1.4,0,0,1,1.6,1.07c.63,2.3,1.2,4.62,1.73,6.94,1.46,6.44,2.92,12.88,4.32,19.33.54,2.47,1.67,4.79,1.7,7.37A14.39,14.39,0,0,1,833,590Z"/><path class="cls-71" d="M790.38,535.24a27.22,27.22,0,0,1,3.62-.87,4,4,0,0,1,3.89,1.93,3.44,3.44,0,0,1-.43,4.87,14,14,0,0,1-7.8,3.63c-2,.35-3.15-.81-4.08-3.7,1-.47,1.48-1.51,2.12-2.35Z"/><path class="cls-72" d="M772.52,595.11A10.48,10.48,0,0,1,776.15,606c-1.43,6.4-3.28,12.71-4.95,19.05-1.08-2.71-1.18-5.62-1.7-8.44a21.31,21.31,0,0,0,.92-4.9,22.13,22.13,0,0,1,1.1-6.19c1.88-2,1.74-4.24.64-6.56C771.92,597.67,771.6,596.33,772.52,595.11Z"/><path class="cls-73" d="M887.85,609.34c-2.51-3.37-5.62-6.18-8.49-9.22a4.94,4.94,0,0,0-1-.78,1.27,1.27,0,0,0-1.83.32,5.58,5.58,0,0,0-.73,1.49c-1.19,3.58-2.35,7.16-3.52,10.74a7,7,0,0,1-3.22.52c.48-1.58.88-3.19,1.46-4.73a109.59,109.59,0,0,0,3.51-10.6,9.12,9.12,0,0,1,1.39-3.42c4.89,4.37,9.11,9.39,13.56,14.19C889.86,608.77,889.69,609,887.85,609.34Z"/><path class="cls-62" d="M756.88,538.12q5.5,3.79,11,7.61c.18.13.2.5.4,1L759,551.14A76.58,76.58,0,0,1,756.88,538.12Z"/><path class="cls-74" d="M795.56,603.46q-2.53-2.75-5.08-5.48a5.76,5.76,0,0,1-1.54-5,63.74,63.74,0,0,1,2.72-13.4,34.55,34.55,0,0,1,1.55,10,8.4,8.4,0,0,0,1.35,7.32A20.93,20.93,0,0,1,795.56,603.46Z"/><path class="cls-75" d="M852.59,483.45c-.34-.43-.67-.88-1-1.31a3.09,3.09,0,0,1-.35-4.1c1.64-2.58,1.67-5.5,1.09-8.43a8.68,8.68,0,0,1,4.57-.85,3.37,3.37,0,0,1,2.55,3.67,7.61,7.61,0,0,1-2.19,3.55,4.05,4.05,0,0,0-2.53,4.11A6.73,6.73,0,0,1,852.59,483.45Z"/><path class="cls-76" d="M817.87,577.3c-.2-1.08-.45-2.16-.58-3.25a8.11,8.11,0,0,1,0-2.46c.2-1.09,1.13-1.51,2.13-1.68a2,2,0,0,1,2.13.92,5.11,5.11,0,0,1,.75,1.47c.8,3.65,2.51,7.05,2.87,10.81A44,44,0,0,1,817.87,577.3Z"/><path class="cls-77" d="M755,526.21c-1.38-2.91-1-6.1-1.45-9.16l.24-.42c5,1,8.41,4.5,11.83,7.84a3,3,0,0,1,.1,4.2c-1.43,1.46-2.8.37-4-.59s-2.64-2-4-3c-.76-.53-1.48-.81-2,.35A1.68,1.68,0,0,1,755,526.21Z"/><path class="cls-78" d="M817.7,493.58a3.13,3.13,0,0,1,1.07,3,17.55,17.55,0,0,0-.13,5.83,4.73,4.73,0,0,1-.29,2,1.89,1.89,0,0,1-3.32.59c-.87-1.09-1.66-2.24-2.49-3.36A39.94,39.94,0,0,1,817.7,493.58Z"/><path class="cls-79" d="M782.3,521c-2.26-3.88-2.92-8.32-4.34-12.49-.76-2.22-1.34-4.5-2-6.76-.16-.55-.17-1.16.43-1.4a1.67,1.67,0,0,1,1.14.21,13.61,13.61,0,0,1,1.41.86,5.08,5.08,0,0,1,.47,1.14Q780.88,511.78,782.3,521Z"/><path class="cls-80" d="M786.3,626c.64-1.69,1.23-3.4,1.93-5.06,1.18-2.8,1.61-2.93,3.71-1,1.53,1.41,2.95,2.94,4.42,4.41A52.8,52.8,0,0,1,786.3,626Z"/><path class="cls-81" d="M760.85,562.53c1.12-1,1.69-2.56,3.06-3.37.49-.28,1-.56,1.49-.13a1.51,1.51,0,0,1,.47,1.09c-.21,3.55-1,6.86-3.94,9.26A13.21,13.21,0,0,1,760.85,562.53Z"/><path class="cls-82" d="M755.87,530.76l-.29.07-.09-.28c-.61-1.4-.36-2.9-.52-4.34l.2-.24c5.34.7,8.87,4.27,12.08,8.06.87,1,1.43,3.53-1.76,3.06l.06,0C762.49,534.75,759.86,531.72,755.87,530.76Z"/><path class="cls-83" d="M805.92,568.67c-.31-1.49-.64-3-.92-4.47a12.85,12.85,0,0,1-.22-2.05,1.39,1.39,0,0,1,.88-1.29,1.15,1.15,0,0,1,1.45.48,7.34,7.34,0,0,1,.93,1.83c.77,2.78,1.47,5.59,2.2,8.39A15.94,15.94,0,0,1,805.92,568.67Z"/><path class="cls-84" d="M808.52,507.92a4,4,0,0,1,1.61,3.59,4.58,4.58,0,0,1-2,3.47c-1.5,1.2-3,2.54-5.15,1.4A40.23,40.23,0,0,1,808.52,507.92Z"/><path class="cls-85" d="M828.42,520.2a8.76,8.76,0,0,1-1.22.24,3.27,3.27,0,0,1-3.48-4.23,2.36,2.36,0,0,1,2.08-1.76,2.48,2.48,0,0,1,2.6.82,5.85,5.85,0,0,1,1.05,3.51Z"/><path class="cls-86" d="M828.8,475.22c1.28-.51,2.54-1.05,3.84-1.5a1.73,1.73,0,0,1,2.18.64,1.78,1.78,0,0,1-.47,2.54c-.55.4-1.2.68-1.76,1.08-2.69,1.9-2.21,2-5.26-.27Z"/><path class="cls-87" d="M857.62,576.59a3.12,3.12,0,0,1-2.1,2.4,2.2,2.2,0,0,1-2.58-.86c-1-1.92-1.73-3.88,0-5.8A16.37,16.37,0,0,1,857.62,576.59Z"/><path class="cls-88" d="M840.93,501.65a15.2,15.2,0,0,1-.8-1.42c-.89-2-.8-3,.42-4.05s2.66-1.31,4-.08A16.49,16.49,0,0,1,840.93,501.65Z"/><path class="cls-89" d="M825.46,480.75c1.94,1.39,2.08,1.78,1,3.08-1.68,2-3.4,4-5.07,6a2.11,2.11,0,0,1-1.8.81c.68-2.13,2.21-3.77,3.29-5.68C823.68,483.53,824.59,482.15,825.46,480.75Z"/><path class="cls-90" d="M794.56,596.94c-2.15-.18-2.58-1.78-2.88-3.5s-.33-3.09,1.53-3.82A17.17,17.17,0,0,1,794.56,596.94Z"/><path class="cls-91" d="M859.44,472.43l-2.55-3.67c1.75-.41,3.4-1.62,5.32-.7C861.84,469.86,860.56,471.1,859.44,472.43Z"/><path class="cls-92" d="M823.11,527.8l-.52-1.08a2.23,2.23,0,0,1,.43-2.91,2,2,0,0,1,2.89,0A9.12,9.12,0,0,1,823.11,527.8Z"/><path class="cls-93" d="M854.72,480.09a3.54,3.54,0,0,1-.42-.69c-.82-2.77-.15-3.54,3-3.42A10,10,0,0,1,854.72,480.09Z"/><path class="cls-94" d="M796.05,562.48a2.23,2.23,0,0,1,2.56-.44,2.71,2.71,0,0,1,1.31,2.69A10.06,10.06,0,0,1,796.05,562.48Z"/><path class="cls-95" d="M837.74,506.55c-.42-2.4-.33-2.54,2.46-3.75A7.43,7.43,0,0,1,837.74,506.55Z"/><path class="cls-96" d="M822,518.89a1.78,1.78,0,0,1-2.5,1.67,7.51,7.51,0,0,1-1.52-1.41,4.39,4.39,0,0,0-4.87-1.62,6.1,6.1,0,0,1-2.05.1c-.19,0-.44-.32-.52-.55a.9.9,0,0,1,.06-.78,9.28,9.28,0,0,1,1.61-1.32c1.72-1.1,3.09-2.39,3.21-4.63a3,3,0,0,1,.73-1.46,1.79,1.79,0,0,1,2.86.26,13.12,13.12,0,0,1,.69,2c.69,2.29,1.37,4.57,2.05,6.86C821.84,518.37,821.94,518.77,822,518.89Z"/><path class="cls-97" d="M826.13,507a3,3,0,0,1-1.81,3.38,2.09,2.09,0,0,1-2.59-.67,7,7,0,0,1-1-1.81,2.56,2.56,0,0,1,1.79-3.23,2.26,2.26,0,0,1,3.07,1.28C825.82,506.31,826,506.69,826.13,507Z"/><path class="cls-98" d="M826.27,495.38a3.24,3.24,0,0,1-2.62,4,2.06,2.06,0,0,1-2.34-1.81,3.24,3.24,0,0,1,2.32-4.18A2.25,2.25,0,0,1,826.27,495.38Z"/><path class="cls-99" d="M831.45,486.55a3.29,3.29,0,0,1-3.34,3.4,2.42,2.42,0,0,1-1.91-1.9,3.2,3.2,0,0,1,3.5-3.57A2.5,2.5,0,0,1,831.45,486.55Z"/><path class="cls-100" d="M836.33,478.58a2.35,2.35,0,0,1,2.8,1.83,2.67,2.67,0,0,1-2.4,3.24,2.26,2.26,0,0,1-2.79-1.8A2.7,2.7,0,0,1,836.33,478.58Z"/><path class="cls-101" d="M843,478.31a2.2,2.2,0,0,1-2.62-1.46,2.66,2.66,0,0,1,2.18-3.36,2.38,2.38,0,0,1,2.48,1.76A2.54,2.54,0,0,1,843,478.31Z"/><path class="cls-5" d="M765.49,537.09c1.69-.76,2.09-1.61,1.18-2.67a8.31,8.31,0,0,0-1.56-1.4c-3.3-2.37-6.63-4.7-9.94-7-.18-1.09-.36-2.18-.53-3.23.84-.66,1.33,0,1.83.38,2.49,1.8,4.95,3.65,7.45,5.44a1.69,1.69,0,0,0,1.18,0c.47-.11.51-.59.55-1a2,2,0,0,0,0-.42A5.48,5.48,0,0,0,763.1,523c-3.15-2.08-6.23-4.26-9.34-6.41-.27-.91-.77-1.8-.14-3.09,3.27,1.92,6,4.5,9,6.37,1-.47.81-1.09.71-1.58A105.92,105.92,0,0,0,761,507.68a61.32,61.32,0,0,1-1.82-9,7.84,7.84,0,0,0-3.69-5.8c-1.88-1.21-3.65-2.59-5.48-3.88a2.54,2.54,0,0,1-1.22-2.08,3.29,3.29,0,0,1,3.57.29c.46.33.91.68,1.39,1,.8.46,1.61,1.55,2.56.68.72-.65,0-1.54-.34-2.3a.71.71,0,0,1,.49-1c.95-.24,1.92-.43,2.88-.59,4.1-.68,4.08-.67,4.95,3.41,1.45,6.71,2.72,13.47,4.44,20.12,1.27,4.9,2,9.91,3.27,14.78,1.19,4.49,2,9,2.86,13.58.22,1.25.41,2.52,1.68,3.23-.53.81-1,1.64-1.58,2.43a1.25,1.25,0,0,1-1.84.35C770.47,541.06,767.62,539.55,765.49,537.09Z"/><path class="cls-102" d="M788.68,552a206,206,0,0,1-7.07,22.38c-.56,1.43-1.15,2.86-1.8,4.25-1.13,2.42-1.54,2.49-3.59.83-.65-.53-1.36-1-2-1.46a8.35,8.35,0,0,1,.61-5c3.65-3.71,4.2-8.78,5.92-13.35,1.06-2.83,1-6.18,3.61-8.34A6.67,6.67,0,0,1,788.68,552Z"/><path class="cls-103" d="M784.32,551.36q-3.09,9.64-6.17,19.27c-.54,1.68-1.45,2.71-3.36,2.42a5.53,5.53,0,0,1,.32-4.33c1.66-4.28,2.6-8.79,4.11-13.12.59-1.7.89-3.56,2.71-4.52A3.41,3.41,0,0,1,784.32,551.36Z"/><path class="cls-104" d="M781.93,551.08c-1.61,4.89-3.23,9.77-4.82,14.67-.38,1.2-.65,2.44-2,3,.42-5.3.81-10.61,1.3-15.9.21-2.24.75-2.56,3.05-2.23C780.29,550.71,781.11,550.91,781.93,551.08Z"/><path class="cls-105" d="M818.2,555c.11,1.24.29,2.47.32,3.71a4.86,4.86,0,0,1-.38,2,2.12,2.12,0,0,1-3.43.8,8.06,8.06,0,0,1-1.84-2.2c-.82-1.59-1.46-3.27-2.17-4.91A10.79,10.79,0,0,1,818.2,555Z"/><path class="cls-106" d="M772.16,599a3.17,3.17,0,0,1,2.25,3,3.5,3.5,0,0,1-.69,2.67,2.85,2.85,0,0,1-2.2.84A8.85,8.85,0,0,1,772.16,599Z"/><path class="cls-5" d="M755.87,530.76c-.1-.42-.12-.85.42-.94a1.23,1.23,0,0,1,.73.29q3.72,2.67,7.43,5.35a2.22,2.22,0,0,1,1.1,1.67c-1.83-.44-3-1.86-4.54-2.83C759.27,533.17,757.58,532,755.87,530.76Z"/><path class="cls-107" d="M775.83,482.62c0,1.2,0,2.4.08,3.81-2-.46-3.13-1.72-4.48-2.81,1.25-1.21,2.66-.84,3.69-1.51Z"/><path class="cls-108" d="M783.23,602.73a4.19,4.19,0,0,1-4.92-3.33,4.53,4.53,0,0,1,3.36-5c2.2-.47,4.53,1.41,4.93,4C787,600.6,785.63,602.32,783.23,602.73Z"/><path class="cls-109" d="M1078.89,392.59c-11,4.81-19.74,13-29.26,19.89-25.79,18.76-51.14,38.1-73.79,60.75-8,8-14.45,17-21.28,25.86-25.09,32.42-58.66,51.73-97.24,63.43-2,.6-3.88,1.49-5.81,2.24-4.54,5.9-11.22,5.47-17.52,5.57-2.7,0-5.45-.41-8.19-.09-7.61-2.13-8.78-4.72-5.78-12.65,5.9-8,15-11.75,22.82-17.15a82.26,82.26,0,0,0,19.74-7.09c8.63-5.06,17.91-8.89,26-14.93,9.64-7.16,16.33-16.53,22.07-26.77,1.56-2.8,2-5.93.18-8.65s-5-2.12-7.76-1.83c-6,.63-10.76,4.31-15.93,6.92-2.91,1.48-5.76,3.06-8.78,4.3a19.09,19.09,0,0,0-6.18,4.7,95.81,95.81,0,0,1-28.59,15.78c-4.16,1-8.45.74-12.64,1.51a21.93,21.93,0,0,1-13.24-13.84c4-5,5.68-12.32,13.34-13.83l9.78-7.18c.44-3.07,2.47-4.81,5-6.3,7.79-4.6,15.47-9.41,24.23-12.05,9.52-3.65,15.46-11.79,22.68-18.28,14.35-12.91,29.08-24.63,49.67-25.75,11.14-.61,19.22-7.42,26.54-15.31q52.07-56.07,104.31-112c1.73-1.85,3.72-3.45,5.59-5.17Z"/><path class="cls-110" d="M372.14,200.8c-5.05-19.66-6.68-40-11.58-59.66C352.06,107,327.13,32.82,314.47,0h66.08c6.86,33.19,11,52.89,17.7,86.11,1.14,5.64,2.69,10.74,7.2,14.56,16.76,18.28,22.4,40.1,21.15,64.39a224.53,224.53,0,0,0,5.56,62.4c2.81,12.21,5.44,24.62,1.22,37.23-1.13,3.39-3.11,6.22-4.53,9.39a9,9,0,0,1-3,3c-7.39,2.73-11.71,1.74-16.56-4.23-4.15-5.12-6.8-11.1-8.85-17.3-5-15.23-9.53-30.61-13-46.27a54.91,54.91,0,0,0-2-6.66c-2.61-7.17-2.61-7.17-8.8-2.67C375.25,200.94,373.87,201.74,372.14,200.8Z"/><path class="cls-111" d="M465.27,255c.46,6.44,4.91,13.85-4.88,17.65-2,.76-.53,3.29-.32,5.07.46,3.71.8,7.64-2.7,10.13-3.32,2.37-6.58.36-9.76-1-5.26-2.2-9.08-6.32-13.34-9.85-2.12-1.76-4-3.81-6.94-4.35,6.94-12.88,6.3-26.56,3-40-5.84-23.91-7.58-48-6.56-72.51a87.09,87.09,0,0,0-15-53.4c-1.29-1.91-2.25-4-3.36-6.06,15.24,13.82,25.22,30.32,26.21,51.42a13.15,13.15,0,0,0,.85,4.74c4.68,10.23,7.67,21,10.27,31.87a43.57,43.57,0,0,0,17,25.59c3.87,2.91,7.19,6.62,10.54,10.17a16.28,16.28,0,0,1,4.7,9.16c.5,4.06,2.28,8.78-2.07,11.58-3.83,2.47-7.67-.09-11.09-1.94-8.27-4.49-14.78-11.27-22.27-17C446.47,237.34,458.74,243.65,465.27,255Z"/><path class="cls-111" d="M425,275.52a121.57,121.57,0,0,1,11.77,18.05c3.11,5.61,3.41,11.55,2.32,17.59-1.33,7.35-6.18,9.09-12.07,4.51-7-5.41-10.78-13.32-15.89-20.2-1.52-2.05-3-4.11-4.52-6.16-2.88-5-5.52-10.18-8.7-15-14.81-22.35-20.54-47.85-25.74-73.53,1.84-.79,2.67-2.44,3.62-4.07,1.39-2.39,2.79-5.39,6-5,3.5.38,4.61,3.8,5.41,6.6,3.25,11.37,6.09,22.85,9.31,34.22,3.41,12,6.44,24.22,12.69,35.25C412.7,273.92,417.21,278,425,275.52Z"/><path class="cls-112" d="M706.49,826.49c5,12,9.69,24.23,15,36.11,6.85,15.23,4.72,30.44,1.24,45.89-4.31,19.08-9.55,38.25-5.53,58,4.42,21.74,11.06,42.78,22.3,62.22,8.63,14.92,16.51,30.28,24.66,45.47a30.06,30.06,0,0,1,1.58,4.54H688.71c-14.43-37.57-24.91-76.75-45.33-111.86a212.09,212.09,0,0,0-17.31-25.4c-12.57-15.75-18.48-34.3-24.08-53.1-3-9.93-8-18.81-14-27.25-1.37-2-2.69-3.81-5.22-4.27-9-5.06-12.45-12.09-9.79-19.77,8.49-5.69,19.21-4.83,28.17,2.37a49.65,49.65,0,0,1,7.37,7.34c.84,4.16,5.14,5.4,7.24,8.49,6.12,10.1,11.94,20.43,20.52,28.77,6.1,5.93,11.12,5.32,16.15-1.59,4.88-6.71,6-13.9,3-21.68a66.35,66.35,0,0,0-4.79-10.8c-4.85-6.22-8.28-13.37-13-19.68-3.72-5.53-9-9.33-14.44-12.9-4.67-3-9.32-6.13-12.51-10.9-2.76-4.07-1.92-8.3-.61-12.56,3.46-5.88,8.94-5.74,14.59-4.75,7.29,1.28,14,4.32,20.91,6.9,3.78,3.8,8.92,3.67,13.64,4.46,12.41,2.08,24.08,6.8,36.27,9.68C702.93,812,707.18,819,706.49,826.49Z"/><path class="cls-113" d="M482,599.11c-4.38.7-8.7-.18-13-.69A75.53,75.53,0,0,1,451.06,594c-18.54-7-31.76-19.71-39.82-37.78a86.5,86.5,0,0,1-6.9-28.06,109.36,109.36,0,0,1,.2-21.86c2.46-21.72,11.31-40.08,28.7-53.83,9.46-7.47,20.33-11.83,32.09-14,4-.74,8.06-1.07,12.1-1.5a12.56,12.56,0,0,1,4.61.19c1.66,1.79,1.41,3.69.32,5.63-3,2.19-6.47,1.76-9.84,1.91-4.57.65-9.17,1.18-13.54,2.8a70.42,70.42,0,0,0-9.76,3.49c-1,.47-2.09.95-3.09,1.5-1.95,1-3.69,2.37-5.56,3.53-.94.59-1.84,1.23-2.75,1.87a38.58,38.58,0,0,0-5,4.67,92.69,92.69,0,0,0-6.68,6.91,86.82,86.82,0,0,0-8.27,13.87c-.64,1.46-1.13,3-1.74,4.45a66.77,66.77,0,0,0-2.87,9.51,53.56,53.56,0,0,0-1.07,7.13,37.89,37.89,0,0,0-.61,8.1,24.86,24.86,0,0,1,0,2.73c.12,4.18-.1,8.36.12,12.53.36,6.89,1.3,8,7.91,9.7,1.08.28,2.16.55,3.22.91a37.16,37.16,0,0,0,4.9,1.29c3.7,2.13,5.92-.59,8.46-2.51,1.5-1.13,2.48-3.63,5.13-2.3a8,8,0,0,1,1,6.77c-3.49,3.35-3.53,3.39.06,6.95,2.86,2.83,5.52,5.89,8.74,8.35,1,1.41,2.49,2.32,3.67,3.54,3.1,3.42,6,7.06,9.79,9.75,2.19,1.56,3.37,4,5.28,5.84.78.8,1.71,1.4,2.52,2.16a37.24,37.24,0,0,0,4.56,4.92c2.27,2.3,4.62,4.51,6.81,6.87,1,1.06,2.52,2,1.72,3.89C483,594.75,483.64,597.69,482,599.11Z"/><path class="cls-3" d="M482,442.55c0-1.83.05-3.65.08-5.47a81.31,81.31,0,0,1,33.61,6.7c16.57,7.25,28.3,19.39,35.82,35.75a82.83,82.83,0,0,1,7.17,28c1,11.94.59,23.86-2.33,35.57a76.16,76.16,0,0,1-15.43,31c-10.13,12.09-23.24,19.22-38.45,22.72A85.77,85.77,0,0,1,482,599.11a20.2,20.2,0,0,1,0-2.06c.1-1.07-.51-2.44.35-3.13s2-.55,3-.78a5.83,5.83,0,0,1,3.63-1.51c1.73-.14,3.47-.16,5.21-.21,3.11-.68,6.23-1.29,9.31-2.11a36.79,36.79,0,0,0,4.1-1,30.21,30.21,0,0,0,3.84-1.37,58.6,58.6,0,0,0,10.66-5.61A29.94,29.94,0,0,0,528,577a27.61,27.61,0,0,0,5.1-4.37,88.25,88.25,0,0,0,7.33-9.66c.86-1.48,1.84-2.89,2.62-4.42a41.25,41.25,0,0,0,3.34-7.35,28.69,28.69,0,0,0,1.64-4.52c1-3.93,2.05-7.86,2.85-11.84,0-2.53.7-5,.83-7.49.18-2.18-.24-4.36,0-6.54.09-3.94-.22-7.88-.07-11.82.14-3.17-.76-6.23-1.06-9.35-.34-1.21-.66-2.43-1-3.65-.23-1-.45-1.95-.73-2.91-.38-1.52-.73-3-1.23-4.52a38.92,38.92,0,0,0-3.13-7.48c-.8-1.73-1.65-3.43-2.6-5.09a93.31,93.31,0,0,0-6.41-9.24,60.69,60.69,0,0,0-5-5.22,40,40,0,0,0-5.65-4.74,28.51,28.51,0,0,0-4.09-2.68c-.65-.34-1.3-.68-1.93-1.06a17.16,17.16,0,0,0-5.07-2.42,58.69,58.69,0,0,0-12.55-4.36c-1.25-.14-2.42-.64-3.65-.83-2.13-.23-4.19-.91-6.36-.9a21,21,0,0,1-6.73-.84A3.37,3.37,0,0,1,482,442.55Z"/><path class="cls-114" d="M442,542.73c-.17-2.84-.29-5.69-1.58-8.32-2.5-2.48-2.3-5.83-2.52-8.88a103.34,103.34,0,0,1,0-14.93c.2-2.34.76-4.62,1.1-6.94A68,68,0,0,1,443.18,490c.88-1.61,1.71-3.25,2.72-4.8a44.61,44.61,0,0,1,7.1-8.81,46.86,46.86,0,0,1,12.13-8c3.84-1.4,7.7-2.71,11.86-2.65,4.63.05,5.52,1.13,5,5.91-1.05,2.1-3,2.26-5,2.42-11,.91-18.87,6.8-24.36,16a47.12,47.12,0,0,0-6.43,23.75c-.16,9-.05,18,3.44,26.56,4.94,12.14,13.25,20,26.64,21.75,2,.27,4.26.38,5.66,2.35.7,5.29-.3,6.08-7.44,5.84a27.74,27.74,0,0,1-4.76-1c-5.74-1.94-11.34-4.16-15.36-9a43,43,0,0,1-3.85-3.67A28.09,28.09,0,0,1,442,542.73Z"/><path class="cls-115" d="M439,510.32c0,1,.09,1.95,0,2.91a89,89,0,0,0,1.38,21.18c-2.15,2-4.4,3.89-6.42,6a3.76,3.76,0,0,1-5.22.74l-.71-.44c.38-2.64,2.76-3.76,4.25-5.55,1.13-1.36,2.77-2.35,3.42-4.59-2.53-.56-3.58,1.31-5,2.4-2.71,2.09-4.19,5.74-8.07,6.33a58.76,58.76,0,0,1-8.55-2,3.13,3.13,0,0,1-2.4-2.52,37.71,37.71,0,0,1-1.43-9.09c0-3.48-.47-7,0-10.46,1.43-1.35,2.91-.38,4.33,0,5.42,1.33,10.62,3.41,15.61,4.86-5-2.31-10.69-3.69-16.26-5.48a6.52,6.52,0,0,1-3.57-2c-.12-2.84-.24-5.68.77-8.42,1.3-.95,2.7-.56,4-.17C423.07,506.24,430.9,508.73,439,510.32Z"/><path class="cls-116" d="M501.66,445.36a42.46,42.46,0,0,1,12.65,4.44c0,2.73-3.93,3.51-3.37,6.93,3.35-.67,4.73-4.59,8.17-4.55a3.42,3.42,0,0,1,1.89,1.19c.55,1.11-.11,1.92-.76,2.62-4.1,4.42-8.35,8.66-13.55,11.82-2.65.05-4,2.63-6.36,3.27-4.46-.91-8.75-2.46-13.16-3.58-1.82-2.06-4.31-3-6.78-3.93-9.46-3.72-19.09-7-28.58-10.66-1.34-.51-3.13-.59-3.41-2.58a36.54,36.54,0,0,1,10.19-3.9,15.4,15.4,0,0,1,6.5,1.37c6.48,2.65,13,5.23,19.56,7.64,2.1.77,4.34,1.74,6.35,0s.83-3.87.53-5.9-1.8-4,0-6c2.33-.19,4.52.5,6.74,1,1.64,1.82,1.55,4.29,2.25,6.75C501.93,449.28,499.68,446.93,501.66,445.36Z"/><path class="cls-117" d="M481.61,472c-.34-6,1.09-5.5-5.68-5.09a33.83,33.83,0,0,0-7.7,1.61c-1.19.37-2.38.7-3.57,1-.28,0-.57,0-.84-.06-8.45-1-8.93-.62-10.48,7.63l-6.69,8.38c-1.7-.64-2-2.2-2.36-3.68-1.61-7.62-3.28-15.23-4.89-22.86a4.62,4.62,0,0,1,.39-3.62,17.36,17.36,0,0,1,5.65-3.51c3.05-.25,5.72,1.14,8.43,2.15,8.23,3.08,16.36,6.4,24.65,9.3a7.34,7.34,0,0,1,4.1,2.73,6.75,6.75,0,0,1,.11,5.36A1.07,1.07,0,0,1,481.61,472Z"/><path class="cls-118" d="M439,510.32c-2,1-4,.66-6.1,0-6.68-2-13.38-4-20.07-5.92-.53-.15-1.08-.25-1.63-.37a21,21,0,0,1,1.17-7.25c3.82-1.13,7.09.92,10.49,1.94,7.92,2.36,7.94,2.43,6.31-5.53-1.23-6-2.22-12.1-3.45-18.12a16.79,16.79,0,0,1-.11-6.24,24.81,24.81,0,0,1,6.3-7c1.38.33,1.6,1.54,1.77,2.6,2.1,12.85,5.56,25.48,6.4,38.54a1.27,1.27,0,0,1-.11.4A25.41,25.41,0,0,1,439,510.32Z"/><path class="cls-119" d="M435.88,578.36c-2.38-1.31-4.11-3.37-6-5.2a2.26,2.26,0,0,1-.88-2.24c.43-1.76.88-3.53,1.43-5.26a1.4,1.4,0,0,1,2.07-.76c.51.22,1,.52,1.48.78s1.23.7,1.86,1c2.74,1.35,3.87,1,5.57-1.61.76-1.18,1.35-2.47,2.09-3.66a1.47,1.47,0,0,1,2.48-.29c2.43,2.34,4.8,4.74,7.19,7.11a4.55,4.55,0,0,1,1.2,3.47A51.18,51.18,0,0,0,455,582.2c.29,1.37.52,2.76.77,4.13a3.68,3.68,0,0,1-.05,2.51,10.58,10.58,0,0,1-5.09-1.83c-2.4-2.53-2.36-6.16-4.11-9-.87-1.41-1.4-3-2.59-4.25-2.1-2.11-4.31-1.8-5.78.79C437.44,575.85,437.51,577.62,435.88,578.36Z"/><path class="cls-120" d="M425.58,468.87c1.29,3.59,1.5,7.41,2.28,11.11,1.24,5.91,2.29,11.86,3.41,17.8a28.72,28.72,0,0,1,.42,2.91c.1,1.06-.5,1.58-1.54,1.29-4.33-1.22-8.64-2.48-13-3.73l-4.85-1.43a39.11,39.11,0,0,1,2.75-9.19c2.63.64,3.68,3.22,5.69,4.63.56.39,1.19,1,1.85.54.91-.62.41-1.46,0-2.17-1.64-2.69-4.42-4.6-5.44-7.73A45.48,45.48,0,0,1,425.58,468.87Z"/><path class="cls-121" d="M491.49,443.55c.59,2.73,1.16,5.46,1.77,8.19a6,6,0,0,1,.18,2.89,3.83,3.83,0,0,1-3.85,3.19,10.73,10.73,0,0,1-4.06-.88c-9.13-3.12-18-6.88-26.94-10.51a45.92,45.92,0,0,1,13.31-2.83c2.33.52,4.76.82,6.84,2,3.21,1.84,4.89.81,5.63-2.54C486.78,442.69,489.13,443.2,491.49,443.55Z"/><path class="cls-56" d="M439.94,503.44A83.08,83.08,0,0,1,437.43,492c-1.92-10-3.71-20.06-5.55-30.1a19.44,19.44,0,0,1,5.31-4.67,4.33,4.33,0,0,1,1.89,3.15c1.84,8.21,3.78,16.4,5.29,24.68a9.94,9.94,0,0,1-.15,5Q442.08,496.74,439.94,503.44Z"/><path class="cls-43" d="M469.49,568.27a11.06,11.06,0,0,1,4.36.91,16.8,16.8,0,0,1,1.09,1.77c2.24,3.64,4.6,3.69,6.87.16a6.41,6.41,0,0,1,1.21-1.68,9.53,9.53,0,0,1,7.53-1.09,2.25,2.25,0,0,1,1,.75c0,.13.06.35,0,.4-5.18,3.56-3.48,7.57-.91,11.76,1.31,2.15,2.3,4.48,3.6,6.65.79,1.3,1.7,2.64.72,4.27a14,14,0,0,1-6,.58c-3.38-2-5.21-5.45-7.31-8.52-3-4.39-6.54-7.59-12.17-7.64a35.5,35.5,0,0,1-5.35-5.54C465.2,568.73,467.59,569,469.49,568.27Z"/><path class="cls-122" d="M435.88,578.36c.22-1.09.42-2.18.66-3.26a5.32,5.32,0,0,1,1.69-2.81,4.15,4.15,0,0,1,6,0,14,14,0,0,1,2.19,3A36.49,36.49,0,0,1,450.65,587,42.43,42.43,0,0,1,435.88,578.36Z"/><path class="cls-123" d="M482.29,466.34a15.61,15.61,0,0,0-4.18-1.84q-15.63-5.88-31.26-11.78a9.71,9.71,0,0,1-1.41-.84,6.81,6.81,0,0,1,3-1.55l19.72,7.36q7.49,2.81,15,5.66c1.05.4,2.08.86,3.11,1.33a2.16,2.16,0,0,1,1.22,2.05C485.56,468.65,483.91,467.65,482.29,466.34Z"/><path class="cls-124" d="M424.8,546c4.35.57,4.35.65,3.64,5-.85,5.11-2.73,9.92-3.89,14.91A1.68,1.68,0,0,1,423,564.4c-1.05-3.54,1.16-6.49,1.86-10,.14-.25-.72.06-.17.15-.75,2.68-3,3.39-5.29,4.12a22.2,22.2,0,0,1-3.2-7.12C418.29,548.54,420.67,545.92,424.8,546Z"/><path class="cls-125" d="M444.22,490.05q-1.64-7.59-3.28-15.17-1.89-8.83-3.75-17.66a6.08,6.08,0,0,1,2.6-1.84q3,13.9,6.08,27.8c.18.81.52,1.58.78,2.37A15.82,15.82,0,0,1,444.22,490.05Z"/><path class="cls-126" d="M469.49,576.59c3.22-1.49,5.92-.25,8.49,1.62a7,7,0,0,1,1.48,1.45A154.25,154.25,0,0,1,489,592.75a6.7,6.7,0,0,1-3.57.39l-8.91-9.48a5.81,5.81,0,0,0-4.66-4.85A3.74,3.74,0,0,1,469.49,576.59Z"/><path class="cls-127" d="M422.64,539.3c3.37-3.18,6.74-6.37,10.13-9.52a6.73,6.73,0,0,1,1.71-1.19,2,2,0,0,1,2.3.51,1.78,1.78,0,0,1,.37,2.3,12.09,12.09,0,0,1-1.88,2.23c-2.39,2.38-4.82,4.72-7.23,7.08C426.17,540.53,424.26,540.45,422.64,539.3Z"/><path class="cls-128" d="M410.4,512.49a143.86,143.86,0,0,1,18,5.62c1.81.74,3.68,1.33,5.51,2a.69.69,0,0,1,.42,1,1,1,0,0,1-.63.44,4.85,4.85,0,0,1-1.66-.06c-2-.53-4.05-1.11-6.06-1.71l-15.7-4.64A4.74,4.74,0,0,1,410.4,512.49Z"/><path class="cls-129" d="M442,542.73l2.26,3.5q3.3,5.13,6.59,10.26c.44.47.34.74-.3.79-.4-.13-.9-.16-1.16-.42q-5.37-5.34-10.66-10.74c-1.05-1.09-1.14-1.87-.58-2.58a3.56,3.56,0,0,1,2.42-1.52A1.71,1.71,0,0,1,442,542.73Z"/><path class="cls-130" d="M417.17,482.9c2.79,2.17,4.68,5.16,7,7.74a2.36,2.36,0,0,1,.59,1.95,2.47,2.47,0,0,1-1.46,1.93,2,2,0,0,1-2.32-.4,41.91,41.91,0,0,1-5.91-6.5A14.67,14.67,0,0,1,417.17,482.9Z"/><path class="cls-131" d="M424.8,546c-3.17,1.4-5.59,4-8.62,5.57-1.68-2.46-2.13-5.41-3.09-8.15-.21-.58.31-1.22.82-1.09,3.24.82,6.49,1.64,9.7,2.55C424.08,545,424.41,545.63,424.8,546Z"/><path class="cls-132" d="M469.49,568.27c-1.23,2-3.55,1.89-5.35,2.78a7.43,7.43,0,0,1-2.64-2,58.18,58.18,0,0,1-7.41-8.42c-.2-.45,0-.67.44-.67A46.9,46.9,0,0,0,469.49,568.27Z"/><path class="cls-133" d="M484.37,443.07c.14,1.39.32,2.79.41,4.19.06,1-.7,1.51-1.69,1.12-3.78-1.48-7.69-2.65-11.19-4.78L482,442.55Z"/><path class="cls-134" d="M469.43,584.49c-.19.46-.25,1-.52,1.18a28.79,28.79,0,0,1-2.36,1.75c-3.47,2.42-3.76,2.77-5.21-1.91-.47-1.53,0-2.39,1.5-2.93a5.31,5.31,0,0,1,5.55.61A7.51,7.51,0,0,1,469.43,584.49Z"/><path class="cls-135" d="M419.38,558.7a8.48,8.48,0,0,1,1.4-1.52c1.43-.94,2.55-2.51,4.55-2.38.58,1.77-.62,3.21-.92,4.81A43.73,43.73,0,0,1,423,564.4,18,18,0,0,1,419.38,558.7Z"/><path class="cls-136" d="M469.1,592.42a6.57,6.57,0,0,1,3.32-2.63c1.2-.6,2.29-.17,3.23,1.08a1.19,1.19,0,0,1-.8,1.9A21.07,21.07,0,0,1,469.1,592.42Z"/><path class="cls-137" d="M471.83,578.81a3.82,3.82,0,0,1,4.47,1c1.21,1.2,1.25,1.65.19,3.9A11.08,11.08,0,0,1,471.83,578.81Z"/><path class="cls-138" d="M454.53,560a1.32,1.32,0,0,1-.44.67,5,5,0,0,1-3.57-3.35l.3-.79Z"/><path class="cls-139" d="M482.29,466.34l5.13.39a54.56,54.56,0,0,1,13.36,3.87c2.74.21,3.82-2.64,6.08-3.31,4.87-4.49,9.66-9,14.14-13.92a8.53,8.53,0,0,1,4.28,2.7,2.89,2.89,0,0,1-.63,2.7,44.68,44.68,0,0,0-4.13,3.78q-4.66,4.59-9.25,9.29c-2.31,1.84-2.19,3.64,0,5.55,3,2.62,5,6.05,7.23,9.29a68,68,0,0,1,6.07,18,56.78,56.78,0,0,1,1,13.7c-.21,2.89.29,5.79-.29,8.66a34.88,34.88,0,0,0-.85,4.65c-.25,1.25-.58,2.5-.77,3.77-1.41,5.24-2.92,10.44-5.95,15A36.84,36.84,0,0,0,515.6,554a40.51,40.51,0,0,1-3.48,3.82c-1.56,1.47-3,3.06-4.59,4.5a42.84,42.84,0,0,1-11.77,6.26,6.61,6.61,0,0,1-4.49.32l-8.33.95c-2.78-1.29-.55-3.71-1.25-5.47.05-2,1.57-2.25,2.94-2.29,15.79-.38,27.56-12.2,31.23-30.31a64.21,64.21,0,0,0-2-34.46c-4.7-13.48-13.65-22-28.41-23.3-1.46-.14-3.24.08-3.63-2.05C482,470.12,481.52,468.18,482.29,466.34Z"/><path class="cls-5" d="M491.27,568.94c2.46-.86,4.94-1.63,7.36-2.59a56.38,56.38,0,0,0,8.6-4.84,10.28,10.28,0,0,1,3.38-1.31c2.12-.37,1.56-1.65,1.15-2.94l2.91-3.61c1.87-.18,2.72-1,2-3a83.36,83.36,0,0,0,6.06-15.23c1.45-.88,2.67.38,4.44.42-1.1-1.61-3.1-2.07-3.71-3.75.08-1.5-.14-3,.72-4.43,2.45-1.17,3.85,2.11,6.49,1.43-1.38-4-5.13-6.69-6.12-10.81q-.51-7.07-1-14.13c2.18-.14,2.69,1.73,3.52,3.07,7,11.37,13.61,23,20.26,34.55a10.35,10.35,0,0,1,1.65,5.16,9.31,9.31,0,0,1-1.71,4.56c-1.87.54-2.77-1-3.92-1.9a23,23,0,0,0-13.06-5.2c-1.57-.1-3.29-.13-4,1.54s.69,2.59,1.68,3.52A32.1,32.1,0,0,0,539.53,556c1.65.58,3.68.66,4.5,2.68a12.78,12.78,0,0,1-2.77,4.59c-3.9,3-8.64,2.05-13,2.59-10.43,1.28-20.84,2.74-31.26,4.06-1.92.25-3.91.81-5.58-.77Z"/><path class="cls-140" d="M548.92,547c-4-6.9-7.87-13.83-11.88-20.7-3.87-6.63-7.84-13.2-11.8-19.78a25.36,25.36,0,0,0-1.75-2.3,14.09,14.09,0,0,1-.68-1.95A61.6,61.6,0,0,0,517,486.3c.36-2,1.91-2.7,3.55-3.12a146.57,146.57,0,0,1,21-3.72,5.68,5.68,0,0,1,3.59.9,27.43,27.43,0,0,1,3.28,7.65c-3.84,2.46-8.36,2-12.56,2.79-8.65,1.72-10.13.09-4.19,9.39,6.65,10.41,12.54,21.28,18.74,31.95a35.31,35.31,0,0,1,1.4,3.52C551.15,539.5,550.57,543.38,548.92,547Z"/><path class="cls-140" d="M491.43,569.17c3.32-.37,6.65-.7,10-1.12,6.23-.8,12.44-1.68,18.66-2.46,6.51-.81,13-1.55,19.53-2.3a15.51,15.51,0,0,1,1.67,0,36.81,36.81,0,0,1-7.42,9.8c-8.28,2.3-16.85,2.77-25.3,3.89-8.93,1.19-8.94,1-5,8.81.68,1.34,1.62,2.69.74,4.33a28,28,0,0,1-9.32,2.06,12.62,12.62,0,0,0-1.68-3.81c-1.8-3.31-3.57-6.63-5.34-10a20.26,20.26,0,0,1-.89-1.89c-1.18-3-.57-4.77,2.16-6.31C489.9,569.81,490.68,569.51,491.43,569.17Z"/><path class="cls-141" d="M551.85,535.66a5.13,5.13,0,0,1-2.13-2.51q-8.7-14.92-17.43-29.83c-1.85-3.15-3.83-6.22-5.7-9.36-.86-1.46-.48-2.41,1.09-2.89a18.54,18.54,0,0,1,2.47-.46c4.7-.76,9.41-1.53,14.12-2.24,1.38-.21,2.79-.24,4.19-.36a10.5,10.5,0,0,1,1.32,4.77c-1.24,2.25-3.43,1.44-5.23,1.49-10.62.28-10.7.37-5.26,9.43,3.54,5.88,7,11.8,10.62,17.65a21.17,21.17,0,0,1,2.8,6.52C552.9,530.52,552.19,533.06,551.85,535.66Z"/><path class="cls-9" d="M510.55,471.71a73.67,73.67,0,0,1,10-10.21c5.92-.56,10.74,2.4,15.71,4.88a36.58,36.58,0,0,1,6.34,9.06,2.7,2.7,0,0,1-1.67,1.2c-7.44,1.24-14.85,3.06-22.46,2.37A8.77,8.77,0,0,1,510.55,471.71Z"/><path class="cls-140" d="M544,558.7c-2.25-.76-4.51-1.48-6.73-2.3a29.61,29.61,0,0,1-11.6-7.32,6.84,6.84,0,0,1-1.25-1.65,2.58,2.58,0,0,1,1.33-3.51,9.13,9.13,0,0,1,4.1-.73c5.71.55,10.9,2.34,15.12,6.42.7.68,1.47,1.28,2.21,1.92A21.4,21.4,0,0,1,544,558.7Z"/><path class="cls-142" d="M510.55,471.71c.67.89,1.3,1.81,2,2.66a10,10,0,0,0,8.87,3.8c2.23-.17,4.43-.5,6.64-.85,4.82-.76,9.68-1.27,14.53-1.88a15.88,15.88,0,0,1,2.58,4.92A187.91,187.91,0,0,0,521.94,484a8.6,8.6,0,0,0-4.9,2.27,50.32,50.32,0,0,0-8.53-10.38c-1.22-1.1-1.18-1.49.06-2.7A21.18,21.18,0,0,1,510.55,471.71Z"/><path class="cls-141" d="M504.25,590.12c-.95-1.86-1.88-3.74-2.85-5.59s-1.88-3.44-2.75-5.19a1.53,1.53,0,0,1,1.27-2.43c2.21-.37,4.42-.7,6.64-.95,8.31-1,16.62-2,24.88-3.34a2.9,2.9,0,0,1,2.4.47,22.08,22.08,0,0,1-5.28,4.74c-4.16,2.37-8.92,1.54-13.36,2.48-1.34.29-2.75.27-4.12.51-4.31.77-4.35.81-2.92,5,.36,1,.86,2.07.24,3.18A8.89,8.89,0,0,1,504.25,590.12Z"/><path class="cls-143" d="M552.71,527.87c-2.68-3.45-4.62-7.36-6.92-11-3.89-6.18-7.21-12.71-11.48-18.66a5.64,5.64,0,0,1-.46-.7c-1.15-2-.62-3.3,1.65-3.52,4.75-.47,9.52-.79,14.28-1.17a4.42,4.42,0,0,1,.84,3.11c-1.59,2.25-4,1.64-6.18,1.76-4.22.22-4.44.6-2.29,4.37,2.59,4.51,5.39,8.88,8.16,13.28a32.12,32.12,0,0,1,2.64,6.16A19.17,19.17,0,0,1,552.71,527.87Z"/><path class="cls-144" d="M553,521.46a23.54,23.54,0,0,1-1.51-2q-5.7-9.33-11.33-18.69c-.37-.6-.74-1.19-1.06-1.82-.56-1.09-.18-1.82,1.12-2,1.1-.18,2.23-.23,3.34-.34l7.11-.7c.77,1.08.73,2.36.92,3.59-1.31,3.21-1.56,6.28,1.2,8.94A55.23,55.23,0,0,1,553,521.46Z"/><path class="cls-145" d="M508.4,589c-1.07-2.11-2.18-4.19-3.16-6.33a1.65,1.65,0,0,1,1.39-2.45c1.36-.26,2.74-.44,4.12-.58,5.94-.61,11.87-1.19,17.81-1.78a16.82,16.82,0,0,1-5.73,4.19c-2.27.5-4.3,2-6.73,1.71-3.15-.43-4.42,1.09-4.57,4C510.66,588.59,509.48,588.67,508.4,589Z"/><path class="cls-16" d="M536.26,466.38c-1.48.46-2.66-.42-3.92-.91a92.75,92.75,0,0,0-11.79-4,7.75,7.75,0,0,1,3.48-3.05c3-.79,4.86,1.46,7.13,2.64A19.71,19.71,0,0,1,536.26,466.38Z"/><path class="cls-146" d="M519.11,452.18c-2.23,1.87-4.41,3.8-6.7,5.6a1.75,1.75,0,0,1-2.61,0,2.39,2.39,0,0,1-.28-3.36,14.55,14.55,0,0,1,1.45-1.49c1.1-1.05,2.22-2.09,3.34-3.13A12,12,0,0,1,519.11,452.18Z"/><path class="cls-147" d="M511.53,587.73c-2.24-3.6-3-4.88,2.53-5.06,2.92-.1,5.84-.43,8.76-.65A30.76,30.76,0,0,1,511.53,587.73Z"/><path class="cls-148" d="M501.66,445.36c.24,1.51.51,3,.71,4.52a11.12,11.12,0,0,1,0,2.08,1.62,1.62,0,0,1-1.66,1.53A1.59,1.59,0,0,1,499,452c-.3-2.48-.51-5-.76-7.46Z"/><path class="cls-149" d="M552.74,508.42a10.69,10.69,0,0,1-3.28-2.58,2.7,2.7,0,0,1,0-3.8c.75-.81,1.79-1.37,2-2.56A30.41,30.41,0,0,1,552.74,508.42Z"/><path class="cls-150" d="M531.16,461.1a28.46,28.46,0,0,1-7.13-2.64c.41-.8.83-1.6,1.25-2.39A19.73,19.73,0,0,1,531.16,461.1Z"/><path class="cls-151" d="M481.79,472c.78.8,1.8.66,2.77.73,14.22.93,23.75,8.38,29.36,21.21A54.47,54.47,0,0,1,518,510.66c.94,9.76.28,19.37-3,28.7a37.63,37.63,0,0,1-9.48,15.24,32,32,0,0,1-19.2,8.7c-1.49.16-3.14-.3-4.4,1l-.51,0c-1.52-.9-3.26-.69-4.9-.88-11.1-1.29-19.37-6.82-25-16.4a48.22,48.22,0,0,1-6.27-19.47c-1-8.82-.84-17.65,1.48-26.32,2-7.57,5.31-14.46,11.15-19.91a31.74,31.74,0,0,1,18.36-8.53c1.8-.21,3.65-.07,5.39-.74Z"/><path class="cls-152" d="M453.34,477.17a5.47,5.47,0,0,1-.75-3.19,6,6,0,0,1,4.73-6.07c2.67-.61,5.27-.54,7.34,1.69A79.74,79.74,0,0,0,453.34,477.17Z"/><path class="cls-153" d="M481.43,564.29a.65.65,0,0,1,.51,0c0,1.2,0,2.41,0,3.61a2,2,0,0,0,1,2,6.38,6.38,0,0,1,0,1.24c-.58,2.51-2.2,4-4.51,4.06s-4-1.42-4.59-4a8.89,8.89,0,0,1,0-2.06c1.94.06,3.87.16,5.81.18,1.28,0,1.64-.36,1.71-1.75C481.43,566.51,481.41,565.4,481.43,564.29Z"/><path class="cls-154" d="M493.08,461.68a4,4,0,0,1,4.27-3.7,4.64,4.64,0,0,1,4.27,5.24,3.86,3.86,0,0,1-4.23,3.68A4.74,4.74,0,0,1,493.08,461.68Z"/><path class="cls-155" d="M506.86,467.29a10.57,10.57,0,0,1-2.59,3.24c-1.32,1.33-1.34,1.31-3.49.07C501.78,467.61,503.86,466.59,506.86,467.29Z"/><path class="cls-156" d="M524.52,518.32c3,3.16,5.13,6.93,7.71,10.38a1.31,1.31,0,0,1-.06,1.56,1.56,1.56,0,0,1-1.79.75,10.44,10.44,0,0,1-2.25-1,19.59,19.59,0,0,0-4-2.27C524.27,524.57,524.4,521.44,524.52,518.32Z"/><path class="cls-157" d="M523.43,532.13c1.59.83,3.19,1.62,4.75,2.5a3.36,3.36,0,0,1,1.13,1.15,1.62,1.62,0,0,1,0,1.15,1,1,0,0,1-1.3.68c-1.17-.4-2.31-.89-3.45-1.36-.64-.25-1.27-.53-1.9-.79A5,5,0,0,1,523.43,532.13Z"/><path class="cls-158" d="M511.76,557.26a13.51,13.51,0,0,1,1.59,1.31,1.21,1.21,0,0,1-.44,2,11.29,11.29,0,0,1-5.68.91Z"/><path class="cls-159" d="M516.64,550.69c.66.47,1.34.92,2,1.42a1.17,1.17,0,0,1,.34,1.46,1.49,1.49,0,0,1-1.61,1,22.18,22.18,0,0,1-2.67-.92A6.14,6.14,0,0,1,516.64,550.69Z"/><path class="cls-160" d="M519.06,468.84a8.77,8.77,0,0,1,1.6.61c1.46.85,2.17,2.8,1.51,3.9a3.27,3.27,0,0,1-3.76,1,3.89,3.89,0,0,1-1.12-.55c-1-.73-2.12-1.49-1.95-3C515.46,469.8,517.19,468.84,519.06,468.84Z"/><g id="Layer_2" data-name="Layer 2"><path class="cls-161" d="M710.81,657.16l-3.54-.24-36.2-2.39c-.7,0-1.4-.14-2.11-.14a2.6,2.6,0,0,1-2.52-1.83c-2.14-4.58-4.36-9.13-6.52-13.7q-7.93-16.79-17.46-32.71c-1.38-2.29-2.89-4.49-4.31-6.75a3.91,3.91,0,0,0-3.41-2.09c-2.81-.09-5.61-.34-8.42-.49a1.45,1.45,0,0,0-1.67,1.46c-.12,1.12-.2,2.24-.27,3.36l-2.85,42.93c-.06,1-.12,2-.19,2.95-.29,3.65-.29,3.68-4,3.45q-16.22-1.05-32.41-2.15c-.7,0-1.4-.11-2.1-.17a1.48,1.48,0,0,1-1.44-1.7c0-1.41.11-2.81.2-4.21l5.88-88.82q1.77-26.71,3.53-53.45c.37-5.74.39-4.66,5-5.25a192.1,192.1,0,0,1,24.81-1.32c3.37,0,6.75.05,10.12.15,14.1.41,28,2.1,41.45,6.66a67.72,67.72,0,0,1,15.5,7.52c10.44,6.82,16.85,16.32,19,28.62a60.78,60.78,0,0,1-1.52,27.54c-2.65,9.29-8.29,16.48-16.23,21.9a62.89,62.89,0,0,1-9.88,5.38c-.44,1.09.27,1.69.69,2.35a335.72,335.72,0,0,1,30,59.35c.3.79.6,1.57.86,2.37A7.2,7.2,0,0,1,710.81,657.16Z"/><path class="cls-151" d="M628.06,546.35c.33-5,.64-10.09,1-15.12.14-2,.36-2.15,2.33-2.08,6.87.26,13.75.39,20.45,2.22a39.89,39.89,0,0,1,7.09,2.6c5.35,2.6,7.88,6.94,8,12.79a21.37,21.37,0,0,1-1.49,8.23,12,12,0,0,1-5.78,6.43,21.76,21.76,0,0,1-6.35,2.15,53.54,53.54,0,0,1-11.71,1c-3.65-.13-7.29-.35-10.93-.56-4-.23-3.81-.17-3.54-4.24q.45-6.72.89-13.44Z"/><path class="cls-162" d="M691.71,519.56a24.08,24.08,0,0,1,7.17,11.61c-.19,2-1.56,3.24-2.67,4.67-9.58,12.32-13.61,25.94-9.79,41.41a6.35,6.35,0,0,1,.19,3.32c-1.52,1-2.88,2.35-4.76,2.77-3.08,0-6.09.8-9.15.93-1.11.05-2.45.09-2.83-1.22s.74-2,1.64-2.66c1.5-1,3.33-1.47,4.86-2.46,1.87-1.22,1.66-2.42-.22-3.41-1.36-.72-3-.74-4.29-1.64-2.35-1.66-2.28-3,.59-3.85-1.88-.1-3.73.78-5.68.67s-4.08.12-4.51-2.6l5.38-4c2.77-.74,5.42-.05,8.19.71-1.85-1.85-5.1-.17-6.46-2.82l1.89-3.69c1.79-1.33,3.38.85,5.14.29-1-1.55-3.54-1.08-4.06-3.2.14-.77.27-1.55.41-2.33,1.55-1.38,4.52.11,5.27-1.85s-2.08-2.64-2.93-4.2c-.63-1.15-1.24-2.3-.32-3.51s2-.67,3.1-.37a12.79,12.79,0,0,0,3.28.87,19.22,19.22,0,0,0-5.23-2.12c-3-1-4.34-3.45-5.26-6.15a3.23,3.23,0,0,1,1-3.84c1.18-.87,2.48-.44,3.55.28,3.13,2.11,6.41,4,9.43,6.26-2.5-2.22-5.54-3.64-8.16-5.7-1.65-1.3-3.85-2.36-2.22-5,1.24-2,5.08-2.41,7.19-.76s3.37,3.75,5.19,6c-1-1.5-2.27-2.79-1.15-4.19.95-1.2,2.32-.05,3.52.15,2.71.44,3.65-.55,3.18-3.25C691.87,523,690.29,521.42,691.71,519.56Z"/><path class="cls-163" d="M673,619.57c2.43-.9,2.38-3,2.34-5,.09-2.55-1.45-3.73-3.62-4.53-5-1.83-9.79-4.27-14.76-6.23-1.26-.5-3-1-2.68-2.74.25-1.6,1.9-1.9,3.27-2.23,2.19-.53,4.13.36,6.12,1.06,5.28,1.86,10.11,5,15.89,5.41a37.83,37.83,0,0,1,4.29,7.49c-.72,6.69-4.53,12.33-6.39,18.64-.59,2-1.57,3.91-2.34,5.87s-.15,2.91,2.07,2.53q7.27-1.26,14.58-2.24c1.65-.22,3.36-.62,4.84.61a5.7,5.7,0,0,1,1.4,2.5c1.29,2.91,1.28,2.92-1.82,4.41-1.74,1.16-2.45,3.13-3.71,4.67a12.18,12.18,0,0,1-4.08-.24c-1.63-1.94-3.89-2.46-6.24-2.77a5.83,5.83,0,0,0-4.66.4c-2.06,1.51-4.32.38-6.49.52l-4.66-9.3c.36-1.43,2.18-.79,2.49-2.11a3.46,3.46,0,0,0-.36-2.83c1.26-3,.09-4.64-2.86-5.54-2-.6-4.06-1.1-5.43-2.87a18.06,18.06,0,0,1-2.78-5.12c3.38-1.4,6,1,8.87,1.92C669.3,622.77,671.65,623,673,619.57Z"/><path class="cls-164" d="M635.67,573.89c.08-.55.16-1.1.26-1.65a1.94,1.94,0,0,1,2-1.77,5.75,5.75,0,0,1,.83,0c6.28.5,12.46-.33,18.62-1.42,4,1.79,7.57,4.25,11.7,5.73,1.91.69,2.35,2.59.63,3.53-5.06,2.77-8.38,7.27-12.15,11.35A117.26,117.26,0,0,1,643.28,593c-1,.16-1.93.25-2.69-.57-1-1.06-2.35-.73-3.52-1.09-1.08-1.51-.48-3,.24-4.35,2.07-3.82,2.44-7.37-.91-10.71A3,3,0,0,1,635.67,573.89Z"/><path class="cls-164" d="M666.47,531.4A48.12,48.12,0,0,0,651.89,525a149.19,149.19,0,0,1,6.34-18.36c2.44-3.05,5.67-.83,8.5-1.27a45.88,45.88,0,0,1,13.79,5.79c-.31,1.19-2.66,1.46-1.52,3.38,2.15,0,1.1-2.31,2.16-3.06a11.33,11.33,0,0,1,4.36,2.74c.59,1.57,1.38,3.08,1.29,4.84-.11,2.16-1,3.49-3.38,3.18-7.27-.92-13.1.91-16,8.35C667.26,531,666.83,531.18,666.47,531.4Z"/><path class="cls-165" d="M686.61,580.57a4.76,4.76,0,0,1-.68-1,41.3,41.3,0,0,1-1.31-21.88,59.1,59.1,0,0,1,4-12.31,47.13,47.13,0,0,1,10.24-14.17,24.8,24.8,0,0,1,2.39,11.72,10.82,10.82,0,0,1-1.5,4.32c-4.37,7.68-6.95,15.84-6.67,24.77a6,6,0,0,1-.71,3.23A22,22,0,0,1,686.61,580.57Z"/><path class="cls-166" d="M609.92,615.67c2.16-2,4.31-4,6.48-5.94a.8.8,0,0,1,1.25.52,11.64,11.64,0,0,1,0,1.67Q617,622,616.33,632.05a17.43,17.43,0,0,1-.53,2.44c-2.67,4-6.35,6.9-10.27,9.55A163.42,163.42,0,0,1,589,643c-.32-2.08,1.36-2.94,2.56-4,4.72-4.17,9.39-8.37,13.82-12.86C608.3,623.13,611.07,620.32,609.92,615.67Z"/><path class="cls-167" d="M622.43,534.55c0,6-.56,12-1.13,17.92a27.52,27.52,0,0,1-2,9.75c-1.36,3.41-4.29,4.21-6.47,1.41-5.9-7.59-13-14.24-18.09-22.42a28.76,28.76,0,0,1,.45-6.87c6.36.16,11.69,3.23,17,6.19a2.45,2.45,0,0,1,1,3.31,2.86,2.86,0,0,1-3.52,1.59c-2.36-.48-4.36-1.91-7.16-3,3.44,3.9,6.55,7.39,9.57,10.94,1.87,2.19,2.87,1.76,3.49-.87.68-2.87,1.73-5.64,2.45-8.5,1.15-4.59.9-4.91-3.67-6.81-4.94-2-10.08-3.5-15.06-5.42a7.81,7.81,0,0,1-3.84-2.43,11.5,11.5,0,0,1,.27-4.09,2.42,2.42,0,0,1,2.74-.37q11.13,3.78,22.1,8A3.16,3.16,0,0,1,622.43,534.55Z"/><path class="cls-168" d="M666.47,531.4c.28-.94.53-1.88.83-2.82,1.33-4.15,4.39-6.41,8.45-7.35a15.7,15.7,0,0,1,8.3.09c1.49.46,2-.09,1.86-1.69-.15-1.81-.81-3.57-.39-5.42a17.63,17.63,0,0,1,6.19,5.35c0,1.46.79,2.67,1.25,4a16.65,16.65,0,0,1,.78,2.39,3.25,3.25,0,0,1-4.21,3.67,18.09,18.09,0,0,1-1.89-.9c-.61-.26-1.12-.87-2.09-.55.4,1.74,1.78,2.75,2.78,4,1.28,1.57,1.57,2.49.79,2.74-1.29.42-1.71-.7-2.3-1.37-1.77-2-3.5-4-5.16-6.1s-4.37-2.09-7.1,0a1,1,0,0,0,0,1.5,9.38,9.38,0,0,0,1.62,1.31c3.35,2.29,6.73,4.56,10.09,6.83.35.24.71.45,1,.7a1.12,1.12,0,0,1,.51,1.44c-.42.78-1.18.63-1.81.28-.86-.46-1.67-1-2.49-1.55-3.05-2-6.08-4-9.13-6-.7-.46-1.49-1.12-2.3-.67-1,.56-.81,1.73-.62,2.65.58,2.88,1.67,5.32,5,6a46.81,46.81,0,0,1,5.17,1.73,7.57,7.57,0,0,1,1.56.62A1.43,1.43,0,0,1,684,544a1.39,1.39,0,0,1-1.67.94,12.06,12.06,0,0,1-2-.65c-1.18-.46-2.34-.94-3.5-1.43-.54-.23-1.11-.46-1.53,0-.55.67-.17,1.32.31,1.85,1.31,1.46,2.68,2.87,4,4.34s.91,2.62-.94,3a26.19,26.19,0,0,1-5.87,0c0-1.24.07-2.49.14-3.74.33-5.94-1.19-11.25-5.34-15.66C667.17,532.26,666.83,531.82,666.47,531.4Z"/><path class="cls-169" d="M594.73,541.21c5.36,5.14,10,10.95,14.71,16.66,1.52,1.83,2.94,3.75,4.47,5.57a2.16,2.16,0,0,0,3.79-.26,14.48,14.48,0,0,0,1.09-2.71c.87-2.66,1.68-5.34,2.51-8,.49,2.11,0,4.19-.12,6.28-.09,2.39-.32,4.77-.45,7.15-.17,3-.16,3,2.78,4.07,1,3.16-.47,5.8-1.94,8.29-1.26,2.11-3.24,2-5.05.48a38.38,38.38,0,0,1-4.3-4.62c-5-5.69-10-11.41-15-17.09a13.44,13.44,0,0,1-3.19-5.37A60.79,60.79,0,0,1,594.73,541.21Z"/><path class="cls-170" d="M679.56,605.29a3.1,3.1,0,0,1-3.82.73c-3.24-1.32-6.51-2.58-9.76-3.88-1.17-.47-2.36-.92-3.47-1.5-2.3-1.21-4.62-1-7-.24a1.26,1.26,0,0,0-.78.83c0,.28.44.69.77.83,5.43,2.27,10.87,4.51,16.3,6.76.78.32,1.57.62,2.34.95,3.24,1.34,3.27,1.49,1.15,4.78-7.85-2.62-15.69-5.27-23.57-7.82a6,6,0,0,1-3.75-3.09c-.89-1.72-2-3.34-2.88-4.85.62-1.23,1.58-1,2.33-1.13,7.29-1.48,14.61-2.78,21.85-4.43,2.18-.49,3.16.26,4,1.9.13.25.2.52.33.85a12.89,12.89,0,0,0-1.48.76c-1,.66-.95,1.44,0,1.88a1.9,1.9,0,0,0,.4.14C676.32,599.42,678.32,602,679.56,605.29Z"/><path class="cls-9" d="M590.68,602.29a94.18,94.18,0,0,1,.91-13.11c1.66-.67,3,.31,4.33,1,6,3,11.62,6.68,17.41,10.06a3.67,3.67,0,0,1,2.11,2.46,63.47,63.47,0,0,1-11.63,10.14c-4.61,1.17-9.21,2.09-13.75-.26a15.39,15.39,0,0,1,.27-5.15C594.53,605.82,594.53,605.82,590.68,602.29Z"/><path class="cls-171" d="M623,523.41c-1.49-.37-2.72-.65-3.94-1l-20.73-5.56c-.81-.22-1.72-.34-1.93-1.36a4.82,4.82,0,0,1,.34-3.26,1.22,1.22,0,0,1,1.07-.41c1.78.36,3.56.78,5.32,1.24,5,1.31,10,2.68,15.06,3.95a19.6,19.6,0,0,0,3.74.53,2.13,2.13,0,0,0,2.1-1.73,2,2,0,0,0-1-2.12c-2.32-1.41-5-1.81-7.58-2.41s-5-1-7.43-1.49a1.71,1.71,0,0,1-.75-.33,1.12,1.12,0,0,1-.38-.69c0-.15.29-.43.47-.45,4.19-.33,8.39-.62,12.59-1,3.64-.28,7.27-.6,10.9-.88a9.21,9.21,0,0,1,2.1,0,1.18,1.18,0,0,1,1.06,1.5,18.56,18.56,0,0,1-.66,2.43c-1.29,4-3.55,7.63-5.15,11.53a1.47,1.47,0,0,1-1.25,1C625.56,523.15,624.14,523,623,523.41Z"/><path class="cls-172" d="M595.51,529.37l21.42,7.5a15,15,0,0,1,1.92.86,2.53,2.53,0,0,1,1.38,2.81,8.65,8.65,0,0,1-.25,1.23c-1.43,4.84-2.85,9.68-4.31,14.51-.34,1.15-1.15,1.49-1.79.76q-6.68-7.57-13.29-15.2a.93.93,0,0,1-.18-.78.74.74,0,0,1,1-.38c2.18,1,4.33,2,6.51,3a14.92,14.92,0,0,0,2.74,1,1.7,1.7,0,0,0,2-1.22,1.52,1.52,0,0,0-.48-1.88,14.09,14.09,0,0,0-2.91-1.63c-4.68-1.88-9.38-3.7-14.07-5.54A15.64,15.64,0,0,1,595.51,529.37Z"/><path class="cls-173" d="M657.53,589.66c1.39-4.15,4.31-7.08,7.72-9.6.9-.66,1.86-1.22,2.81-1.8.7-.43,1.69-.73,1.71-1.65,0-1.15-1.18-.89-1.88-1.2-1.9-.84-3.85-1.61-5.73-2.5a10.64,10.64,0,0,1-4.81-3.86l4.91-2c1.48,1.65,3.4,1.78,5.4,1.5s3.86-.65,5.79-.93a9.72,9.72,0,0,1,2.09,0c.56,0,1.11.23,1.09,1a1.17,1.17,0,0,1-1,1.12c-1.09.18-2.21.22-3.32.34a3.69,3.69,0,0,0-1.2.28c-.13.06-.19.57-.08.74a3.83,3.83,0,0,0,2.12,1.26c1.44.5,2.93.9,4.38,1.4a2.69,2.69,0,0,1,2,2.42,2.54,2.54,0,0,1-1.83,2.54c-1.4.62-2.83,1.18-4.24,1.79a22.44,22.44,0,0,0-2.25,1.12c-.47.27-1.11.59-1,1.21.18,1,1.1.63,1.66.57,2.22-.27,4.42-.68,6.63-1,1.24-.16,2.54-.36,3.39.94-1.42,1.58-3.44,1.82-5.34,2.16-2.88.53-5.8.88-8.71,1.24a9.6,9.6,0,0,0-4.72,1.53A7.49,7.49,0,0,1,657.53,589.66Z"/><path class="cls-174" d="M696.61,638.19l-18.67,2.72c-1.38.2-2.75.44-4.14.57-.69.07-1-.53-1-1.11a4.59,4.59,0,0,1,.36-1.62q4.94-12.48,9.94-25a5,5,0,0,1,.73-1c.86,1.43,1.67,2.89,2.59,4.27a3.9,3.9,0,0,1,.18,4c-1.31,3.08-2.59,6.17-3.89,9.25-.21.52-.45,1-.62,1.56a1.51,1.51,0,0,0,1.73,2.08c1.93-.28,3.84-.68,5.76-1,1-.18,1.92-.33,2.88-.53a1.85,1.85,0,0,1,2.34,1.19C695.44,635.08,696.46,636.47,696.61,638.19Z"/><path class="cls-175" d="M634.92,523.22c-.19,0-.6-.1-1-.22a.78.78,0,0,1-.53-1,24.57,24.57,0,0,1,1.19-2.68,54.8,54.8,0,0,0,4.17-11,19.66,19.66,0,0,0,.56-3.73c.08-2-.73-2.89-2.66-3a16.32,16.32,0,0,0-3.35.15c-6.66,1-13.37,1.38-20.08,1.82-4.33.29-8.64.79-13,1.2a13.39,13.39,0,0,1-2.09.12,1.35,1.35,0,0,1-1-.61,2.37,2.37,0,0,1,1.89-3.39c5.31-.44,10.61-.8,15.94-.92,8.28-.2,16.53.2,24.8.5a37.18,37.18,0,0,1,5,.74,1,1,0,0,1,.8,1.24,10.75,10.75,0,0,1-.5,2c-2,5.4-3.9,10.81-5.92,16.18C638.19,523.31,637.91,523.42,634.92,523.22Z"/><path class="cls-176" d="M594,551.65c.7.68,1.45,1.31,2.08,2q9.78,11.2,19.52,22.43c.55.64,1.08,1.28,1.66,1.89,1.8,1.88,2.67,1.79,3.6-.54s1.75-5,2.61-7.51a8.79,8.79,0,0,1,3.61.2c.56,5.26-1.71,9.8-4,14.21-1.13,2.16-3.27,2.39-5.34.67a37.93,37.93,0,0,1-4.28-4c-5.63-6.42-11.24-12.87-16.9-19.27a12.13,12.13,0,0,1-2.86-5A14.73,14.73,0,0,1,594,551.65Z"/><path class="cls-177" d="M593.74,556.69c2.64,2.33,4.68,5.19,7,7.8,5.31,6,10.57,12,15.86,18,.46.53,1,1,1.45,1.53,2.05,2.06,4.1,1.68,5-1,1.41-4.25,2.72-8.53,4.07-12.8a11.54,11.54,0,0,1,1.65-.17c.79,0,1.32.43,1.22,1.31a6.59,6.59,0,0,1-.3,1.22c-1.77,5.31-3.53,10.62-5.32,15.92-.64,1.92-1,2-3.09,2-1.93,0-3.08-1-4.22-2.27-7.18-8.24-14.31-16.52-21.63-24.63C593.5,561.4,592.91,559.31,593.74,556.69Z"/><path class="cls-178" d="M609.92,615.67l.86,1.44a4.2,4.2,0,0,1-.58,5.41q-1.68,1.89-3.45,3.7c-4.81,4.93-9.84,9.63-15,14.14-1,.82-1.82,1.73-2.73,2.6-.63-.05-1-.4-1-1,.11-1.76.29-3.52.45-5.28,1.32-3.28,4.43-5,6.71-7.38a128,128,0,0,1,9.43-8.91C606.25,618.71,607.67,616.71,609.92,615.67Z"/><path class="cls-179" d="M622.43,534.55l-26.65-9.27c0-1,0-1.95.07-2.92s.67-1.39,1.77-1.1c7.82,2,15.65,4.09,23.47,6.2,1.9.51,2,.75,2,2.57C623,531.55,623.19,533.12,622.43,534.55Z"/><path class="cls-180" d="M692.39,575.21c-1.16-6.23-.21-12.28,1.67-18.21a41.78,41.78,0,0,1,7.21-14.11c1,2.51.4,5.06.21,7.61-2.19,6.5-3.57,13.24-5.49,19.82A11,11,0,0,1,692.39,575.21Z"/><path class="cls-181" d="M592.18,580a34,34,0,0,1,.78-9.36c1.11-.26,1.42.5,1.84,1q7.58,8.35,15.11,16.75a3.84,3.84,0,0,1,1.28,2.1c-.36.21-.79.45-1.16.3C603.51,588.09,597.21,585.07,592.18,580Z"/><path class="cls-182" d="M673,619.57a9.16,9.16,0,0,1,.23,2.06c-.25,2.16-1,2.77-3,2.43a20.84,20.84,0,0,1-3.24-.91c-3.18-1.06-6.36-2.16-9.54-3.25l-4-6.93c3.92.6,7,2.17,10.19,3.19S669.86,618.43,673,619.57Z"/><path class="cls-183" d="M615.69,596c.5.42,1,.84,1.51,1.25,1.42,1.16,1.42,1.15.59,3.29-1.8.36-3.27-.57-4.76-1.31-6.64-3.32-12.78-7.53-19.38-10.9a4,4,0,0,1-1.89-2.17,7.47,7.47,0,0,1,.19-3.29c.26-.11.58-.28.8-.18C600.81,586.44,609,589.94,615.69,596Z"/><path class="cls-184" d="M590.06,612.56c1.11,0,2.23.06,3.33-.07a34,34,0,0,1,10.42.33,45.5,45.5,0,0,1-9.15,8c-1.73.19-3.43,2.16-5.2.1A41.62,41.62,0,0,1,590.06,612.56Z"/><path class="cls-185" d="M591.76,586.2l17.59,9.72,8.44,4.66a4.09,4.09,0,0,1-2.35,2.1c-7.8-4.76-15.71-9.35-23.85-13.5C591.64,588.18,591.7,587.19,591.76,586.2Z"/><path class="cls-186" d="M653.23,503.28a4.5,4.5,0,0,1-.16,1c-2.07,6.12-4.13,12.24-6.25,18.34-.46,1.33-1.27,1.65-2.6,1.28a1.08,1.08,0,0,1-.88-1.23,7.34,7.34,0,0,1,.46-1.61q3-8.32,5.94-16.66a7.45,7.45,0,0,1,1.19-2.16c.36-.44,1.05-.32,1.59-.12S653.21,502.52,653.23,503.28Z"/><path class="cls-187" d="M635.67,573.89c1.1,1.27,2.12,2.62,3.32,3.79,1.89,1.86,1.91,3.94,1,6.18-.66,1.55-1.41,3.06-2,4.62a26.75,26.75,0,0,0-.84,2.81,16.06,16.06,0,0,1-4.74-.32c-1.16-1.75,0-3.22.78-4.54a9.13,9.13,0,0,0,.92-8.28C634.23,576.6,634.46,575.06,635.67,573.89Z"/><path class="cls-188" d="M615.69,596c-3.29-1.8-6.6-3.58-9.88-5.4-4.63-2.56-9.24-5.15-13.86-7.73.08-1,.15-2,.23-2.94,4.71,2.7,9.41,5.42,14.14,8.08,1.57.88,3.24,1.59,4.87,2.38a15.94,15.94,0,0,1,4.14,4.05A1.76,1.76,0,0,1,615.69,596Z"/><path class="cls-189" d="M605.53,644a46.36,46.36,0,0,1,10.27-9.55,31,31,0,0,1-.51,7.75c-.32,1.35-1.56,1.67-2.54,2.28A36.38,36.38,0,0,1,605.53,644Z"/><path class="cls-190" d="M660.19,625c3,1,6,2,9,3.1,1.67.64,1.93,1.58,1.21,3.31-.38.9-.81,1.76-1.89,2-5.13-1.39-5.14-1.39-7.44-6.11A22.56,22.56,0,0,1,660.19,625Z"/><path class="cls-191" d="M696,570.32a33.31,33.31,0,0,1,5.49-19.82,40.18,40.18,0,0,1-3.26,15.85A11.37,11.37,0,0,1,696,570.32Z"/><path class="cls-192" d="M604.56,620.38c-2.64,3.81-6.1,6.86-9.34,10.11-2.16,2.16-4.53,4.13-6.8,6.18a4,4,0,0,1,1.38-4.11c4.22-3.64,8.38-7.36,12.58-11A3.84,3.84,0,0,1,604.56,620.38Z"/><path class="cls-193" d="M634,578.15a4.11,4.11,0,0,1,2,3,4.85,4.85,0,0,1-.8,3.53,21.83,21.83,0,0,0-2.9,6.32,7.22,7.22,0,0,1-1.23,0c-1.22-.23-1.57-.65-1.27-1.6a77.59,77.59,0,0,1,3.66-10.1Z"/><path class="cls-194" d="M669.37,561l7.72,1.48a5.57,5.57,0,0,1,1.2.31,1.05,1.05,0,0,1,.67,1.31,1.7,1.7,0,0,1-.83.84,2.11,2.11,0,0,1-1.22.11c-3.09-.63-6.28-.83-9.27-1.94A4.47,4.47,0,0,1,669.37,561Z"/><path class="cls-195" d="M590.68,602.29a7.11,7.11,0,0,1,3.25.51,3.29,3.29,0,0,1,1.81,2.14,2.26,2.26,0,0,1-2.19,3.15,8.45,8.45,0,0,1-3.22-.68A17.28,17.28,0,0,1,590.68,602.29Z"/><path class="cls-196" d="M672.34,554.4c1.57.59,3.15,1.14,4.69,1.79a3.87,3.87,0,0,1,1.26,1,1.3,1.3,0,0,1-.73,2,5.15,5.15,0,0,1-2-.16c-1.45-.5-2.84-1.15-4.26-1.73A5.15,5.15,0,0,1,672.34,554.4Z"/><path class="cls-197" d="M681.16,511.47a13.82,13.82,0,0,1,.6,2,2.26,2.26,0,0,1-1.83,2.73,2.5,2.5,0,0,1-2.85-1.77,2.38,2.38,0,0,1,1.42-3,7.92,7.92,0,0,1,2-.22Z"/><path class="cls-198" d="M692.48,649.77c0-.41,0-.83,0-1.24.11-3.11.21-3.2,3.74-3.43.23,1.06.48,2.12.66,3.18a12.2,12.2,0,0,1,.1,1.63A8.88,8.88,0,0,1,692.48,649.77Z"/><path class="cls-199" d="M682.16,646.76a4.55,4.55,0,0,1,2.77-.65c2.67,0,2.92.24,3.47,3.42-1.21,0-2.42,0-3.63-.09C682.7,649.29,682.7,649.26,682.16,646.76Z"/><path class="cls-200" d="M666.73,505.36a4.89,4.89,0,0,1-1.54.51,39.64,39.64,0,0,0-7,.76,3.53,3.53,0,0,1,.49-2.39,1.38,1.38,0,0,1,1.68-.87C662.49,504.13,664.81,504.11,666.73,505.36Z"/><path class="cls-201" d="M589.46,620.9c1.74.14,3.45-.58,5.2-.1-.84.92-1.64,1.86-2.52,2.74s-1.61,1.44-2.49,2.22C588.94,623.55,588.93,623.55,589.46,620.9Z"/><path class="cls-202" d="M671,647.68c2.1-.91,4.3-.68,6.49-.52-.14.49-.23,1.4-.44,1.42C675,648.85,672.81,649.38,671,647.68Z"/><path class="cls-166" d="M612.75,644.52a7,7,0,0,1,2.54-2.28C615.58,644.84,615.58,644.84,612.75,644.52Z"/><path class="cls-203" d="M653.54,575.37a3,3,0,0,1,2.76,3,3.3,3.3,0,0,1-3.5,2.84,2.89,2.89,0,0,1-2.68-3.11C650.1,576.48,651.56,575.29,653.54,575.37Z"/><path class="cls-204" d="M652.37,587.44a2.71,2.71,0,0,1-2.92,2.35,2.49,2.49,0,0,1-2.57-2.68,2.79,2.79,0,0,1,3.15-2.59A2.73,2.73,0,0,1,652.37,587.44Z"/><path class="cls-205" d="M663.51,522a2.66,2.66,0,0,1-2.94,2.27,2.9,2.9,0,0,1-2.58-3.16,2.61,2.61,0,0,1,2.89-2.31A3.15,3.15,0,0,1,663.51,522Z"/><path class="cls-206" d="M670.17,512.33a2.65,2.65,0,0,1,2.3,3,2.45,2.45,0,0,1-2.88,2.32,2.4,2.4,0,0,1-2.29-2.88A2.67,2.67,0,0,1,670.17,512.33Z"/></g></svg>