<?xml version="1.0" encoding="utf-8"?>
<!-- Generator: Adobe Illustrator 23.0.0, SVG Export Plug-In . SVG Version: 6.00 Build 0)  -->
<svg version="1.1" id="Layer_1" xmlns="http://www.w3.org/2000/svg" xmlns:xlink="http://www.w3.org/1999/xlink" x="0px" y="0px"
	 viewBox="0 0 1192.5 449.7" style="enable-background:new 0 0 1192.5 449.7;" xml:space="preserve">
<style type="text/css">
	.st0{display:none;}
	.st1{display:inline;fill:#262626;stroke:#262626;stroke-miterlimit:10;}
	.st2{fill:none;stroke:#262626;stroke-width:43.0717;stroke-miterlimit:10;}
	.st3{fill:#262626;}
</style>
<title>session_logo_black</title>
<g class="st0">
	<path class="st1" d="M434,193.5c36.6,0,54.8,25.3,54.8,58.5c0,5.1-0.5,10.2-1.6,15.2h-77c3.3,18.4,16.3,26.5,33.5,26.5
		c9.6,0,18.4-2.7,27.8-8.1l12.7,21.8c-13.3,8.5-30.2,13.7-45.6,13.7c-36.8,0-65.1-23.6-65.1-63.9C373.3,217.9,403.2,193.5,434,193.5
		z M456.3,244.8c0-14-6.1-23.8-21.5-23.8c-11.9,0-22.2,7.7-24.9,23.8H456.3z"/>
	<path class="st1" d="M536.8,281.8c11.6,8.3,22.2,12.8,33.1,12.8c11.4,0,16.3-3.8,16.3-10.3c0-8.1-12.9-11.7-26.2-16.7
		c-15.6-5.6-34-15.8-34-35.9c0-22.7,19.4-38,49.3-38c19.6,0,34.2,7.7,45.4,15.4l-17.1,21.6c-9.4-6.4-18.2-10.3-27.2-10.3
		c-9.9,0-14.5,3.4-14.5,9.6c0,7.9,11.8,10.8,25.2,15.4c16.3,5.6,34.7,14.2,34.7,36.6c0,22-18.4,39.3-52.9,39.3
		c-16.8,0-36.4-6.9-49.3-16.9L536.8,281.8z"/>
	<path class="st1" d="M667.4,281.8c11.6,8.3,22.2,12.8,33.2,12.8c11.4,0,16.3-3.8,16.3-10.3c0-8.1-12.9-11.7-26.2-16.7
		c-15.6-5.6-34-15.8-34-35.9c0-22.7,19.4-38,49.3-38c19.6,0,34.2,7.7,45.4,15.4l-17.1,21.6c-9.4-6.4-18.2-10.3-27.2-10.3
		c-9.9,0-14.5,3.4-14.5,9.6c0,7.9,11.8,10.8,25.2,15.4c16.3,5.6,34.7,14.2,34.7,36.5c0,22-18.4,39.3-52.9,39.3
		c-16.8,0-36.4-6.9-49.3-16.9L667.4,281.8z"/>
	<path class="st1" d="M779.2,159.7c0-11.1,9.3-18.6,22-18.6c12.9,0,22,7.7,22,18.6s-9,18.8-22,18.8
		C788.6,178.5,779.2,170.6,779.2,159.7z M782.4,196.5h38v121.8h-38V196.5z"/>
	<path class="st1" d="M914.9,193.5c32.4,0,62.6,23.3,62.6,63.9s-30,63.9-62.6,63.9c-32.7,0-62.8-23.3-62.8-63.9
		S882.3,193.5,914.9,193.5z M914.9,292.1c15.6,0,23.6-13.5,23.6-34.6s-8-34.6-23.6-34.6c-15.8,0-23.6,13.5-23.6,34.6
		S899.3,292.1,914.9,292.1z"/>
	<path class="st1" d="M1009.5,196.5h31.1l2.6,15.4h1c10.8-9.9,23.9-18.4,41.3-18.4c28,0,39.9,18.6,39.9,49.1v75.7h-38v-71
		c0-17.7-4.9-23.1-15.8-23.1c-9.6,0-15.6,4.3-23.9,11.7v82.3h-38V196.5H1009.5z"/>
</g>
<polyline class="st2" points="145.7,203.3 241.4,306.2 131,418.9 20.6,305.6 "/>
<polyline class="st2" points="236.7,134 133.2,30.4 30,133.1 117.8,226.8 "/>
<g>
	<path class="st3" d="M453.9,291.7c-3.4-11.8-8.6-21.9-16-30.6c-7.3-8.7-16.4-15.8-27.2-21.1c-10.7-5.2-22.3-7.9-34.7-7.9
		c-11.2,0-21.8,2.2-31.5,6.4c-10.1,4.4-18.8,10.3-25.7,17.3c-7.2,7.3-13,16-17.2,25.7s-6.4,20.3-6.4,31.6c0,11.2,2.1,21.6,6.4,31.8
		c4.1,9.8,10,18.4,17.3,25.8c7.2,7.3,15.9,13.1,25.7,17.4c9.7,4.2,20.3,6.4,31.5,6.4c9.2,0,18.4-1.6,27.5-4.9l2.7-1v-50l-6.6,5.1
		c-3.5,2.7-7.1,4.8-11,6.2c-3.8,1.5-8.1,2.3-12.7,2.3c-5.6,0-10.8-1.1-15.4-3.1c-4.8-2.1-8.9-5-12.2-8.5c-3.4-3.6-6-7.6-8.1-12.5
		c-2-4.6-2.9-9.3-2.9-14.6c0-5.4,1-10.4,3-15c1.8-4.5,4.5-8.6,8.1-12.3c3.3-3.5,7.4-6.2,12.2-8.4c4.8-2.1,9.8-3.1,15.3-3.1
		c7.6,0,14.2,1.9,20.2,5.8c4.1,2.7,7.5,5.7,10.2,9.2h-44.9V332h93.2l0.6-3.4C457.7,315.5,457.2,303.5,453.9,291.7z"/>
	<path class="st3" d="M587.5,316.9c-3.5-5.8-8-10.8-14-15.3c-5.5-4-11.6-7.5-18.3-10.3c-6.3-2.7-12.4-5.5-18.4-8.7l-0.2-0.1
		c-1.4-0.7-2.4-1.6-2.4-4c0-1.2,0.5-2.3,1.4-3.4c0.9-0.9,2-1.3,3.2-1.3c1.4,0,2.4,0.4,3.5,1.4c1.3,1.3,1.5,2.4,1.5,3.1v4.1H586v-4.1
		c0-6.4-1.3-12.5-3.7-18.2c-2.4-5.7-5.8-10.7-10.1-15c-4.5-4.4-9.5-7.8-15-10.1c-5.9-2.5-11.9-3.7-18.3-3.7
		c-6.4,0-12.4,1.2-18.3,3.7c-5.7,2.5-10.7,5.9-14.8,10.2c-4.1,4.2-7.4,9.2-10,14.9s-3.9,11.8-3.9,18.3c0,6.2,1.1,11.5,3.3,16.3
		c2.2,4.7,5.1,8.8,8.5,12.3c3.6,3.6,7.3,6.5,11.4,8.9c4,2.4,8,4.5,11.9,6.5c1.8,0.8,3.5,1.7,5.2,2.5c1.8,0.9,3.6,1.7,5.3,2.5
		c2.7,1.3,5.1,2.6,7.1,4c1.6,1.3,2.9,2.8,3.9,4.4c0.9,1.5,1.4,3.2,1.4,5c0,3-1.1,5.5-3.2,7.6c-2.2,2.2-4.7,3.2-7.6,3.2
		c-2.9,0-5.3-1-7.5-3.2c-2.1-2.1-3.1-4.6-3.1-7.6v-4.2H485v4.1c0,7.3,1.4,14.1,4.2,20.8c2.8,6.5,6.6,12.1,11.6,17
		c4.9,4.8,10.6,8.7,17.1,11.4c6.6,2.8,13.6,4.2,21,4.2s14.3-1.4,21.1-4.2c6.6-2.8,12.4-6.6,17.2-11.4c5-4.9,8.8-10.5,11.6-17
		c2.9-6.7,4.2-13.5,4.2-20.8C593,331.1,591.1,323.1,587.5,316.9z"/>
	<path class="st3" d="M742.6,316.9c-3.5-5.8-8-10.8-14-15.3c-5.5-4-11.6-7.5-18.3-10.3c-6.3-2.7-12.4-5.5-18.4-8.7l-0.2-0.1
		c-1.4-0.7-2.4-1.6-2.4-4c0-1.2,0.5-2.3,1.4-3.4c0.9-0.9,2-1.3,3.2-1.3c1.3,0,2.4,0.4,3.5,1.4c1.3,1.3,1.5,2.4,1.5,3.1v4.1H740v-4.1
		c0-6.4-1.3-12.5-3.7-18.2c-2.4-5.7-5.8-10.7-10.1-15c-4.5-4.4-9.5-7.8-15-10.1c-5.9-2.5-11.9-3.7-18.3-3.7s-12.4,1.2-18.3,3.7
		c-5.7,2.5-10.7,5.9-14.8,10.2c-4.1,4.2-7.4,9.2-10,14.9s-3.9,11.8-3.9,18.3c0,6.2,1.1,11.5,3.3,16.3c2.2,4.7,5.1,8.8,8.5,12.3
		c3.6,3.6,7.3,6.5,11.4,8.9c4,2.4,8,4.5,11.9,6.5c1.8,0.8,3.5,1.7,5.2,2.5c1.8,0.9,3.6,1.7,5.3,2.5c2.7,1.3,5.1,2.6,7.1,4
		c1.6,1.3,3,2.8,3.9,4.4c0.9,1.5,1.4,3.2,1.4,5c0,3-1.1,5.5-3.2,7.6c-2.2,2.2-4.7,3.2-7.6,3.2c-2.9,0-5.3-1-7.5-3.2
		c-2.1-2.1-3.1-4.6-3.1-7.6v-4.2h-42.3v4.1c0,7.3,1.4,14.1,4.2,20.8c2.8,6.5,6.6,12.1,11.6,17c4.9,4.8,10.6,8.7,17.1,11.4
		c6.6,2.8,13.6,4.2,21,4.2s14.3-1.4,21.1-4.2c6.6-2.8,12.4-6.6,17.2-11.4c5-4.9,8.8-10.5,11.6-17c2.9-6.7,4.2-13.5,4.2-20.8
		C748.1,331.1,746.3,323.1,742.6,316.9z"/>
	<g>
		<rect x="785.9" y="231.9" class="st3" width="42.3" height="163.4"/>
		<rect x="785.9" y="176.6" class="st3" width="42.3" height="42.3"/>
	</g>
	<g>
		<path class="st3" d="M962.2,293.5c-2.5-2.5-5.3-4.4-8.7-5.9c-3.3-1.5-6.9-2.3-10.9-2.3c-3.9,0-7.5,0.8-10.8,2.3
			c-3.4,1.5-6.2,3.5-8.6,5.9c-2.5,2.5-4.4,5.3-5.9,8.7c-1.5,3.3-2.3,6.9-2.3,10.9c0,3.9,0.8,7.5,2.3,10.8c1.5,3.4,3.5,6.2,5.9,8.6
			s5.2,4.3,8.6,5.9c3.3,1.5,6.8,2.3,10.8,2.3c3.8,0,7.5-0.8,10.8-2.2c3.4-1.5,6.3-3.4,8.8-5.9c2.4-2.4,4.3-5.2,5.9-8.6
			c1.5-3.3,2.3-6.8,2.3-10.8c0-3.8-0.7-7.5-2.2-10.8C966.6,298.8,964.7,295.9,962.2,293.5z"/>
		<path class="st3" d="M1018,281.2c-4.3-10-10.2-18.7-17.5-26c-7.4-7.3-16.1-13.1-25.9-17.4c-9.8-4.3-20.5-6.5-31.9-6.5
			c-11.3,0-21.9,2.2-31.7,6.5s-18.5,10.2-25.9,17.4c-7.3,7.3-13.2,16-17.6,25.9c-4.3,9.8-6.5,20.5-6.5,31.9s2.2,22.1,6.4,31.8
			c4.3,10,10.2,18.8,17.6,26c7.4,7.3,16.1,13.1,25.9,17.4c9.7,4.3,20.4,6.5,31.8,6.5c11.3,0,22.1-2.2,31.8-6.4
			c9.8-4.1,18.5-10,26-17.5c7.3-7.4,13.1-16.1,17.4-25.9c4.3-9.8,6.5-20.5,6.5-31.9S1022.3,291,1018,281.2z M981.8,313.1
			c0,5.3-1,10.3-3.1,15.1c-2.1,4.8-4.8,8.9-8.4,12.5c-3.5,3.5-7.8,6.4-12.4,8.4c-4.9,2.1-9.9,3.1-15.2,3.1s-10.3-1-15.2-3.1
			c-4.8-2.1-8.9-4.9-12.3-8.4c-3.5-3.6-6.3-7.8-8.3-12.5s-3.1-9.8-3.1-15.1c0-5.6,1-10.5,3.1-15.1c2-4.7,4.8-8.9,8.3-12.5
			c3.6-3.6,7.8-6.4,12.3-8.4c4.9-2.1,9.9-3.1,15.2-3.1s10.5,1,15.2,3.1c4.8,2.1,8.9,4.8,12.4,8.4c3.7,3.8,6.5,8,8.5,12.5
			C980.7,302.7,981.8,307.8,981.8,313.1z"/>
	</g>
	<path class="st3" d="M1186.7,276.3c-3.9-8.9-9.2-16.6-15.7-23.1s-14.4-11.8-23.4-15.7s-18.4-5.7-28.8-5.7
		c-10.2,0-19.8,1.9-28.6,5.7c-8.8,3.8-16.6,9.1-23.2,15.7c-6.6,6.6-11.9,14.3-15.7,23.1c-4,9-5.9,18.6-5.8,28.3v90.6h42.3v-90.5
		c0-4,0.8-7.9,2.4-11.7c1.5-3.6,3.7-6.9,6.4-9.6c2.8-2.7,6.1-4.9,9.7-6.6c3.8-1.6,7.7-2.4,11.9-2.4c4.4,0,8.5,0.8,12,2.3
		c3.9,1.7,7.2,3.9,9.8,6.6c2.7,2.7,4.9,5.9,6.5,9.6c1.6,3.9,2.4,7.7,2.4,11.7v90.5h43.5v-90.6
		C1192.5,294.4,1190.6,285.2,1186.7,276.3z"/>
</g>
</svg>
