<svg id="Layer_1" data-name="Layer 1" xmlns="http://www.w3.org/2000/svg" viewBox="0 0 1080 1080"><defs><style>.cls-1{fill:#6f5ea9;}.cls-2,.cls-20,.cls-21,.cls-8{fill:none;}.cls-14,.cls-15,.cls-16,.cls-17,.cls-18,.cls-2,.cls-4,.cls-8{stroke:#fff;}.cls-10,.cls-11,.cls-14,.cls-15,.cls-16,.cls-17,.cls-18,.cls-2,.cls-20,.cls-21,.cls-22,.cls-28,.cls-34,.cls-4,.cls-8,.cls-9{stroke-miterlimit:10;}.cls-2{stroke-width:6.01px;}.cls-3{fill:#f9f9fa;}.cls-4{fill:#574e88;stroke-width:0.64px;}.cls-5{fill:#eab852;}.cls-11,.cls-6{fill:#f16163;}.cls-7{fill:#50a993;}.cls-8{stroke-width:4.15px;}.cls-9{fill:#eab850;}.cls-10,.cls-11,.cls-22,.cls-9{stroke:#282828;}.cls-10,.cls-11,.cls-9{stroke-width:2.38px;}.cls-10,.cls-12,.cls-14,.cls-15,.cls-16,.cls-17{fill:#f4f4f4;}.cls-13{fill:#5f67a8;}.cls-14{stroke-width:2.03px;}.cls-15{stroke-width:0.89px;}.cls-16{stroke-width:1.51px;}.cls-17{stroke-width:0.59px;}.cls-18,.cls-19,.cls-22,.cls-44{fill:#fff;}.cls-18{stroke-width:1.92px;}.cls-20{stroke:#ababab;}.cls-20,.cls-21{stroke-width:4.56px;}.cls-21{stroke:#f15e6d;}.cls-22{stroke-width:1.51px;}.cls-23{fill:#2b2b2b;}.cls-24{fill:#f05050;}.cls-25{fill:#0b1e29;}.cls-26{fill:#454d54;}.cls-27{fill:#44585c;}.cls-28,.cls-34{fill:#fbfcfc;stroke:#303030;}.cls-28{stroke-width:1.83px;}.cls-29{fill:#0f252d;}.cls-30{fill:#1c1f16;}.cls-31{fill:#272e17;}.cls-32{fill:#0c1f28;}.cls-33{fill:#2d3425;}.cls-34{stroke-width:0.92px;}.cls-35{fill:#444545;}.cls-36{fill:#ef9298;}.cls-37{fill:#5aba47;}.cls-38{fill:#152f24;}.cls-39{fill:#14291c;}.cls-40{fill:#091e2c;}.cls-41{fill:#d5e07a;}.cls-42{fill:#424c2f;}.cls-43{fill:#f9faf7;}.cls-44{fill-rule:evenodd;}.cls-45{fill:#ed2224;}.cls-46{fill:#e51e27;}</style></defs><title>tools_and_resources</title><path class="cls-1" d="M539.78,609.37,539.11,819l-.84,261c-186.41-.77-367.35-98.16-466.71-271.53s-91.92-378.72,1.66-539.95L298.8,399.72,476.29,503a70.58,70.58,0,0,0-9.59,35.62c0,.48,0,.95,0,1.43a70.83,70.83,0,0,0,70.81,69.4C538.28,609.41,539,609.4,539.78,609.37Z"/><rect class="cls-2" x="86.83" y="424.81" width="107.83" height="130.27" rx="2.57"/><line class="cls-2" x1="194.66" y1="489.79" x2="86.83" y2="490.08"/><line class="cls-2" x1="194.66" y1="522.37" x2="86.83" y2="522.37"/><line class="cls-2" x1="140.74" y1="424.8" x2="140.74" y2="555.25"/><line class="cls-2" x1="194.66" y1="457.49" x2="86.83" y2="457.49"/><rect class="cls-3" x="54.42" y="454.35" width="71.6" height="71.6" rx="2.29"/><path class="cls-4" d="M83.41,470.48c.57,1.28,1.24,2.5,1.87,3.75l4.59,9.07c.34.68.64,1.38,1,2.11a2.45,2.45,0,0,0,.16-.24c1.5-3.31,3.39-6.4,5.09-9.6.85-1.59,1.74-3.16,2.59-4.74a.63.63,0,0,1,.62-.42c2.59,0,5.17,0,7.76,0a.25.25,0,0,1,.26.1c-.11.19-.22.41-.35.62l-5.47,8.91-2.73,4.45c-.91,1.49-1.57,3.12-2.52,4.6a1,1,0,0,0,0,1.17c1.13,1.79,2.24,3.59,3.35,5.4,2.68,4.33,5.13,8.78,7.81,13.11.08.12.14.25.22.4a.89.89,0,0,1-.52.07c-2.63,0-5.26,0-7.89,0a.77.77,0,0,1-.83-.49c-2.3-4.53-4.79-9-7.17-13.44a5.3,5.3,0,0,0-.75-1.37,43.27,43.27,0,0,0-2.28,4.18c-1.92,3.53-3.87,7.06-5.79,10.59a.84.84,0,0,1-.87.53c-2.61,0-5.22,0-7.82,0h-.56c-.07-.26.11-.38.2-.53l4.27-6.63,7.7-11.92a.59.59,0,0,0,.07-.73Q80.77,481.7,76.18,474c0-.07-.1-.13-.15-.2-.49-.84-1-1.68-1.46-2.52-.14-.23-.27-.47-.4-.69.1-.17.24-.12.36-.12h8.38A1.21,1.21,0,0,1,83.41,470.48Z"/><circle class="cls-5" cx="188.06" cy="734.28" r="80.41"/><path class="cls-6" d="M245,725.85a31.82,31.82,0,0,0-3.8-11.52,16,16,0,0,0-6.18-6.16,12.4,12.4,0,0,0-6.08-1.56c-3.06,0-6.12,0-9.18,0-.37,0-.37,0-.37.38,0,4.48,0,9,0,13.44a18.71,18.71,0,0,1-2.35,9.22,13.56,13.56,0,0,1-9.31,6.77,21.45,21.45,0,0,1-4.73.47c-9.22,0-18.43,0-27.65,0a17.86,17.86,0,0,0-9.2,2.49,12.7,12.7,0,0,0-6.09,8.45,19,19,0,0,0-.45,4.39q0,12.53,0,25a13.06,13.06,0,0,0,.26,3.3,11.77,11.77,0,0,0,3.65,5.92,20,20,0,0,0,6.7,3.88,38.61,38.61,0,0,0,7,1.77,69.25,69.25,0,0,0,13.42.72c2.06-.08,4.11-.2,6.16-.41a37.83,37.83,0,0,0,10.33-2.37,17.41,17.41,0,0,0,5.31-3.15,9.37,9.37,0,0,0,3-4.78,5.81,5.81,0,0,0,.19-2c0-.13,0-.26,0-.39q0-6.19,0-12.4c0-.41,0-.41-.42-.41H187.52v-4h.3q19.43,0,38.86,0a17.46,17.46,0,0,0,6-.89,16.14,16.14,0,0,0,7.93-6.14,24.47,24.47,0,0,0,3.69-8.45c.36-1.47.58-3,.87-4.45a1.27,1.27,0,0,1,.06-.18V727.33C245.16,726.84,245.08,726.35,245,725.85Zm-41.46,48a5.08,5.08,0,1,1-5.09,5.08A5.1,5.1,0,0,1,203.55,773.87Z"/><path class="cls-7" d="M213.93,686.47a14.71,14.71,0,0,0-5.48-4.94,28.75,28.75,0,0,0-7.79-2.83,41.61,41.61,0,0,0-5.78-.9c-2-.15-3.92-.24-5.88-.36l-.59-.05h-2.6a3.44,3.44,0,0,1-.45.05c-1.51.07-3,.08-4.54.2a46.71,46.71,0,0,0-11,2,19.42,19.42,0,0,0-6.69,3.47,9.64,9.64,0,0,0-3.37,5.06,8.4,8.4,0,0,0-.2,2.18c0,1.39,0,2.79,0,4.18,0,2.82,0,5.65,0,8.47,0,.43,0,.43.43.43h27.69v4l-.37,0q-19.4,0-38.78,0a17.74,17.74,0,0,0-5.48.69,16,16,0,0,0-8.19,5.91,24.21,24.21,0,0,0-3.76,8,38,38,0,0,0-1.15,5.79,53.52,53.52,0,0,0-.4,5.51,5.87,5.87,0,0,1,0,.59v2.43c0,.12,0,.24,0,.36.08,1.56.11,3.12.26,4.67a39.23,39.23,0,0,0,2.53,11.31A19.92,19.92,0,0,0,137.3,760a13.37,13.37,0,0,0,6.8,3.45,12.85,12.85,0,0,0,2.24.17c3,0,5.93,0,8.9,0h.31c.17,0,.26-.06.25-.25a2.09,2.09,0,0,1,0-.25c0-4.45,0-8.91,0-13.36a18.78,18.78,0,0,1,2.08-8.63,13.49,13.49,0,0,1,8.9-7.13,18.7,18.7,0,0,1,4.82-.63c9.42,0,18.83,0,28.24,0a18,18,0,0,0,9.09-2.42,12.74,12.74,0,0,0,6.23-8.63,20,20,0,0,0,.41-4.36q0-12.08,0-24.15c0-.48,0-1,0-1.44A10.25,10.25,0,0,0,213.93,686.47Zm-42.24,10a5.09,5.09,0,1,1,5.09-5.08A5.07,5.07,0,0,1,171.69,696.44Z"/><path class="cls-3" d="M198.46,779a5.09,5.09,0,1,1,5.09,5.08A5.1,5.1,0,0,1,198.46,779Z"/><path class="cls-3" d="M171.69,696.44a5.09,5.09,0,1,1,5.09-5.08A5.07,5.07,0,0,1,171.69,696.44Z"/><line class="cls-8" x1="367.76" y1="841.64" x2="367.76" y2="963.65"/><line class="cls-8" x1="343.95" y1="963.65" x2="391.23" y2="963.65"/><rect class="cls-9" x="312.51" y="832.96" width="110.49" height="27.53"/><rect class="cls-10" x="312.51" y="874.51" width="110.49" height="27.53"/><rect class="cls-11" x="312.51" y="916.05" width="110.49" height="27.53"/><circle class="cls-12" cx="327.7" cy="846.82" r="4.19"/><circle class="cls-12" cx="348.43" cy="846.82" r="4.19"/><circle cx="327.7" cy="888.27" r="4.19"/><circle cx="348.43" cy="888.27" r="4.19"/><circle class="cls-12" cx="327.7" cy="929.73" r="4.19"/><circle class="cls-12" cx="348.43" cy="929.73" r="4.19"/><path class="cls-6" d="M1008.44,271.54,782.09,401.26,600.19,505.52A70.83,70.83,0,0,0,540,467.78c-.82,0-1.64,0-2.47,0A70.82,70.82,0,0,0,476.29,503L298.8,399.72,73.22,268.52A537.42,537.42,0,0,1,271.53,71.57C530.24-76.7,860.17,12.83,1008.44,271.54Z"/><circle class="cls-13" cx="540.77" cy="132.28" r="82.68"/><path class="cls-14" d="M532,118.9c0,2.62.08,5.12,0,7.62-.14,3.48,0,7-.71,10.4a19.32,19.32,0,0,1-7.5,11.9c-.22.16-.49.58-.42.75a28,28,0,0,0,2.12,4.77,4.69,4.69,0,0,0,3.8,1.86,40.54,40.54,0,0,1,13.93,3.16c4.35,2,6.66,5.62,8.08,9.87,1,3,1.54,6.16,2.27,9.25a2.12,2.12,0,0,1-.84,2.25c-11.23,9.76-24.08,14.54-39.07,13.06A59.13,59.13,0,0,1,487,185a37.05,37.05,0,0,1-4.23-3.14,2.89,2.89,0,0,1-.9-1.9A17,17,0,0,1,489,165.2a39,39,0,0,1,11.2-5.58c5.9-2,8.85-6.21,8.53-12.43,0-.82-.08-1.65-.18-2.46a10,10,0,0,0-1.58-4.47,27.81,27.81,0,0,1-2.12-5,28.58,28.58,0,0,0-1.21-3c-2.57-4.72-4.84-9.55-5.7-14.91a21.39,21.39,0,0,1,.33-9.25,7.71,7.71,0,0,1,5-5.62,1.26,1.26,0,0,0,.73-.7c1.69-5.18,5.59-7.66,10.64-8.47a17.58,17.58,0,0,1,16.06,5.34,10.44,10.44,0,0,1,2.65,4.87,22.86,22.86,0,0,0,4.68,8.87c1,1.17,1,1.4,0,2.59C536.45,117,534.6,118.6,532,118.9Zm-.49,71.27c1.71-.64,3.59-1.32,5.45-2.07a1.6,1.6,0,0,0,.71-.82c.86-2.11,1.7-4.22,2.5-6.35.28-.76.55-1.5,1.52-1.22s.94.94.7,1.72c-.49,1.55-1,3.1-1.45,4.67,2.24-.87,8.7-5.28,10.06-6.93a1.34,1.34,0,0,0,.19-1,71.93,71.93,0,0,0-1.87-7.73c-2.53-7.3-8.45-11.48-15.75-11.36-.3,1.22-.52,2.48-.91,3.68-1.54,4.87-4.4,8.62-9.61,9.73a21,21,0,0,1-17.64-3.9,21.8,21.8,0,0,1-5.61-6.42,34.58,34.58,0,0,0-10,5.32A15.17,15.17,0,0,0,484.12,178a3,3,0,0,0,1.36,3.22c12.34,8.77,26.06,11.84,41,10a2.47,2.47,0,0,0,1.3-.75A30.34,30.34,0,0,0,534,180.29c1-2.57,1.67-5.27,2.56-7.88a2.06,2.06,0,0,1,1.1-1c.24-.09.85.34,1,.66a2,2,0,0,1,0,1.31,66.6,66.6,0,0,1-2.34,7.25C534.85,183.85,533.11,187,531.49,190.17Zm-27.74-62.66c.13-3.19.22-6,.37-8.87.09-1.9.69-2.2,2.42-1.35,3,1.48,6.1,2.9,9.5,3.27a7.92,7.92,0,0,0,2.33-.47,17.61,17.61,0,0,1-.54-2,2.55,2.55,0,0,1,0-1.6c.43-.63,1.07-.31,1.69,0a24.73,24.73,0,0,0,3.86,1.75,6.32,6.32,0,0,0,5.14-.43,6,6,0,0,1-1.14-1.42,1.5,1.5,0,0,1,.23-1.36,1.75,1.75,0,0,1,1.39,0c.35.12.58.57.89.84a2.55,2.55,0,0,0,2.6.61,7.66,7.66,0,0,0,3.66-2.82,25.29,25.29,0,0,1-4.88-9.37A9.62,9.62,0,0,0,528,99.1a15.4,15.4,0,0,0-13-3.58c-4.52.8-8,3-9,7.89a1.44,1.44,0,0,1-.91,1c-3,.5-4.29,2.53-4.8,5.23C499,115.92,501,121.63,503.75,127.51Zm2.56-7.57a3.68,3.68,0,0,0-.11.59,63.43,63.43,0,0,0,.51,12.54c1,6.08,4.81,10,9.57,13.36a7.7,7.7,0,0,0,1.94.86,4.9,4.9,0,0,0,5.29-1.15,18.84,18.84,0,0,0,5.58-9.68c1-4.49.69-9.09.57-13.65,0-.92-.11-1.83-.17-2.86a10.55,10.55,0,0,1-8.6-.1c-.82,2.25-1.81,3-4.07,3a9.59,9.59,0,0,1-2.78-.33C511.48,121.73,509,120.82,506.31,119.94Zm24.77,38.94c-2.52-.28-4.92-.72-6.82-2.45s-2.53-4.17-3.13-6.14a37.75,37.75,0,0,1-5.54-1.72,37.2,37.2,0,0,1-4.7-3.24c.67,7.35-1.58,13.15-8.87,16.11.22.36.31.53.42.68,4.42,6.42,10.59,9,18.27,8.51C526.5,170.22,530.55,165.31,531.08,158.88Z"/><path class="cls-15" d="M564.93,123.85h-4.26A11.94,11.94,0,0,1,548.45,112c-.13-7.49-.12-15,0-22.48a11.6,11.6,0,0,1,11.82-11.62q18.27-.12,36.54,0a11.26,11.26,0,0,1,11.47,11.27c.14,7.75.12,15.51,0,23.26a11.72,11.72,0,0,1-11.84,11.49c-4.8-.11-9.6,0-14.39,0-.65,0-1.07.07-1.35.82-3.2,8.86-10.39,13-19.85,12.5a59.1,59.1,0,0,1-5.89-.81c-.68-.11-1.35-.36-1.32-1.25s.69-1,1.4-1.17a11.6,11.6,0,0,0,7.3-5c1.09-1.49,1.94-3.15,2.9-4.73Zm-5.57,10.89c9.72,1.21,16.95-3.1,19.54-11.86a1.58,1.58,0,0,1,1.78-1.29c5.29,0,10.57,0,15.85,0a9.36,9.36,0,0,0,9.48-9c.15-7.9.18-15.81,0-23.71-.1-3.92-2.32-6.7-6-8.23a1.14,1.14,0,0,0-1.53.39c-1.29,1.56-2.66,3-4,4.58-.55.63-1.18,1.06-1.9.41s-.32-1.33.22-1.94c1-1.06,1.88-2.14,2.81-3.22a7,7,0,0,0,.47-.64,4.38,4.38,0,0,0-4.73,1.55c-1.9,2.16-4,4.11-6.08,6.15-.55.54-1.17.77-1.77.17s-.4-1.22.15-1.76q1.92-1.91,3.82-3.82l2.26-2.28c-2.14-.32-4-.37-5.27,1.51a17.61,17.61,0,0,1-2,2c-.55.56-1.17.76-1.77.18s-.4-1.24.16-1.77,1.25-1.14,2.1-1.91a8.94,8.94,0,0,0-.9-.14c-7.46,0-14.91-.07-22.37.06a9.33,9.33,0,0,0-9,9.14q-.13,11.41,0,22.82a9.76,9.76,0,0,0,9.73,9.5c1.91,0,3.82,0,5.73,0,1.43,0,1.86.54,1.46,1.88a19,19,0,0,1-.87,2.43A19.94,19.94,0,0,1,559.36,134.74Z"/><path class="cls-16" d="M489.7,175.27c.06-2.54,3-6.14,5.13-6.57a1.54,1.54,0,0,1,1.28.58c.36.55.07,1.09-.51,1.5a11.29,11.29,0,0,0-2.43,1.93,23.67,23.67,0,0,0-1.31,2.56,1.7,1.7,0,0,1-1.26.79C490.22,176,489.88,175.44,489.7,175.27Z"/><path class="cls-16" d="M525.21,100.66a1.18,1.18,0,0,1-1.83,1.08,18.92,18.92,0,0,0-2.29-1.16,5.91,5.91,0,0,0-6,.88c-.66.52-1.34.84-1.93,0s0-1.37.61-1.87c3.41-2.65,7.79-2,10.87.25A2.83,2.83,0,0,1,525.21,100.66Z"/><path class="cls-17" d="M571.38,88.07h3.77v7.28a5.3,5.3,0,0,1,4.94-1.3c2.8.68,3.86,2.79,4.22,5.35a12,12,0,0,1-.47,6.1,5.17,5.17,0,0,1-8.49,2.17,2.79,2.79,0,0,0-.34-.2l-.32,1.24h-3.31Zm3.8,13.37v2a2.13,2.13,0,0,0,1.61,2.35c1.33.4,2.63.08,3.14-1a7.5,7.5,0,0,0,0-6.6,2.49,2.49,0,0,0-3-1,2.11,2.11,0,0,0-1.7,2.39Z"/><path class="cls-17" d="M555.46,98.44a4.4,4.4,0,0,1,2.63-3.86,8.12,8.12,0,0,1,6.23-.38,4.48,4.48,0,0,1,3.22,4.4c0,1.5,0,3,0,4.5,0,.94,0,1.88,0,2.81s.29,1.76.46,2.77a32.86,32.86,0,0,1-3.44-.05c-.33,0-.6-.59-1-1a5.4,5.4,0,0,1-5.11,1.09,4.23,4.23,0,0,1-3.34-3.77c-.12-2.28.78-3.85,2.87-4.55a18.73,18.73,0,0,1,3.51-.65,17.61,17.61,0,0,1,2.06,0c.16-1.11.11-2.07-.77-2.72a2.43,2.43,0,0,0-2.56-.15c-.11,0-.24.1-.28.19C559,99.26,557.11,98.11,555.46,98.44Zm8.11,3.47a23.47,23.47,0,0,0-3.1.37,2,2,0,0,0-1.39,2.46,1.89,1.89,0,0,0,2.34,1.22C563.56,105.47,564,104.81,563.57,101.91Z"/><path class="cls-17" d="M600.49,99.67h-3.43c-.08-.28-.17-.6-.28-.9a2.31,2.31,0,0,0-2.21-1.61,2.23,2.23,0,0,0-2.39,1.33,8.22,8.22,0,0,0,0,6.24,2.24,2.24,0,0,0,2.38,1.34,2.38,2.38,0,0,0,2.29-1.51,1.08,1.08,0,0,1,.71-.62c1-.07,1.93,0,2.89,0a4.87,4.87,0,0,1-3.38,4.83,6.52,6.52,0,0,1-9.1-5,9.54,9.54,0,0,1,.75-6.45c2-3.7,7.72-4.42,10.51-1.32A5,5,0,0,1,600.49,99.67Z"/><path class="cls-18" d="M913.42,247.81c-1.12-5.68-2.15-11.38-3.22-17.07-1.86-9.9-3.75-19.8-5.58-29.71-.22-1.16-.67-1.45-1.84-1.25-10.06,1.72-20.13,3.37-30.2,5.07-2.7.46-5.4,1-8.08,1.54a3.36,3.36,0,0,0-2.82,3c-.11.75.11,1.74-.29,2.19s-1.42.41-2.17.58a6.45,6.45,0,0,1-.63.16c-3.42.48-6.79,1.42-10.32,1.06a54.42,54.42,0,0,1-12.6-3.05c-11.78-4.15-22.82-9.9-33.79-15.78a5.93,5.93,0,0,1-.76-.58l3.69-4.72q6.11-7.82,12.21-15.63c1.42-1.82,1.25-3.19-.51-4.68-1.34-1.13-2.67-2.28-4-3.37a2.78,2.78,0,0,0-4.29.47c-.93,1.12-1.82,2.27-2.73,3.42-5,6.25-9.91,12.52-14.9,18.75a1.84,1.84,0,0,1-1.42.71,23.28,23.28,0,0,0-13.85,1.73c-10.07,4.31-19.64,9.64-29.24,14.89-2.94,1.62-4.31,4.31-4.9,7.49-1.79,9.7-3.54,19.41-5.41,29.09-.89,4.64-1.21,9.18.74,13.65a1.57,1.57,0,0,1-.27,1.23c-.86,1.29-1.93,2.44-2.66,3.79q-4.75,8.83-9.31,17.77A2.24,2.24,0,0,1,721.9,280H710.1v1.57h12.59a2.46,2.46,0,0,0,2.56-1.59c2.65-5.39,5.35-10.75,8.17-16,1.12-2.12,2.59-4.06,3.94-6.13,2.13,2.68,4.07,5.1,6.19,7.74a2.66,2.66,0,0,0-.56.28c-5.31,4.62-10.62,9.23-15.89,13.89-.36.32-.41,1-.6,1.48.52-.1,1-.19,1.55-.3.11,0,.19-.17.29-.25l16.27-14.21c7.37,5.33,10.3,5.58,16.27,1.3l1.85,1.46c2.58,2,5.22,3.91,8.53,4.61,5.21,1.11,9.13-1,10.27-5.94a31.09,31.09,0,0,0,.48-7.9,9.71,9.71,0,0,0-4-7.24,2.77,2.77,0,0,1-.31-.36c.12-.1.17-.17.25-.2s.32-.11.48-.17c7.18-2.38,14.21-1.53,21.22.8,2.85.94,5.72,1.83,8.63,2.54a109.16,109.16,0,0,0,17.83,2.39,58.58,58.58,0,0,0,19.92-1.57c6.84-1.89,12.28-5.63,15.41-12.24a35.69,35.69,0,0,0,3.37-13.53,65.35,65.35,0,0,0-1.16-16.51c-.07-.34.19-1,.42-1.09,1.26-.34,2.55-.54,3.87-.79.15.69.27,1.14.35,1.6q3.38,20.57,6.74,41.14c.18,1.15.62,1.53,1.79,1.32q17.65-3.22,35.32-6.39C913.3,249.44,913.66,249,913.42,247.81ZM800.49,178.16,809,167.48c1.2-1.51,1.61-1.53,3.12-.26,1.18,1,2.35,2,3.55,3a1.46,1.46,0,0,1,.25,2.33q-7.85,10-15.71,20A1.3,1.3,0,0,1,799,193c-2.45-1.12-4.86-2.31-7.45-3.56ZM789.65,191.8a1.38,1.38,0,0,1,1.94-.56c2.29,1.06,4.6,2.06,7,3.14a8.73,8.73,0,0,1-.54.92c-4.13,5.26-8.28,10.51-12.35,15.81a2.35,2.35,0,0,0-.16,1.85,17.73,17.73,0,0,1,1,8.07,10.66,10.66,0,0,1-4.23,7,24.85,24.85,0,0,1-7.83,3.8l-21,6.77-.58.17-.15-.24c2.47-3.12,4.95-6.24,7.41-9.37,5.39-6.84,10.75-13.69,16.15-20.51C780.72,203,785.21,197.42,789.65,191.8Zm-53,54.53c2-11.14,4.06-22.26,6.09-33.4a8.94,8.94,0,0,1,5.09-6.68c9.14-4.62,18.23-9.36,27.41-13.92a21.05,21.05,0,0,1,11.62-2.18c.53,0,1.06.18,1.86.33l-7.29,9.23q-15.3,19.32-30.57,38.66a7.27,7.27,0,0,1-2.88,2.22c-4.34,1.94-7.67,4.92-8,10-.11,1.83-1,2.85-2.11,4.14A13.78,13.78,0,0,1,736.65,246.33ZM747.18,243l-5.39,6.85C742.27,246.55,744.35,244.47,747.18,243Zm-3,20.74c-1-1.2-2.32-2.74-3.62-4.3-.22-.26-.38-.56-.58-.84-1.6-2.28-1.58-2.44.66-4.43,1.61,3.41,4.53,4.86,8.43,5.37Zm36.54-.38a17.79,17.79,0,0,1-.89,4.9c-1.15,3.34-3.84,4.72-7.44,4.15a16.31,16.31,0,0,1-7.56-3.63c-1-.8-2-1.56-3-2.38a1.24,1.24,0,0,0-2,.06c-4.29,4.15-9.65,3.28-14.24-1.57,1.82-1.68,3.57-3.32,5.35-4.92a1.83,1.83,0,0,1,1-.43c6-.47,11.73-2.36,17.41-4.31,1.74-.6,3.48-1.22,5.19-1.91a2,2,0,0,1,2.13.28C780.07,256,780.84,259.52,780.68,263.35Zm-27.06-5.64c4.12-5.62,13.75-8.45,19.6-5.76C770.78,253.42,756.9,257.88,753.62,257.71ZM863,233.32c-.86,5.77-2.57,11.23-6.82,15.51-3.89,3.9-8.83,5.67-14.1,6.64-6.6,1.22-13.24.91-19.89.43-8.8-.65-17.2-3-25.57-5.59a30.44,30.44,0,0,0-19.48.48,3.47,3.47,0,0,1-2.59-.09c-5.43-2.09-10.78-2-15.8,1.15a50.19,50.19,0,0,0-6.49,4.84,4.33,4.33,0,0,1-4.05,1.16c-2.58-.5-4.7-1.57-6-4a1.82,1.82,0,0,1,.19-2.31c2.58-3.15,5-6.4,7.61-9.57a3.67,3.67,0,0,1,1.65-1.11c7.86-2.59,15.75-5.09,23.6-7.72a34.18,34.18,0,0,0,6.23-2.72c5.76-3.36,8-8.75,6.14-15.39-.71-2.49-.13-4,1.38-5.76,3.47-4.15,6.71-8.47,10-12.72l1-1.2c4.23,2.2,8.32,4.37,12.45,6.45A195.72,195.72,0,0,0,838,212.72a38.49,38.49,0,0,0,22.41.77c1.57-.4,1.58-.38,1.86,1.26A58.48,58.48,0,0,1,863,233.32Zm47.33,15.09c-11.14,2-22.27,4-33.64,6.05-.15-.82-.31-1.59-.44-2.36q-2.82-17-5.65-34c-.36-2.16-.76-4.3-1.06-6.47-.16-1.19-.69-1.52-1.83-1.23-1.36.35-2.75.59-4.19.9-.74-2.1-.36-3.07,1.54-3.44,5.05-1,10.11-1.86,15.18-2.73,7.06-1.21,14.12-2.37,21.18-3.55,1.66-.28,1.72-.25,2,1.35q4.1,21.81,8.23,43.6C911.87,247.8,911.58,248.18,910.29,248.41Z"/><rect class="cls-19" x="209.53" y="154.07" width="138.99" height="138.99" rx="5.03"/><line class="cls-20" x1="242.72" y1="184.96" x2="315.83" y2="184.96"/><line class="cls-20" x1="242.72" y1="200.17" x2="315.83" y2="200.17"/><line class="cls-21" x1="242.72" y1="200.17" x2="265.25" y2="200.17"/><line class="cls-20" x1="242.72" y1="215.38" x2="315.83" y2="215.38"/><line class="cls-20" x1="242.72" y1="230.6" x2="315.83" y2="230.6"/><line class="cls-20" x1="242.72" y1="245.81" x2="315.83" y2="245.81"/><line class="cls-20" x1="242.72" y1="261.02" x2="315.83" y2="261.02"/><line class="cls-21" x1="297.7" y1="184.96" x2="260.85" y2="184.96"/><line class="cls-21" x1="277.82" y1="215.38" x2="315.83" y2="215.38"/><line class="cls-21" x1="250.8" y1="230.6" x2="277.82" y2="230.6"/><line class="cls-21" x1="289.76" y1="261.02" x2="315.83" y2="261.02"/><path class="cls-13" d="M808.46,1008.45A537.5,537.5,0,0,1,538.27,1080l.84-261,.67-209.62H540A70.84,70.84,0,0,0,608.35,540c0-.48,0-1,0-1.43a70.51,70.51,0,0,0-8.18-33.06l181.9-104.26,226.35-129.72C1156.71,530.26,1067.17,860.18,808.46,1008.45Z"/><circle class="cls-6" cx="912.37" cy="734.28" r="71.91"/><path d="M886.17,756.88c2.24,1.78,3.92,3.09,5.58,4.44,10.82,8.83,25.1,9.65,37.79,1.84,11.41-7,19.1-21.87,16.26-35-5.38-24.9-30.26-34.42-51.11-23.79-10.64,5.42-14.53,15.83-18.44,26.11-1.63,4.29-4.22,8.66,2.11,11.56.66.31,1.1,1.68,1.19,2.61.39,4,3.19,4.38,6.3,4.38a52.17,52.17,0,0,1,5.31.09,49.89,49.89,0,0,1,5.08,1.12Z"/><path class="cls-22" d="M886.17,756.88l10.07-6.67a49.89,49.89,0,0,0-5.08-1.12,52.17,52.17,0,0,0-5.31-.09c-3.11,0-5.91-.36-6.3-4.38-.09-.93-.53-2.3-1.19-2.61-6.33-2.9-3.74-7.27-2.11-11.56,3.91-10.28,7.8-20.69,18.44-26.11,20.85-10.63,45.73-1.11,51.11,23.79,2.84,13.16-4.85,28-16.26,35-12.69,7.81-27,7-37.79-1.84C890.09,760,888.41,758.66,886.17,756.88Zm6.13-35.76c-1.79,2-3.81,3.23-3.69,4.28.13,1.24,2.09,2.29,3.27,3.42,1.07-1.13,2.68-2.13,3-3.46C895.16,724.48,893.61,723.12,892.3,721.12Z"/><path d="M892.3,721.12c1.31,2,2.86,3.36,2.62,4.24-.36,1.33-2,2.33-3,3.46-1.18-1.13-3.14-2.18-3.27-3.42C888.49,724.35,890.51,723.08,892.3,721.12Z"/><rect class="cls-19" x="654.83" y="839.72" width="117.62" height="117.62" rx="5.03"/><path class="cls-23" d="M746.22,900.63V938c0,2-.55,2.56-2.55,2.56h-60c-2,0-2.57-.54-2.57-2.53V900.63c-.75,0-1.36,0-2,0-1.23,0-1.92-.61-1.93-1.84q0-8.31,0-16.64c0-1.25.72-1.8,2.07-1.8h26.18l.1-.21c-.36-.2-.71-.43-1.08-.61a46.32,46.32,0,0,1-11.59-7.67,13.25,13.25,0,0,1-3.69-5.42,6.83,6.83,0,0,1,.68-6.14,11.37,11.37,0,0,1,8.15-5.6,7.59,7.59,0,0,1,6.26,2.19,23.92,23.92,0,0,1,6.13,9.75c1.06,2.82,1.87,5.74,2.79,8.61a3.13,3.13,0,0,0,.57,1.27c.36-1.44.69-2.88,1.09-4.31a30.46,30.46,0,0,1,4.24-9.76,16.05,16.05,0,0,1,2.87-3,6.68,6.68,0,0,1,6.16-1.18,10.33,10.33,0,0,1,5.47,3.54,5.8,5.8,0,0,1,.68,6.64,13.64,13.64,0,0,1-4.75,5.32c-3,2-6.13,3.78-9.2,5.65a5.07,5.07,0,0,0-1.29.89c.4,0,.8.05,1.2.05h27.58c1.81,0,2.35.53,2.35,2.35,0,5.12,0,10.24,0,15.36,0,2.1-.48,2.57-2.61,2.58ZM684.62,937c.5,0,1,.06,1.41.06,6.28,0,12.56,0,18.84,0,1.14,0,1.5-.25,1.5-1.46,0-11.71,0-23.42,0-35.12v-1.25H684.62Zm58,0V899.26h-21.3V937ZM710,883.86V937h7.77V883.86Zm-3.63,0H680.67c0,3.58,0,7.07,0,10.55,0,1,.37,1.22,1.28,1.21,4.19,0,8.38,0,12.57,0h10.82c.51,0,1,.07,1-.72C706.33,891.28,706.33,887.64,706.33,883.9Zm15,11.65h25.19V883.89H721.32Zm-11.13-17.24a5.68,5.68,0,0,0-.1-.9c-1.08-3.38-2-6.86-3.32-10.12a39.58,39.58,0,0,0-4.15-7.06,4.61,4.61,0,0,0-4.08-2.09c-2.26.11-5.52,2.64-6,4.84a4.61,4.61,0,0,0,.25,2.89,11.76,11.76,0,0,0,2.45,3.33C699.48,873.25,704.68,875.83,710.19,878.31Zm7.09-1.33c4.46-2.21,8.61-4.38,12-7.69a11.76,11.76,0,0,0,1.84-2.51,2.15,2.15,0,0,0-.21-2.61c-2.39-2.74-5.7-4.13-8.56-.37-.23.31-.47.62-.67,1C719.42,868.42,718.31,872.51,717.28,877Z"/><path class="cls-6" d="M684.62,937V899.27h21.72v1.25c0,11.7,0,23.41,0,35.12,0,1.21-.36,1.47-1.5,1.46-6.28-.05-12.56,0-18.84,0C685.57,937.07,685.12,937,684.62,937Z"/><path class="cls-6" d="M742.63,937h-21.3V899.26h21.3Z"/><path class="cls-13" d="M710,883.86h7.77V937H710Z"/><path class="cls-24" d="M706.33,883.9c0,3.74,0,7.38,0,11,0,.79-.52.72-1,.72H694.49c-4.19,0-8.38,0-12.57,0-.91,0-1.29-.19-1.28-1.21.06-3.48,0-7,0-10.55Z"/><path class="cls-24" d="M721.32,895.55V883.89h25.19v11.66Z"/><path class="cls-25" d="M1000.58,422.15l-.23,7.48A2.23,2.23,0,0,1,998,431q-52.07,0-104.14,0c-2,0-4-.36-5.86.7-1.55,1.52-1.16,3.47-1.16,5.31q0,58.74-.07,117.47c0,1.9,1,4.34-1.62,5.56-.07-3.37-.18-6.74-.19-10.1q-.06-62.76-.11-125.53c0-6.3.62-6.92,6.82-6.92q51.33,0,102.67,0C997.81,417.45,1000.29,418.22,1000.58,422.15Z"/><path class="cls-26" d="M885.17,560c.79-1.4.4-2.93.4-4.4q0-60.75.06-121.51c0-1.47-.87-3.29,1-4.38,1.65,2.08,1.15,4.54,1.15,6.87q0,57.72,0,115.45c0,8.79-.46,8.2,8.11,8.21q47.22,0,94.46,0c2.74,0,5.51.18,8.1-1,1.42-.18,1.79.4,1.23,1.67-1.2,2.64-3.61,2.25-5.81,2.25q-39.87,0-79.74,0-12.72,0-25.45,0C886.93,562.86,885.52,562,885.17,560Z"/><path class="cls-27" d="M999.74,560.93l-.67-1.57c-1.54-1.3-1.41-3.13-1.41-4.84q-.07-59.65,0-119.3c0-1.71-.13-3.54,1.39-4.85l1.3-.74.12,103.78c0,7.87,0,15.74,0,23.6C1000.44,558.33,1000.88,559.79,999.74,560.93Z"/><path class="cls-28" d="M999.05,430.37q0,64.5,0,129c-.6,2.12-2.22,2.42-4.1,2.42q-52.29,0-104.56,0c-2.81,0-4.15-1-4.15-3.92q.06-63.15,0-126.3a9.84,9.84,0,0,1,.35-1.83q54.26,0,108.5.1C996.45,429.85,997.89,429.21,999.05,430.37Z"/><path class="cls-29" d="M942.35,523.28H900c-4.91,0-6.33-1.37-6.34-6.14q0-37.65,0-75.3c0-4.23,1.34-5.62,5.62-5.63q43.46,0,86.91,0c4.07,0,5.35,1.35,5.36,5.43q0,38,0,76.05c0,4.16-1.58,5.57-6.1,5.57q-21.54,0-43.08,0Z"/><path class="cls-30" d="M991.37,542.86c0,3.73,1.42,8.42-.32,10.93-1.91,2.76-6.92.93-10.54.94-27.82.11-55.64,0-83.46.14-2.82,0-3.78-.66-3.46-3.51s.22-5.69.31-8.54c1.06-.56,2.2-.32,3.31-.32h90.87C989.18,542.51,990.33,542.22,991.37,542.86Z"/><path class="cls-31" d="M928.53,530.76c10.47,0,21,.16,31.41-.09,3.24-.07,3.72,1.14,3.58,3.85-.13,2.33.29,4.12-3.35,4.08-21.19-.22-42.39-.15-63.58,0-2.5,0-3.42-.61-3-3.07.38-2-1.49-5,3.13-4.84C907.33,531,917.94,530.76,928.53,530.76Z"/><path class="cls-32" d="M980.18,538.5c-2.87,0-5.75-.2-8.6,0-3.23.28-2.7-1.89-2.5-3.61s-1.47-4.27,2.26-4.19c6.1.13,12.21.07,18.32,0,1.45,0,1.82.42,1.91,1.87.41,5.87.48,5.87-5.41,5.87h-6Z"/><path class="cls-33" d="M991.37,542.86l-97.47,0c.76-1.32,2-.65,3-.65q45.55-.07,91.12,0C989.14,542.16,990.52,541.42,991.37,542.86Z"/><path class="cls-34" d="M999,424.84c-.27-2.71.43-5.77-3.87-5.76q-38.91.09-77.84.11c-2.11-.05-4.22-.14-6.33-.14-7.09,0-14.18,0-21.26.06-4.6.07-2.84,3.7-3.21,6.1-.4,2.56.88,3.13,3.2,3.09,9-.14,17.9-.12,26.85-.16l54,0h0c8.23,0,16.47,0,24.7.13C997.68,428.28,999.26,427.94,999,424.84Z"/><path class="cls-35" d="M906.12,423.4c-.18,1.55-1,2.4-2.42,2.43a1.89,1.89,0,0,1-2.15-2,2.1,2.1,0,0,1,2.29-2.35C905.21,421.43,905.76,422.34,906.12,423.4Z"/><path class="cls-35" d="M915.71,423.4c-.17,1.55-1,2.4-2.41,2.43a1.9,1.9,0,0,1-2.16-2,2.11,2.11,0,0,1,2.29-2.35C914.8,421.43,915.36,422.34,915.71,423.4Z"/><path class="cls-35" d="M894.29,421.43a2.29,2.29,0,0,1,2.36,2.3,2,2,0,0,1-2.14,2.06c-1.29,0-2.53-.4-2.52-2A2.33,2.33,0,0,1,894.29,421.43Z"/><path class="cls-36" d="M942.8,437.6h41.59c5.13,0,5.65.49,5.65,5.47q0,36.53,0,73.05c0,5.2-.46,5.67-5.48,5.67l-83.54,0c-5.44,0-6-.52-6-6q0-36.15,0-72.3c0-5.24.53-5.78,5.77-5.79q21,0,42,0Z"/><path class="cls-37" d="M979.88,536.93c-2.24,0-4.48-.06-6.72,0-1.85.08-2.68-.49-2.65-2.53s1.21-2.12,2.68-2.12c4.73,0,9.46.07,14.18,0,1.87,0,2.71.53,2.68,2.54s-1.22,2.12-2.7,2.11C984.86,536.91,982.37,536.93,979.88,536.93Z"/><path class="cls-38" d="M903.42,504.48c-.1-3.6-.27-7.21-.28-10.82,0-15,.09-29.94-.11-44.91,0-3.43,1.07-4.15,4.25-4.14,23.58.11,47.16,0,70.74.08,1.52,0,3.81-.77,3.77,2.18-.87,1.26-.42,2.67-.43,4,0,15.24,0,30.48,0,45.71,0,.95.47,2.2-.6,2.73-.7.34-1.3-.45-1.61-1.19q.06-22.58,0-45.14c0-1.61.21-3.25-.6-4.75-.92-1.15-2.22-1-3.45-1-21.79,0-43.59,0-65.39-.06-3.06,0-4.22,1.05-4.14,4.14.14,6.47,0,12.95.05,19.42q0,6,0,12.09c0,5.53-.14,11.06.16,16.58a9.52,9.52,0,0,1-.58,4A1.8,1.8,0,0,1,903.42,504.48Z"/><path class="cls-39" d="M979.47,497.94c.42.49.92,1.58,1.42.24a8.81,8.81,0,0,0,.1-3c0-14.71,0-29.41,0-44.11,0-1.43-.55-3,.78-4.24.25,18,.31,36,0,54a2,2,0,0,1-2,.51c-2-1-2.78-3.11-4-4.81a13,13,0,0,0-4.79-4.59c-2.34-1.19-3.57.8-5.07,1.85-1.11.77-1.58,2.15-2.49,3.14-5.52,5.64-5.59,5.61-10-.82-3.81-5.55-7.91-10.9-11.86-16.35s-10-5.92-14.69-.84c-5.13,5.62-9,12.2-13.49,18.35-2.19,3-4.28,6.12-7.29,8.43a1.37,1.37,0,0,1-1.77-.84c1.51-3.88,4.42-6.87,6.5-10.39,4.31-5.65,8.09-11.69,12.52-17.23,5.8-7.25,13.48-7.52,19.92-1a32.62,32.62,0,0,1,3.1,3.73c3.31,4.68,6.71,9.3,9.81,14.11,1.67,2.59,2.82,2.46,4.76.37s3.27-4.46,5.88-5.67C972.76,486.86,978.79,491.16,979.47,497.94Z"/><path class="cls-40" d="M904.68,504.34c.1.73.61,1,1.25,1.06,1.71,6.2,1.71,6.2,8.59,6.2h58.76c5.56,0,5.62-.13,5.68-5.64,0-1.71-.42-3.51.68-5.08h2.1c.06,3.48,0,7,.23,10.44.2,2.56-.51,3.45-3.22,3.43-17.69-.07-35.39,0-53.08,0-6.61,0-13.21-.13-19.82,0-1.86,0-2.8-.33-2.65-2.42.18-2.6.16-5.22.22-7.83l1.08-.66.3.19Z"/><path class="cls-35" d="M986.64,543.54c-14.73.15-29.46.07-44.2.07s-29.21.09-43.82-.08c-3,0-4,.88-3.61,3.75a5.86,5.86,0,0,1,0,1.87c-.71,3.6,1,4.26,4.28,4.24,28.22-.11,56.43-.06,84.65-.06,6.21,0,6,0,6.22-6.33C990.24,544.16,989.41,543.51,986.64,543.54Z"/><path class="cls-6" d="M959.14,532.27c-10.22.06-20.45,0-30.67,0H898.18c-1.55,0-3.22-.52-3.22,2.21,0,2.44,1.15,2.49,3,2.48q30.66-.06,61.33,0c1.65,0,2.8,0,2.86-2.26C962.19,532.29,961,532.26,959.14,532.27Z"/><path class="cls-41" d="M904.81,471a32.51,32.51,0,0,1,0,11.76Z"/><path class="cls-5" d="M980.33,489.91c.07-14.34-.05-28.68-.11-43-.17-.57-.61-.7-1.14-.7q-36.09,0-72.17,0c-1.85,0-2.32.68-2.29,2.41.12,7.47.13,14.95.19,22.43q.2,5.88,0,11.76-.16,10.53-.31,21.06a.42.42,0,0,1,.18.52,54,54,0,0,0,6.84-9.4h0q5.61-7.69,11.21-15.39c6.75-9.33,15.6-9.25,22.16.18,4.34,6.25,8.7,12.47,13.18,18.88l8.61-9a1,1,0,0,1-.38-.71c.1.2.22.42.38.71,3.85-1.57,6.92-.41,9.31,2.78,1.31,1.75,2.79,3.41,3.48,5.55C981.52,495.46,980.32,492.57,980.33,489.91Z"/><path class="cls-37" d="M979.64,500.88c-2.75-3.34-3.86-8.06-8.38-9.89-4.76-1.34-6.17,2.64-8.43,5.29h0l-1.33,1.3c-3.6,3.6-3.57,3.59-6.59-.73-4-5.8-8.11-11.61-12.26-17.36-3.84-5.31-9.8-6.55-14.69-3.14-2.08,1.45-3.46,3.54-4.92,5.56-5.67,7.86-11,16-17.11,23.49a14.54,14.54,0,0,0-.61,1.75c-1.09,5-.36,5.89,4.78,5.88l30.3,0c12.1,0,24.2,0,36.29,0,1.47,0,3.59.64,3.47-2C980,507.56,980.61,504.18,979.64,500.88Z"/><path class="cls-5" d="M953.11,459.67a6.16,6.16,0,0,1,6.94-2.89c8.3,1.8,9.9,9.35,7.35,16.08-1.46,3.86-8.37,5.6-12.81,3.55-5.56-2.58-7.25-6.5-5-11.48,1.16,1.16,1,2.78,1.4,4.18,1.3,4.05,5.4,6.68,9.17,5.71,4.32-1.11,7.16-5.64,6.09-9.69a8.24,8.24,0,0,0-9.6-5.67C955.51,459.71,954.36,460.44,953.11,459.67Z"/><path class="cls-42" d="M953.11,459.67c7-3.05,13.33-.5,14.35,5.79A9.13,9.13,0,0,1,960.17,476a8.89,8.89,0,0,1-10.38-7.32,26.68,26.68,0,0,1-.16-3.7A17.34,17.34,0,0,1,953.11,459.67Z"/><path class="cls-43" d="M958.54,474.65a7.58,7.58,0,0,1,.08-15.15,7.58,7.58,0,1,1-.08,15.15Z"/><path class="cls-35" d="M540,261V467.78c-.82,0-1.64,0-2.47,0a70.8,70.8,0,0,0-70.83,70.84c0,.48,0,.95,0,1.43H261A278.88,278.88,0,0,1,540,261Z"/><path class="cls-19" d="M608.35,540c0-.48,0-1,0-1.43A70.82,70.82,0,0,0,540,467.78V261A278.85,278.85,0,0,1,819,540Z"/><path class="cls-19" d="M540,609.37V819h-.89C385.44,818.51,261,693.79,261,540H466.72a70.83,70.83,0,0,0,70.81,69.4c.75,0,1.5,0,2.25,0Z"/><path class="cls-35" d="M819,540c0,154.08-124.9,279-279,279V609.37A70.84,70.84,0,0,0,608.35,540Z"/><path class="cls-44" d="M415.21,359.43a72.6,72.6,0,0,0-22.95,141.48c3.63.67,5-1.57,5-3.49,0-1.73-.06-7.45-.1-13.52-20.19,4.4-24.45-8.56-24.45-8.56-3.31-8.39-8.06-10.62-8.06-10.62-6.59-4.51.49-4.42.49-4.42,7.29.51,11.13,7.48,11.13,7.48,6.48,11.1,17,7.89,21.13,6,.65-4.69,2.53-7.9,4.61-9.71-16.13-1.83-33.08-8.06-33.08-35.88a28.1,28.1,0,0,1,7.48-19.48c-.75-1.83-3.24-9.22.7-19.22,0,0,6.1-1.95,20,7.45a68.68,68.68,0,0,1,36.36,0c13.86-9.4,20-7.45,20-7.45,3.95,10,1.46,17.39.71,19.22a28,28,0,0,1,7.47,19.48c0,27.89-17,34-33.15,35.82,2.6,2.26,4.92,6.67,4.92,13.45,0,9.71-.08,17.53-.08,19.92,0,1.93,1.31,4.2,5,3.48a72.61,72.61,0,0,0-23-141.47Z"/><path class="cls-19" d="M370.11,463.66c-.16.36-.72.47-1.24.22s-.82-.73-.65-1.09.72-.47,1.25-.22.82.73.64,1.09Zm-.89-.66"/><path class="cls-19" d="M373.05,466.94c-.34.32-1,.17-1.48-.33s-.56-1.19-.21-1.51,1-.17,1.49.33.57,1.19.2,1.51Zm-.69-.74"/><path class="cls-19" d="M375.92,471.12c-.45.31-1.18,0-1.63-.62s-.44-1.42,0-1.73,1.17,0,1.63.6.44,1.44,0,1.75Zm0,0"/><path class="cls-19" d="M379.84,475.16c-.4.44-1.25.32-1.87-.28a1.39,1.39,0,0,1-.41-1.85c.4-.44,1.25-.32,1.88.28s.82,1.42.4,1.85Zm0,0"/><path class="cls-19" d="M385.25,477.51c-.18.57-1,.82-1.82.58s-1.35-.91-1.19-1.49,1-.84,1.82-.58,1.36.91,1.19,1.49Zm0,0"/><path class="cls-19" d="M391.19,477.94c0,.6-.68,1.1-1.54,1.11s-1.57-.47-1.58-1.06.68-1.09,1.55-1.11,1.57.47,1.57,1.06Zm0,0"/><path class="cls-19" d="M396.72,477c.1.58-.5,1.18-1.36,1.34s-1.62-.2-1.73-.78.51-1.2,1.35-1.35,1.63.2,1.74.79Zm0,0"/><path class="cls-45" d="M486.4,621a18.68,18.68,0,0,0-13.15-13.23c-11.6-3.13-58.12-3.13-58.12-3.13s-46.51,0-58.11,3.13A18.68,18.68,0,0,0,343.87,621c-3.11,11.68-3.11,36-3.11,36s0,24.36,3.11,36A18.68,18.68,0,0,0,357,706.27c11.6,3.13,58.11,3.13,58.11,3.13s46.52,0,58.12-3.13A18.68,18.68,0,0,0,486.4,693c3.11-11.68,3.11-36,3.11-36S489.51,632.64,486.4,621Z"/><polygon class="cls-19" points="399.92 679.12 438.8 657 399.92 634.88 399.92 679.12"/><path class="cls-19" d="M677.56,660.23A38.53,38.53,0,1,1,639,621.44a38.66,38.66,0,0,1,38.53,38.79"/><path class="cls-19" d="M719.83,660.23c0,20.17-8.62,36.53-19.26,36.53S681.3,680.4,681.3,660.23s8.63-36.52,19.27-36.52,19.26,16.35,19.26,36.52"/><path class="cls-19" d="M737.12,660.23c0,18.07-3,32.72-6.77,32.72s-6.78-14.65-6.78-32.72,3-32.72,6.78-32.72,6.77,14.65,6.77,32.72"/><path class="cls-46" d="M662.3,359.43a72.73,72.73,0,0,0-26.51,140.44c-.66-5.75-1.2-14.6.24-20.89,1.32-5.68,8.5-36.14,8.5-36.14a26.43,26.43,0,0,1-2.16-10.77c0-10.11,5.87-17.65,13.17-17.65,6.22,0,9.21,4.67,9.21,10.23,0,6.22-4,15.56-6,24.23-1.74,7.25,3.65,13.17,10.77,13.17,12.92,0,22.86-13.64,22.86-33.27,0-17.41-12.51-29.56-30.4-29.56-20.7,0-32.85,15.5-32.85,31.53,0,6.23,2.39,12.93,5.38,16.58a2.16,2.16,0,0,1,.48,2.09c-.54,2.28-1.79,7.24-2,8.26-.3,1.32-1.08,1.62-2.46,1-9.09-4.25-14.78-17.47-14.78-28.19,0-22.91,16.64-44,48.05-44,25.2,0,44.82,17.95,44.82,42,0,25.07-15.79,45.24-37.69,45.24-7.36,0-14.31-3.83-16.64-8.38,0,0-3.65,13.88-4.55,17.29-1.61,6.35-6,14.25-9,19.09A72.77,72.77,0,1,0,662.3,359.43Z"/></svg>