<svg id="Layer_1" data-name="Layer 1" xmlns="http://www.w3.org/2000/svg" viewBox="0 0 1080 1080"><defs><style>.cls-1{fill:#fff;}.cls-2{fill:#05a64c;}.cls-3{fill:#02a64d;}.cls-4{fill:#0066a8;}.cls-5{fill:#0065a8;}.cls-6{fill:#f2ba1d;}.cls-7{fill:#f3ba1f;}.cls-8{fill:#7079ba;}.cls-9{fill:#da4327;}.cls-10{fill:#231f20;}</style></defs><title>topics</title><rect class="cls-1" x="716.34" y="678.57" width="269.51" height="95.25" rx="42.97"/><path class="cls-2" d="M938.23,776.59H764a50.4,50.4,0,0,1,0-100.79H938.23a50.4,50.4,0,0,1,0,100.79ZM764,681.34a44.86,44.86,0,0,0,0,89.71H938.23a44.86,44.86,0,0,0,0-89.71Z"/><path class="cls-3" d="M778.4,704.42q8.25,0,12.66,2.9t4.42,9.49q0,6.66-4.47,9.61t-12.77,3h-2.61v12.34h-8.29V705.38a45.31,45.31,0,0,1,5.74-.75C775.1,704.49,776.88,704.42,778.4,704.42Zm.53,7.07c-.6,0-1.19,0-1.78.06l-1.52.1v10.64h2.61a14.13,14.13,0,0,0,6.49-1.17c1.46-.78,2.18-2.23,2.18-4.36a5.12,5.12,0,0,0-.56-2.55,4.13,4.13,0,0,0-1.59-1.62,7.18,7.18,0,0,0-2.53-.86A20.78,20.78,0,0,0,778.93,711.49Z"/><path class="cls-3" d="M827,713.73q-2.4,8.09-5,15.16t-5.71,13.73a31.69,31.69,0,0,1-2.23,4.07,13,13,0,0,1-2.45,2.76,8.74,8.74,0,0,1-3,1.6,13.93,13.93,0,0,1-3.92.5,16.11,16.11,0,0,1-3.44-.34,15.61,15.61,0,0,1-2.58-.77l1.38-6.33a14.63,14.63,0,0,0,2.18.58,12,12,0,0,0,2,.16,4.43,4.43,0,0,0,3.27-1.14,9.27,9.27,0,0,0,1.94-3.17C807.66,737,805.85,733,804,728.6a147.3,147.3,0,0,1-5.1-14.87h8.4c.36,1.38.78,2.88,1.26,4.49s1,3.25,1.52,4.9,1.08,3.25,1.63,4.81,1.08,3,1.58,4.26q.69-1.92,1.44-4.26t1.47-4.81q.72-2.48,1.39-4.9c.44-1.61.84-3.11,1.2-4.49Z"/><path class="cls-3" d="M831,706.76l7.93-1.28v8.25h9.52v6.6h-9.52v9.84a7.81,7.81,0,0,0,.88,4c.58,1,1.76,1.49,3.53,1.49a15.24,15.24,0,0,0,2.64-.24,13.06,13.06,0,0,0,2.47-.67l1.12,6.17a22.18,22.18,0,0,1-3.19,1,18.26,18.26,0,0,1-4.31.43,14.11,14.11,0,0,1-5.38-.88,8.39,8.39,0,0,1-3.4-2.44,9.08,9.08,0,0,1-1.78-3.81,22.28,22.28,0,0,1-.51-5Z"/><path class="cls-3" d="M854.85,741.71v-40l7.92-1.28v13.41a16.49,16.49,0,0,1,2.05-.51,12.8,12.8,0,0,1,2.42-.24,15,15,0,0,1,5.67.93,8.92,8.92,0,0,1,3.62,2.63,10.27,10.27,0,0,1,1.91,4.05,22.62,22.62,0,0,1,.56,5.21v15.8h-7.93V726.87q0-3.82-1-5.43c-.66-1.06-1.87-1.59-3.65-1.59a10.44,10.44,0,0,0-2,.18c-.62.13-1.18.26-1.68.4v21.28Z"/><path class="cls-3" d="M912.35,727.67a18.08,18.08,0,0,1-1,6,13.14,13.14,0,0,1-2.77,4.69,12.51,12.51,0,0,1-4.34,3,14.42,14.42,0,0,1-5.66,1.07,14.28,14.28,0,0,1-5.61-1.07,12.51,12.51,0,0,1-4.34-3,13.85,13.85,0,0,1-2.82-4.69,17.34,17.34,0,0,1-1-6,16.7,16.7,0,0,1,1-6,13.59,13.59,0,0,1,2.87-4.63,12.87,12.87,0,0,1,4.36-3,14.06,14.06,0,0,1,5.51-1.07,14.2,14.2,0,0,1,5.56,1.07,12.56,12.56,0,0,1,4.33,3,13.33,13.33,0,0,1,2.82,4.63A16.92,16.92,0,0,1,912.35,727.67Zm-8.08,0a10,10,0,0,0-1.46-5.77,5.22,5.22,0,0,0-8.38,0,9.76,9.76,0,0,0-1.49,5.77,10,10,0,0,0,1.49,5.82,5.14,5.14,0,0,0,8.38,0A10.25,10.25,0,0,0,904.27,727.67Z"/><path class="cls-3" d="M918.47,714.69a43,43,0,0,1,5.22-1.09,42.36,42.36,0,0,1,6.7-.51,16.36,16.36,0,0,1,5.93.93,8.92,8.92,0,0,1,3.75,2.63,10.36,10.36,0,0,1,2,4.05,21.53,21.53,0,0,1,.58,5.21v15.8H934.7V726.87q0-3.82-1-5.43t-3.78-1.59c-.57,0-1.17,0-1.81.08s-1.21.11-1.7.18v21.6h-7.93Z"/><path class="cls-4" d="M900.31,269.18h-179a50.4,50.4,0,1,1,0-100.79h179a50.4,50.4,0,0,1,0,100.79Zm-179-95.25a44.86,44.86,0,0,0,0,89.71h179a44.86,44.86,0,0,0,0-89.71Z"/><path class="cls-5" d="M721,236.35V199.48h24.68v7H729.31v7.71h14.57v7H729.31v15.22Z"/><path class="cls-5" d="M759.68,200.28a4.36,4.36,0,0,1-1.41,3.43,5,5,0,0,1-6.65,0,4.9,4.9,0,0,1,0-6.86,5,5,0,0,1,6.65,0A4.33,4.33,0,0,1,759.68,200.28Zm-.74,36.07H751v-28h7.93Z"/><path class="cls-5" d="M766.39,209.32a44.34,44.34,0,0,1,5.21-1.09,42.45,42.45,0,0,1,6.7-.51,16.27,16.27,0,0,1,5.93.94,8.92,8.92,0,0,1,3.76,2.63,10.23,10.23,0,0,1,2,4,21.53,21.53,0,0,1,.59,5.22v15.8h-7.93V221.5q0-3.83-1-5.42c-.67-1.07-1.93-1.6-3.78-1.6-.56,0-1.17,0-1.81.08s-1.2.12-1.7.19v21.6h-7.92Z"/><path class="cls-5" d="M807.77,207.62a18.18,18.18,0,0,1,5.86.8,9.09,9.09,0,0,1,3.75,2.28,8.44,8.44,0,0,1,2,3.62,17.88,17.88,0,0,1,.59,4.74v16.49c-1.14.25-2.72.54-4.74.88a46.36,46.36,0,0,1-7.34.5,23.19,23.19,0,0,1-4.92-.48,10.61,10.61,0,0,1-3.8-1.57,7.1,7.1,0,0,1-2.45-2.84,9.8,9.8,0,0,1-.85-4.31,8.22,8.22,0,0,1,1-4.15,7.65,7.65,0,0,1,2.64-2.72,11.81,11.81,0,0,1,3.77-1.46,21.31,21.31,0,0,1,4.42-.45,24.81,24.81,0,0,1,2.74.13,12.51,12.51,0,0,1,1.94.35v-.75a4.4,4.4,0,0,0-1.22-3.24c-.82-.82-2.24-1.22-4.26-1.22a26.4,26.4,0,0,0-4,.29,17,17,0,0,0-3.4.82l-1-6.38c.46-.14,1-.29,1.73-.45s1.45-.3,2.26-.43,1.68-.23,2.58-.32S806.85,207.62,807.77,207.62Zm.64,23.19c.78,0,1.53,0,2.24-.05a14.51,14.51,0,0,0,1.7-.16v-6q-.48-.1-1.44-.21a16.1,16.1,0,0,0-1.75-.11,15.37,15.37,0,0,0-2.1.13,5.41,5.41,0,0,0-1.73.51,2.89,2.89,0,0,0-1.17,1,2.76,2.76,0,0,0-.43,1.59,2.71,2.71,0,0,0,1.25,2.58A6.89,6.89,0,0,0,808.41,230.81Z"/><path class="cls-5" d="M827.14,209.32a44.79,44.79,0,0,1,5.21-1.09,42.48,42.48,0,0,1,6.71-.51,16.35,16.35,0,0,1,5.93.94,9,9,0,0,1,3.75,2.63,10.25,10.25,0,0,1,2,4,21.55,21.55,0,0,1,.58,5.22v15.8h-7.93V221.5c0-2.55-.33-4.36-1-5.42s-1.93-1.6-3.77-1.6c-.57,0-1.17,0-1.81.08s-1.21.12-1.7.19v21.6h-7.93Z"/><path class="cls-5" d="M857.14,222.35a16.36,16.36,0,0,1,1-5.71,13.31,13.31,0,0,1,7.36-7.85,15,15,0,0,1,6.07-1.17,19.4,19.4,0,0,1,4.1.4,19.16,19.16,0,0,1,3.61,1.14l-1.65,6.33a20.13,20.13,0,0,0-2.44-.74,12.43,12.43,0,0,0-3-.32,6.29,6.29,0,0,0-5.24,2.18,8.93,8.93,0,0,0-1.73,5.74,9.35,9.35,0,0,0,1.62,5.86q1.62,2.07,5.67,2.07a20.21,20.21,0,0,0,3.08-.26,13.2,13.2,0,0,0,3-.86l1.12,6.49a18.16,18.16,0,0,1-3.46,1,22.25,22.25,0,0,1-4.57.43,17.32,17.32,0,0,1-6.6-1.14,12.5,12.5,0,0,1-4.55-3.12,12.21,12.21,0,0,1-2.6-4.65A19.75,19.75,0,0,1,857.14,222.35Z"/><path class="cls-5" d="M882.41,222.57a17,17,0,0,1,1.15-6.52,14.07,14.07,0,0,1,3-4.66,12.39,12.39,0,0,1,4.28-2.81,13.44,13.44,0,0,1,5-1q6,0,9.42,3.64T908.69,222c0,.46,0,1-.05,1.52s-.07,1-.11,1.46h-18a5.25,5.25,0,0,0,2.29,3.88,9.19,9.19,0,0,0,5.43,1.44,22.57,22.57,0,0,0,4.28-.4,15.9,15.9,0,0,0,3.43-1l1.06,6.43a9.76,9.76,0,0,1-1.7.64,20.75,20.75,0,0,1-2.37.56c-.86.16-1.8.29-2.79.4a27,27,0,0,1-3,.16,17.51,17.51,0,0,1-6.57-1.12,12.75,12.75,0,0,1-4.63-3.06,12.15,12.15,0,0,1-2.71-4.6A18.36,18.36,0,0,1,882.41,222.57Zm18.62-3a8.05,8.05,0,0,0-.34-2,5,5,0,0,0-.91-1.71,4.93,4.93,0,0,0-1.54-1.22,5,5,0,0,0-2.32-.48,5.33,5.33,0,0,0-2.28.45,4.85,4.85,0,0,0-1.6,1.2,5.44,5.44,0,0,0-1,1.73,11.87,11.87,0,0,0-.51,2Z"/><rect class="cls-1" x="104.31" y="170.04" width="274.3" height="95.25" rx="42.97"/><path class="cls-6" d="M331,268.06h-179a50.4,50.4,0,0,1,0-100.79H331a50.4,50.4,0,1,1,0,100.79Zm-179-95.25a44.85,44.85,0,0,0,0,89.7H331a44.85,44.85,0,0,0,0-89.7Z"/><path class="cls-7" d="M157.46,235.71q-9,0-13.7-5t-4.71-14.21a21.75,21.75,0,0,1,1.44-8.16,17.57,17.57,0,0,1,3.94-6.07,16.34,16.34,0,0,1,6-3.75,21.47,21.47,0,0,1,7.5-1.28,24,24,0,0,1,4.25.35,27.23,27.23,0,0,1,3.35.8,16.35,16.35,0,0,1,2.4.93c.64.32,1.1.57,1.38.74l-2.39,6.71a20,20,0,0,0-4-1.55,19,19,0,0,0-5.13-.64,11.45,11.45,0,0,0-3.75.64,8.58,8.58,0,0,0-3.25,2.05,10.26,10.26,0,0,0-2.26,3.65,15.38,15.38,0,0,0-.85,5.42,19.48,19.48,0,0,0,.56,4.76,10.13,10.13,0,0,0,1.81,3.81,8.65,8.65,0,0,0,3.27,2.52,11.67,11.67,0,0,0,4.9.93,22.6,22.6,0,0,0,3.24-.21,25.32,25.32,0,0,0,2.56-.5,13.53,13.53,0,0,0,2-.67l1.55-.69,2.28,6.65a19.2,19.2,0,0,1-4.94,1.91A28.76,28.76,0,0,1,157.46,235.71Z"/><path class="cls-7" d="M200.13,220.92a18.07,18.07,0,0,1-1,6,13.14,13.14,0,0,1-2.77,4.69,12.47,12.47,0,0,1-4.33,3,14.51,14.51,0,0,1-5.67,1.07,14.28,14.28,0,0,1-5.61-1.07,12.51,12.51,0,0,1-4.34-3,14,14,0,0,1-2.82-4.69,17.34,17.34,0,0,1-1-6,16.7,16.7,0,0,1,1-6,13.59,13.59,0,0,1,2.87-4.63,12.91,12.91,0,0,1,4.37-3,14,14,0,0,1,5.5-1.07A14.17,14.17,0,0,1,192,207.3a12.69,12.69,0,0,1,4.34,3,13.64,13.64,0,0,1,2.82,4.63A17.14,17.14,0,0,1,200.13,220.92Zm-8.09,0a10,10,0,0,0-1.46-5.78,5.23,5.23,0,0,0-8.38,0,9.89,9.89,0,0,0-1.49,5.78,10.09,10.09,0,0,0,1.49,5.82,5.14,5.14,0,0,0,8.38,0A10.25,10.25,0,0,0,192,220.92Z"/><path class="cls-7" d="M232.42,220.92a18.07,18.07,0,0,1-1,6,13.14,13.14,0,0,1-2.77,4.69,12.47,12.47,0,0,1-4.33,3,14.47,14.47,0,0,1-5.67,1.07,14.31,14.31,0,0,1-5.61-1.07,12.47,12.47,0,0,1-4.33-3,13.7,13.7,0,0,1-2.82-4.69,17.11,17.11,0,0,1-1-6,16.7,16.7,0,0,1,1-6,13.59,13.59,0,0,1,2.87-4.63,12.91,12.91,0,0,1,4.37-3,14,14,0,0,1,5.5-1.07,14.17,14.17,0,0,1,5.56,1.07,12.6,12.6,0,0,1,4.34,3,13.64,13.64,0,0,1,2.82,4.63A17.14,17.14,0,0,1,232.42,220.92Zm-8.09,0a10,10,0,0,0-1.46-5.78,5.23,5.23,0,0,0-8.38,0,9.89,9.89,0,0,0-1.49,5.78,10.09,10.09,0,0,0,1.49,5.82,5.14,5.14,0,0,0,8.38,0A10.25,10.25,0,0,0,224.33,220.92Z"/><path class="cls-7" d="M246.46,217c.78-.85,1.59-1.73,2.42-2.65s1.64-1.82,2.42-2.72,1.51-1.75,2.2-2.57,1.29-1.51,1.78-2.11h9.43q-2.82,3.24-5.51,6.18c-1.79,2-3.75,4-5.87,6.08a36.76,36.76,0,0,1,3.29,3.44q1.71,2,3.3,4.13c1.07,1.42,2,2.84,2.93,4.26s1.63,2.72,2.23,3.89H256c-.57-.92-1.21-1.94-1.94-3.06s-1.5-2.24-2.31-3.36-1.67-2.2-2.58-3.23a21,21,0,0,0-2.68-2.61V235h-7.92V195l7.92-1.28Z"/><path class="cls-7" d="M278,198.89a4.33,4.33,0,0,1-1.41,3.43,5,5,0,0,1-6.65,0,4.88,4.88,0,0,1,0-6.86,5,5,0,0,1,6.65,0A4.35,4.35,0,0,1,278,198.89ZM277.27,235h-7.93V207h7.93Z"/><path class="cls-7" d="M284.71,207.94a43,43,0,0,1,5.22-1.09,42.36,42.36,0,0,1,6.7-.51,16.36,16.36,0,0,1,5.93.93,8.92,8.92,0,0,1,3.75,2.63,10.36,10.36,0,0,1,2,4,21.53,21.53,0,0,1,.58,5.21V235h-7.92V220.12q0-3.83-1-5.43t-3.78-1.59c-.57,0-1.17,0-1.81.08s-1.2.11-1.7.18V235h-7.93Z"/><path class="cls-7" d="M340.2,231.45q0,6.87-3.49,10.19T325.94,245a29.49,29.49,0,0,1-5.11-.45,31.11,31.11,0,0,1-4.73-1.2l1.38-6.65a22.08,22.08,0,0,0,8.57,1.6q3.4,0,4.81-1.49a5.34,5.34,0,0,0,1.41-3.83v-1a13.11,13.11,0,0,1-2.63.88,14.4,14.4,0,0,1-2.95.29q-5.81,0-8.89-3.43t-3.08-9.6a16,16,0,0,1,.95-5.62,11.86,11.86,0,0,1,2.8-4.33,12.45,12.45,0,0,1,4.49-2.8,17.38,17.38,0,0,1,6-1c1,0,1.94,0,3,.13s2,.21,3,.35,1.94.31,2.85.5,1.71.4,2.42.62Zm-17.4-11.38q0,6.65,5.38,6.65a8,8,0,0,0,2.28-.32,8.81,8.81,0,0,0,1.81-.75V213c-.39-.07-.85-.13-1.38-.19s-1.15-.08-1.86-.08a5.48,5.48,0,0,0-4.69,2.08A8.64,8.64,0,0,0,322.8,220.07Z"/><rect class="cls-1" x="291.78" y="939.93" width="274.88" height="95.25" rx="42.97"/><path class="cls-8" d="M519,1038H339.41a50.4,50.4,0,1,1,0-100.79H519A50.4,50.4,0,0,1,519,1038ZM339.41,942.7a44.86,44.86,0,1,0,0,89.71H519a44.86,44.86,0,0,0,0-89.71Z"/><path class="cls-8" d="M394.33,984.79a22.72,22.72,0,0,1-1.41,8.33,17.12,17.12,0,0,1-3.85,6,15.91,15.91,0,0,1-5.83,3.64A21,21,0,0,1,376,1004a20.51,20.51,0,0,1-7.13-1.23,16.32,16.32,0,0,1-5.85-3.64,17,17,0,0,1-3.94-6,22.29,22.29,0,0,1-1.44-8.33,21.6,21.6,0,0,1,1.49-8.32,17.85,17.85,0,0,1,4-6,16.55,16.55,0,0,1,5.85-3.67,20,20,0,0,1,7-1.23,20.55,20.55,0,0,1,7.13,1.23,16.21,16.21,0,0,1,5.85,3.67,17.25,17.25,0,0,1,3.94,6A22.41,22.41,0,0,1,394.33,984.79Zm-28.14,0a16.94,16.94,0,0,0,.66,4.9,11.45,11.45,0,0,0,1.92,3.75,8.51,8.51,0,0,0,3.06,2.42,10.48,10.48,0,0,0,8.27,0,8.53,8.53,0,0,0,3.09-2.42,11.25,11.25,0,0,0,1.91-3.75,16.59,16.59,0,0,0,.67-4.9,16.78,16.78,0,0,0-.67-4.92,11.21,11.21,0,0,0-1.91-3.78,8.53,8.53,0,0,0-3.09-2.42,9.79,9.79,0,0,0-4.12-.85,9.31,9.31,0,0,0-4.15.88,8.59,8.59,0,0,0-3.06,2.45,11.26,11.26,0,0,0-1.92,3.77A17,17,0,0,0,366.19,984.79Z"/><path class="cls-8" d="M412.85,962a17.43,17.43,0,0,1,4.09.45,19.94,19.94,0,0,1,2.87.88l-1.54,6.33a10.39,10.39,0,0,0-2.31-.72,12.44,12.44,0,0,0-2.32-.24,6.42,6.42,0,0,0-2.42.4,3.8,3.8,0,0,0-1.54,1.09,4.24,4.24,0,0,0-.8,1.65,8.54,8.54,0,0,0-.24,2.08v1.38h9.79v6.6h-9.79v21.38h-7.92V973.78a11.93,11.93,0,0,1,3-8.62Q406.83,962,412.85,962Zm22.29,0a15.21,15.21,0,0,1,3.69.37,18.66,18.66,0,0,1,2.48.8l-1.39,6.22a8,8,0,0,0-1.88-.53,13.54,13.54,0,0,0-2.11-.16,6.42,6.42,0,0,0-2.42.4,3.8,3.8,0,0,0-1.54,1.09,4.24,4.24,0,0,0-.8,1.65,8.54,8.54,0,0,0-.24,2.08v1.38h9.79v6.6h-9.79v21.38H423V973.78a11.94,11.94,0,0,1,3.06-8.62Q429.12,962,435.14,962ZM454,967.18a4.33,4.33,0,0,1-1.41,3.43,5,5,0,0,1-6.65,0,4.88,4.88,0,0,1,0-6.86,5,5,0,0,1,6.65,0A4.35,4.35,0,0,1,454,967.18Zm-.75,36.07H445.3v-28h7.92Z"/><path class="cls-8" d="M459.34,989.26a16.64,16.64,0,0,1,1-5.72,13.76,13.76,0,0,1,2.85-4.68,13.6,13.6,0,0,1,4.52-3.17,15,15,0,0,1,6.07-1.17,18.85,18.85,0,0,1,7.71,1.55l-1.65,6.33a20.1,20.1,0,0,0-2.44-.75,13,13,0,0,0-3-.32,6.29,6.29,0,0,0-5.24,2.18,9,9,0,0,0-1.73,5.75,9.3,9.3,0,0,0,1.62,5.85c1.08,1.38,3,2.08,5.67,2.08a19.17,19.17,0,0,0,3.08-.27,13.2,13.2,0,0,0,3-.85l1.12,6.49a18.16,18.16,0,0,1-3.46,1,23,23,0,0,1-4.57.43,17.24,17.24,0,0,1-6.6-1.15,12.48,12.48,0,0,1-4.55-3.11,12.08,12.08,0,0,1-2.6-4.65A19.84,19.84,0,0,1,459.34,989.26Z"/><path class="cls-8" d="M484.61,989.47a17.13,17.13,0,0,1,1.14-6.51,14,14,0,0,1,3-4.66,12.56,12.56,0,0,1,4.28-2.82,13.4,13.4,0,0,1,5-1q6,0,9.41,3.65t3.46,10.72c0,.46,0,1-.05,1.51s-.07,1-.11,1.47h-18a5.27,5.27,0,0,0,2.29,3.88,9.16,9.16,0,0,0,5.42,1.44,23.45,23.45,0,0,0,4.29-.4,16.45,16.45,0,0,0,3.43-1l1.06,6.44a10.65,10.65,0,0,1-1.7.64,23.1,23.1,0,0,1-2.37.56c-.87.16-1.8.29-2.79.4a29.75,29.75,0,0,1-3,.16,17.72,17.72,0,0,1-6.57-1.12,13,13,0,0,1-4.63-3.06,12.1,12.1,0,0,1-2.71-4.6A18.09,18.09,0,0,1,484.61,989.47Zm18.62-3a8.23,8.23,0,0,0-.35-2,4.73,4.73,0,0,0-2.44-2.92,5,5,0,0,0-2.32-.48,5.3,5.3,0,0,0-2.28.45,4.71,4.71,0,0,0-1.6,1.2,5.16,5.16,0,0,0-1,1.73,10.77,10.77,0,0,0-.51,2Z"/><rect class="cls-1" x="394.47" y="552.22" width="302.45" height="95.25" rx="42.97"/><path class="cls-9" d="M649.3,650.17H442.1a50.33,50.33,0,1,1,0-100.65H649.3a50.33,50.33,0,1,1,0,100.65ZM442.1,554.92a44.93,44.93,0,0,0,0,89.85H649.3a44.93,44.93,0,0,0,0-89.85Z"/><path class="cls-9" d="M457.92,614.26V577.39h24.89v7H466.22v7.23H481v6.81H466.22v8.89H484v7Z"/><path class="cls-9" d="M489.62,587.23a45,45,0,0,1,5.22-1.09,42.36,42.36,0,0,1,6.7-.51,16.35,16.35,0,0,1,5.93.94,8.83,8.83,0,0,1,3.75,2.63,10.25,10.25,0,0,1,2,4,21.55,21.55,0,0,1,.58,5.22v15.8h-7.92V599.41q0-3.82-1-5.42c-.68-1.07-1.94-1.6-3.78-1.6-.57,0-1.17,0-1.81.08s-1.2.12-1.7.19v21.6h-7.93Z"/><path class="cls-9" d="M545.11,610.74q0,6.87-3.49,10.19t-10.77,3.33a29.49,29.49,0,0,1-5.11-.45,33.65,33.65,0,0,1-4.73-1.2l1.38-6.65a24.61,24.61,0,0,0,3.91,1.17,23.37,23.37,0,0,0,4.66.42c2.27,0,3.87-.49,4.81-1.49a5.34,5.34,0,0,0,1.41-3.83v-1a12.51,12.51,0,0,1-2.63.88,13.73,13.73,0,0,1-2.95.29q-5.8,0-8.89-3.43c-2.06-2.28-3.08-5.49-3.08-9.6a15.87,15.87,0,0,1,1-5.61,11.9,11.9,0,0,1,2.8-4.34,12.57,12.57,0,0,1,4.49-2.79,17.14,17.14,0,0,1,6-1c1,0,2,0,3,.14s2,.2,3,.34,1.94.31,2.85.51,1.71.4,2.42.61Zm-17.4-11.38q0,6.64,5.38,6.65a8,8,0,0,0,2.28-.32,8.83,8.83,0,0,0,1.81-.74V592.28q-.58-.1-1.38-.18c-.53-.05-1.15-.08-1.86-.08a5.44,5.44,0,0,0-4.68,2.07A8.6,8.6,0,0,0,527.71,599.36Z"/><path class="cls-9" d="M563.73,614.79a19.91,19.91,0,0,1-5.61-.75,8.31,8.31,0,0,1-3.41-1.94,6.42,6.42,0,0,1-1.7-3,16.48,16.48,0,0,1-.45-4v-30.8l7.92-1.28v30.49a11,11,0,0,0,.16,1.91,3.37,3.37,0,0,0,.61,1.44,3.27,3.27,0,0,0,1.31,1,7.33,7.33,0,0,0,2.29.47Z"/><path class="cls-9" d="M578,578.19a4.36,4.36,0,0,1-1.41,3.43,5,5,0,0,1-6.65,0,4.89,4.89,0,0,1,0-6.87,5,5,0,0,1,6.65,0A4.37,4.37,0,0,1,578,578.19Zm-.75,36.07h-7.92v-28h7.92Z"/><path class="cls-9" d="M592.77,608.56a8,8,0,0,0,3.09-.42,1.65,1.65,0,0,0,.9-1.65,2,2,0,0,0-1.17-1.68,22.07,22.07,0,0,0-3.56-1.62,35.41,35.41,0,0,1-3.38-1.44,9.83,9.83,0,0,1-2.58-1.78,7.15,7.15,0,0,1-1.65-2.47,9.18,9.18,0,0,1-.58-3.46,7.47,7.47,0,0,1,2.92-6.22q2.93-2.3,8-2.29a25.88,25.88,0,0,1,4.9.45,23.05,23.05,0,0,1,3.72,1L602,593.14a28.64,28.64,0,0,0-3-.86,16.78,16.78,0,0,0-3.64-.37c-2.48,0-3.72.69-3.72,2.08a2.08,2.08,0,0,0,.16.85,1.8,1.8,0,0,0,.63.72,8.59,8.59,0,0,0,1.31.74c.55.27,1.25.57,2.1.89a32.84,32.84,0,0,1,4.31,1.9,10.21,10.21,0,0,1,2.68,2,6.29,6.29,0,0,1,1.39,2.42,10.88,10.88,0,0,1,.4,3.07,7.1,7.1,0,0,1-3.12,6.27c-2.07,1.41-5,2.12-8.8,2.12a25,25,0,0,1-9.63-1.7l1.33-6.44a26.09,26.09,0,0,0,4.15,1.25A20.28,20.28,0,0,0,592.77,608.56Z"/><path class="cls-9" d="M610.54,614.26v-40l7.93-1.28v13.41a15.63,15.63,0,0,1,2-.51,12.8,12.8,0,0,1,2.42-.24,14.94,14.94,0,0,1,5.66.94,8.77,8.77,0,0,1,3.62,2.63,10.16,10.16,0,0,1,1.91,4,22.11,22.11,0,0,1,.56,5.22v15.8h-7.92V599.41q0-3.82-1-5.42c-.65-1.07-1.87-1.6-3.64-1.6a9.77,9.77,0,0,0-2,.19,16.5,16.5,0,0,0-1.67.4v21.28Z"/><rect class="cls-1" x="603.93" y="808.11" width="317.95" height="95.25" rx="42.97"/><path class="cls-9" d="M874.25,906.13H651.55a50.4,50.4,0,0,1,0-100.79h222.7a50.4,50.4,0,1,1,0,100.79Zm-222.7-95.25a44.86,44.86,0,0,0,0,89.71h222.7a44.86,44.86,0,1,0,0-89.71Z"/><path class="cls-9" d="M692.2,874.43c-2,0-4-.06-6-.18a43.64,43.64,0,0,1-6.25-.88V837.62a52.81,52.81,0,0,1,5.58-.72q3-.24,5.64-.24a38.16,38.16,0,0,1,6.47.51,15.28,15.28,0,0,1,5.08,1.73,9,9,0,0,1,3.32,3.22,9.39,9.39,0,0,1,1.2,4.92q0,4.41-4.26,7a8.7,8.7,0,0,1,4.79,3.61,10.45,10.45,0,0,1,1.28,5.16q0,5.81-4.23,8.73T692.2,874.43ZM688,851.56h4q3.83,0,5.48-1a3.4,3.4,0,0,0,1.65-3.16,3.26,3.26,0,0,0-1.71-3.14,11,11,0,0,0-5-.9l-2.28,0c-.82,0-1.55.07-2.19.14Zm0,6.33v9.52c.61.07,1.26.13,2,.16s1.49.06,2.34.06a14.39,14.39,0,0,0,6-1.07,4,4,0,0,0,2.28-3.94,3.86,3.86,0,0,0-1.91-3.64,11.21,11.21,0,0,0-5.48-1.09Z"/><path class="cls-9" d="M713.8,860.18a17.18,17.18,0,0,1,1.14-6.52,13.79,13.79,0,0,1,3-4.65,12.18,12.18,0,0,1,4.28-2.82,13.35,13.35,0,0,1,5-1q6,0,9.42,3.64t3.46,10.72c0,.46,0,1-.06,1.52s-.07,1-.1,1.46h-18a5.24,5.24,0,0,0,2.28,3.88,9.19,9.19,0,0,0,5.43,1.44,22.57,22.57,0,0,0,4.28-.4,15.74,15.74,0,0,0,3.43-1l1.07,6.44a11.32,11.32,0,0,1-1.71.63,20.55,20.55,0,0,1-2.36.56c-.87.16-1.8.29-2.8.4a26.87,26.87,0,0,1-3,.16,17.51,17.51,0,0,1-6.57-1.12,12.58,12.58,0,0,1-4.63-3.06,12,12,0,0,1-2.72-4.6A18.36,18.36,0,0,1,713.8,860.18Zm18.62-3a8.66,8.66,0,0,0-.35-2,5.18,5.18,0,0,0-.9-1.71,4.73,4.73,0,0,0-3.86-1.7,5.35,5.35,0,0,0-2.29.45,4.84,4.84,0,0,0-1.59,1.2,5.28,5.28,0,0,0-1,1.73,10.84,10.84,0,0,0-.5,2Z"/><path class="cls-9" d="M763.06,853c-.71-.18-1.54-.37-2.5-.56a15.14,15.14,0,0,0-3.09-.3,14.26,14.26,0,0,0-1.78.14,10.45,10.45,0,0,0-1.57.29V874h-7.93v-26.5a51.42,51.42,0,0,1,5-1.41,29.19,29.19,0,0,1,6.47-.66c.42,0,.93,0,1.54.08s1.2.12,1.81.21,1.2.2,1.81.32a9.93,9.93,0,0,1,1.54.45Z"/><path class="cls-9" d="M794.66,860a17.59,17.59,0,0,1-1,6.06,12.75,12.75,0,0,1-2.84,4.63,12.57,12.57,0,0,1-4.58,3,17.16,17.16,0,0,1-6.17,1c-1,0-2,0-3-.14s-2.08-.2-3.09-.34-2-.31-2.9-.51-1.74-.4-2.45-.61V834l7.93-1.28v13.94a14.7,14.7,0,0,1,2.77-.9,13.73,13.73,0,0,1,3.08-.32,12.52,12.52,0,0,1,5.27,1,10.31,10.31,0,0,1,3.83,3,13.14,13.14,0,0,1,2.34,4.6A21.08,21.08,0,0,1,794.66,860Zm-8.09-.22q0-7.65-5.64-7.66a9.52,9.52,0,0,0-2.42.32,6.91,6.91,0,0,0-1.94.8v14.42c.39.07.89.13,1.49.18s1.26.08,2,.08a5.69,5.69,0,0,0,4.89-2.23A9.72,9.72,0,0,0,786.57,859.75Z"/><path class="cls-9" d="M799.45,860.18a17.18,17.18,0,0,1,1.14-6.52,13.93,13.93,0,0,1,3-4.65,12.31,12.31,0,0,1,4.29-2.82,13.35,13.35,0,0,1,5-1q6,0,9.42,3.64t3.46,10.72c0,.46,0,1-.06,1.52s-.07,1-.1,1.46h-18a5.21,5.21,0,0,0,2.28,3.88,9.19,9.19,0,0,0,5.43,1.44,22.57,22.57,0,0,0,4.28-.4,15.74,15.74,0,0,0,3.43-1l1.07,6.44a11.32,11.32,0,0,1-1.71.63,20.55,20.55,0,0,1-2.36.56c-.87.16-1.8.29-2.8.4a26.87,26.87,0,0,1-3,.16,17.51,17.51,0,0,1-6.57-1.12,12.58,12.58,0,0,1-4.63-3.06,12,12,0,0,1-2.72-4.6A18.36,18.36,0,0,1,799.45,860.18Zm18.62-3a8.66,8.66,0,0,0-.35-2,5.18,5.18,0,0,0-.9-1.71,4.73,4.73,0,0,0-3.86-1.7,5.35,5.35,0,0,0-2.29.45,5,5,0,0,0-1.6,1.2,5.44,5.44,0,0,0-1,1.73,10.84,10.84,0,0,0-.5,2Z"/><path class="cls-9" d="M848.71,853c-.71-.18-1.54-.37-2.5-.56a15.14,15.14,0,0,0-3.09-.3,14.26,14.26,0,0,0-1.78.14,10.2,10.2,0,0,0-1.57.29V874h-7.93v-26.5a51.42,51.42,0,0,1,5-1.41,29.19,29.19,0,0,1,6.47-.66c.42,0,.93,0,1.54.08s1.2.12,1.81.21,1.2.2,1.81.32a9.93,9.93,0,0,1,1.54.45Z"/><path class="cls-2" d="M681.81,1038H635.48a50.4,50.4,0,1,1,0-100.79h46.33a50.4,50.4,0,0,1,0,100.79ZM635.48,942.7a44.86,44.86,0,1,0,0,89.71h46.33a44.86,44.86,0,0,0,0-89.71Z"/><path class="cls-3" d="M657.41,1002.14c-.41-1.28-.85-2.59-1.32-3.94l-1.41-4h-14.4c-.46,1.35-.93,2.7-1.4,4.05s-.9,2.66-1.3,3.93H629q2.09-6,3.95-11t3.65-9.52q1.79-4.47,3.52-8.49c1.16-2.67,2.36-5.29,3.6-7.84h7.87c1.21,2.55,2.41,5.17,3.58,7.84s2.36,5.51,3.56,8.49,2.41,6.15,3.66,9.52,2.56,7,3.95,11Zm-10-28.51c-.18.53-.45,1.26-.81,2.18s-.76,2-1.22,3.2-1,2.54-1.52,4-1.14,3-1.72,4.57h10.54q-.84-2.4-1.64-4.59c-.53-1.45-1-2.79-1.5-4l-1.26-3.2Q647.77,974.41,647.44,973.63Z"/><path class="cls-3" d="M671,965.28h8.3v36.86H671Z"/><rect class="cls-1" x="587.47" y="42.67" width="230.63" height="95.25" rx="42.97" transform="translate(1405.57 180.58) rotate(-180)"/><path class="cls-2" d="M770.48,140.68H635.1a50.4,50.4,0,1,1,0-100.79H770.48a50.4,50.4,0,0,1,0,100.79ZM635.1,45.44a44.85,44.85,0,1,0,0,89.7H770.48a44.85,44.85,0,1,0,0-89.7Z"/><path class="cls-3" d="M678.11,89.7a21.43,21.43,0,0,1-1.49,8.35,15.39,15.39,0,0,1-4.23,5.91,18,18,0,0,1-6.67,3.51,31,31,0,0,1-8.83,1.17c-1.49,0-3.23-.06-5.22-.19a42.17,42.17,0,0,1-5.85-.77V71.77a51.11,51.11,0,0,1,6-.72q3.11-.18,5.34-.18a32.23,32.23,0,0,1,8.59,1.06,17.66,17.66,0,0,1,6.63,3.35,15,15,0,0,1,4.25,5.85A22.06,22.06,0,0,1,678.11,89.7Zm-24,11.7c.39,0,.84.06,1.36.08s1.12,0,1.83,0q6.23,0,9.23-3.14t3-8.67c0-3.87-1-6.79-2.88-8.78s-4.94-3-9.09-3l-1.76,0c-.6,0-1.17.06-1.7.13Z"/><path class="cls-3" d="M694.55,79.43a18.4,18.4,0,0,1,5.85.8,9,9,0,0,1,3.75,2.29,8.42,8.42,0,0,1,2,3.61,17.89,17.89,0,0,1,.58,4.74v16.49c-1.13.25-2.71.54-4.73.88a45.2,45.2,0,0,1-7.34.5,23.19,23.19,0,0,1-4.92-.48,10.72,10.72,0,0,1-3.81-1.56,7.17,7.17,0,0,1-2.44-2.85,9.79,9.79,0,0,1-.86-4.31,8.15,8.15,0,0,1,1-4.15,7.51,7.51,0,0,1,2.63-2.71A12,12,0,0,1,690,91.21a21.31,21.31,0,0,1,4.42-.45,24.43,24.43,0,0,1,2.73.14,11.69,11.69,0,0,1,2,.34V90.5a4.39,4.39,0,0,0-1.23-3.25c-.81-.81-2.23-1.22-4.25-1.22a27.76,27.76,0,0,0-4,.29,17.79,17.79,0,0,0-3.41.82l-1-6.38c.46-.14,1-.29,1.73-.45s1.45-.3,2.26-.43,1.68-.23,2.58-.32S693.63,79.43,694.55,79.43Zm.64,23.2c.78,0,1.52,0,2.23-.06a14.72,14.72,0,0,0,1.71-.16v-6q-.48-.11-1.44-.21a16.27,16.27,0,0,0-1.76-.11,15.53,15.53,0,0,0-2.1.14,5.3,5.3,0,0,0-1.73.5,3.12,3.12,0,0,0-1.17,1,2.87,2.87,0,0,0-.42,1.6,2.71,2.71,0,0,0,1.25,2.58A6.89,6.89,0,0,0,695.19,102.63Z"/><path class="cls-3" d="M713.65,73.21l7.93-1.28v8.25h9.52v6.59h-9.52v9.84a7.87,7.87,0,0,0,.87,4c.59,1,1.77,1.49,3.54,1.49a15.24,15.24,0,0,0,2.64-.24,14.1,14.1,0,0,0,2.47-.66l1.12,6.17a22.18,22.18,0,0,1-3.19,1,18.86,18.86,0,0,1-4.31.43,14.3,14.3,0,0,1-5.38-.88,8.41,8.41,0,0,1-3.4-2.45,9,9,0,0,1-1.78-3.8,22.28,22.28,0,0,1-.51-5Z"/><path class="cls-3" d="M746.53,79.43a18.4,18.4,0,0,1,5.85.8,9,9,0,0,1,3.75,2.29,8.4,8.4,0,0,1,2,3.61,17.88,17.88,0,0,1,.59,4.74v16.49c-1.14.25-2.71.54-4.73.88a45.33,45.33,0,0,1-7.35.5,23.26,23.26,0,0,1-4.92-.48,10.6,10.6,0,0,1-3.8-1.56,7.19,7.19,0,0,1-2.45-2.85,9.8,9.8,0,0,1-.85-4.31,8.25,8.25,0,0,1,1-4.15,7.62,7.62,0,0,1,2.64-2.71A12,12,0,0,1,742,91.21a21.21,21.21,0,0,1,4.41-.45,24.62,24.62,0,0,1,2.74.14,11.54,11.54,0,0,1,1.94.34V90.5a4.42,4.42,0,0,0-1.22-3.25c-.82-.81-2.24-1.22-4.26-1.22a27.87,27.87,0,0,0-4,.29,17.86,17.86,0,0,0-3.4.82l-1-6.38c.46-.14,1-.29,1.73-.45s1.44-.3,2.26-.43,1.67-.23,2.58-.32S745.6,79.43,746.53,79.43Zm.64,23.2c.78,0,1.52,0,2.23-.06a14.29,14.29,0,0,0,1.7-.16v-6c-.32-.07-.8-.14-1.43-.21a16.43,16.43,0,0,0-1.76-.11,15.42,15.42,0,0,0-2.1.14,5.23,5.23,0,0,0-1.73.5,3,3,0,0,0-1.17,1,2.87,2.87,0,0,0-.43,1.6,2.73,2.73,0,0,0,1.25,2.58A6.93,6.93,0,0,0,747.17,102.63Z"/><path class="cls-8" d="M501.18,140.68H234.59a50.4,50.4,0,1,1,0-100.79H501.18a50.4,50.4,0,1,1,0,100.79ZM234.59,45.44a44.85,44.85,0,0,0,0,89.7H501.18a44.85,44.85,0,1,0,0-89.7Z"/><path class="cls-8" d="M258.54,92.44a20.84,20.84,0,0,1-.61,5.1,9.83,9.83,0,0,1-6.23,7,17.63,17.63,0,0,1-6.52,1,19.44,19.44,0,0,1-6.22-.88,17.32,17.32,0,0,1-4.31-2l2.77-6.43a24,24,0,0,0,3.3,1.59,10.35,10.35,0,0,0,3.83.69c2,0,3.47-.49,4.36-1.49s1.33-2.66,1.33-5V68h8.3Z"/><path class="cls-8" d="M276,76.11a18.42,18.42,0,0,1,5.85.79,9.21,9.21,0,0,1,3.75,2.29,8.4,8.4,0,0,1,2,3.62,17.87,17.87,0,0,1,.58,4.73V104c-1.13.24-2.71.54-4.73.87a45.08,45.08,0,0,1-7.34.51,23.35,23.35,0,0,1-4.93-.48,10.68,10.68,0,0,1-3.8-1.57,7.27,7.27,0,0,1-2.45-2.85,9.89,9.89,0,0,1-.85-4.3,8.09,8.09,0,0,1,1-4.15,7.54,7.54,0,0,1,2.63-2.72,12,12,0,0,1,3.78-1.46,21.28,21.28,0,0,1,4.41-.45,24.81,24.81,0,0,1,2.74.13,11.23,11.23,0,0,1,1.94.35v-.75a4.34,4.34,0,0,0-1.22-3.24c-.82-.82-2.23-1.23-4.25-1.23a26.4,26.4,0,0,0-4,.3,17.07,17.07,0,0,0-3.41.82l-1-6.38c.46-.15,1-.3,1.73-.46s1.44-.3,2.26-.42,1.68-.23,2.58-.32S275.12,76.11,276,76.11Zm.64,23.19c.78,0,1.52,0,2.23,0a16.78,16.78,0,0,0,1.7-.16v-6c-.31-.07-.79-.14-1.43-.22a16.25,16.25,0,0,0-1.76-.1,15.58,15.58,0,0,0-2.1.13,5.48,5.48,0,0,0-1.73.51,3,3,0,0,0-1.17,1A2.81,2.81,0,0,0,272,96a2.71,2.71,0,0,0,1.25,2.58A6.86,6.86,0,0,0,276.68,99.3Z"/><path class="cls-8" d="M302.36,104.83q-2.72-5.31-5.53-12.45t-5.31-15.53h8.41c.35,1.38.77,2.88,1.25,4.5s1,3.24,1.5,4.89,1,3.25,1.55,4.81,1,3,1.52,4.26c.46-1.28,1-2.69,1.5-4.26s1.06-3.16,1.57-4.81,1-3.28,1.5-4.89.9-3.12,1.25-4.5h8.2q-2.5,8.4-5.31,15.53t-5.52,12.45Z"/><path class="cls-8" d="M333.49,76.11a18.45,18.45,0,0,1,5.86.79,9.21,9.21,0,0,1,3.75,2.29,8.38,8.38,0,0,1,2,3.62,17.86,17.86,0,0,1,.59,4.73V104c-1.14.24-2.72.54-4.74.87a45.08,45.08,0,0,1-7.34.51,23.19,23.19,0,0,1-4.92-.48,10.61,10.61,0,0,1-3.8-1.57,7.19,7.19,0,0,1-2.45-2.85,9.75,9.75,0,0,1-.85-4.3,8.19,8.19,0,0,1,1-4.15,7.65,7.65,0,0,1,2.64-2.72A11.81,11.81,0,0,1,329,87.89a21.31,21.31,0,0,1,4.42-.45,24.81,24.81,0,0,1,2.74.13,11.42,11.42,0,0,1,1.94.35v-.75a4.38,4.38,0,0,0-1.22-3.24q-1.23-1.23-4.26-1.23a26.4,26.4,0,0,0-4,.3,17,17,0,0,0-3.4.82l-1-6.38c.46-.15,1-.3,1.72-.46s1.45-.3,2.26-.42,1.68-.23,2.58-.32S332.57,76.11,333.49,76.11Zm.64,23.19c.78,0,1.53,0,2.24,0s1.27-.09,1.7-.16v-6c-.32-.07-.8-.14-1.44-.22a15.94,15.94,0,0,0-1.75-.1,15.37,15.37,0,0,0-2.1.13,5.41,5.41,0,0,0-1.73.51,2.82,2.82,0,0,0-1.17,1,3.24,3.24,0,0,0,.82,4.17A6.89,6.89,0,0,0,334.13,99.3Z"/><path class="cls-8" d="M363.45,98.5a11.65,11.65,0,0,0,2.89-.29,5.15,5.15,0,0,0,1.84-.8,2.65,2.65,0,0,0,1-1.19,4.5,4.5,0,0,0,.26-1.55,3.54,3.54,0,0,0-1.7-3,24,24,0,0,0-5.85-2.58c-1.21-.43-2.41-.92-3.62-1.47A13.37,13.37,0,0,1,355,85.55a9.77,9.77,0,0,1-2.34-3,9.44,9.44,0,0,1-.91-4.34,10.7,10.7,0,0,1,1-4.6,9.84,9.84,0,0,1,2.71-3.49,12.45,12.45,0,0,1,4.26-2.2,18.89,18.89,0,0,1,5.64-.78,23,23,0,0,1,6.43.8,23.37,23.37,0,0,1,4.47,1.76l-2.39,6.54a23.11,23.11,0,0,0-3.43-1.41,15.14,15.14,0,0,0-4.55-.61,8.32,8.32,0,0,0-4.28.83,2.78,2.78,0,0,0-1.31,2.52,2.89,2.89,0,0,0,.48,1.7,4.47,4.47,0,0,0,1.36,1.25,11.89,11.89,0,0,0,2,1c.76.3,1.61.61,2.53.93q2.87,1.07,5,2.1A13.36,13.36,0,0,1,375.18,87a8.72,8.72,0,0,1,2.1,3.24,13.12,13.12,0,0,1,.69,4.53,9.59,9.59,0,0,1-3.62,8q-3.62,2.85-10.9,2.85a30.92,30.92,0,0,1-4.42-.29,30.18,30.18,0,0,1-3.48-.72,21.06,21.06,0,0,1-2.61-.91c-.73-.32-1.34-.62-1.84-.9l2.34-6.6a20,20,0,0,0,4.07,1.62A21.11,21.11,0,0,0,363.45,98.5Z"/><path class="cls-8" d="M382.49,90.84a16.64,16.64,0,0,1,1-5.72,13.76,13.76,0,0,1,2.85-4.68,13.58,13.58,0,0,1,4.52-3.16,15,15,0,0,1,6.07-1.17,18.64,18.64,0,0,1,7.71,1.54L403,84a22,22,0,0,0-2.44-.75,13.05,13.05,0,0,0-3-.31,6.25,6.25,0,0,0-5.24,2.18,8.93,8.93,0,0,0-1.73,5.74,9.3,9.3,0,0,0,1.62,5.85q1.62,2.09,5.67,2.08A19.17,19.17,0,0,0,401,98.5a12.71,12.71,0,0,0,3-.85l1.12,6.49a18.16,18.16,0,0,1-3.46,1,22.32,22.32,0,0,1-4.57.43,17.06,17.06,0,0,1-6.6-1.15,12.48,12.48,0,0,1-4.55-3.11,12.1,12.1,0,0,1-2.61-4.65A20.08,20.08,0,0,1,382.49,90.84Z"/><path class="cls-8" d="M427.28,83.87c-.71-.17-1.54-.36-2.5-.56A15.72,15.72,0,0,0,421.7,83a16,16,0,0,0-1.78.13,9.74,9.74,0,0,0-1.57.3v21.38h-7.93V78.34a45.73,45.73,0,0,1,5-1.41,29.1,29.1,0,0,1,6.46-.66,15.41,15.41,0,0,1,1.54.08c.61.05,1.21.12,1.81.21s1.21.19,1.81.32a7.92,7.92,0,0,1,1.54.45Z"/><path class="cls-8" d="M441.54,68.76a4.37,4.37,0,0,1-1.41,3.44,5,5,0,0,1-6.65,0,4.89,4.89,0,0,1,0-6.87,5,5,0,0,1,6.65,0A4.36,4.36,0,0,1,441.54,68.76Zm-.74,36.07h-7.93v-28h7.93Z"/><path class="cls-8" d="M474.26,90.84a20.61,20.61,0,0,1-.8,5.91,13.17,13.17,0,0,1-2.34,4.57,10.6,10.6,0,0,1-3.83,3,12.37,12.37,0,0,1-5.27,1.07,14.27,14.27,0,0,1-3.08-.32,15.49,15.49,0,0,1-2.77-.91v10.54h-7.93V77.81c.71-.21,1.53-.42,2.45-.61s1.89-.37,2.9-.51,2-.26,3.09-.34,2-.14,3-.14a17.2,17.2,0,0,1,6.17,1,12.66,12.66,0,0,1,4.58,2.93,12.38,12.38,0,0,1,2.84,4.6A17.59,17.59,0,0,1,474.26,90.84Zm-8.09.21a9.57,9.57,0,0,0-1.65-5.87A5.73,5.73,0,0,0,459.63,83c-.71,0-1.37,0-2,.08s-1.1.11-1.49.18V97.54a6.79,6.79,0,0,0,1.94.8,9.09,9.09,0,0,0,2.42.32Q466.17,98.66,466.17,91.05Z"/><path class="cls-8" d="M480.11,69.88,488,68.6v8.25h9.52v6.6H488v9.84a7.87,7.87,0,0,0,.87,4c.59,1,1.77,1.49,3.54,1.49a15,15,0,0,0,2.63-.24,13.17,13.17,0,0,0,2.48-.67l1.12,6.18a23.67,23.67,0,0,1-3.2,1,18.8,18.8,0,0,1-4.31.42,14.09,14.09,0,0,1-5.37-.88,8.39,8.39,0,0,1-3.4-2.44,9.22,9.22,0,0,1-1.79-3.81,22.88,22.88,0,0,1-.5-4.94Z"/><rect class="cls-1" x="15.36" y="552.22" width="338.5" height="95.25" rx="42.97"/><path class="cls-2" d="M306.23,650.24H63a50.4,50.4,0,0,1,0-100.79H306.23a50.4,50.4,0,1,1,0,100.79ZM63,555a44.86,44.86,0,0,0,0,89.71H306.23a44.86,44.86,0,1,0,0-89.71Z"/><path class="cls-3" d="M128.56,596.9a21.63,21.63,0,0,1-1.49,8.36,15.64,15.64,0,0,1-4.23,5.9,18,18,0,0,1-6.68,3.51,31,31,0,0,1-8.83,1.17c-1.49,0-3.23-.06-5.21-.18a42.13,42.13,0,0,1-5.86-.78V579a47.4,47.4,0,0,1,6-.72c2.07-.13,3.86-.19,5.35-.19a32.27,32.27,0,0,1,8.59,1.07,17.48,17.48,0,0,1,6.62,3.35,14.85,14.85,0,0,1,4.26,5.85A22.23,22.23,0,0,1,128.56,596.9Zm-24,11.71,1.36.08c.51,0,1.13,0,1.84,0q6.22,0,9.23-3.13t3-8.68c0-3.86-1-6.79-2.87-8.77s-5-3-9.1-3l-1.75,0c-.61,0-1.17.07-1.71.14Z"/><path class="cls-3" d="M132.33,625.21c-.49,0-1.23-.06-2.2-.16a13.56,13.56,0,0,1-2.74-.59l1.06-6.44a10.22,10.22,0,0,0,1.46.38,11.29,11.29,0,0,0,1.68.1,2.92,2.92,0,0,0,2.61-1.11,5.94,5.94,0,0,0,.74-3.25V587.38h7.93v27q0,5.53-2.72,8.2T132.33,625.21Zm11.28-45.91a4.36,4.36,0,0,1-1.41,3.43,5,5,0,0,1-6.65,0,4.89,4.89,0,0,1,0-6.87,5,5,0,0,1,6.65,0A4.37,4.37,0,0,1,143.61,579.3Z"/><path class="cls-3" d="M160.37,586.64a18.42,18.42,0,0,1,5.85.79,9.21,9.21,0,0,1,3.75,2.29,8.45,8.45,0,0,1,2,3.62,17.87,17.87,0,0,1,.58,4.73v16.5c-1.13.24-2.71.54-4.73.87a45.08,45.08,0,0,1-7.34.51,23.35,23.35,0,0,1-4.93-.48,10.61,10.61,0,0,1-3.8-1.57,7.21,7.21,0,0,1-2.45-2.85,9.89,9.89,0,0,1-.85-4.3,8.09,8.09,0,0,1,1-4.15,7.54,7.54,0,0,1,2.63-2.72,12,12,0,0,1,3.78-1.46,21.21,21.21,0,0,1,4.41-.45,24.81,24.81,0,0,1,2.74.13,12.29,12.29,0,0,1,1.94.35v-.75a4.34,4.34,0,0,0-1.22-3.24c-.82-.82-2.23-1.23-4.26-1.23a26.6,26.6,0,0,0-4,.3,17.13,17.13,0,0,0-3.4.82l-1-6.38c.46-.14,1-.3,1.73-.46s1.44-.3,2.26-.42,1.67-.23,2.58-.32S159.45,586.64,160.37,586.64Zm.64,23.19c.78,0,1.52,0,2.23-.05a16.78,16.78,0,0,0,1.7-.16v-6c-.32-.07-.79-.14-1.43-.22a16.25,16.25,0,0,0-1.76-.1,15.58,15.58,0,0,0-2.1.13,5.48,5.48,0,0,0-1.73.51,2.7,2.7,0,0,0-1.59,2.6,2.71,2.71,0,0,0,1.25,2.58A6.86,6.86,0,0,0,161,609.83Z"/><path class="cls-3" d="M179.73,588.34a45,45,0,0,1,5.22-1.09,42.36,42.36,0,0,1,6.7-.51,16.33,16.33,0,0,1,5.93.93,8.85,8.85,0,0,1,3.75,2.64,10.25,10.25,0,0,1,2,4,21.51,21.51,0,0,1,.59,5.21v15.8H196V600.52q0-3.82-1-5.42c-.68-1.07-1.94-1.6-3.78-1.6-.57,0-1.17,0-1.81.08s-1.2.11-1.7.19v21.59h-7.93Z"/><path class="cls-3" d="M235.22,611.85q0,6.87-3.49,10.19T221,625.36a29.29,29.29,0,0,1-5.1-.45,32.17,32.17,0,0,1-4.74-1.19l1.38-6.65a24.61,24.61,0,0,0,3.91,1.17,23.37,23.37,0,0,0,4.66.42c2.27,0,3.87-.49,4.81-1.49a5.34,5.34,0,0,0,1.41-3.83v-1a13.11,13.11,0,0,1-2.63.88,13.67,13.67,0,0,1-2.95.29q-5.81,0-8.89-3.43t-3.08-9.6a15.87,15.87,0,0,1,.95-5.61,11.9,11.9,0,0,1,2.8-4.34,12.3,12.3,0,0,1,4.49-2.79,17.18,17.18,0,0,1,6-1c1,0,1.95,0,3,.14s2,.2,3,.34,1.94.31,2.85.51,1.71.4,2.42.61Zm-17.4-11.38q0,6.64,5.38,6.65a8,8,0,0,0,2.28-.32,8.09,8.09,0,0,0,1.81-.75V593.39q-.58-.1-1.38-.18a17,17,0,0,0-1.86-.08,5.44,5.44,0,0,0-4.68,2.07A8.58,8.58,0,0,0,217.82,600.47Z"/><path class="cls-3" d="M268.84,601.32a18.18,18.18,0,0,1-1,6,13.31,13.31,0,0,1-2.76,4.68,12.38,12.38,0,0,1-4.34,3,15.4,15.4,0,0,1-11.28,0,12.34,12.34,0,0,1-4.33-3,13.75,13.75,0,0,1-2.82-4.68,17.21,17.21,0,0,1-1-6,16.74,16.74,0,0,1,1-6,13.71,13.71,0,0,1,2.88-4.63,12.77,12.77,0,0,1,4.36-3,15,15,0,0,1,11.06,0,12.6,12.6,0,0,1,4.34,3,13.43,13.43,0,0,1,2.82,4.63A17.18,17.18,0,0,1,268.84,601.32Zm-8.09,0a9.91,9.91,0,0,0-1.46-5.77,4.78,4.78,0,0,0-4.17-2.1,4.87,4.87,0,0,0-4.21,2.1,9.84,9.84,0,0,0-1.49,5.77,10.07,10.07,0,0,0,1.49,5.82,4.83,4.83,0,0,0,4.21,2.16,4.74,4.74,0,0,0,4.17-2.16A10.15,10.15,0,0,0,260.75,601.32Z"/><rect class="cls-1" x="37.75" y="298.47" width="463.43" height="95.25" rx="42.97"/><path class="cls-10" d="M453.56,396.49H85.37a50.4,50.4,0,0,1,0-100.79H453.56a50.4,50.4,0,1,1,0,100.79ZM85.37,301.24a44.86,44.86,0,0,0,0,89.71H453.56a44.86,44.86,0,0,0,0-89.71Z"/><path class="cls-10" d="M117.69,323.81q1,1.76,2.21,4.34t2.62,5.58q1.35,3,2.69,6.15l2.51,5.9,2.51-5.9q1.32-3.13,2.69-6.15t2.61-5.58q1.26-2.58,2.22-4.34h7.55q.52,3.68,1,8.22c.3,3,.56,6.19.79,9.47s.45,6.57.64,9.87.36,6.4.51,9.31h-8.09q-.16-5.37-.43-11.7t-.79-12.77l-2.14,5c-.78,1.81-1.55,3.61-2.32,5.42s-1.5,3.54-2.21,5.19-1.32,3.06-1.82,4.23h-5.8l-1.81-4.23-2.22-5.19c-.76-1.81-1.54-3.61-2.32-5.42l-2.13-5q-.54,6.44-.8,12.77t-.43,11.7h-8.08q.21-4.37.5-9.31t.64-9.87c.23-3.28.5-6.43.8-9.47s.63-5.77,1-8.22Z"/><path class="cls-10" d="M165.14,332a18.51,18.51,0,0,1,5.86.8,9.1,9.1,0,0,1,3.75,2.29,8.38,8.38,0,0,1,2,3.62,17.75,17.75,0,0,1,.59,4.73v16.49c-1.14.25-2.72.54-4.74.88a45.08,45.08,0,0,1-7.34.51,23.19,23.19,0,0,1-4.92-.48,10.79,10.79,0,0,1-3.8-1.57,7.19,7.19,0,0,1-2.45-2.85,9.8,9.8,0,0,1-.85-4.31,8.14,8.14,0,0,1,1-4.15,7.59,7.59,0,0,1,2.63-2.71,12,12,0,0,1,3.78-1.46,21.3,21.3,0,0,1,4.42-.46,24.62,24.62,0,0,1,2.74.14,12.89,12.89,0,0,1,1.94.34V343a4.42,4.42,0,0,0-1.22-3.25c-.82-.81-2.24-1.22-4.26-1.22a27.76,27.76,0,0,0-4,.29,17.21,17.21,0,0,0-3.41.83l-1-6.39c.46-.14,1-.29,1.73-.45s1.45-.3,2.26-.43,1.68-.23,2.58-.31S164.22,332,165.14,332Zm.64,23.2c.78,0,1.53,0,2.24-.06a12.61,12.61,0,0,0,1.7-.16v-6q-.48-.1-1.44-.21a16.25,16.25,0,0,0-1.75-.11,15.31,15.31,0,0,0-2.1.14,5.41,5.41,0,0,0-1.73.5,3,3,0,0,0-1.17,1,2.79,2.79,0,0,0-.43,1.6,2.73,2.73,0,0,0,1.25,2.58A6.89,6.89,0,0,0,165.78,355.15Z"/><path class="cls-10" d="M184.24,325.73l7.93-1.28v8.25h9.52v6.59h-9.52v9.85a7.81,7.81,0,0,0,.88,4c.58,1,1.76,1.49,3.53,1.49a15.15,15.15,0,0,0,2.64-.24,13.06,13.06,0,0,0,2.47-.67l1.12,6.17a22.18,22.18,0,0,1-3.19,1,18.26,18.26,0,0,1-4.31.43,14.11,14.11,0,0,1-5.38-.88,8.39,8.39,0,0,1-3.4-2.45,9,9,0,0,1-1.78-3.8,22.28,22.28,0,0,1-.51-4.95Z"/><path class="cls-10" d="M208.13,360.68v-40l7.92-1.27v13.4a18.75,18.75,0,0,1,2-.5,12.88,12.88,0,0,1,2.42-.24,15,15,0,0,1,5.67.93,8.86,8.86,0,0,1,3.62,2.63,10.27,10.27,0,0,1,1.91,4.05,22.62,22.62,0,0,1,.56,5.21v15.8h-7.93V345.84c0-2.56-.32-4.36-1-5.43s-1.87-1.59-3.64-1.59a10.55,10.55,0,0,0-2,.18c-.62.13-1.18.26-1.68.4v21.28Z"/><path class="cls-10" d="M238.13,346.9a17,17,0,0,1,1.15-6.52,13.93,13.93,0,0,1,3-4.65,12.56,12.56,0,0,1,4.28-2.82,13.44,13.44,0,0,1,5-1q6,0,9.41,3.65t3.46,10.72c0,.46,0,1-.05,1.51s-.07,1-.11,1.47h-18a5.27,5.27,0,0,0,2.29,3.88,9.16,9.16,0,0,0,5.42,1.44,23.45,23.45,0,0,0,4.29-.4,16.45,16.45,0,0,0,3.43-1l1.06,6.44a10.65,10.65,0,0,1-1.7.64,23.1,23.1,0,0,1-2.37.56c-.87.16-1.8.29-2.79.4a29.73,29.73,0,0,1-3,.15,17.72,17.72,0,0,1-6.57-1.11,13,13,0,0,1-4.63-3.06,12.17,12.17,0,0,1-2.71-4.6A18.14,18.14,0,0,1,238.13,346.9Zm18.62-3a8.21,8.21,0,0,0-.34-2,5,5,0,0,0-.91-1.7A4.66,4.66,0,0,0,254,339a5,5,0,0,0-2.32-.48,5.3,5.3,0,0,0-2.28.45,4.71,4.71,0,0,0-1.6,1.2,5.21,5.21,0,0,0-1,1.72,12,12,0,0,0-.51,2Z"/><path class="cls-10" d="M285.9,345.84c0-2.56-.32-4.36-1-5.43a3.66,3.66,0,0,0-3.38-1.59,13.71,13.71,0,0,0-1.54.08c-.53.05-1.05.11-1.54.18v21.6h-7.93v-27c.67-.18,1.46-.37,2.37-.56s1.86-.38,2.87-.54,2.05-.28,3.11-.37,2.11-.13,3.14-.13a13.29,13.29,0,0,1,4.92.77,11.12,11.12,0,0,1,3.11,1.84,13.58,13.58,0,0,1,3.91-1.92,13.77,13.77,0,0,1,4.07-.69,14,14,0,0,1,5.51.93,8.29,8.29,0,0,1,3.43,2.63,10.06,10.06,0,0,1,1.76,4.05,26,26,0,0,1,.48,5.21v15.8h-7.93V345.84c0-2.56-.33-4.36-1-5.43a3.64,3.64,0,0,0-3.37-1.59,7.24,7.24,0,0,0-1.79.31,7,7,0,0,0-1.88.8,12.66,12.66,0,0,1,.47,2.58c.08.91.11,1.87.11,2.9v15.27H285.9Z"/><path class="cls-10" d="M326.44,332a18.4,18.4,0,0,1,5.85.8A9.1,9.1,0,0,1,336,335a8.4,8.4,0,0,1,2,3.62,17.76,17.76,0,0,1,.58,4.73v16.49c-1.13.25-2.71.54-4.73.88a45.08,45.08,0,0,1-7.34.51,23.19,23.19,0,0,1-4.92-.48,10.92,10.92,0,0,1-3.81-1.57,7.17,7.17,0,0,1-2.44-2.85,9.8,9.8,0,0,1-.85-4.31,8.14,8.14,0,0,1,1-4.15,7.59,7.59,0,0,1,2.63-2.71,12,12,0,0,1,3.78-1.46,21.3,21.3,0,0,1,4.42-.46,24.75,24.75,0,0,1,2.74.14,12.89,12.89,0,0,1,1.94.34V343a4.39,4.39,0,0,0-1.23-3.25c-.81-.81-2.23-1.22-4.25-1.22a27.76,27.76,0,0,0-4,.29,17.21,17.21,0,0,0-3.41.83l-1-6.39c.46-.14,1-.29,1.73-.45s1.45-.3,2.26-.43,1.68-.23,2.58-.31S325.52,332,326.44,332Zm.64,23.2c.78,0,1.52,0,2.23-.06a12.79,12.79,0,0,0,1.71-.16v-6q-.48-.1-1.44-.21a16.25,16.25,0,0,0-1.75-.11,15.57,15.57,0,0,0-2.11.14,5.42,5.42,0,0,0-1.72.5,3.07,3.07,0,0,0-1.18,1,2.87,2.87,0,0,0-.42,1.6,2.73,2.73,0,0,0,1.25,2.58A6.89,6.89,0,0,0,327.08,355.15Z"/><path class="cls-10" d="M345.54,325.73l7.93-1.28v8.25H363v6.59h-9.52v9.85a7.81,7.81,0,0,0,.88,4c.58,1,1.76,1.49,3.53,1.49a15.24,15.24,0,0,0,2.64-.24,13.06,13.06,0,0,0,2.47-.67l1.12,6.17a22.18,22.18,0,0,1-3.19,1,18.32,18.32,0,0,1-4.31.43,14.11,14.11,0,0,1-5.38-.88,8.32,8.32,0,0,1-3.4-2.45,9,9,0,0,1-1.78-3.8,22.28,22.28,0,0,1-.51-4.95Z"/><path class="cls-10" d="M378.1,324.61a4.33,4.33,0,0,1-1.41,3.43,5,5,0,0,1-6.65,0,4.88,4.88,0,0,1,0-6.86,5,5,0,0,1,6.65,0A4.35,4.35,0,0,1,378.1,324.61Zm-.75,36.07h-7.92v-28h7.92Z"/><path class="cls-10" d="M383.47,346.69a16.64,16.64,0,0,1,1-5.72,13.76,13.76,0,0,1,2.85-4.68,13.6,13.6,0,0,1,4.52-3.17,15,15,0,0,1,6.07-1.17,18.85,18.85,0,0,1,7.71,1.55L404,339.83a18.18,18.18,0,0,0-2.45-.75,12.88,12.88,0,0,0-3-.32,6.28,6.28,0,0,0-5.24,2.18,9,9,0,0,0-1.73,5.75,9.3,9.3,0,0,0,1.62,5.85c1.08,1.38,3,2.08,5.66,2.08a19.19,19.19,0,0,0,3.09-.27,13.2,13.2,0,0,0,3-.85l1.12,6.49a18.38,18.38,0,0,1-3.46,1,23.08,23.08,0,0,1-4.57.42,17.25,17.25,0,0,1-6.6-1.14,12.48,12.48,0,0,1-4.55-3.11,12.07,12.07,0,0,1-2.61-4.66A19.73,19.73,0,0,1,383.47,346.69Z"/><path class="cls-10" d="M419.43,355a7.81,7.81,0,0,0,3.09-.43,1.64,1.64,0,0,0,.9-1.65,2,2,0,0,0-1.17-1.67,22.84,22.84,0,0,0-3.56-1.63,35.47,35.47,0,0,1-3.38-1.43,10.07,10.07,0,0,1-2.58-1.78,7.28,7.28,0,0,1-1.65-2.48,9.14,9.14,0,0,1-.58-3.46,7.48,7.48,0,0,1,2.92-6.22c1.95-1.52,4.63-2.29,8-2.29a25.88,25.88,0,0,1,4.9.45,24,24,0,0,1,3.72,1l-1.38,6.17a29.41,29.41,0,0,0-3-.85,16.18,16.18,0,0,0-3.64-.37q-3.72,0-3.72,2.07a2.08,2.08,0,0,0,.16.85,1.72,1.72,0,0,0,.63.72,9.45,9.45,0,0,0,1.31.75c.55.27,1.25.56,2.1.88a32.74,32.74,0,0,1,4.31,1.91,10.2,10.2,0,0,1,2.68,2A6.36,6.36,0,0,1,430.9,350a10.91,10.91,0,0,1,.4,3.08,7.08,7.08,0,0,1-3.12,6.26c-2.07,1.42-5,2.12-8.8,2.12a25.67,25.67,0,0,1-6.2-.63,24.65,24.65,0,0,1-3.43-1.07l1.33-6.43a27.17,27.17,0,0,0,4.15,1.25A20.28,20.28,0,0,0,419.43,355Z"/><rect class="cls-1" x="357.8" y="678.5" width="305.01" height="95.25" rx="42.97"/><path class="cls-10" d="M615.19,776.88H405.42a50.76,50.76,0,0,1,0-101.51H615.19a50.76,50.76,0,0,1,0,101.51ZM405.42,681.63a44.5,44.5,0,0,0,0,89H615.19a44.5,44.5,0,0,0,0-89Z"/><path class="cls-10" d="M464.09,726.2a21.4,21.4,0,0,1-1.49,8.35,15.39,15.39,0,0,1-4.23,5.91A18,18,0,0,1,451.7,744a31,31,0,0,1-8.83,1.17c-1.49,0-3.23-.06-5.22-.19a42.17,42.17,0,0,1-5.85-.77V708.27a51.11,51.11,0,0,1,6-.72q3.1-.18,5.34-.18a32.23,32.23,0,0,1,8.59,1.06,17.74,17.74,0,0,1,6.63,3.35,15,15,0,0,1,4.25,5.85A22.09,22.09,0,0,1,464.09,726.2Zm-24,11.7c.39,0,.84.07,1.36.08s1.12,0,1.83,0q6.22,0,9.23-3.14c2-2.09,3-5,3-8.67,0-3.87-1-6.79-2.88-8.78s-4.94-3-9.09-3l-1.76,0c-.6,0-1.17.06-1.7.13Z"/><path class="cls-10" d="M469.15,730.88a17.22,17.22,0,0,1,1.14-6.52,13.79,13.79,0,0,1,3-4.65,12.47,12.47,0,0,1,4.28-2.82,13.35,13.35,0,0,1,5-1q6,0,9.42,3.65t3.46,10.72c0,.46,0,1-.06,1.51s-.07,1-.1,1.47h-18a5.26,5.26,0,0,0,2.28,3.88,9.19,9.19,0,0,0,5.43,1.43,23.42,23.42,0,0,0,4.28-.39,16.26,16.26,0,0,0,3.43-1l1.07,6.44a12.7,12.7,0,0,1-1.7.64,23.1,23.1,0,0,1-2.37.56c-.87.16-1.8.29-2.8.39a26.87,26.87,0,0,1-3,.16,17.72,17.72,0,0,1-6.57-1.11,12.83,12.83,0,0,1-4.63-3.06,12.19,12.19,0,0,1-2.72-4.6A18.42,18.42,0,0,1,469.15,730.88Zm18.62-3a8.75,8.75,0,0,0-.35-2,5,5,0,0,0-.9-1.7A4.86,4.86,0,0,0,485,723a5,5,0,0,0-2.31-.47,5.35,5.35,0,0,0-2.29.45,4.58,4.58,0,0,0-1.59,1.2,5.23,5.23,0,0,0-1,1.72,11,11,0,0,0-.5,2Z"/><path class="cls-10" d="M509.58,739a7.75,7.75,0,0,0,3.08-.43,1.63,1.63,0,0,0,.91-1.65,2,2,0,0,0-1.17-1.67,22.6,22.6,0,0,0-3.57-1.63c-1.24-.46-2.36-.94-3.37-1.43a10,10,0,0,1-2.59-1.78,7.26,7.26,0,0,1-1.64-2.48,9.17,9.17,0,0,1-.59-3.46,7.47,7.47,0,0,1,2.93-6.22c1.95-1.53,4.62-2.29,8-2.29a25.85,25.85,0,0,1,4.89.45,23.08,23.08,0,0,1,3.73,1l-1.39,6.17a29.2,29.2,0,0,0-3-.85,16.27,16.27,0,0,0-3.65-.37q-3.72,0-3.72,2.07a2.08,2.08,0,0,0,.16.85,1.83,1.83,0,0,0,.64.72,9.25,9.25,0,0,0,1.3.75c.55.27,1.25.56,2.1.88A32.15,32.15,0,0,1,517,729.5a10.26,10.26,0,0,1,2.69,2,6.14,6.14,0,0,1,1.38,2.42,10.56,10.56,0,0,1,.4,3.08,7.09,7.09,0,0,1-3.11,6.26c-2.08,1.42-5,2.12-8.81,2.12a25.58,25.58,0,0,1-6.19-.63,24.2,24.2,0,0,1-3.43-1.07l1.33-6.44a24.81,24.81,0,0,0,4.15,1.25A19.5,19.5,0,0,0,509.58,739Z"/><path class="cls-10" d="M536,708.59a4.35,4.35,0,0,1-1.41,3.43,5,5,0,0,1-6.65,0,4.88,4.88,0,0,1,0-6.86,5,5,0,0,1,6.65,0A4.35,4.35,0,0,1,536,708.59Zm-.75,36.07h-7.92v-28h7.92Z"/><path class="cls-10" d="M566.87,741.15q0,6.86-3.48,10.19t-10.78,3.32a29.29,29.29,0,0,1-5.1-.45,31.24,31.24,0,0,1-4.74-1.2l1.39-6.65a22.08,22.08,0,0,0,8.56,1.6c2.27,0,3.87-.5,4.82-1.49a5.38,5.38,0,0,0,1.4-3.83v-1a12.91,12.91,0,0,1-2.63.88,14.33,14.33,0,0,1-2.95.29q-5.8,0-8.89-3.43t-3.08-9.61a15.73,15.73,0,0,1,1-5.61,12,12,0,0,1,2.79-4.33,12.41,12.41,0,0,1,4.5-2.8,17.34,17.34,0,0,1,6-1c1,0,1.94,0,3,.13s2,.21,3,.35,1.95.31,2.85.5,1.71.4,2.42.61Zm-17.4-11.39q0,6.66,5.38,6.65a7.73,7.73,0,0,0,2.29-.32,8.72,8.72,0,0,0,1.8-.74V722.69c-.39-.07-.85-.13-1.38-.19s-1.15-.08-1.86-.08A5.44,5.44,0,0,0,551,724.5,8.57,8.57,0,0,0,549.47,729.76Z"/><path class="cls-10" d="M574.32,717.63a44.79,44.79,0,0,1,5.21-1.09,43.73,43.73,0,0,1,6.71-.5,16.36,16.36,0,0,1,5.93.93,9,9,0,0,1,3.75,2.63,10.36,10.36,0,0,1,2,4,21.47,21.47,0,0,1,.58,5.21v15.8h-7.93V729.82c0-2.56-.33-4.37-1-5.43s-1.93-1.6-3.77-1.6c-.57,0-1.17,0-1.81.08s-1.21.12-1.7.19v21.6h-7.93Z"/><rect class="cls-1" x="138.89" y="808.11" width="400.58" height="95.25" rx="42.97"/><path class="cls-6" d="M491.85,906.13H186.52a50.4,50.4,0,1,1,0-100.79H491.85a50.4,50.4,0,0,1,0,100.79ZM186.52,810.88a44.86,44.86,0,1,0,0,89.71H491.85a44.86,44.86,0,0,0,0-89.71Z"/><path class="cls-7" d="M238.58,837.09v7.08H227.46V874h-8.3V844.17H208v-7.08Z"/><path class="cls-7" d="M238.05,860.18a17.18,17.18,0,0,1,1.14-6.52,13.79,13.79,0,0,1,3-4.65,12.18,12.18,0,0,1,4.28-2.82,13.35,13.35,0,0,1,5-1q6,0,9.42,3.64t3.46,10.72c0,.46,0,1-.06,1.52s-.07,1-.1,1.46h-18a5.24,5.24,0,0,0,2.28,3.88,9.19,9.19,0,0,0,5.43,1.44,22.57,22.57,0,0,0,4.28-.4,15.74,15.74,0,0,0,3.43-1l1.07,6.44a11.57,11.57,0,0,1-1.7.63,20.75,20.75,0,0,1-2.37.56c-.87.16-1.8.29-2.8.4a26.87,26.87,0,0,1-3,.16,17.51,17.51,0,0,1-6.57-1.12,12.58,12.58,0,0,1-4.63-3.06,12,12,0,0,1-2.72-4.6A18.36,18.36,0,0,1,238.05,860.18Zm18.62-3a8.14,8.14,0,0,0-.35-2,4.72,4.72,0,0,0-4.76-3.41,5.35,5.35,0,0,0-2.29.45,4.84,4.84,0,0,0-1.59,1.2,5.28,5.28,0,0,0-1,1.73,10.84,10.84,0,0,0-.5,2Z"/><path class="cls-7" d="M281.53,853.82,287.1,846h8.19l-9.71,13.61a85.83,85.83,0,0,1,5.93,7.62,69.47,69.47,0,0,1,4.15,6.76h-8.5c-.29-.54-.65-1.2-1.07-2s-.9-1.63-1.44-2.5a12.6,12.6,0,0,0-1.66-2.21c-.58-.61-1.15-1.15-1.71-1.65-.54.46-1.08,1-1.63,1.52a10.57,10.57,0,0,0-1.58,2.09l-1.47,2.46c-.48.82-.91,1.58-1.28,2.29h-8.07c.45-.88,1-1.92,1.77-3.14s1.53-2.46,2.4-3.76,1.82-2.54,2.84-3.76,2-2.36,3-3.43l-5-7.13q-2.42-3.42-4.76-6.77H276Z"/><path class="cls-7" d="M299.65,839l7.93-1.27V846h9.52v6.6h-9.52v9.84a7.87,7.87,0,0,0,.87,4c.59,1,1.77,1.49,3.54,1.49a15.24,15.24,0,0,0,2.64-.24,14.1,14.1,0,0,0,2.47-.66l1.12,6.17a23.67,23.67,0,0,1-3.2,1,18.76,18.76,0,0,1-4.3.42,14.32,14.32,0,0,1-5.38-.87,8.41,8.41,0,0,1-3.4-2.45,9.1,9.1,0,0,1-1.78-3.8,22.28,22.28,0,0,1-.51-5Z"/><path class="cls-7" d="M332.21,837.89a4.35,4.35,0,0,1-1.41,3.43,5,5,0,0,1-6.65,0,4.88,4.88,0,0,1,0-6.86,5,5,0,0,1,6.65,0A4.33,4.33,0,0,1,332.21,837.89ZM331.46,874h-7.92V846h7.92Z"/><path class="cls-7" d="M350.08,874.49a20,20,0,0,1-5.61-.75,8.38,8.38,0,0,1-3.41-1.94,6.42,6.42,0,0,1-1.7-3,16.48,16.48,0,0,1-.45-4V834l7.93-1.28v30.49a10,10,0,0,0,.16,1.91,3,3,0,0,0,1.91,2.4,7.66,7.66,0,0,0,2.29.48Z"/><path class="cls-7" d="M354.39,860.18a17.18,17.18,0,0,1,1.14-6.52,14.1,14.1,0,0,1,3-4.65,12.28,12.28,0,0,1,4.28-2.82,13.4,13.4,0,0,1,5-1q6,0,9.41,3.64t3.46,10.72c0,.46,0,1-.05,1.52s-.07,1-.11,1.46h-18a5.25,5.25,0,0,0,2.29,3.88,9.14,9.14,0,0,0,5.42,1.44,22.68,22.68,0,0,0,4.29-.4,15.9,15.9,0,0,0,3.43-1L379,873a10.75,10.75,0,0,1-1.7.63,20.75,20.75,0,0,1-2.37.56c-.87.16-1.8.29-2.79.4a27,27,0,0,1-3,.16,17.51,17.51,0,0,1-6.57-1.12,12.66,12.66,0,0,1-4.63-3.06,12,12,0,0,1-2.71-4.6A18.07,18.07,0,0,1,354.39,860.18Zm18.62-3a8.14,8.14,0,0,0-.35-2,4.84,4.84,0,0,0-.9-1.71,4.93,4.93,0,0,0-1.54-1.22,5,5,0,0,0-2.32-.48,5.3,5.3,0,0,0-2.28.45,4.88,4.88,0,0,0-1.6,1.2,5.26,5.26,0,0,0-1,1.73,10.87,10.87,0,0,0-.51,2Z"/><path class="cls-7" d="M424.82,874c-.41-1.29-.85-2.6-1.32-4s-.94-2.7-1.41-4h-14.4c-.47,1.34-.93,2.69-1.4,4s-.9,2.66-1.31,3.94h-8.62q2.08-6,3.95-11t3.66-9.52q1.78-4.47,3.52-8.48t3.6-7.85H419q1.82,3.82,3.58,7.85t3.55,8.48q1.8,4.47,3.66,9.52t4,11Zm-10-28.52c-.18.54-.46,1.27-.81,2.19s-.76,2-1.22,3.19-1,2.54-1.53,4-1.13,3-1.71,4.57h10.54c-.57-1.6-1.11-3.13-1.64-4.58s-1-2.79-1.51-4-.89-2.27-1.25-3.19S415.07,846,414.85,845.44Z"/><path class="cls-7" d="M454.78,853c-.71-.18-1.55-.37-2.5-.56a15.14,15.14,0,0,0-3.09-.3,14.12,14.12,0,0,0-1.78.14,10.2,10.2,0,0,0-1.57.29V874h-7.93v-26.5a51.42,51.42,0,0,1,5-1.41,29.17,29.17,0,0,1,6.46-.66c.43,0,.94,0,1.55.08s1.2.12,1.8.21,1.21.2,1.81.32a9.76,9.76,0,0,1,1.55.45Z"/><path class="cls-7" d="M460.1,839l7.92-1.27V846h9.52v6.6H468v9.84a7.87,7.87,0,0,0,.88,4c.59,1,1.76,1.49,3.54,1.49a15,15,0,0,0,2.63-.24,13.64,13.64,0,0,0,2.47-.66l1.12,6.17a23.51,23.51,0,0,1-3.19,1,18.86,18.86,0,0,1-4.31.42,14.3,14.3,0,0,1-5.37-.87,8.44,8.44,0,0,1-3.41-2.45,9.22,9.22,0,0,1-1.78-3.8,22.3,22.3,0,0,1-.5-5Z"/><rect class="cls-1" x="401.33" y="421.51" width="327.24" height="95.25" rx="42.97"/><path class="cls-6" d="M680.94,519.53H449a50.4,50.4,0,1,1,0-100.79h232a50.4,50.4,0,0,1,0,100.79ZM449,424.28A44.86,44.86,0,0,0,449,514h232a44.86,44.86,0,0,0,0-89.71Z"/><path class="cls-7" d="M457.54,450.05h8.3v36.86h-8.3V471.27H443.6v15.64h-8.3V450.05h8.3v14.1h13.94Z"/><path class="cls-7" d="M483.87,458.19a18.12,18.12,0,0,1,5.85.8,9.09,9.09,0,0,1,3.75,2.28,8.45,8.45,0,0,1,2,3.62,17.89,17.89,0,0,1,.58,4.74v16.49c-1.13.25-2.71.54-4.73.87a45.08,45.08,0,0,1-7.34.51,23.19,23.19,0,0,1-4.92-.48,10.66,10.66,0,0,1-3.81-1.57,7.18,7.18,0,0,1-2.45-2.84,9.94,9.94,0,0,1-.85-4.31,8.12,8.12,0,0,1,1-4.15,7.54,7.54,0,0,1,2.63-2.72,12,12,0,0,1,3.78-1.46,21.28,21.28,0,0,1,4.41-.45,24.68,24.68,0,0,1,2.74.13,12.67,12.67,0,0,1,1.95.35v-.75a4.36,4.36,0,0,0-1.23-3.24c-.81-.82-2.23-1.23-4.25-1.23a26.4,26.4,0,0,0-4,.3,17.07,17.07,0,0,0-3.41.82l-1-6.38c.46-.14,1-.3,1.73-.45s1.44-.31,2.26-.43,1.68-.23,2.58-.32S483,458.19,483.87,458.19Zm.64,23.19c.78,0,1.52,0,2.23-.05s1.28-.09,1.71-.16v-6q-.48-.11-1.44-.21a14.07,14.07,0,0,0-1.76-.11,15.58,15.58,0,0,0-2.1.13,5.48,5.48,0,0,0-1.73.51,3,3,0,0,0-1.17,1,2.83,2.83,0,0,0-.42,1.59,2.69,2.69,0,0,0,1.25,2.58A6.86,6.86,0,0,0,484.51,481.38Z"/><path class="cls-7" d="M503.23,459.89a45,45,0,0,1,5.22-1.09,42.45,42.45,0,0,1,6.7-.51,16.33,16.33,0,0,1,5.93.93,8.93,8.93,0,0,1,3.75,2.64,10.25,10.25,0,0,1,2,4,21.53,21.53,0,0,1,.59,5.22v15.79h-7.93V472.07q0-3.82-1-5.42c-.67-1.07-1.93-1.6-3.78-1.6-.57,0-1.17,0-1.81.08s-1.2.12-1.7.19v21.59h-7.93Z"/><path class="cls-7" d="M559.25,486c-.71.21-1.52.42-2.44.61s-1.89.37-2.9.51-2,.25-3.09.34-2.05.14-3,.14a17.7,17.7,0,0,1-6.17-1,12.42,12.42,0,0,1-4.57-2.9,12.7,12.7,0,0,1-2.85-4.58,17.59,17.59,0,0,1-1-6,20.57,20.57,0,0,1,.85-6.14,13.34,13.34,0,0,1,2.45-4.66,10.4,10.4,0,0,1,3.91-2.92,13,13,0,0,1,5.29-1,12.07,12.07,0,0,1,3,.32,15.84,15.84,0,0,1,2.64.9V446.91l7.92-1.28Zm-17.93-13.3a9.72,9.72,0,0,0,1.65,5.91,5.69,5.69,0,0,0,4.9,2.23c.71,0,1.36,0,2-.08a13.22,13.22,0,0,0,1.49-.19V466.17a6.86,6.86,0,0,0-2-.8,9.4,9.4,0,0,0-2.42-.32Q541.32,465.05,541.32,472.71Z"/><path class="cls-7" d="M575.37,450.85a4.36,4.36,0,0,1-1.41,3.43,5,5,0,0,1-6.65,0,4.89,4.89,0,0,1,0-6.87,5,5,0,0,1,6.65,0A4.37,4.37,0,0,1,575.37,450.85Zm-.74,36.06H566.7v-28h7.93Z"/><path class="cls-7" d="M580.74,472.92a16.46,16.46,0,0,1,1-5.72,13.31,13.31,0,0,1,7.37-7.84,14.89,14.89,0,0,1,6.06-1.17,19.4,19.4,0,0,1,4.1.4,19.16,19.16,0,0,1,3.61,1.14l-1.65,6.33a20.13,20.13,0,0,0-2.44-.74,12.43,12.43,0,0,0-3-.32,6.26,6.26,0,0,0-5.24,2.18,9,9,0,0,0-1.73,5.74,9.35,9.35,0,0,0,1.62,5.86q1.62,2.07,5.67,2.07a19.07,19.07,0,0,0,3.08-.27,12.93,12.93,0,0,0,3-.85l1.11,6.49a18.16,18.16,0,0,1-3.46,1,22.25,22.25,0,0,1-4.57.43,17.32,17.32,0,0,1-6.6-1.14,12.5,12.5,0,0,1-4.55-3.12,12.21,12.21,0,0,1-2.6-4.65A19.75,19.75,0,0,1,580.74,472.92Z"/><path class="cls-7" d="M625.54,466c-.71-.17-1.55-.36-2.5-.55a15.14,15.14,0,0,0-3.09-.3,14.12,14.12,0,0,0-1.78.14,10.2,10.2,0,0,0-1.57.29v21.38h-7.93V460.42a51.42,51.42,0,0,1,5-1.41,29.17,29.17,0,0,1,6.46-.66c.43,0,.94,0,1.55.08s1.2.12,1.8.21,1.21.19,1.81.32a8,8,0,0,1,1.55.45Z"/><path class="cls-7" d="M640.65,458.19a18.12,18.12,0,0,1,5.85.8,9.09,9.09,0,0,1,3.75,2.28,8.44,8.44,0,0,1,2,3.62,17.88,17.88,0,0,1,.59,4.74v16.49c-1.14.25-2.71.54-4.74.87a45.08,45.08,0,0,1-7.34.51,23.19,23.19,0,0,1-4.92-.48,10.61,10.61,0,0,1-3.8-1.57,7.1,7.1,0,0,1-2.45-2.84,9.8,9.8,0,0,1-.85-4.31,8.22,8.22,0,0,1,1-4.15,7.65,7.65,0,0,1,2.64-2.72,11.9,11.9,0,0,1,3.77-1.46,21.31,21.31,0,0,1,4.42-.45,24.81,24.81,0,0,1,2.74.13,12.51,12.51,0,0,1,1.94.35v-.75A4.4,4.4,0,0,0,644,466q-1.23-1.23-4.26-1.23a26.4,26.4,0,0,0-4,.3,17,17,0,0,0-3.4.82l-1-6.38c.46-.14,1-.3,1.72-.45s1.45-.31,2.26-.43,1.68-.23,2.59-.32S639.72,458.19,640.65,458.19Zm.63,23.19c.78,0,1.53,0,2.24-.05a16.78,16.78,0,0,0,1.7-.16v-6q-.48-.11-1.44-.21a13.92,13.92,0,0,0-1.75-.11,15.37,15.37,0,0,0-2.1.13,5.48,5.48,0,0,0-1.73.51,2.89,2.89,0,0,0-1.17,1,2.76,2.76,0,0,0-.43,1.59,2.71,2.71,0,0,0,1.25,2.58A6.92,6.92,0,0,0,641.28,481.38Z"/><path class="cls-7" d="M672.14,445.63a17.52,17.52,0,0,1,4.1.45,21.79,21.79,0,0,1,2.87.88l-1.54,6.33a10,10,0,0,0-2.32-.71,12.26,12.26,0,0,0-2.31-.24,6.56,6.56,0,0,0-2.42.39,3.76,3.76,0,0,0-1.55,1.1,4.25,4.25,0,0,0-.79,1.64,8.54,8.54,0,0,0-.24,2.08v1.38h9.79v6.6h-9.79v21.38H660V457.44a12,12,0,0,1,3.06-8.62Q666.13,445.64,672.14,445.63Z"/><path class="cls-7" d="M682.19,452l7.93-1.27v8.24h9.52v6.6h-9.52v9.84a7.76,7.76,0,0,0,.88,4c.58,1,1.76,1.49,3.54,1.49a15.13,15.13,0,0,0,2.63-.24,13.87,13.87,0,0,0,2.47-.66l1.12,6.17a23.51,23.51,0,0,1-3.19,1,18.86,18.86,0,0,1-4.31.42,14.26,14.26,0,0,1-5.37-.87,8.54,8.54,0,0,1-3.41-2.45,9.2,9.2,0,0,1-1.78-3.81,22.19,22.19,0,0,1-.51-4.94Z"/><rect class="cls-1" x="407.01" y="168.91" width="240.24" height="95.25" rx="42.97"/><path class="cls-9" d="M599.62,266.93h-145a50.4,50.4,0,0,1,0-100.79h145a50.4,50.4,0,1,1,0,100.79Zm-145-95.25a44.86,44.86,0,0,0,0,89.71h145a44.86,44.86,0,0,0,0-89.71Z"/><path class="cls-9" d="M447.8,233.58V196.71h24.68v7H456.1v7.71h14.58v7H456.1v15.22Z"/><path class="cls-9" d="M493.6,212.62c-.71-.18-1.54-.37-2.5-.56a15,15,0,0,0-3.08-.29,13.9,13.9,0,0,0-1.78.13,10,10,0,0,0-1.57.29v21.39h-7.93v-26.5a50.64,50.64,0,0,1,5-1.41,29.17,29.17,0,0,1,6.46-.66c.43,0,.94,0,1.54.08s1.21.12,1.81.21,1.21.2,1.81.32a9.62,9.62,0,0,1,1.54.45Z"/><path class="cls-9" d="M497.33,219.8a17.18,17.18,0,0,1,1.14-6.52,14,14,0,0,1,3-4.65,12.56,12.56,0,0,1,4.28-2.82,13.35,13.35,0,0,1,5-1c4,0,7.11,1.21,9.42,3.64s3.46,6,3.46,10.72c0,.46,0,1-.05,1.52s-.08,1-.11,1.46h-18a5.26,5.26,0,0,0,2.29,3.89,9.21,9.21,0,0,0,5.42,1.43,22.5,22.5,0,0,0,4.28-.4,15.74,15.74,0,0,0,3.43-1l1.07,6.44a11.15,11.15,0,0,1-1.7.63,20.75,20.75,0,0,1-2.37.56c-.87.16-1.8.3-2.79.4a27.18,27.18,0,0,1-3,.16,17.51,17.51,0,0,1-6.57-1.12,12.77,12.77,0,0,1-4.63-3,12,12,0,0,1-2.71-4.61A18,18,0,0,1,497.33,219.8Zm18.62-3a8.14,8.14,0,0,0-.35-2,4.76,4.76,0,0,0-2.45-2.93,5,5,0,0,0-2.31-.48,5.2,5.2,0,0,0-2.29.46A4.68,4.68,0,0,0,507,213a5.38,5.38,0,0,0-1,1.73,10.84,10.84,0,0,0-.5,2Z"/><path class="cls-9" d="M529.73,206.55a44.34,44.34,0,0,1,5.21-1.09,42.47,42.47,0,0,1,6.7-.5,16.29,16.29,0,0,1,5.93.93,9,9,0,0,1,3.76,2.63,10.3,10.3,0,0,1,2,4,21.53,21.53,0,0,1,.59,5.22v15.8H546V218.73q0-3.82-1-5.42c-.67-1.07-1.93-1.6-3.78-1.6-.56,0-1.17,0-1.8.08s-1.21.12-1.71.19v21.6h-7.92Z"/><path class="cls-9" d="M559.73,219.59a16.6,16.6,0,0,1,1-5.72,13.76,13.76,0,0,1,2.85-4.68,13.6,13.6,0,0,1,4.52-3.17,15,15,0,0,1,6.07-1.17,19.23,19.23,0,0,1,4.09.4,20,20,0,0,1,3.62,1.14l-1.65,6.33a20.13,20.13,0,0,0-2.44-.74,13,13,0,0,0-3-.32,6.28,6.28,0,0,0-5.24,2.18,8.94,8.94,0,0,0-1.73,5.75,9.34,9.34,0,0,0,1.62,5.85q1.62,2.07,5.66,2.07a20.33,20.33,0,0,0,3.09-.26,13.2,13.2,0,0,0,3-.85l1.12,6.49a18.92,18.92,0,0,1-3.46,1,23.08,23.08,0,0,1-4.57.42,17.25,17.25,0,0,1-6.6-1.14,12.48,12.48,0,0,1-4.55-3.11,12.21,12.21,0,0,1-2.61-4.66A20.06,20.06,0,0,1,559.73,219.59Z"/><path class="cls-9" d="M587.66,233.58v-40l7.93-1.28V205.7a16,16,0,0,1,2-.5,12.88,12.88,0,0,1,2.42-.24,15,15,0,0,1,5.67.93,8.86,8.86,0,0,1,3.62,2.63,10.22,10.22,0,0,1,1.91,4,22.11,22.11,0,0,1,.56,5.22v15.8h-7.92V218.73q0-3.82-1-5.42c-.66-1.07-1.87-1.6-3.64-1.6a9.77,9.77,0,0,0-2,.19c-.62.12-1.18.26-1.67.4v21.28Z"/><path class="cls-10" d="M1024.49,519.63H798.57a50.5,50.5,0,0,1,0-101h225.92a50.5,50.5,0,1,1,0,101ZM798.57,424.39a44.75,44.75,0,0,0,0,89.49h225.92a44.75,44.75,0,1,0,0-89.49Z"/><path class="cls-10" d="M795.51,488.29q-2.21-4.65-4.34-9.65t-4.07-9.88q-1.94-4.89-3.55-9.36t-2.79-8h9.15q1,3.19,2.31,6.89c.84,2.46,1.7,4.92,2.58,7.36s1.71,4.79,2.52,7,1.57,4.17,2.3,5.8q1-2.43,2.27-5.79t2.55-7q1.32-3.68,2.58-7.36c.84-2.46,1.61-4.77,2.31-6.91h8.83c-.82,2.35-1.78,5-2.85,8s-2.25,6.09-3.53,9.35-2.62,6.57-4,9.9-2.86,6.54-4.32,9.63Z"/><path class="cls-10" d="M818.11,474.51a17.15,17.15,0,0,1,1.14-6.52,14.09,14.09,0,0,1,3-4.66,12.39,12.39,0,0,1,4.28-2.81,13.35,13.35,0,0,1,5-1c4,0,7.11,1.21,9.42,3.64s3.46,6,3.46,10.72c0,.46,0,1,0,1.52s-.08,1-.11,1.46h-18a5.22,5.22,0,0,0,2.29,3.88,9.14,9.14,0,0,0,5.42,1.44,22.5,22.5,0,0,0,4.28-.4,15.74,15.74,0,0,0,3.43-1l1.07,6.43a10.09,10.09,0,0,1-1.7.64,20.75,20.75,0,0,1-2.37.56c-.87.16-1.8.29-2.79.4a27.18,27.18,0,0,1-3,.16,17.51,17.51,0,0,1-6.57-1.12,12.66,12.66,0,0,1-4.63-3.06,12,12,0,0,1-2.71-4.6A18.07,18.07,0,0,1,818.11,474.51Zm18.62-3a8.06,8.06,0,0,0-.35-2,4.84,4.84,0,0,0-.9-1.71,4.93,4.93,0,0,0-1.54-1.22,5.07,5.07,0,0,0-2.32-.48,5.35,5.35,0,0,0-2.29.45,4.58,4.58,0,0,0-1.59,1.2,5.28,5.28,0,0,0-1,1.73,10.94,10.94,0,0,0-.5,2Z"/><path class="cls-10" d="M849.18,474.29a16.45,16.45,0,0,1,1-5.72,13.38,13.38,0,0,1,7.37-7.84,14.89,14.89,0,0,1,6.06-1.17,19.08,19.08,0,0,1,7.72,1.54l-1.65,6.33a20.31,20.31,0,0,0-2.45-.74,12.43,12.43,0,0,0-3-.32,6.26,6.26,0,0,0-5.24,2.18,9,9,0,0,0-1.73,5.74,9.29,9.29,0,0,0,1.63,5.86q1.62,2.07,5.66,2.07a19.19,19.19,0,0,0,3.09-.27,12.71,12.71,0,0,0,3-.85l1.12,6.49a18.61,18.61,0,0,1-3.46,1,22.42,22.42,0,0,1-4.58.43,17.23,17.23,0,0,1-6.59-1.14,12.33,12.33,0,0,1-4.55-3.12,12.1,12.1,0,0,1-2.61-4.65A19.75,19.75,0,0,1,849.18,474.29Z"/><path class="cls-10" d="M876.84,453.33l7.93-1.27v8.24h9.52v6.6h-9.52v9.84a7.87,7.87,0,0,0,.87,4c.59,1,1.77,1.49,3.54,1.49a15.24,15.24,0,0,0,2.64-.24,14.1,14.1,0,0,0,2.47-.66l1.12,6.17a23.67,23.67,0,0,1-3.2,1,18.8,18.8,0,0,1-4.31.42,14.3,14.3,0,0,1-5.37-.87,8.5,8.5,0,0,1-3.4-2.45,9.08,9.08,0,0,1-1.78-3.81,22.12,22.12,0,0,1-.51-4.94Z"/><path class="cls-10" d="M925.84,474.24a18.18,18.18,0,0,1-1,6,13,13,0,0,1-2.77,4.68,12.36,12.36,0,0,1-4.33,3,14.69,14.69,0,0,1-5.67,1.06A14.45,14.45,0,0,1,906.5,488a12.4,12.4,0,0,1-4.34-3,13.87,13.87,0,0,1-2.82-4.68,17.44,17.44,0,0,1-1-6,16.74,16.74,0,0,1,1-6,13.68,13.68,0,0,1,2.87-4.63,13,13,0,0,1,4.36-3,14.06,14.06,0,0,1,5.51-1.06,14.2,14.2,0,0,1,5.56,1.06,12.69,12.69,0,0,1,4.34,3,13.74,13.74,0,0,1,2.82,4.63A17.18,17.18,0,0,1,925.84,474.24Zm-8.09,0a10,10,0,0,0-1.46-5.77,5.23,5.23,0,0,0-8.38,0,9.76,9.76,0,0,0-1.49,5.77,10.05,10.05,0,0,0,1.49,5.83,5.16,5.16,0,0,0,8.38,0A10.29,10.29,0,0,0,917.75,474.24Z"/><path class="cls-10" d="M948.82,467.32c-.71-.17-1.54-.36-2.5-.55a15.14,15.14,0,0,0-3.09-.3,14.12,14.12,0,0,0-1.78.14,10.2,10.2,0,0,0-1.57.29v21.39H932v-26.5a51.42,51.42,0,0,1,5-1.41,29.17,29.17,0,0,1,6.46-.66c.43,0,.94,0,1.55.08s1.2.12,1.81.21,1.2.2,1.8.32a8,8,0,0,1,1.55.45Z"/><path class="cls-10" d="M992.44,488.29c-.41-1.29-.85-2.6-1.33-4s-.94-2.7-1.41-4H975.3c-.46,1.34-.93,2.69-1.4,4s-.9,2.66-1.3,3.94H964q2.09-6,3.95-11t3.65-9.52c1.19-3,2.37-5.81,3.52-8.48s2.36-5.3,3.61-7.85h7.86q1.83,3.82,3.58,7.85t3.56,8.48q1.78,4.47,3.66,9.52t4,11Zm-10-28.52c-.19.54-.46,1.26-.82,2.19l-1.22,3.19c-.45,1.21-1,2.54-1.52,4s-1.14,3-1.72,4.57h10.54q-.84-2.4-1.64-4.58c-.52-1.46-1-2.79-1.5-4l-1.26-3.19C983,461,982.69,460.29,982.47,459.77Z"/><path class="cls-10" d="M1022.39,467.32c-.71-.17-1.54-.36-2.5-.55a15.14,15.14,0,0,0-3.09-.3,14.26,14.26,0,0,0-1.78.14,10.45,10.45,0,0,0-1.57.29v21.39h-7.92v-26.5a50.38,50.38,0,0,1,5-1.41,29.26,29.26,0,0,1,6.47-.66c.42,0,.94,0,1.54.08s1.21.12,1.81.21,1.2.2,1.81.32a7.92,7.92,0,0,1,1.54.45Z"/><path class="cls-10" d="M1027.71,453.33l7.93-1.27v8.24h9.52v6.6h-9.52v9.84a7.76,7.76,0,0,0,.88,4c.58,1,1.76,1.49,3.53,1.49a15.24,15.24,0,0,0,2.64-.24,13.87,13.87,0,0,0,2.47-.66l1.12,6.17a23.67,23.67,0,0,1-3.2,1,18.76,18.76,0,0,1-4.3.42,14.32,14.32,0,0,1-5.38-.87,8.5,8.5,0,0,1-3.4-2.45,9.08,9.08,0,0,1-1.78-3.81,22.12,22.12,0,0,1-.51-4.94Z"/><rect class="cls-1" x="7.87" y="422.65" width="361.68" height="95.25" rx="42.97"/><path class="cls-4" d="M321.92,520.66H55.49a50.39,50.39,0,0,1,0-100.78H321.92a50.39,50.39,0,1,1,0,100.78ZM55.49,425.42a44.85,44.85,0,0,0,0,89.7H321.92a44.85,44.85,0,1,0,0-89.7Z"/><path class="cls-5" d="M92,488q-3,0-6-.19a40.81,40.81,0,0,1-6.25-.88V451.13a55.69,55.69,0,0,1,5.58-.71q3-.24,5.64-.24a39.27,39.27,0,0,1,6.47.5,15.59,15.59,0,0,1,5.08,1.73,9.16,9.16,0,0,1,3.32,3.22,9.39,9.39,0,0,1,1.2,4.92c0,2.94-1.42,5.27-4.26,7a8.71,8.71,0,0,1,4.79,3.62,10.39,10.39,0,0,1,1.28,5.16q0,5.79-4.23,8.72T92,488Zm-4.21-22.88h4a11.36,11.36,0,0,0,5.48-1A3.42,3.42,0,0,0,99,460.92a3.25,3.25,0,0,0-1.7-3.14,11,11,0,0,0-5-.9l-2.29,0c-.81,0-1.54.06-2.18.13Zm0,6.33v9.53c.61.07,1.26.12,2,.16s1.49.05,2.34.05a14.34,14.34,0,0,0,6-1.07,3.93,3.93,0,0,0,2.29-3.93,3.88,3.88,0,0,0-1.91-3.65A11.33,11.33,0,0,0,93,471.4Z"/><path class="cls-5" d="M131.78,466.51c-.71-.18-1.54-.36-2.5-.56a15.9,15.9,0,0,0-3.09-.29,14,14,0,0,0-1.78.13,11.59,11.59,0,0,0-1.57.29v21.39h-7.93V461a46.37,46.37,0,0,1,5-1.41,28.58,28.58,0,0,1,6.47-.67c.42,0,.93,0,1.54.08s1.2.13,1.81.21,1.2.2,1.81.32a8.89,8.89,0,0,1,1.54.46Z"/><path class="cls-5" d="M146.89,458.74a18.4,18.4,0,0,1,5.85.8,9,9,0,0,1,3.75,2.29,8.4,8.4,0,0,1,2,3.61,17.88,17.88,0,0,1,.59,4.74v16.49c-1.14.25-2.71.54-4.74.88a45.12,45.12,0,0,1-7.34.5,23.89,23.89,0,0,1-4.92-.47,10.79,10.79,0,0,1-3.8-1.57,7.19,7.19,0,0,1-2.45-2.85,9.8,9.8,0,0,1-.85-4.31,8.25,8.25,0,0,1,1-4.15,7.62,7.62,0,0,1,2.64-2.71,11.73,11.73,0,0,1,3.78-1.46,20.55,20.55,0,0,1,4.41-.46,24.62,24.62,0,0,1,2.74.14,12.44,12.44,0,0,1,1.94.34v-.74a4.42,4.42,0,0,0-1.22-3.25c-.82-.81-2.24-1.22-4.26-1.22a27.76,27.76,0,0,0-4,.29,17.1,17.1,0,0,0-3.4.83l-1-6.39c.46-.14,1-.29,1.73-.45s1.44-.3,2.26-.43,1.67-.23,2.58-.32S146,458.74,146.89,458.74Zm.64,23.2c.78,0,1.52,0,2.23-.06a14.29,14.29,0,0,0,1.7-.16v-6c-.32-.07-.8-.14-1.43-.21a16.43,16.43,0,0,0-1.76-.11,15.53,15.53,0,0,0-2.1.14,5.23,5.23,0,0,0-1.73.5,3,3,0,0,0-1.17,1,2.87,2.87,0,0,0-.43,1.6,2.73,2.73,0,0,0,1.25,2.58A6.93,6.93,0,0,0,147.53,481.94Z"/><path class="cls-5" d="M166.25,460.44a45,45,0,0,1,5.22-1.09,43.6,43.6,0,0,1,6.7-.5,16.36,16.36,0,0,1,5.93.93,8.92,8.92,0,0,1,3.75,2.63,10.36,10.36,0,0,1,2,4,21.47,21.47,0,0,1,.58,5.21v15.8h-7.92V472.63q0-3.84-1-5.43c-.68-1.06-1.94-1.6-3.78-1.6-.57,0-1.17,0-1.81.08s-1.21.12-1.7.19v21.6h-7.93Z"/><path class="cls-5" d="M222.27,486.56c-.71.22-1.53.42-2.45.62s-1.89.36-2.9.5-2,.26-3.08.35-2.05.13-3,.13a17.7,17.7,0,0,1-6.17-1,12.3,12.3,0,0,1-4.57-2.9,12.52,12.52,0,0,1-2.85-4.57,17.4,17.4,0,0,1-1-6,20.64,20.64,0,0,1,.85-6.15,13.28,13.28,0,0,1,2.44-4.65,10.59,10.59,0,0,1,3.91-2.93,13.22,13.22,0,0,1,5.3-1,12.58,12.58,0,0,1,3,.32,15.44,15.44,0,0,1,2.63.9V447.46l7.93-1.27Zm-17.93-13.29a9.71,9.71,0,0,0,1.65,5.9,5.69,5.69,0,0,0,4.89,2.23c.71,0,1.37,0,2-.08s1.1-.11,1.49-.18V466.72a7,7,0,0,0-1.94-.8,9.46,9.46,0,0,0-2.42-.32Q204.34,465.6,204.34,473.27Z"/><path class="cls-5" d="M238.39,451.4a4.35,4.35,0,0,1-1.41,3.43,5,5,0,0,1-6.65,0,4.88,4.88,0,0,1,0-6.86,5,5,0,0,1,6.65,0A4.35,4.35,0,0,1,238.39,451.4Zm-.75,36.07h-7.92v-28h7.92Z"/><path class="cls-5" d="M245.09,460.44a45.25,45.25,0,0,1,5.21-1.09,43.83,43.83,0,0,1,6.71-.5,16.36,16.36,0,0,1,5.93.93,8.92,8.92,0,0,1,3.75,2.63,10.36,10.36,0,0,1,2,4,21.47,21.47,0,0,1,.58,5.21v15.8h-7.92V472.63q0-3.84-1-5.43c-.68-1.06-1.94-1.6-3.78-1.6-.57,0-1.17,0-1.81.08s-1.21.12-1.7.19v21.6h-7.93Z"/><path class="cls-5" d="M300.58,484q0,6.85-3.49,10.19t-10.77,3.32a29.41,29.41,0,0,1-5.11-.45,31.11,31.11,0,0,1-4.73-1.2l1.38-6.65a22.08,22.08,0,0,0,8.57,1.6c2.26,0,3.87-.5,4.81-1.49a5.36,5.36,0,0,0,1.41-3.83v-1a12.48,12.48,0,0,1-2.63.87,13.74,13.74,0,0,1-3,.3q-5.79,0-8.88-3.43t-3.09-9.61a15.73,15.73,0,0,1,1-5.61,12,12,0,0,1,2.79-4.33,12.58,12.58,0,0,1,4.5-2.8,17.38,17.38,0,0,1,6-1c1,0,1.94,0,2.95.13s2,.21,3,.35,1.94.31,2.85.5,1.71.4,2.42.61Zm-17.4-11.39q0,6.66,5.37,6.65a7.68,7.68,0,0,0,2.29-.32,8.83,8.83,0,0,0,1.81-.74V465.5c-.39-.07-.85-.13-1.38-.19s-1.16-.08-1.87-.08a5.44,5.44,0,0,0-4.68,2.08A8.57,8.57,0,0,0,283.18,472.57Z"/><rect class="cls-1" x="734.7" y="552.15" width="329.29" height="95.25" rx="42.97"/><path class="cls-4" d="M1016.37,650h-234a50.19,50.19,0,1,1,0-100.37h234a50.19,50.19,0,1,1,0,100.37Zm-234-95.24a45.06,45.06,0,1,0,0,90.12h234a45.06,45.06,0,1,0,0-90.12Z"/><path class="cls-5" d="M804.82,616.57c-2,0-4-.06-6-.18a43.45,43.45,0,0,1-6.25-.88V579.76a52.81,52.81,0,0,1,5.58-.72q3-.24,5.64-.24a38.16,38.16,0,0,1,6.47.51A15.13,15.13,0,0,1,815.3,581a9,9,0,0,1,3.32,3.22,9.39,9.39,0,0,1,1.2,4.92q0,4.41-4.26,7a8.7,8.7,0,0,1,4.79,3.61,10.45,10.45,0,0,1,1.28,5.16q0,5.8-4.23,8.73T804.82,616.57Zm-4.21-22.87h4q3.83,0,5.48-1a3.39,3.39,0,0,0,1.64-3.16,3.24,3.24,0,0,0-1.7-3.14,11,11,0,0,0-5-.9c-.71,0-1.47,0-2.28,0s-1.55.06-2.19.13Zm0,6.33v9.52c.61.07,1.26.13,2,.16s1.49,0,2.34,0a14.36,14.36,0,0,0,6-1.06,3.94,3.94,0,0,0,2.29-3.94,3.86,3.86,0,0,0-1.91-3.64,11.21,11.21,0,0,0-5.48-1.09Z"/><path class="cls-5" d="M851.63,615.14a44.79,44.79,0,0,1-5.21,1.09,43.73,43.73,0,0,1-6.71.5,16.12,16.12,0,0,1-5.93-1,9,9,0,0,1-3.75-2.69,10.52,10.52,0,0,1-2-4.12,22.27,22.27,0,0,1-.58-5.27V588.11h7.93v14.63c0,2.56.33,4.4,1,5.53s1.93,1.71,3.77,1.71c.57,0,1.17,0,1.81-.08s1.21-.12,1.7-.19v-21.6h7.93Z"/><path class="cls-5" d="M867.11,610.4a8,8,0,0,0,3.09-.42,1.66,1.66,0,0,0,.9-1.65,2,2,0,0,0-1.17-1.68,22.07,22.07,0,0,0-3.56-1.62,34.35,34.35,0,0,1-3.38-1.44,9.83,9.83,0,0,1-2.58-1.78,7.24,7.24,0,0,1-1.65-2.47,9.17,9.17,0,0,1-.59-3.46,7.47,7.47,0,0,1,2.93-6.22q2.92-2.29,8-2.29a25.88,25.88,0,0,1,4.9.45,23.05,23.05,0,0,1,3.72,1L876.37,595a29.35,29.35,0,0,0-3-.86,16.78,16.78,0,0,0-3.64-.37c-2.48,0-3.73.69-3.73,2.08a2.26,2.26,0,0,0,.16.85,1.83,1.83,0,0,0,.64.72,8.59,8.59,0,0,0,1.31.74c.55.27,1.25.57,2.1.89a33.45,33.45,0,0,1,4.31,1.9,10.21,10.21,0,0,1,2.68,2,6.25,6.25,0,0,1,1.39,2.41,11,11,0,0,1,.4,3.08,7.1,7.1,0,0,1-3.12,6.27c-2.07,1.41-5,2.12-8.8,2.12a25,25,0,0,1-9.63-1.7l1.33-6.44a26.09,26.09,0,0,0,4.15,1.25A20.28,20.28,0,0,0,867.11,610.4Z"/><path class="cls-5" d="M893.55,580a4.36,4.36,0,0,1-1.41,3.43,5,5,0,0,1-6.65,0,4.89,4.89,0,0,1,0-6.87,5,5,0,0,1,6.65,0A4.37,4.37,0,0,1,893.55,580Zm-.74,36.06h-7.93v-28h7.93Z"/><path class="cls-5" d="M900.25,589.07a45,45,0,0,1,5.22-1.09,42.36,42.36,0,0,1,6.7-.51,16.31,16.31,0,0,1,5.93.94,8.83,8.83,0,0,1,3.75,2.63,10.25,10.25,0,0,1,2,4,21.51,21.51,0,0,1,.59,5.21v15.8h-7.93V601.25q0-3.82-1-5.42c-.68-1.07-1.94-1.6-3.78-1.6-.57,0-1.17,0-1.81.08s-1.2.12-1.7.19v21.59h-7.93Z"/><path class="cls-5" d="M930.26,602.32a17.15,17.15,0,0,1,1.14-6.52,13.94,13.94,0,0,1,3-4.66,12.3,12.3,0,0,1,4.28-2.81,13.35,13.35,0,0,1,5-1q6,0,9.42,3.64t3.46,10.72c0,.46,0,1-.06,1.52s-.07,1-.1,1.46h-18a5.24,5.24,0,0,0,2.28,3.88,9.19,9.19,0,0,0,5.43,1.44,22.57,22.57,0,0,0,4.28-.4,15.74,15.74,0,0,0,3.43-1l1.07,6.43a10.43,10.43,0,0,1-1.7.64,20.75,20.75,0,0,1-2.37.56c-.87.16-1.8.29-2.79.4a27.18,27.18,0,0,1-3,.16,17.51,17.51,0,0,1-6.57-1.12,12.58,12.58,0,0,1-4.63-3.06,12,12,0,0,1-2.72-4.6A18.36,18.36,0,0,1,930.26,602.32Zm18.62-3a8.06,8.06,0,0,0-.35-2,5.18,5.18,0,0,0-.9-1.71,4.73,4.73,0,0,0-3.86-1.7,5.35,5.35,0,0,0-2.29.45,4.58,4.58,0,0,0-1.59,1.2,5.28,5.28,0,0,0-1,1.73,10.94,10.94,0,0,0-.5,2Z"/><path class="cls-5" d="M970.69,610.4a8,8,0,0,0,3.08-.42,1.65,1.65,0,0,0,.91-1.65,2,2,0,0,0-1.17-1.68,21.84,21.84,0,0,0-3.57-1.62,35.17,35.17,0,0,1-3.37-1.44,9.51,9.51,0,0,1-2.58-1.78,7.24,7.24,0,0,1-1.65-2.47,9.17,9.17,0,0,1-.59-3.46,7.47,7.47,0,0,1,2.93-6.22q2.93-2.29,8-2.29a25.85,25.85,0,0,1,4.89.45,23.21,23.21,0,0,1,3.73,1L979.94,595a29.14,29.14,0,0,0-3-.86,16.87,16.87,0,0,0-3.65-.37c-2.48,0-3.72.69-3.72,2.08a2.08,2.08,0,0,0,.16.85,1.83,1.83,0,0,0,.64.72,8.42,8.42,0,0,0,1.3.74c.55.27,1.25.57,2.1.89a32.25,32.25,0,0,1,4.31,1.9,10.28,10.28,0,0,1,2.69,2,6.1,6.1,0,0,1,1.38,2.41,10.65,10.65,0,0,1,.4,3.08,7.12,7.12,0,0,1-3.11,6.27q-3.12,2.12-8.8,2.12a25.06,25.06,0,0,1-6.2-.64,24.54,24.54,0,0,1-3.43-1.06l1.33-6.44a25.78,25.78,0,0,0,4.15,1.25A20.21,20.21,0,0,0,970.69,610.4Z"/><path class="cls-5" d="M996.49,610.4a8,8,0,0,0,3.08-.42,1.65,1.65,0,0,0,.91-1.65,2,2,0,0,0-1.17-1.68,21.84,21.84,0,0,0-3.57-1.62,35.17,35.17,0,0,1-3.37-1.44,9.83,9.83,0,0,1-2.58-1.78,7.24,7.24,0,0,1-1.65-2.47,9.17,9.17,0,0,1-.59-3.46,7.47,7.47,0,0,1,2.93-6.22q2.92-2.29,8-2.29a26,26,0,0,1,4.9.45,23.05,23.05,0,0,1,3.72,1l-1.38,6.18a30.1,30.1,0,0,0-3-.86,16.85,16.85,0,0,0-3.64-.37c-2.49,0-3.73.69-3.73,2.08a2.26,2.26,0,0,0,.16.85,1.83,1.83,0,0,0,.64.72,8.42,8.42,0,0,0,1.3.74c.55.27,1.25.57,2.1.89a32.25,32.25,0,0,1,4.31,1.9,10.28,10.28,0,0,1,2.69,2,6.1,6.1,0,0,1,1.38,2.41,10.65,10.65,0,0,1,.4,3.08,7.12,7.12,0,0,1-3.11,6.27c-2.07,1.41-5,2.12-8.8,2.12a25,25,0,0,1-9.63-1.7l1.33-6.44a25.78,25.78,0,0,0,4.15,1.25A20.21,20.21,0,0,0,996.49,610.4Z"/><rect class="cls-1" x="46.86" y="680.82" width="256.23" height="95.25" rx="42.97"/><path class="cls-8" d="M255.46,778.84h-161a50.4,50.4,0,0,1,0-100.79h161a50.4,50.4,0,1,1,0,100.79Zm-161-95.25a44.85,44.85,0,0,0,0,89.7h161a44.85,44.85,0,1,0,0-89.7Z"/><path class="cls-8" d="M97.69,705.55q8.25,0,12.66,2.9t4.42,9.5q0,6.64-4.47,9.6t-12.77,3h-2.6v12.34h-8.3V706.51a49.54,49.54,0,0,1,5.74-.75C94.39,705.62,96.17,705.55,97.69,705.55Zm.53,7.08c-.6,0-1.19,0-1.78,0l-1.51.11v10.64h2.6a14.1,14.1,0,0,0,6.49-1.17c1.46-.78,2.18-2.24,2.18-4.37a5.29,5.29,0,0,0-.55-2.55,4.36,4.36,0,0,0-1.6-1.62,7.11,7.11,0,0,0-2.53-.85A20.78,20.78,0,0,0,98.22,712.63Z"/><path class="cls-8" d="M120.36,742.84v-40l7.92-1.28V715a16,16,0,0,1,2.05-.51,12.8,12.8,0,0,1,2.42-.24,15,15,0,0,1,5.67.93,8.75,8.75,0,0,1,3.61,2.64,10,10,0,0,1,1.92,4,22.62,22.62,0,0,1,.56,5.21v15.8h-7.93V728q0-3.82-1-5.42c-.66-1.07-1.87-1.6-3.65-1.6a9.67,9.67,0,0,0-2,.19q-.93.18-1.68.39v21.28Z"/><path class="cls-8" d="M175.74,714.86q-2.4,8.08-5,15.16T165,743.75a32.91,32.91,0,0,1-2.24,4.07,12.56,12.56,0,0,1-2.45,2.76,8.65,8.65,0,0,1-3,1.6,13.56,13.56,0,0,1-3.92.51,16.09,16.09,0,0,1-3.44-.35,15.91,15.91,0,0,1-2.58-.77l1.38-6.33a13.33,13.33,0,0,0,2.19.58,11.82,11.82,0,0,0,2,.16,4.43,4.43,0,0,0,3.27-1.14,9.17,9.17,0,0,0,1.94-3.17q-2.72-5.31-5.42-11.94a146.36,146.36,0,0,1-5.11-14.87h8.4q.54,2.07,1.26,4.5t1.52,4.89c.53,1.65,1.08,3.26,1.63,4.82s1.08,3,1.58,4.25c.46-1.28.94-2.69,1.44-4.25s1-3.17,1.47-4.82.94-3.28,1.39-4.89.84-3.12,1.2-4.5Z"/><path class="cls-8" d="M188,737.15a8,8,0,0,0,3.09-.42,1.66,1.66,0,0,0,.9-1.65,2,2,0,0,0-1.17-1.68,22.07,22.07,0,0,0-3.56-1.62,34.35,34.35,0,0,1-3.38-1.44,9.83,9.83,0,0,1-2.58-1.78,7.24,7.24,0,0,1-1.65-2.47,9.17,9.17,0,0,1-.59-3.46A7.49,7.49,0,0,1,182,716.4q2.92-2.28,8-2.28a25.88,25.88,0,0,1,4.9.45,23.05,23.05,0,0,1,3.72,1l-1.38,6.17c-.92-.31-1.93-.6-3-.85a16.78,16.78,0,0,0-3.64-.37c-2.48,0-3.73.69-3.73,2.08a2.3,2.3,0,0,0,.16.85,1.81,1.81,0,0,0,.64.71,7.77,7.77,0,0,0,1.31.75c.54.27,1.25.57,2.1.89a33.45,33.45,0,0,1,4.31,1.9,10.21,10.21,0,0,1,2.68,2,6.25,6.25,0,0,1,1.39,2.41,11,11,0,0,1,.39,3.08,7.1,7.1,0,0,1-3.11,6.27c-2.07,1.41-5,2.12-8.8,2.12a25.12,25.12,0,0,1-6.2-.64,26.53,26.53,0,0,1-3.43-1.06l1.33-6.44a26.09,26.09,0,0,0,4.15,1.25A20.28,20.28,0,0,0,188,737.15Z"/><path class="cls-8" d="M214.41,706.78a4.36,4.36,0,0,1-1.41,3.43,5,5,0,0,1-6.65,0,4.89,4.89,0,0,1,0-6.87,5,5,0,0,1,6.65,0A4.37,4.37,0,0,1,214.41,706.78Zm-.74,36.06h-7.93v-28h7.93Z"/><path class="cls-8" d="M219.78,728.85a16.42,16.42,0,0,1,1-5.72,13.33,13.33,0,0,1,7.36-7.84,15,15,0,0,1,6.07-1.17,19.4,19.4,0,0,1,4.1.4,19.16,19.16,0,0,1,3.61,1.14L240.26,722a20.13,20.13,0,0,0-2.44-.74,12.43,12.43,0,0,0-3-.32,6.26,6.26,0,0,0-5.24,2.18,8.93,8.93,0,0,0-1.73,5.74,9.3,9.3,0,0,0,1.62,5.85q1.62,2.09,5.67,2.08a19.17,19.17,0,0,0,3.08-.27,12.71,12.71,0,0,0,3-.85l1.12,6.49a18.16,18.16,0,0,1-3.46,1,22.25,22.25,0,0,1-4.57.43,17.32,17.32,0,0,1-6.6-1.14,12.5,12.5,0,0,1-4.55-3.12,12.21,12.21,0,0,1-2.6-4.65A19.75,19.75,0,0,1,219.78,728.85Z"/><path class="cls-8" d="M255.75,737.15a8,8,0,0,0,3.08-.42,1.66,1.66,0,0,0,.91-1.65,2,2,0,0,0-1.18-1.68,21.66,21.66,0,0,0-3.56-1.62,35.41,35.41,0,0,1-3.38-1.44,9.83,9.83,0,0,1-2.58-1.78,7.24,7.24,0,0,1-1.65-2.47,9.18,9.18,0,0,1-.58-3.46,7.48,7.48,0,0,1,2.92-6.23q2.93-2.28,8-2.28a25.85,25.85,0,0,1,4.89.45,23.5,23.5,0,0,1,3.73,1L265,721.72c-.92-.31-1.92-.6-3-.85a16.94,16.94,0,0,0-3.65-.37c-2.48,0-3.72.69-3.72,2.08a2.11,2.11,0,0,0,.16.85,1.74,1.74,0,0,0,.64.71,7.63,7.63,0,0,0,1.3.75c.55.27,1.25.57,2.1.89a32.84,32.84,0,0,1,4.31,1.9,10.45,10.45,0,0,1,2.69,2,6.36,6.36,0,0,1,1.38,2.41,10.6,10.6,0,0,1,.4,3.08,7.12,7.12,0,0,1-3.11,6.27c-2.08,1.41-5,2.12-8.81,2.12a25.12,25.12,0,0,1-6.2-.64,27.07,27.07,0,0,1-3.43-1.06l1.33-6.44a26.09,26.09,0,0,0,4.15,1.25A20.3,20.3,0,0,0,255.75,737.15Z"/><path class="cls-2" d="M963,397.68h-80.8a50.4,50.4,0,1,1,0-100.79H963a50.4,50.4,0,0,1,0,100.79Zm-80.8-95.25a44.86,44.86,0,0,0,0,89.71H963a44.86,44.86,0,0,0,0-89.71Z"/><path class="cls-2" d="M896.79,330.49c.43,1.46.89,3.1,1.41,4.92s1.06,3.72,1.64,5.67,1.18,3.9,1.78,5.85,1.19,3.76,1.76,5.43q.69-2.72,1.41-5.91c.48-2.12.94-4.32,1.36-6.59s.85-4.53,1.26-6.79.79-4.42,1.15-6.51h8.62q-1.87,9.26-4.31,18.78t-5.27,18.08H900q-1.86-5.1-3.61-10.72T893,341.45q-1.71,5.64-3.41,11.25T886,363.42h-7.58q-2.83-8.57-5.27-18.08t-4.3-18.78h9q.54,3.13,1.18,6.51c.43,2.26.87,4.52,1.34,6.79s.93,4.47,1.41,6.59,1,4.1,1.47,5.91q1-2.61,1.87-5.53t1.76-5.86q.85-2.93,1.57-5.64c.48-1.8.91-3.42,1.31-4.84Z"/><path class="cls-2" d="M918.83,349.65a17.15,17.15,0,0,1,1.14-6.52,14.25,14.25,0,0,1,3-4.66,12.56,12.56,0,0,1,4.28-2.82,13.6,13.6,0,0,1,5-.95q6,0,9.41,3.64t3.46,10.72c0,.46,0,1-.05,1.52s-.07,1-.11,1.46H927a5.25,5.25,0,0,0,2.29,3.88,9.16,9.16,0,0,0,5.42,1.44A22.68,22.68,0,0,0,939,357a16.5,16.5,0,0,0,3.43-1l1.06,6.43a9.76,9.76,0,0,1-1.7.64,23.1,23.1,0,0,1-2.37.56c-.87.16-1.8.29-2.79.4a27,27,0,0,1-3,.16,17.51,17.51,0,0,1-6.57-1.12,12.66,12.66,0,0,1-4.63-3.06,12.1,12.1,0,0,1-2.71-4.6A18.07,18.07,0,0,1,918.83,349.65Zm18.62-3a8.23,8.23,0,0,0-.35-2,4.73,4.73,0,0,0-2.44-2.92,5,5,0,0,0-2.32-.48,5.3,5.3,0,0,0-2.28.45,4.71,4.71,0,0,0-1.6,1.2,5.26,5.26,0,0,0-1,1.73,10.77,10.77,0,0,0-.51,2Z"/><path class="cls-2" d="M977.24,349.43a17.61,17.61,0,0,1-1,6.07,12.91,12.91,0,0,1-2.85,4.63,12.53,12.53,0,0,1-4.57,2.95,17.24,17.24,0,0,1-6.17,1c-1,0-2-.05-3-.14s-2.07-.2-3.08-.34-2-.31-2.9-.51-1.74-.4-2.45-.61v-39.1l7.93-1.28v13.94a14.37,14.37,0,0,1,2.76-.9,13.82,13.82,0,0,1,3.09-.32,12.63,12.63,0,0,1,5.26,1,10.28,10.28,0,0,1,3.83,3,13.33,13.33,0,0,1,2.35,4.6A21,21,0,0,1,977.24,349.43Zm-8.08-.21q0-7.67-5.64-7.66a9.46,9.46,0,0,0-2.42.32,6.67,6.67,0,0,0-1.94.8v14.41c.39.07.88.14,1.49.19s1.25.08,2,.08a5.72,5.72,0,0,0,4.9-2.23A9.72,9.72,0,0,0,969.16,349.22Z"/><rect class="cls-1" x="547.75" y="299.66" width="254.63" height="95.25" rx="42.97"/><path class="cls-10" d="M754.75,397.68H595.37a50.4,50.4,0,1,1,0-100.79H754.75a50.4,50.4,0,1,1,0,100.79ZM595.37,302.43a44.86,44.86,0,0,0,0,89.71H754.75a44.86,44.86,0,0,0,0-89.71Z"/><path class="cls-10" d="M605.74,354.59a11.74,11.74,0,0,0,2.9-.29,5.15,5.15,0,0,0,1.84-.8,2.65,2.65,0,0,0,1-1.19,4.46,4.46,0,0,0,.26-1.55,3.56,3.56,0,0,0-1.7-3,24.35,24.35,0,0,0-5.85-2.58c-1.21-.43-2.42-.92-3.62-1.47a13.43,13.43,0,0,1-3.25-2.07,10.08,10.08,0,0,1-2.34-3,9.57,9.57,0,0,1-.9-4.34,10.73,10.73,0,0,1,1-4.6,9.84,9.84,0,0,1,2.71-3.49A12.45,12.45,0,0,1,602,324a18.86,18.86,0,0,1,5.64-.77A23,23,0,0,1,614,324a23.37,23.37,0,0,1,4.47,1.76l-2.39,6.54a23.57,23.57,0,0,0-3.43-1.41,15.14,15.14,0,0,0-4.55-.61,8.36,8.36,0,0,0-4.29.83,2.77,2.77,0,0,0-1.3,2.52,2.94,2.94,0,0,0,.48,1.71,4.74,4.74,0,0,0,1.36,1.25,11.89,11.89,0,0,0,2,1c.76.3,1.6.61,2.53.93q2.87,1.07,5,2.1a13.46,13.46,0,0,1,3.53,2.42,8.72,8.72,0,0,1,2.1,3.24,12.87,12.87,0,0,1,.7,4.53,9.59,9.59,0,0,1-3.62,8q-3.61,2.85-10.91,2.85a30.87,30.87,0,0,1-4.41-.29,29.94,29.94,0,0,1-3.49-.72,20.3,20.3,0,0,1-2.6-.91c-.73-.32-1.34-.62-1.84-.9l2.34-6.6a20,20,0,0,0,4.07,1.62A21.08,21.08,0,0,0,605.74,354.59Z"/><path class="cls-10" d="M652.13,346.93a20.26,20.26,0,0,1-.8,5.91,13.17,13.17,0,0,1-2.34,4.57,10.51,10.51,0,0,1-3.83,3,12.32,12.32,0,0,1-5.26,1.07,14.44,14.44,0,0,1-3.09-.32,15.49,15.49,0,0,1-2.77-.91v10.54h-7.92V333.9c.71-.21,1.52-.42,2.44-.61s1.89-.37,2.9-.51,2-.26,3.09-.34,2.05-.14,3-.14a17.24,17.24,0,0,1,6.17,1,12.25,12.25,0,0,1,7.42,7.53A17.83,17.83,0,0,1,652.13,346.93Zm-8.08.21a9.57,9.57,0,0,0-1.65-5.87,5.73,5.73,0,0,0-4.9-2.21c-.71,0-1.36,0-2,.08s-1.1.11-1.49.18v14.32a7.17,7.17,0,0,0,2,.79,9,9,0,0,0,2.42.32Q644.05,354.75,644.05,347.14Z"/><path class="cls-10" d="M684.42,346.88a18.44,18.44,0,0,1-.95,6,13.33,13.33,0,0,1-2.77,4.68,12.38,12.38,0,0,1-4.34,3,15.4,15.4,0,0,1-11.28,0,12.34,12.34,0,0,1-4.33-3,13.75,13.75,0,0,1-2.82-4.68,17.44,17.44,0,0,1-1-6,16.52,16.52,0,0,1,1-6,13.68,13.68,0,0,1,2.87-4.63,12.87,12.87,0,0,1,4.36-3,14.06,14.06,0,0,1,5.51-1.06,14.2,14.2,0,0,1,5.56,1.06,12.56,12.56,0,0,1,4.33,3,13.43,13.43,0,0,1,2.82,4.63A17,17,0,0,1,684.42,346.88Zm-8.08,0a9.91,9.91,0,0,0-1.47-5.77,4.77,4.77,0,0,0-4.17-2.1,4.84,4.84,0,0,0-4.2,2.1,9.76,9.76,0,0,0-1.49,5.77,10,10,0,0,0,1.49,5.82,4.8,4.8,0,0,0,4.2,2.16,4.73,4.73,0,0,0,4.17-2.16A10.15,10.15,0,0,0,676.34,346.88Z"/><path class="cls-10" d="M707.41,340c-.71-.17-1.55-.36-2.51-.56a15.72,15.72,0,0,0-3.08-.29,16,16,0,0,0-1.78.13,10,10,0,0,0-1.57.3v21.38h-7.93V334.43a45.73,45.73,0,0,1,5-1.41,29.17,29.17,0,0,1,6.46-.66,15.41,15.41,0,0,1,1.54.08c.61.05,1.21.12,1.81.21s1.21.19,1.81.32a7.71,7.71,0,0,1,1.54.45Z"/><path class="cls-10" d="M712.73,326l7.92-1.28v8.25h9.52v6.6h-9.52v9.84a7.76,7.76,0,0,0,.88,4c.58,1,1.76,1.49,3.54,1.49a15,15,0,0,0,2.63-.24,12.86,12.86,0,0,0,2.47-.67l1.12,6.18a23.51,23.51,0,0,1-3.19,1,18.86,18.86,0,0,1-4.31.42,14.05,14.05,0,0,1-5.37-.88,8.43,8.43,0,0,1-3.41-2.44,9.2,9.2,0,0,1-1.78-3.81,22.27,22.27,0,0,1-.5-4.94Z"/><path class="cls-10" d="M744.64,355.23a8,8,0,0,0,3.09-.42,1.66,1.66,0,0,0,.9-1.65,2,2,0,0,0-1.17-1.68,21.66,21.66,0,0,0-3.56-1.62,35.41,35.41,0,0,1-3.38-1.44,9.83,9.83,0,0,1-2.58-1.78,7.24,7.24,0,0,1-1.65-2.47,9.18,9.18,0,0,1-.58-3.46,7.48,7.48,0,0,1,2.92-6.23q2.93-2.28,8-2.28a25.85,25.85,0,0,1,4.89.45,23.05,23.05,0,0,1,3.72,1l-1.38,6.17a28.7,28.7,0,0,0-3-.85,16.18,16.18,0,0,0-3.64-.37q-3.72,0-3.72,2.07a2.13,2.13,0,0,0,.16.86,1.85,1.85,0,0,0,.63.71,9.45,9.45,0,0,0,1.31.75c.55.27,1.25.57,2.1.89a32.84,32.84,0,0,1,4.31,1.9,10.45,10.45,0,0,1,2.69,2,6.36,6.36,0,0,1,1.38,2.41,11,11,0,0,1,.4,3.08,7.09,7.09,0,0,1-3.11,6.26q-3.12,2.13-8.81,2.13a25.12,25.12,0,0,1-6.2-.64A26.53,26.53,0,0,1,735,360l1.33-6.44a26.09,26.09,0,0,0,4.15,1.25A20.28,20.28,0,0,0,744.64,355.23Z"/></svg>