<svg xmlns="http://www.w3.org/2000/svg" viewBox="0 0 1602.9 354.4"><defs><style>.cls-1{fill:#fff;stroke:#231f20;stroke-miterlimit:10;}.cls-2{fill:none;}.cls-3{fill:#19499a;}.cls-4{fill:#0b1637;}</style></defs><title>wave_2</title><g id="Layer_2" data-name="Layer 2"><g id="Layer_6" data-name="Layer 6"><path class="cls-1" d="M1602.4.6h0Z"/><path class="cls-2" d="M1270.2,128.5c-83.6,8.6-109.9,28.5-162.2,13.6-8.4-2.3-83.4-24.8-109.1-87.9-8.5-20.8-8.2-37.9-5.2-53.7H0V354.4H1602.4V164.6c-39.8-9.7-92.5-23.5-163.5-31.2C1379.1,127,1333.1,122,1270.2,128.5Z"/><path class="cls-3" d="M1236.1.5c10,23.9,14,43.4,34.5,57.9,45.2,32,99.5-10.4,202.4-23.9,37.2-4.8,85.6-6.5,129.4-.9V.6H1236.1Z"/><path class="cls-4" d="M1473,34.5C1370.1,48,1315.8,90.4,1270.6,58.4c-20.5-14.5-24.5-34-34.5-57.9H993.7c0,17.1,2.5,50.2,23.7,81.5,7.3,11,30.6,41.8,90.6,60.1,96.3,29.4,156.1-13.6,238.8-16.3,62-2.1,148.5,17.9,255.6,115.6V33.6C1558.6,28,1510.2,29.7,1473,34.5Z"/></g></g></svg>