<?xml version="1.0" encoding="utf-8"?>
<!-- Generator: Adobe Illustrator 23.0.0, SVG Export Plug-In . SVG Version: 6.00 Build 0)  -->
<svg version="1.1" id="Layer_1" xmlns="http://www.w3.org/2000/svg" xmlns:xlink="http://www.w3.org/1999/xlink" x="0px" y="0px"
	 viewBox="0 0 1103 660.6" style="enable-background:new 0 0 1103 660.6;" xml:space="preserve">
<style type="text/css">
	.st0{display:none;}
	.st1{display:inline;}
	.st2{fill:none;stroke:#000000;stroke-width:9.1274;stroke-miterlimit:10;}
	.st3{display:none;fill:#FFFFFF;stroke:#0F474C;stroke-width:9.1274;stroke-miterlimit:10;}
	.st4{fill:none;}
	.st5{enable-background:new    ;}
	.st6{fill:#12474C;}
	.st7{fill:none;stroke:#11474C;stroke-width:1.8092;stroke-miterlimit:10;}
	.st8{fill:none;stroke:#11474C;stroke-width:32.3283;stroke-miterlimit:10;}
	.st9{fill:#EF4659;}
	.st10{fill:#0F474C;}
	.st11{fill:none;stroke:#EF4759;stroke-width:32.3283;stroke-miterlimit:10;}
</style>
<g class="st0">
	<g class="st1">
		<g>
			<g>
				<path class="st2" d="M228.8,238.4"/>
				<path class="st2" d="M70.3,238.4"/>
				<g>
					<path class="st2" d="M70.3,238.4c7.8,38.4,42,65.9,80.6,65.2c37.6-0.7,70.3-27.9,77.8-65.2"/>
				</g>
			</g>
		</g>
		<g>
			<g>
				<path class="st2" d="M228.8,80"/>
				<path class="st2" d="M70.3,80"/>
				<g>
					<path class="st2" d="M70.3,80C77.7,41.2,112,13.2,151,13.9c37.9,0.7,70.7,28.3,77.8,66.1"/>
				</g>
			</g>
		</g>
	</g>
	<g class="st1">
		<g>
			<path class="st2" d="M228.8,238.4c0-43.8-35.5-79.2-79.2-79.2"/>
		</g>
		<path class="st2" d="M70.3,80c0,43.8,35.5,79.2,79.2,79.2"/>
	</g>
</g>
<path class="st3" d="M291.8,378.1"/>
<path class="st3" d="M291.8,342.1"/>
<g>
	<g>
		<g>
			<rect x="307.6" y="187.8" class="st4" width="841.2" height="341.4"/>
		</g>
		<g class="st5">
			<path class="st6" d="M427.5,339.9c32,0,47.9,22.1,47.9,51.2c0,5.6-0.7,10.7-1.4,13.3h-67.4c2.9,16.1,14.3,23.2,29.3,23.2
				c8.4,0,16.1-2.4,24.3-7.1l11.1,19.1c-11.6,7.5-26.5,12-39.9,12c-32.2,0-56.9-20.6-56.9-55.9C374.4,361.2,400.5,339.9,427.5,339.9
				z M447,384.8c0-12.3-5.4-20.8-18.8-20.8c-10.4,0-19.5,6.7-21.8,20.8H447z"/>
			<path class="st6" d="M517.4,417.1c10.2,7.3,19.5,11.2,29,11.2c10,0,14.3-3.4,14.3-9c0-7.1-11.3-10.3-22.9-14.6
				c-13.6-4.9-29.7-13.8-29.7-31.4c0-19.8,17-33.3,43.1-33.3c17.2,0,29.9,6.7,39.7,13.5l-15,18.9c-8.2-5.6-15.9-9-23.8-9
				c-8.6,0-12.7,3-12.7,8.4c0,6.9,10.4,9.5,22,13.5c14.3,4.9,30.4,12.5,30.4,32c0,19.3-16.1,34.4-46.3,34.4
				c-14.7,0-31.8-6-43.1-14.8L517.4,417.1z"/>
			<path class="st6" d="M631.7,417.1c10.2,7.3,19.5,11.2,29,11.2c10,0,14.3-3.4,14.3-9c0-7.1-11.3-10.3-22.9-14.6
				c-13.6-4.9-29.7-13.8-29.7-31.4c0-19.8,17-33.3,43.1-33.3c17.2,0,29.9,6.7,39.7,13.5l-15,18.9c-8.2-5.6-15.9-9-23.8-9
				c-8.6,0-12.7,3-12.7,8.4c0,6.9,10.4,9.5,22,13.5c14.3,4.9,30.4,12.5,30.4,32c0,19.3-16.1,34.4-46.3,34.4
				c-14.7,0-31.8-6-43.1-14.8L631.7,417.1z"/>
			<path class="st6" d="M738.3,310.3c0-9.7,8.2-16.3,19.3-16.3c11.3,0,19.3,6.7,19.3,16.3s-7.9,16.5-19.3,16.5
				C746.5,326.8,738.3,319.9,738.3,310.3z M741,342.5h33.3v106.6H741V342.5z"/>
			<path class="st6" d="M865.8,339.9c28.4,0,54.7,20.4,54.7,55.9c0,35.5-26.3,55.9-54.7,55.9c-28.6,0-54.9-20.4-54.9-55.9
				C810.9,360.3,837.2,339.9,865.8,339.9z M865.8,426.1c13.6,0,20.6-11.8,20.6-30.3c0-18.5-7-30.3-20.6-30.3
				c-13.8,0-20.6,11.8-20.6,30.3C845.2,414.3,852,426.1,865.8,426.1z"/>
			<path class="st6" d="M957.2,342.5h27.2l2.3,13.5h0.9c9.5-8.6,20.9-16.1,36.1-16.1c24.5,0,34.9,16.3,34.9,43v66.2h-33.3V387
				c0-15.5-4.3-20.2-13.8-20.2c-8.4,0-13.6,3.7-20.9,10.3v72h-33.3V342.5z"/>
		</g>
		<g class="st5">
			<path class="st7" d="M427.5,339.9c32,0,47.9,22.1,47.9,51.2c0,5.6-0.7,10.7-1.4,13.3h-67.4c2.9,16.1,14.3,23.2,29.3,23.2
				c8.4,0,16.1-2.4,24.3-7.1l11.1,19.1c-11.6,7.5-26.5,12-39.9,12c-32.2,0-56.9-20.6-56.9-55.9C374.4,361.2,400.5,339.9,427.5,339.9
				z M447,384.8c0-12.3-5.4-20.8-18.8-20.8c-10.4,0-19.5,6.7-21.8,20.8H447z"/>
			<path class="st7" d="M517.4,417.1c10.2,7.3,19.5,11.2,29,11.2c10,0,14.3-3.4,14.3-9c0-7.1-11.3-10.3-22.9-14.6
				c-13.6-4.9-29.7-13.8-29.7-31.4c0-19.8,17-33.3,43.1-33.3c17.2,0,29.9,6.7,39.7,13.5l-15,18.9c-8.2-5.6-15.9-9-23.8-9
				c-8.6,0-12.7,3-12.7,8.4c0,6.9,10.4,9.5,22,13.5c14.3,4.9,30.4,12.5,30.4,32c0,19.3-16.1,34.4-46.3,34.4
				c-14.7,0-31.8-6-43.1-14.8L517.4,417.1z"/>
			<path class="st7" d="M631.7,417.1c10.2,7.3,19.5,11.2,29,11.2c10,0,14.3-3.4,14.3-9c0-7.1-11.3-10.3-22.9-14.6
				c-13.6-4.9-29.7-13.8-29.7-31.4c0-19.8,17-33.3,43.1-33.3c17.2,0,29.9,6.7,39.7,13.5l-15,18.9c-8.2-5.6-15.9-9-23.8-9
				c-8.6,0-12.7,3-12.7,8.4c0,6.9,10.4,9.5,22,13.5c14.3,4.9,30.4,12.5,30.4,32c0,19.3-16.1,34.4-46.3,34.4
				c-14.7,0-31.8-6-43.1-14.8L631.7,417.1z"/>
			<path class="st7" d="M738.3,310.3c0-9.7,8.2-16.3,19.3-16.3c11.3,0,19.3,6.7,19.3,16.3s-7.9,16.5-19.3,16.5
				C746.5,326.8,738.3,319.9,738.3,310.3z M741,342.5h33.3v106.6H741V342.5z"/>
			<path class="st7" d="M865.8,339.9c28.4,0,54.7,20.4,54.7,55.9c0,35.5-26.3,55.9-54.7,55.9c-28.6,0-54.9-20.4-54.9-55.9
				C810.9,360.3,837.2,339.9,865.8,339.9z M865.8,426.1c13.6,0,20.6-11.8,20.6-30.3c0-18.5-7-30.3-20.6-30.3
				c-13.8,0-20.6,11.8-20.6,30.3C845.2,414.3,852,426.1,865.8,426.1z"/>
			<path class="st7" d="M957.2,342.5h27.2l2.3,13.5h0.9c9.5-8.6,20.9-16.1,36.1-16.1c24.5,0,34.9,16.3,34.9,43v66.2h-33.3V387
				c0-15.5-4.3-20.2-13.8-20.2c-8.4,0-13.6,3.7-20.9,10.3v72h-33.3V342.5z"/>
		</g>
	</g>
	<g>
		<polyline class="st8" points="192.1,312.2 325.7,456 171.5,613.4 17.3,455 		"/>
		<polygon class="st9" points="283.4,455.8 166.4,455.8 59.6,455.8 171.5,330.8 		"/>
		<polygon class="st10" points="283.4,190.4 171.5,315.4 59.6,190.4 		"/>
		<polyline class="st11" points="325.7,198.2 174.7,47.2 24.4,196.8 147.7,328.4 		"/>
	</g>
</g>
</svg>
