<?xml version="1.0" encoding="utf-8"?>
<!-- Generator: Adobe Illustrator 23.0.0, SVG Export Plug-In . SVG Version: 6.00 Build 0)  -->
<svg version="1.1" id="Layer_1" xmlns="http://www.w3.org/2000/svg" xmlns:xlink="http://www.w3.org/1999/xlink" x="0px" y="0px"
	 viewBox="0 0 1296.5 607.4" style="enable-background:new 0 0 1296.5 607.4;" xml:space="preserve">
<style type="text/css">
	.st0{display:none;}
	.st1{display:inline;}
	.st2{fill:none;stroke:#000000;stroke-width:9.1274;stroke-miterlimit:10;}
	.st3{display:none;fill:#FFFFFF;stroke:#0F474C;stroke-width:9.1274;stroke-miterlimit:10;}
	.st4{fill:none;}
	.st5{enable-background:new    ;}
	.st6{fill:#12474C;}
	.st7{fill:none;stroke:#11474C;stroke-width:2.068;stroke-miterlimit:10;}
	.st8{fill:none;stroke:#11474C;stroke-width:27.8341;stroke-miterlimit:10;}
	.st9{fill:#EF4659;}
	.st10{fill:#0F474C;}
	.st11{fill:none;stroke:#EF4759;stroke-width:27.8341;stroke-miterlimit:10;}
</style>
<g class="st0">
	<g class="st1">
		<g>
			<g>
				<path class="st2" d="M226.6,229.1"/>
				<path class="st2" d="M68.1,229.1"/>
				<g>
					<path class="st2" d="M68.1,229.1c7.8,38.4,42,65.9,80.6,65.2c37.6-0.7,70.3-27.9,77.8-65.2"/>
				</g>
			</g>
		</g>
		<g>
			<g>
				<path class="st2" d="M226.6,70.7"/>
				<path class="st2" d="M68.1,70.7"/>
				<g>
					<path class="st2" d="M68.1,70.7c7.4-38.8,41.7-66.8,80.7-66.1c37.9,0.7,70.7,28.3,77.8,66.1"/>
				</g>
			</g>
		</g>
	</g>
	<g class="st1">
		<g>
			<path class="st2" d="M226.6,229.1c0-43.8-35.5-79.2-79.2-79.2"/>
		</g>
		<path class="st2" d="M68.1,70.7c0,43.8,35.5,79.2,79.2,79.2"/>
	</g>
</g>
<path class="st3" d="M289.6,368.8"/>
<path class="st3" d="M289.6,332.8"/>
<g>
	<g>
		<rect x="335.2" y="134.1" class="st4" width="961.5" height="390.2"/>
	</g>
	<g class="st5">
		<path class="st6" d="M472.3,307.9c36.6,0,54.8,25.3,54.8,58.5c0,6.4-0.8,12.3-1.6,15.2h-77c3.3,18.4,16.3,26.5,33.5,26.5
			c9.6,0,18.4-2.7,27.7-8.1l12.7,21.8c-13.3,8.5-30.2,13.7-45.6,13.7c-36.8,0-65.1-23.6-65.1-63.9
			C411.6,332.3,441.5,307.9,472.3,307.9z M494.6,359.2c0-14-6.1-23.8-21.5-23.8c-11.8,0-22.2,7.7-24.9,23.8H494.6z"/>
		<path class="st6" d="M575.1,396.2c11.6,8.3,22.2,12.8,33.2,12.8c11.4,0,16.3-3.8,16.3-10.3c0-8.1-12.9-11.7-26.2-16.7
			c-15.6-5.6-34-15.8-34-35.9c0-22.7,19.4-38,49.3-38c19.6,0,34.2,7.7,45.4,15.4l-17.1,21.6c-9.4-6.4-18.2-10.3-27.2-10.3
			c-9.9,0-14.5,3.4-14.5,9.6c0,7.9,11.8,10.8,25.1,15.4c16.3,5.6,34.7,14.2,34.7,36.6c0,22-18.4,39.3-52.9,39.3
			c-16.8,0-36.4-6.9-49.3-16.9L575.1,396.2z"/>
		<path class="st6" d="M705.7,396.2c11.6,8.3,22.2,12.8,33.2,12.8c11.4,0,16.3-3.8,16.3-10.3c0-8.1-12.9-11.7-26.2-16.7
			c-15.6-5.6-34-15.8-34-35.9c0-22.7,19.4-38,49.3-38c19.6,0,34.2,7.7,45.4,15.4l-17.1,21.6c-9.4-6.4-18.2-10.3-27.2-10.3
			c-9.9,0-14.5,3.4-14.5,9.6c0,7.9,11.8,10.8,25.1,15.4c16.3,5.6,34.7,14.2,34.7,36.6c0,22-18.4,39.3-52.9,39.3
			c-16.8,0-36.4-6.9-49.3-16.9L705.7,396.2z"/>
		<path class="st6" d="M827.5,274.1c0-11.1,9.4-18.6,22-18.6c12.9,0,22,7.7,22,18.6c0,11-9,18.8-22,18.8
			C836.9,292.9,827.5,285,827.5,274.1z M830.6,310.9h38v121.8h-38V310.9z"/>
		<path class="st6" d="M973.2,307.9c32.4,0,62.6,23.3,62.6,63.9s-30,63.9-62.6,63.9c-32.7,0-62.8-23.3-62.8-63.9
			C910.6,331.3,940.6,307.9,973.2,307.9z M973.2,406.5c15.6,0,23.6-13.5,23.6-34.6s-8-34.6-23.6-34.6c-15.8,0-23.6,13.5-23.6,34.6
			S957.5,406.5,973.2,406.5z"/>
		<path class="st6" d="M1077.8,310.9h31.1l2.6,15.4h1c10.8-9.9,23.9-18.4,41.3-18.4c28,0,39.9,18.6,39.9,49.2v75.7h-38v-71
			c0-17.7-4.9-23.1-15.8-23.1c-9.6,0-15.6,4.3-23.9,11.7v82.3h-38V310.9H1077.8z"/>
	</g>
	<g class="st5">
		<path class="st7" d="M472.3,307.9c36.6,0,54.8,25.3,54.8,58.5c0,6.4-0.8,12.3-1.6,15.2h-77c3.3,18.4,16.3,26.5,33.5,26.5
			c9.6,0,18.4-2.7,27.7-8.1l12.7,21.8c-13.3,8.5-30.2,13.7-45.6,13.7c-36.8,0-65.1-23.6-65.1-63.9
			C411.6,332.3,441.5,307.9,472.3,307.9z M494.6,359.2c0-14-6.1-23.8-21.5-23.8c-11.8,0-22.2,7.7-24.9,23.8H494.6z"/>
		<path class="st7" d="M575.1,396.2c11.6,8.3,22.2,12.8,33.2,12.8c11.4,0,16.3-3.8,16.3-10.3c0-8.1-12.9-11.7-26.2-16.7
			c-15.6-5.6-34-15.8-34-35.9c0-22.7,19.4-38,49.3-38c19.6,0,34.2,7.7,45.4,15.4l-17.1,21.6c-9.4-6.4-18.2-10.3-27.2-10.3
			c-9.9,0-14.5,3.4-14.5,9.6c0,7.9,11.8,10.8,25.1,15.4c16.3,5.6,34.7,14.2,34.7,36.6c0,22-18.4,39.3-52.9,39.3
			c-16.8,0-36.4-6.9-49.3-16.9L575.1,396.2z"/>
		<path class="st7" d="M705.7,396.2c11.6,8.3,22.2,12.8,33.2,12.8c11.4,0,16.3-3.8,16.3-10.3c0-8.1-12.9-11.7-26.2-16.7
			c-15.6-5.6-34-15.8-34-35.9c0-22.7,19.4-38,49.3-38c19.6,0,34.2,7.7,45.4,15.4l-17.1,21.6c-9.4-6.4-18.2-10.3-27.2-10.3
			c-9.9,0-14.5,3.4-14.5,9.6c0,7.9,11.8,10.8,25.1,15.4c16.3,5.6,34.7,14.2,34.7,36.6c0,22-18.4,39.3-52.9,39.3
			c-16.8,0-36.4-6.9-49.3-16.9L705.7,396.2z"/>
		<path class="st7" d="M827.5,274.1c0-11.1,9.4-18.6,22-18.6c12.9,0,22,7.7,22,18.6c0,11-9,18.8-22,18.8
			C836.9,292.9,827.5,285,827.5,274.1z M830.6,310.9h38v121.8h-38V310.9z"/>
		<path class="st7" d="M973.2,307.9c32.4,0,62.6,23.3,62.6,63.9s-30,63.9-62.6,63.9c-32.7,0-62.8-23.3-62.8-63.9
			C910.6,331.3,940.6,307.9,973.2,307.9z M973.2,406.5c15.6,0,23.6-13.5,23.6-34.6s-8-34.6-23.6-34.6c-15.8,0-23.6,13.5-23.6,34.6
			S957.5,406.5,973.2,406.5z"/>
		<path class="st7" d="M1077.8,310.9h31.1l2.6,15.4h1c10.8-9.9,23.9-18.4,41.3-18.4c28,0,39.9,18.6,39.9,49.2v75.7h-38v-71
			c0-17.7-4.9-23.1-15.8-23.1c-9.6,0-15.6,4.3-23.9,11.7v82.3h-38V310.9H1077.8z"/>
	</g>
	<g>
		<polyline class="st8" points="265.4,310.8 369.7,423.1 249.3,546.1 128.9,422.4 		"/>
		<polygon class="st9" points="326.8,420.7 245.7,420.7 171.7,420.7 249.3,334 		"/>
		<polygon class="st10" points="326.8,231 249.3,317.7 171.7,231 		"/>
		<polyline class="st11" points="364.7,235 251.7,122 139.1,234 234.9,336.3 		"/>
	</g>
</g>
</svg>
