<?xml version="1.0" encoding="utf-8"?>
<!-- Generator: Adobe Illustrator 23.0.0, SVG Export Plug-In . SVG Version: 6.00 Build 0)  -->
<svg version="1.1" id="Layer_1" xmlns="http://www.w3.org/2000/svg" xmlns:xlink="http://www.w3.org/1999/xlink" x="0px" y="0px"
	 viewBox="0 0 1045.3 449.7" style="enable-background:new 0 0 1045.3 449.7;" xml:space="preserve">
<style type="text/css">
	.st0{fill:none;stroke:#F7F7F7;stroke-width:43.0717;stroke-miterlimit:10;}
	.st1{fill:#F7F7F7;}
</style>
<polyline class="st0" points="145.7,203.3 241.4,306.2 131,418.9 20.6,305.6 "/>
<polyline class="st0" points="236.7,134 133.2,30.4 30,133.1 117.8,226.8 "/>
<g>
	<path class="st1" d="M288.8,264.6c0-9.1,1.7-17.7,5.2-25.7c3.5-8,8.2-15,14.1-21s13-10.6,21-14.1c8-3.5,16.6-5.2,25.7-5.2
		c10.1,0,19.5,2.1,28.3,6.4c8.8,4.3,16.2,10,22.2,17.2c6.1,7.2,10.4,15.5,13.1,25c2.7,9.5,3.1,19.4,1.2,29.9H336v-29.3h51.5
		c-3.1-5.9-7.6-10.6-13.3-14.3c-5.8-3.7-12.2-5.5-19.3-5.5c-5.3,0-10.1,1-14.6,3c-4.4,2-8.3,4.6-11.6,8c-3.3,3.4-5.9,7.2-7.7,11.7
		c-1.9,4.4-2.8,9.2-2.8,14.2c0,4.9,0.9,9.5,2.8,13.9c1.9,4.4,4.4,8.3,7.6,11.7c3.2,3.4,7.1,6.1,11.6,8.1c4.5,2,9.4,3,14.7,3
		c4.3,0,8.4-0.7,12.2-2.2c3.8-1.4,7.2-3.4,10.3-5.8v33.3c-7.3,2.6-14.8,4-22.5,4c-9.1,0-17.7-1.7-25.7-5.2c-8-3.5-15-8.2-21-14.2
		c-6-6-10.7-13-14.1-21C290.5,282.2,288.8,273.7,288.8,264.6z"/>
	<path class="st1" d="M480.9,288.5c0,3.5,1.2,6.5,3.7,9c2.5,2.5,5.4,3.8,8.9,3.8c3.5,0,6.5-1.3,9-3.8c2.5-2.5,3.8-5.5,3.8-9
		c0-2.3-0.6-4.3-1.7-6.1c-1.1-1.8-2.6-3.4-4.2-4.7c-1.7-1.2-3.9-2.5-6.7-3.8c-2.8-1.3-5.8-2.8-9-4.3c-3.2-1.6-6.5-3.4-9.9-5.4
		c-3.4-2-6.4-4.4-9.1-7.1c-2.7-2.7-4.9-5.9-6.6-9.5c-1.7-3.6-2.5-7.7-2.5-12.4c0-5,1-9.8,3-14.2c2-4.4,4.6-8.3,7.9-11.7
		c3.3-3.4,7.2-6,11.6-7.9c4.5-1.9,9.2-2.9,14.3-2.9s9.8,1,14.3,2.9c4.5,1.9,8.4,4.6,11.8,7.9c3.4,3.4,6,7.3,7.9,11.7
		c1.9,4.4,2.9,9.2,2.9,14.2H501c0-2-0.8-3.7-2.3-5.2c-1.6-1.5-3.4-2.2-5.4-2.2c-2,0-3.8,0.8-5.2,2.2c-1.4,1.5-2.2,3.3-2.2,5.3
		c0,3.1,1.3,5.3,4,6.6c5.2,2.8,10.4,5.3,15.8,7.6s10.3,5.1,14.7,8.4c4.5,3.2,8.1,7.2,10.9,12c2.8,4.8,4.2,11,4.2,18.5
		c0,5.8-1.1,11.2-3.3,16.4c-2.2,5.2-5.2,9.6-9,13.4c-3.8,3.8-8.3,6.8-13.4,9c-5.2,2.2-10.6,3.3-16.4,3.3s-11.2-1.1-16.3-3.3
		c-5.1-2.2-9.5-5.2-13.3-9c-3.8-3.8-6.8-8.2-9-13.4c-2.2-5.2-3.3-10.6-3.3-16.4H480.9z"/>
	<path class="st1" d="M612.3,288.5c0,3.5,1.2,6.5,3.7,9c2.5,2.5,5.4,3.8,8.9,3.8c3.5,0,6.5-1.3,9-3.8c2.5-2.5,3.8-5.5,3.8-9
		c0-2.3-0.6-4.3-1.7-6.1c-1.1-1.8-2.6-3.4-4.2-4.7c-1.7-1.2-3.9-2.5-6.7-3.8c-2.8-1.3-5.8-2.8-9-4.3c-3.2-1.6-6.5-3.4-9.9-5.4
		c-3.4-2-6.4-4.4-9.1-7.1c-2.7-2.7-4.9-5.9-6.6-9.5c-1.7-3.6-2.5-7.7-2.5-12.4c0-5,1-9.8,3-14.2c2-4.4,4.6-8.3,7.9-11.7
		c3.3-3.4,7.2-6,11.6-7.9c4.5-1.9,9.2-2.9,14.3-2.9s9.8,1,14.3,2.9c4.5,1.9,8.4,4.6,11.8,7.9c3.4,3.4,6,7.3,7.9,11.7
		c1.9,4.4,2.9,9.2,2.9,14.2h-29.2c0-2-0.8-3.7-2.3-5.2c-1.6-1.5-3.4-2.2-5.4-2.2c-2,0-3.8,0.8-5.2,2.2c-1.4,1.5-2.2,3.3-2.2,5.3
		c0,3.1,1.3,5.3,4,6.6c5.2,2.8,10.4,5.3,15.8,7.6s10.3,5.1,14.7,8.4s8.1,7.2,10.9,12c2.8,4.8,4.2,11,4.2,18.5
		c0,5.8-1.1,11.2-3.3,16.4c-2.2,5.2-5.2,9.6-9,13.4c-3.8,3.8-8.3,6.8-13.4,9c-5.2,2.2-10.6,3.3-16.4,3.3c-5.8,0-11.2-1.1-16.3-3.3
		c-5.1-2.2-9.5-5.2-13.3-9c-3.8-3.8-6.8-8.2-9-13.4c-2.2-5.2-3.3-10.6-3.3-16.4H612.3z"/>
	<path class="st1" d="M707.3,198.5h29.3v132.1h-29.3V198.5z M736.6,161.6V191h-29.2v-29.3H736.6z"/>
	<path class="st1" d="M837.1,330.6c-9.1,0-17.7-1.7-25.6-5.2c-8-3.5-15-8.2-21-14.1c-6-5.9-10.7-12.9-14.2-21
		c-3.5-8-5.2-16.6-5.2-25.7c0-9.1,1.7-17.7,5.2-25.7c3.5-8,8.2-15,14.2-21c6-5.9,13-10.6,21-14.1c8-3.5,16.5-5.2,25.6-5.2
		c9.1,0,17.7,1.7,25.7,5.2c8,3.5,15,8.2,21,14.1c5.9,5.9,10.6,12.9,14.1,21c3.5,8,5.2,16.6,5.2,25.7c0,9.1-1.7,17.7-5.2,25.7
		c-3.5,8-8.2,15-14.1,21c-5.9,5.9-12.9,10.7-21,14.1C854.8,328.9,846.2,330.6,837.1,330.6z M800.4,264.6c0,5,1,9.8,2.9,14.2
		c1.9,4.4,4.5,8.3,7.8,11.7c3.3,3.4,7.2,6,11.6,7.9c4.5,1.9,9.2,2.9,14.3,2.9c5.1,0,9.8-1,14.3-2.9c4.4-1.9,8.4-4.6,11.7-7.9
		c3.4-3.4,6-7.3,7.9-11.7c1.9-4.4,2.9-9.2,2.9-14.2s-1-9.8-2.9-14.2c-1.9-4.4-4.6-8.3-7.9-11.7c-3.4-3.4-7.3-6-11.7-7.9
		c-4.4-1.9-9.2-2.9-14.3-2.9c-5.1,0-9.8,1-14.3,2.9c-4.4,1.9-8.3,4.6-11.6,7.9c-3.3,3.4-5.9,7.3-7.8,11.7
		C801.3,254.8,800.4,259.5,800.4,264.6z M817.1,264.6c0-2.8,0.5-5.4,1.6-7.8c1.1-2.5,2.5-4.6,4.3-6.4c1.8-1.8,3.9-3.2,6.3-4.3
		c2.4-1.1,5-1.6,7.7-1.6c2.8,0,5.4,0.5,7.8,1.6c2.5,1.1,4.6,2.5,6.4,4.3c1.8,1.8,3.2,3.9,4.3,6.4c1.1,2.5,1.6,5.1,1.6,7.8
		c0,2.8-0.5,5.3-1.6,7.7c-1.1,2.4-2.5,4.5-4.3,6.3c-1.8,1.8-3.9,3.2-6.4,4.3c-2.5,1.1-5.1,1.6-7.8,1.6c-2.8,0-5.3-0.5-7.7-1.6
		c-2.4-1.1-4.5-2.5-6.3-4.3s-3.2-3.9-4.3-6.3C817.6,269.9,817.1,267.3,817.1,264.6z"/>
	<path class="st1" d="M932.5,234.3c3.1-7.1,7.3-13.3,12.6-18.6c5.3-5.3,11.5-9.5,18.6-12.6c7.1-3.1,14.7-4.6,22.8-4.6
		c8.2,0,15.8,1.5,23,4.6c7.1,3.1,13.4,7.3,18.7,12.6c5.3,5.3,9.5,11.6,12.6,18.6c3.1,7.1,4.6,14.6,4.6,22.7v73.6H1016v-73.5
		c0-4-0.8-7.7-2.3-11.3c-1.6-3.6-3.7-6.7-6.3-9.3c-2.6-2.6-5.8-4.7-9.4-6.3c-3.6-1.6-7.5-2.3-11.6-2.3c-4.1,0-7.9,0.8-11.5,2.3
		c-3.5,1.6-6.6,3.7-9.3,6.3c-2.6,2.6-4.7,5.7-6.2,9.3c-1.5,3.6-2.3,7.4-2.3,11.3v73.5h-29.3V257C927.8,249,929.4,241.4,932.5,234.3z
		"/>
</g>
</svg>
